<svg xmlns="http://www.w3.org/2000/svg" width="24" height="24" viewBox="0 0 24 24">
<g stroke="none" stroke-width="1" fill="none" fill-rule="evenodd">
<path d="M20.0088,13.7993 C20.0088,14.4163 19.4468,14.9193 18.7568,14.9193 L18.5268,14.9193 C18.2068,13.9613 17.2778,13.2603 16.1688,13.2603 C15.0608,13.2603 14.1308,13.9613 13.8118,14.9193 L10.1838,14.9193 C9.8648,13.9613 8.9358,13.2603 7.8278,13.2603 C6.7168,13.2603 5.7848,13.9653 5.4678,14.9263 L5.2428,14.9193 C4.5528,14.9193 3.9908,14.4163 3.9908,13.7993 L3.9908,12.4513 C3.9908,11.8343 4.5528,11.3313 5.2428,11.3313 L17.5298,11.3313 C18.8968,11.3313 20.0088,12.3393 20.0088,13.5773 L20.0088,13.7993 Z M16.1688,16.5773 C15.6218,16.5773 15.1758,16.1533 15.1758,15.6303 C15.1758,15.1083 15.6218,14.6833 16.1688,14.6833 C16.7168,14.6833 17.1618,15.1083 17.1618,15.6303 C17.1618,16.1533 16.7168,16.5773 16.1688,16.5773 L16.1688,16.5773 Z M7.8278,16.5773 C7.2798,16.5773 6.8348,16.1533 6.8348,15.6303 C6.8348,15.1083 7.2798,14.6833 7.8278,14.6833 C8.3748,14.6833 8.8198,15.1083 8.8198,15.6303 C8.8198,16.1533 8.3748,16.5773 7.8278,16.5773 L7.8278,16.5773 Z M8.0868,8.1003 C8.3188,7.6883 8.8348,7.4223 9.4008,7.4223 L10.3708,7.4223 L10.3708,9.8793 L7.0868,9.8793 L8.0868,8.1003 Z M13.9628,7.9303 L15.6068,9.8793 L11.8628,9.8793 L11.8628,7.4223 L12.7668,7.4223 C13.2458,7.4223 13.6938,7.6123 13.9628,7.9303 L13.9628,7.9303 Z M17.5458,9.9103 L15.1238,7.0393 C14.5738,6.3883 13.6938,6.0003 12.7668,6.0003 L9.4008,6.0003 C8.2758,6.0003 7.2688,6.5473 6.7728,7.4273 L5.3778,9.9093 L5.2428,9.9093 C3.7308,9.9093 2.4998,11.0493 2.4998,12.4513 L2.4998,13.7993 C2.4998,15.2003 3.7298,16.3413 5.2158,16.3413 L5.2168,16.3413 L5.4728,16.3503 C5.7948,17.3033 6.7228,17.9993 7.8278,17.9993 C8.9358,17.9993 9.8648,17.2993 10.1838,16.3413 L13.8118,16.3413 C14.1308,17.2993 15.0608,17.9993 16.1688,17.9993 C17.2778,17.9993 18.2068,17.2993 18.5268,16.3413 L18.7568,16.3413 C20.2698,16.3413 21.4998,15.2003 21.4998,13.7993 L21.4998,13.5773 C21.4998,11.5593 19.7278,9.9193 17.5458,9.9103 L17.5458,9.9103 Z" id="car" fill="currentColor" fill-rule="nonzero"></path>
</g>
</svg>