<svg width="24" height="24" viewBox="0 0 24 24" fill="none" xmlns="http://www.w3.org/2000/svg">
<path id="common" fill="currentColor" d="M19.209 16.6304H16.341C15.713 14.6884 14.231 13.1274 12.34 12.3804C12.736 12.0164 13.061 11.5764 13.272 11.0724C13.565 11.0234 13.863 10.9904 14.164 10.9904C17.115 10.9904 19.516 13.3834 19.516 16.3244C19.516 16.4934 19.378 16.6304 19.209 16.6304ZM14.881 19.0204H4.791C4.622 19.0204 4.485 18.8834 4.485 18.7144C4.485 15.7744 6.885 13.3804 9.835 13.3804C12.786 13.3804 15.186 15.7744 15.186 18.7144C15.186 18.8834 15.049 19.0204 14.881 19.0204ZM9.804 7.37043C11.057 7.37043 12.076 8.38643 12.076 9.63543C12.076 10.8844 11.057 11.9014 9.804 11.9014C8.551 11.9014 7.531 10.8844 7.531 9.63543C7.531 8.38643 8.551 7.37043 9.804 7.37043ZM14.133 4.98043C15.385 4.98043 16.404 5.99643 16.404 7.24543C16.404 8.49443 15.385 9.51043 14.133 9.51043C13.929 9.51043 13.731 9.47643 13.54 9.42443C13.473 8.25143 12.872 7.22043 11.964 6.58043C12.252 5.64843 13.127 4.98043 14.133 4.98043ZM16.668 9.99043C17.414 9.30543 17.89 8.33343 17.89 7.24543C17.89 5.18043 16.204 3.50043 14.133 3.50043C12.531 3.50043 11.131 4.52643 10.603 5.97943C10.345 5.92343 10.079 5.89043 9.804 5.89043C7.732 5.89043 6.047 7.56943 6.047 9.63543C6.047 10.7324 6.531 11.7114 7.287 12.3974C4.778 13.4064 3 15.8564 3 18.7144C3 19.6994 3.803 20.5004 4.791 20.5004H14.881C15.867 20.5004 16.671 19.6994 16.671 18.7144C16.671 18.5104 16.657 18.3104 16.64 18.1094H19.209C20.197 18.1094 21 17.3104 21 16.3244C21 13.4484 19.201 10.9894 16.668 9.99043Z"/>
</svg>
