<svg width="24" height="24" viewBox="0 0 24 24" version="1.1" xmlns="http://www.w3.org/2000/svg" xmlns:xlink="http://www.w3.org/1999/xlink">
    <g stroke="none" stroke-width="1" fill="none" fill-rule="evenodd">
        <path d="M14.833,8.617 C14.611,8.959 14.717,9.411 15.069,9.627 L17.999,11.418 C18.123,11.494 18.262,11.53 18.399,11.53 C18.649,11.53 18.895,11.409 19.039,11.188 L20.884,8.345 C21.105,8.002 20.999,7.55 20.646,7.334 C20.295,7.119 19.828,7.221 19.606,7.563 L18.781,8.836 C17.486,5.927 14.545,4 11.239,4 C6.696,4 3,7.589 3,12 C3,16.411 6.696,20 11.239,20 C14.805,20 17.95,17.792 19.065,14.504 C19.196,14.121 18.98,13.706 18.585,13.58 C18.196,13.452 17.763,13.662 17.633,14.047 C16.722,16.732 14.152,18.534 11.239,18.534 C7.528,18.534 4.508,15.603 4.508,12 C4.508,8.396 7.528,5.465 11.239,5.465 C13.891,5.465 16.255,6.981 17.342,9.285 L15.873,8.387 C15.521,8.171 15.055,8.275 14.833,8.617" id="update" fill="currentColor" fill-rule="nonzero"/>
    </g>
</svg>