<?xml version="1.0" encoding="UTF-8"?><svg id="Lag_1" xmlns="http://www.w3.org/2000/svg" viewBox="0 0 240 150"><defs><style>.cls-1{fill:#f6f6f6;}.cls-2{fill:#00e89a;}.cls-3{fill:#8e8e8e;}.cls-4{fill:#d1d1d1;}</style></defs><g><g><path id="Path_25" class="cls-3" d="m120,82.98c-4.36,0-7.89-3.53-7.89-7.89,0-4.36,3.53-7.89,7.89-7.89s7.89,3.53,7.89,7.89h0c0,4.36-3.53,7.89-7.89,7.89"/><path id="Path_25-2" class="cls-3" d="m120,83.06c-4.4,0-7.97-3.57-7.97-7.97,0-4.4,3.57-7.97,7.97-7.97s7.97,3.57,7.97,7.97h0c0,4.4-3.57,7.97-7.97,7.97"/></g><path id="Path_25-3" class="cls-4" d="m120,81.55c-3.57,0-6.46-2.89-6.46-6.46,0-3.57,2.89-6.46,6.46-6.46s6.46,2.89,6.46,6.46h0c0,3.57-2.89,6.46-6.46,6.46"/></g><g><g><path id="Path_25-4" class="cls-4" d="m120,57.86c-4.36,0-7.89-3.53-7.89-7.89,0-4.36,3.53-7.89,7.89-7.89s7.89,3.53,7.89,7.89h0c0,4.36-3.53,7.89-7.89,7.89"/><path id="Path_25-5" class="cls-4" d="m120,57.94c-4.4,0-7.97-3.57-7.97-7.97,0-4.4,3.57-7.97,7.97-7.97s7.97,3.57,7.97,7.97h0c0,4.4-3.57,7.97-7.97,7.97"/></g><path id="Path_25-6" class="cls-2" d="m120,56.44c-3.57,0-6.46-2.89-6.46-6.46,0-3.57,2.89-6.46,6.46-6.46s6.46,2.89,6.46,6.46h0c0,3.57-2.89,6.46-6.46,6.46"/></g><g><path id="Path_25-7" class="cls-4" d="m120,107.92c-4.36,0-7.89-3.53-7.89-7.89,0-4.36,3.53-7.89,7.89-7.89s7.89,3.53,7.89,7.89h0c0,4.36-3.53,7.89-7.89,7.89"/><path id="Path_25-8" class="cls-4" d="m120,108c-4.4,0-7.97-3.57-7.97-7.97,0-4.4,3.57-7.97,7.97-7.97s7.97,3.57,7.97,7.97h0c0,4.4-3.57,7.97-7.97,7.97"/></g><path id="Path_25-9" class="cls-1" d="m120,106.49c-3.57,0-6.46-2.89-6.46-6.46,0-3.57,2.89-6.46,6.46-6.46s6.46,2.89,6.46,6.46h0c0,3.57-2.89,6.46-6.46,6.46"/></svg>