<svg xmlns="http://www.w3.org/2000/svg" width="24" height="24" viewBox="0 0 24 24">
    <path fill="currentColor" id="air-balloon" d="M13.3464,19.3533 C13.3464,19.5133 13.2114,19.6433 13.0474,19.6433 L10.9514,19.6433 C10.7864,19.6433 10.6524,19.5133 10.6524,19.3533 L10.6524,17.6183 L13.3464,17.6183 L13.3464,19.3533 Z M6.8994,9.2763 C6.8994,6.8393 8.1074,5.1973 10.1854,4.6093 C9.4834,6.2193 9.2554,8.6963 9.2554,10.4243 C9.2554,12.7133 9.5974,14.8023 10.1644,16.1513 C10.0964,16.0743 10.0344,16.0023 9.9614,15.9193 C8.7424,14.5473 6.8994,12.4733 6.8994,9.2763 L6.8994,9.2763 Z M11.7524,16.2613 C11.7384,16.2273 11.7344,16.1903 11.7134,16.1583 C11.0714,15.1383 10.6554,12.8893 10.6554,10.4243 C10.6554,6.4933 11.6214,4.5023 11.9744,4.3583 C11.9774,4.3583 11.9814,4.3573 11.9844,4.3573 C12.3764,4.4993 13.3434,6.4903 13.3434,10.4243 C13.3434,13.2743 12.8014,15.3743 12.2634,16.1913 C12.2484,16.2133 12.2464,16.2393 12.2354,16.2613 L11.7524,16.2613 Z M17.1004,9.2763 C17.1004,12.4723 15.2584,14.5463 14.0384,15.9183 C13.9644,16.0023 13.9014,16.0763 13.8314,16.1553 C14.4014,14.8073 14.7434,12.7243 14.7434,10.4243 C14.7434,8.6963 14.5164,6.2193 13.8144,4.6093 C15.8934,5.1973 17.1004,6.8393 17.1004,9.2763 L17.1004,9.2763 Z M18.4994,9.2763 C18.4994,5.4633 15.9484,2.9993 11.9994,2.9993 C8.0514,2.9993 5.4994,5.4633 5.4994,9.2763 C5.4994,12.9773 7.6294,15.3733 8.9014,16.8043 C9.0274,16.9473 9.1424,17.0783 9.2524,17.2053 L9.2524,19.3533 C9.2524,20.2613 10.0144,20.9993 10.9514,20.9993 L13.0474,20.9993 C13.9844,20.9993 14.7464,20.2613 14.7464,19.3533 L14.7464,17.2063 C14.8574,17.0793 14.9724,16.9473 15.1004,16.8033 C16.3714,15.3723 18.4994,12.9763 18.4994,9.2763 L18.4994,9.2763 Z"/>
</svg>