<svg xmlns="http://www.w3.org/2000/svg" width="24" height="24" viewBox="0 0 24 24">
    <path id="see" fill="currentColor" d="M12.3096,6 C17.6836,6.005 20.7746,11.384 20.9026,11.613 C21.0286,11.837 21.0316,12.109 20.9106,12.335 C20.7866,12.567 17.8156,18 12.3376,18 L12.3056,18 C6.2536,17.976 3.2186,12.572 3.0926,12.342 C2.9646,12.109 2.9696,11.827 3.1056,11.599 C3.2416,11.37 6.4976,6 12.3006,6 Z M12.3086,7.5 C8.1776,7.5 5.4486,10.857 4.6426,11.995 C5.4066,13.135 8.0136,16.483 12.3116,16.5 L12.3366,16.5 C16.1626,16.5 18.6456,13.121 19.3696,11.99 C18.6206,10.867 16.0666,7.504 12.3086,7.5 Z M12.2717,9.2961 C13.7447,9.2961 14.9437,10.5091 14.9437,12.0001 C14.9437,13.4911 13.7447,14.7041 12.2717,14.7041 C10.7977,14.7041 9.5997,13.4911 9.5997,12.0001 C9.5997,10.5091 10.7977,9.2961 12.2717,9.2961 Z M12.2717,10.7961 C11.6257,10.7961 11.0997,11.3361 11.0997,12.0001 C11.0997,12.6641 11.6257,13.2041 12.2717,13.2041 C12.9177,13.2041 13.4437,12.6641 13.4437,12.0001 C13.4437,11.3361 12.9177,10.7961 12.2717,10.7961 Z"/>
</svg>