<?xml version="1.0" encoding="UTF-8"?>
<svg id="Lag_1" data-name="Lag 1" xmlns="http://www.w3.org/2000/svg" viewBox="0 0 240 150">
  <defs>
    <style>
      .cls-1 {
        fill: #f6f6f6;
      }

      .cls-2 {
        fill: #00e89a;
      }

      .cls-3 {
        fill: #d1d1d1;
      }
    </style>
  </defs>
  <g>
    <rect class="cls-3" x="108.87" y="59.66" width="22.26" height="13" rx="5" ry="5"/>
    <path id="Path_25" data-name="Path 25" class="cls-2" d="M120.37,66.16c0,2.76-2.24,5-5,5s-5-2.24-5-5,2.24-5,5-5h0c2.76,0,5,2.24,5,5"/>
  </g>
  <g>
    <rect class="cls-3" x="108.87" y="77.34" width="22.26" height="13" rx="5" ry="5" transform="translate(240 167.67) rotate(-180)"/>
    <path id="Path_25-2" data-name="Path 25" class="cls-1" d="M119.63,83.84c0,2.76,2.24,5,5,5s5-2.24,5-5-2.24-5-5-5h0c-2.76,0-5,2.24-5,5"/>
  </g>
</svg>