<?xml version="1.0" encoding="UTF-8"?>
<svg width="24px" height="24px" viewBox="0 0 24 24" version="1.1" xmlns="http://www.w3.org/2000/svg" xmlns:xlink="http://www.w3.org/1999/xlink">
    <!-- Generator: Sketch 55.1 (78136) - https://sketchapp.com -->
    <g id="Formue" stroke="none" stroke-width="1" fill="none" fill-rule="evenodd">
        <path d="M17.1298,19.4593 C19.0658,18.6533 19.5198,17.0493 18.5208,14.5573 C17.4878,11.9843 15.4628,8.7623 12.8378,7.3293 L10.9998,7.3293 C8.4368,8.7343 5.7358,12.7213 5.1708,15.1783 C4.6068,17.6273 5.1508,19.0203 6.9328,19.6943 C10.0428,20.8763 13.9488,20.7833 17.1298,19.4593 Z M10.3988,3.6813 C10.0248,3.5263 9.8758,3.4783 9.7788,3.5073 C9.7938,3.8993 10.4128,4.9423 11.1578,5.8453 L12.6648,5.8453 C13.3778,4.9213 13.9358,3.8733 13.9088,3.4883 C13.7648,3.5103 13.5018,3.6063 13.3168,3.6743 C12.9088,3.8223 12.4018,4.0083 11.8508,4.0243 C11.2608,4.0423 10.7868,3.8413 10.3988,3.6813 Z M19.8728,13.9963 C21.6448,18.4133 19.2618,20.1753 17.6838,20.8333 C15.8198,21.6093 13.7278,22.0003 11.6588,22.0003 C9.8368,22.0003 8.0338,21.6973 6.4218,21.0873 C3.9128,20.1353 3.0128,18.0333 3.7488,14.8393 C4.3648,12.1623 6.9478,8.2333 9.7108,6.3923 C9.0608,5.5443 8.2138,4.2333 8.3328,3.2633 C8.3818,2.8633 8.5848,2.5223 8.9038,2.3043 C9.6718,1.7773 10.4098,2.0833 10.9498,2.3063 C11.2498,2.4313 11.5328,2.5453 11.8088,2.5413 C12.1268,2.5313 12.4808,2.4023 12.8218,2.2773 C13.4758,2.0393 14.3708,1.7113 15.0228,2.4843 C15.8898,3.5133 14.9218,5.2563 14.1018,6.3883 C16.7808,8.1293 18.8188,11.3703 19.8728,13.9963 Z M10.4725,14.6419 L12.0685,17.0319 C12.2955,17.3709 12.2085,17.8309 11.8745,18.0619 C11.7485,18.1489 11.6065,18.1909 11.4645,18.1909 C11.2305,18.1909 11.0015,18.0769 10.8605,17.8649 L9.4195,15.7079 L9.2615,15.8699 L9.2615,17.4489 C9.2615,17.8579 8.9345,18.1909 8.5315,18.1909 C8.1275,18.1909 7.8005,17.8579 7.8005,17.4489 L7.8005,15.5599 L7.8005,12.6249 C7.8005,12.2159 8.1275,11.8828994 8.5315,11.8828994 C8.9345,11.8828994 9.2615,12.2159 9.2615,12.6249 L9.2615,13.7719 L10.9115,12.0999 C11.1975,11.8099 11.6605,11.8109 11.9445,12.1009 C12.2295,12.3919 12.2285,12.8619 11.9435,13.1519 L10.4725,14.6419 Z M14.1093,13.3675 L14.1093,14.2945 L14.7383,14.2945 C14.9903,14.2945 15.1943,14.0875 15.1943,13.8305 C15.1943,13.5755 14.9903,13.3675 14.7383,13.3675 L14.1093,13.3675 Z M15.9623,15.3175 L16.9633,17.0775 C17.1643,17.4315 17.0453,17.8865 16.6953,18.0915 C16.5803,18.1585 16.4553,18.1905 16.3313,18.1905 C16.0783,18.1905 15.8333,18.0575 15.6973,17.8195 L14.5373,15.7785 L14.1093,15.7785 L14.1093,17.4485 C14.1093,17.8575 13.7823,18.1905 13.3793,18.1905 C12.9753,18.1905 12.6483,17.8575 12.6483,17.4485 L12.6483,15.0365 L12.6483,12.6255 C12.6483,12.2155 12.9753,11.8835 13.3793,11.8835 L14.7383,11.8835 C15.7963,11.8835 16.6553,12.7575 16.6553,13.8305 C16.6553,14.4295 16.3813,14.9605 15.9623,15.3175 Z" id="icon-color" fill="currentColor" fill-rule="nonzero"></path>
    </g>
</svg>
