<svg width="24px" height="24px" viewBox="0 0 24 24" version="1.1" xmlns="http://www.w3.org/2000/svg" xmlns:xlink="http://www.w3.org/1999/xlink">
    <g stroke="none" stroke-width="1" fill="none" fill-rule="evenodd">
        <path d="M11.5317296,3 C13.0750257,3 14.3461418,4.16534108 14.5131327,5.66407798 C16.887757,6.78396545 18.5317296,9.19999754 18.5317296,12 L18.5317296,14.6923077 C18.5317296,15.7009539 18.6924304,16.7015103 19.013832,17.6939771 C19.1846179,18.2191944 18.8956803,18.7825885 18.369978,18.9518681 C18.2720253,18.9834095 18.169791,18.9996427 18.0668859,19 L15.4055161,19.0007613 C14.9612086,20.7256022 13.3952949,22 11.5317296,22 C9.66816437,22 8.10225066,20.7256022 7.65794314,19.0007613 L4.99657336,19 C4.44429189,18.9980983 3.99811616,18.5488488 4.00000598,17.9965673 C4.00036618,17.8933899 4.01668612,17.7908888 4.04962722,17.6931019 C4.37102882,16.7002642 4.53172961,15.6999995 4.53172961,14.6923077 L4.53172961,12 C4.53172961,9.20039235 6.17523862,6.78464679 8.55006748,5.66495249 C8.71675396,4.16585769 9.98809146,3 11.5317296,3 Z M13.8233449,19.00083 L9.24011429,19.00083 C9.62608199,19.8833391 10.5068914,20.5 11.5317296,20.5 C12.5565679,20.5 13.4373772,19.8833391 13.8233449,19.00083 Z M11.5317296,6.5 C8.49416349,6.5 6.03172961,8.96243388 6.03172961,12 L6.03172961,14.6923077 C6.03172961,15.5667853 5.92725834,16.4356749 5.7168767,17.3038474 L5.66472961,17.5 L17.3967296,17.5 L17.3442525,17.2978469 C17.1708773,16.5802827 17.069431,15.8570312 17.0404315,15.1294009 L17.0317296,14.6923077 L17.0317296,12 C17.0317296,8.96243388 14.5692957,6.5 11.5317296,6.5 Z M11.5317296,4.5 C11.0396335,4.5 10.6028835,4.73696514 10.3293636,5.10301147 C10.7205284,5.03519926 11.1220184,5 11.5317296,5 C11.9414714,5 12.3429908,5.03520451 12.733428,5.10275381 C12.4605757,4.73696514 12.0238258,4.5 11.5317296,4.5 Z" id="notification" fill="currentColor" fill-rule="nonzero"></path>
    </g>
</svg>