<?xml version="1.0" encoding="UTF-8"?>
<svg id="Lag_1" data-name="Lag 1" xmlns="http://www.w3.org/2000/svg" viewBox="0 0 240 150">
  <defs>
    <style>
      .cls-1 {
        fill: #d1d1d1;
      }

      .cls-2 {
        stroke: #8e8e8e;
        stroke-linecap: round;
      }

      .cls-2, .cls-3 {
        fill: none;
        stroke-miterlimit: 10;
      }

      .cls-3 {
        stroke: #d1d1d1;
        stroke-width: .75px;
      }
    </style>
  </defs>
  <path id="Path_129" data-name="Path 129" class="cls-1" d="M142.56,50.11H67.4c-1.95,0-3.52-1.58-3.52-3.52v-3.52c0-1.95,1.58-3.52,3.52-3.52h75.16c1.95,0,3.53,1.58,3.53,3.52h0v3.52c0,1.95-1.58,3.52-3.53,3.52h0"/>
  <g id="Group_17" data-name="Group 17">
    <line id="Line_17" data-name="Line 17" class="cls-2" x1="171.79" y1="46.67" x2="174.98" y2="43.54"/>
    <line id="Line_18" data-name="Line 18" class="cls-2" x1="171.74" y1="46.67" x2="168.54" y2="43.54"/>
  </g>
  <line id="Line_20" data-name="Line 20" class="cls-3" x1="64.38" y1="58.04" x2="175.38" y2="58.04"/>
  <path id="Path_129-2" data-name="Path 129-2" class="cls-1" d="M142.56,76.54H67.4c-1.95,0-3.52-1.58-3.52-3.52v-3.52c0-1.95,1.58-3.52,3.52-3.52h75.16c1.95,0,3.53,1.58,3.53,3.52h0v3.52c0,1.95-1.58,3.52-3.53,3.52h0"/>
  <g id="Group_17-2" data-name="Group 17-2">
    <line id="Line_17-2" data-name="Line 17-2" class="cls-2" x1="171.79" y1="73.1" x2="174.98" y2="69.96"/>
    <line id="Line_18-2" data-name="Line 18-2" class="cls-2" x1="171.74" y1="73.1" x2="168.54" y2="69.96"/>
  </g>
  <line id="Line_21" data-name="Line 21" class="cls-3" x1="64.38" y1="84.46" x2="175.38" y2="84.46"/>
  <path id="Path_129-3" data-name="Path 129-3" class="cls-1" d="M142.56,102.96H67.4c-1.95,0-3.52-1.58-3.52-3.52v-3.52c0-1.95,1.58-3.52,3.52-3.52h75.16c1.95,0,3.53,1.58,3.53,3.52h0v3.52c0,1.95-1.58,3.52-3.53,3.52h0"/>
  <g id="Group_17-3" data-name="Group 17-3">
    <line id="Line_17-3" data-name="Line 17-3" class="cls-2" x1="171.79" y1="99.52" x2="174.98" y2="96.39"/>
    <line id="Line_18-3" data-name="Line 18-3" class="cls-2" x1="171.74" y1="99.52" x2="168.54" y2="96.39"/>
  </g>
  <line id="Line_22" data-name="Line 22" class="cls-3" x1="64.38" y1="110.89" x2="175.38" y2="110.89"/>
</svg>