<?xml version="1.0" encoding="UTF-8"?><svg id="Lag_1" xmlns="http://www.w3.org/2000/svg" viewBox="0 0 240 150"><defs><style>.cls-1{fill:#00e89a;}.cls-2{fill:#d1d1d1;}</style></defs><path class="cls-2" d="M120,102c-14.89,0-27-12.11-27-27s12.11-27,27-27,27,12.11,27,27-12.11,27-27,27Zm0-47.41c-11.26,0-20.41,9.16-20.41,20.41s9.16,20.41,20.41,20.41,20.41-9.16,20.41-20.41-9.16-20.41-20.41-20.41Z"/><path class="cls-1" d="M120,48v6.59c11.25,0,20.41,9.16,20.41,20.41s-9.16,20.41-20.41,20.41c-7.94,0-14.84-4.56-18.21-11.2h-7.17c3.78,10.37,13.73,17.78,25.38,17.78,14.89,0,27-12.11,27-27s-12.11-27-27-27Z"/></svg>