<svg xmlns="http://www.w3.org/2000/svg" width="24" height="24" viewBox="0 0 24 24">
<path id="upload" fill="currentColor" d="M19.2485576,11.2337651 C19.627277,11.2337651 19.9402653,11.5153654 19.9898,11.8807228 L19.996629,11.9822937 L20,15.7535462 C20,17.7847469 18.7862916,18.9225903 16.6438138,18.9961896 L16.4188768,19 L7.61434657,19 C5.38831983,19 4.08853871,17.9319212 4.00436,15.9606824 L4,15.7535462 L4,11.9822937 C4,11.5688928 4.33492296,11.2337651 4.74807137,11.2337651 C5.12679074,11.2337651 5.43977901,11.5153654 5.48931373,11.8807228 L5.49614274,11.9822937 L5.49614274,15.7535462 C5.49614274,16.9273155 6.04445329,17.4561952 7.42141628,17.4999659 L7.61434657,17.5029427 L16.4188768,17.5029427 C17.8490058,17.5029427 18.450855,17.0271115 18.5004863,15.9098862 L18.5038573,15.7535462 L18.5004863,11.9822937 C18.5004863,11.5688928 18.8354092,11.2337651 19.2485576,11.2337651 Z M12.5317459,5.2118336 L15.4502216,8.045264 C15.7484527,8.33469507 15.7434656,8.79878282 15.4382525,9.08222567 C15.2886382,9.22195101 15.0931422,9.29181368 14.8986437,9.29181368 C14.6981605,9.29181368 14.4976774,9.21795886 14.3460683,9.07124725 L12.7791081,7.54923902 L12.7791081,14.9906802 C12.7791081,15.3948857 12.4330004,15.7232402 12.006101,15.7232402 C11.5801991,15.7232402 11.2340914,15.3948857 11.2340914,14.9906802 L11.2340914,7.49833907 L9.66014924,9.02633553 C9.35892584,9.31776268 8.8711833,9.31975875 8.56796504,9.03731395 C8.26374935,8.75387111 8.25776478,8.28978335 8.5559959,8.00035228 L11.42859,5.2118336 C11.7188416,4.9293888 12.2414942,4.9293888 12.5317459,5.2118336 Z"/></svg>