<svg xmlns="http://www.w3.org/2000/svg" width="24" height="24" viewBox="0 0 24 24">
<path id="phone-device" fill="currentColor" d="M15,3.5 C16.1045695,3.5 17,4.3954305 17,5.5 L17,18.5 C17,19.6045695 16.1045695,20.5 15,20.5 L9,20.5 C7.8954305,20.5 7,19.6045695 7,18.5 L7,5.5 C7,4.3954305 7.8954305,3.5 9,3.5 L15,3.5 Z M15,5 L9,5 C8.72385763,5 8.5,5.22385763 8.5,5.5 L8.5,18.5 C8.5,18.7761424 8.72385763,19 9,19 L15,19 C15.2761424,19 15.5,18.7761424 15.5,18.5 L15.5,5.5 C15.5,5.22385763 15.2761424,5 15,5 Z M12,16 C12.5522847,16 13,16.4477153 13,17 C13,17.5522847 12.5522847,18 12,18 C11.4477153,18 11,17.5522847 11,17 C11,16.4477153 11.4477153,16 12,16 Z"/></svg>