<svg xmlns="http://www.w3.org/2000/svg" width="24" height="24" viewBox="0 0 24 24">
<g stroke="none" stroke-width="1" fill="none" fill-rule="evenodd">
<path d="M15.0175122,2.25 C15.9356856,2.25 16.6887045,2.95711027 16.761711,3.85647279 L16.7675122,4 L16.7666667,5.75 L19.3333333,5.75 C20.7958652,5.75 21.9917376,6.8917046 22.0783145,8.33247767 L22.0833333,8.5 L22.0833333,18.5 C22.0833333,19.9625318 20.9416287,21.1584043 19.5008557,21.2449812 L19.3333333,21.25 L4.66666667,21.25 C3.20413483,21.25 2.00826239,20.1082954 1.92168546,18.6675223 L1.91666667,18.5 L1.91666667,8.5 C1.91666667,7.03746816 3.05837126,5.84159572 4.49914434,5.75501879 L4.66666667,5.75 L7.26666667,5.75 L7.26751219,4 C7.26751219,3.0818266 7.97462246,2.32880766 8.87398498,2.2558012 L9.01751219,2.25 L15.0175122,2.25 Z M19.3333333,7.25 L4.66666667,7.25 C4.01945798,7.25 3.48713277,7.74187466 3.42312028,8.37219476 L3.41666667,8.5 L3.41666667,18.5 C3.41666667,19.1472087 3.90854133,19.6795339 4.53886143,19.7435464 L4.66666667,19.75 L19.3333333,19.75 C19.980542,19.75 20.5128672,19.2581253 20.5768797,18.6278052 L20.5833333,18.5 L20.5833333,8.5 C20.5833333,7.80964406 20.0236893,7.25 19.3333333,7.25 Z M12.5,8.75 C13.4664983,8.75 14.25,9.53350169 14.25,10.5 L14.25,10.5 L14.25,11.25 L15,11.25 C15.9181734,11.25 16.6711923,11.9571103 16.7441988,12.8564728 L16.7441988,12.8564728 L16.75,13 L16.75,14 C16.75,14.9664983 15.9664983,15.75 15,15.75 L15,15.75 L14.25,15.75 L14.25,16.5 C14.25,17.4181734 13.5428897,18.1711923 12.6435272,18.2441988 L12.6435272,18.2441988 L12.5,18.25 L11.5,18.25 C10.5335017,18.25 9.75,17.4664983 9.75,16.5 L9.75,16.5 L9.75,15.75 L9,15.75 C8.0818266,15.75 7.32880766,15.0428897 7.2558012,14.1435272 L7.2558012,14.1435272 L7.25,14 L7.25,13 C7.25,12.0335017 8.03350169,11.25 9,11.25 L9,11.25 L9.75,11.249 L9.75,10.5 C9.75,9.5818266 10.4571103,8.82880766 11.3564728,8.7558012 L11.3564728,8.7558012 L11.5,8.75 Z M12.5,10.25 L11.5,10.25 C11.3619288,10.25 11.25,10.3619288 11.25,10.5 L11.25,10.5 L11.25,12.75 L9,12.75 C8.86192881,12.75 8.75,12.8619288 8.75,13 L8.75,13 L8.75,14 C8.75,14.1380712 8.86192881,14.25 9,14.25 L9,14.25 L11.25,14.25 L11.25,16.5 C11.25,16.6380712 11.3619288,16.75 11.5,16.75 L11.5,16.75 L12.5,16.75 C12.6380712,16.75 12.75,16.6380712 12.75,16.5 L12.75,16.5 L12.75,14.25 L15,14.25 C15.1380712,14.25 15.25,14.1380712 15.25,14 L15.25,14 L15.25,13 C15.25,12.8619288 15.1380712,12.75 15,12.75 L15,12.75 L12.75,12.75 L12.75,10.5 C12.75,10.3619288 12.6380712,10.25 12.5,10.25 L12.5,10.25 Z M15.0175122,3.75 L9.01751219,3.75 C8.89916546,3.75 8.80002537,3.83223341 8.77411487,3.94267729 L8.76751219,4 L8.76666667,5.75 L15.2666667,5.75 L15.2675122,4 C15.2675122,3.88165327 15.1852788,3.78251318 15.0748349,3.75660268 L15.0175122,3.75 Z" id="illness" fill="currentColor" fill-rule="nonzero"></path>
</g>
</svg>