<?xml version="1.0" encoding="UTF-8"?>
<svg width="24px" height="24px" viewBox="0 0 24 24" version="1.1" xmlns="http://www.w3.org/2000/svg" xmlns:xlink="http://www.w3.org/1999/xlink">
    <!-- Generator: Sketch 55.1 (78136) - https://sketchapp.com -->
    <g id="warring" stroke="none" stroke-width="1" fill="none" fill-rule="evenodd">
        <path d="M12.258,2.5 C12.667,2.5 13,2.832 13,3.241 L13,15.896 C13,16.305 12.667,16.637 12.258,16.637 C11.848,16.637 11.516,16.305 11.516,15.896 L11.516,3.241 C11.516,2.832 11.848,2.5 12.258,2.5 Z M12.241,20.0181 C12.651,20.0181 12.991,20.3501 12.991,20.7591 C12.991,21.1681 12.667,21.4991 12.258,21.4991 L12.241,21.4991 C11.832,21.4991 11.5,21.1681 11.5,20.7591 C11.5,20.3501 11.832,20.0181 12.241,20.0181 Z" id="icon-color" fill="currentColor" fill-rule="nonzero"></path>
    </g>
</svg>
