<?xml version="1.0" encoding="UTF-8"?>
<svg width="24px" height="24px" viewBox="0 0 24 24" version="1.1" xmlns="http://www.w3.org/2000/svg" xmlns:xlink="http://www.w3.org/1999/xlink">
    <!-- Generator: Sketch 57.1 (83088) - https://sketch.com -->
    <title>accounts</title>
    <desc>Created with Sketch.</desc>
    <g id="accounts" stroke="none" stroke-width="1" fill="none" fill-rule="evenodd">
        <path d="M16.4262,4 C17.5322,4 18.4262,5.01 18.4262,6.258 L18.4262,6.258 L18.4262,6.746 L19.0002,6.746 C20.1042,6.746 21.0002,7.647 21.0002,8.759 L21.0002,8.759 L21.0002,10.702 L17.4292,10.702 C15.9662,10.702 14.7792,11.896 14.7792,13.37 L14.7792,13.37 C14.7792,14.849 15.9662,16.044 17.4292,16.044 L17.4292,16.044 L21.0002,16.044 L21.0002,17.986 C21.0002,19.098 20.1042,20 19.0002,20 L19.0002,20 L5.0002,20 C3.8952,20 3.0002,19.098 3.0002,17.986 L3.0002,17.986 L3.0002,6.258 C3.0002,5.01 3.8952,4 5.0002,4 L5.0002,4 Z M20.9994,11.9168 L20.9994,14.8288 L17.4744,14.8288 C16.6904,14.8288 16.0544,14.1768 16.0544,13.3728 C16.0544,12.5678 16.6904,11.9168 17.4744,11.9168 L17.4744,11.9168 L20.9994,11.9168 Z M17.5054,12.6338 C17.1074,12.6338 16.7844,12.9648 16.7844,13.3728 C16.7844,13.7808 17.1074,14.1118 17.5054,14.1118 C17.9034,14.1118 18.2264,13.7808 18.2264,13.3728 C18.2264,12.9648 17.9034,12.6338 17.5054,12.6338 Z M16.2452,5.446 L5.2382,5.446 C4.8732,5.446 4.5732,5.74 4.5732,6.1 C4.5732,6.444 4.8502,6.721 5.1942,6.746 L5.1942,6.746 L16.9732,6.746 L16.9732,6.272 C16.9732,5.748 16.6672,5.446 16.2452,5.446 L16.2452,5.446 Z" id="icon-color" fill="currentColor" fill-rule="nonzero"></path>
    </g>
</svg>
