<?xml version="1.0" encoding="UTF-8"?>
<svg width="24px" height="24px" viewBox="0 0 24 24" version="1.1" xmlns="http://www.w3.org/2000/svg" xmlns:xlink="http://www.w3.org/1999/xlink">
    <!-- Generator: Sketch 55.1 (78136) - https://sketchapp.com -->
    <defs>
        <path d="M19.8893,10.2943 L20.0403,10.2943 C21.5923827,10.2943 22.852721,11.5418269 22.875,13.0876454 L22.875,17.2079543 C22.852721,18.7537554 21.5923827,20.0003 20.0403,20.0003 L9.1503,20.0003 C7.5853,20.0003 6.3163,18.7313 6.3163,17.1663 L6.3163,15.9363 L15.6373,15.9363 C17.9853,15.9363 19.8893,14.0323 19.8893,11.6843 L19.8893,10.2943 Z M18.5589,11.871 C18.5589,13.437 17.2899,14.706 15.7249,14.706 L4.8349,14.706 C3.2689,14.706 1.9999,13.437 1.9999,11.871 L1.9999,7.835 C1.9999,6.269 3.2689,5 4.8349,5 L15.7249,5 C17.2899,5 18.5589,6.269 18.5589,7.835 L18.5589,11.871 Z" id="path-1"></path>
    </defs>
    <g id="accounts" stroke="none" stroke-width="1" fill="none" fill-rule="evenodd">
        <mask id="mask-2" fill="white">
            <use xlink:href="#path-1"></use>
        </mask>
        <use id="icon-color" fill="currentColor" fill-rule="nonzero" xlink:href="#path-1"></use>
    </g>
</svg>
