<?xml version="1.0" encoding="UTF-8"?>
<svg width="24px" height="24px" viewBox="0 0 24 24" version="1.1" xmlns="http://www.w3.org/2000/svg" xmlns:xlink="http://www.w3.org/1999/xlink">
    <!-- Generator: Sketch 55.1 (78136) - https://sketchapp.com -->
    <g id="accounts-outline" stroke="none" stroke-width="1" fill="none" fill-rule="evenodd">
        <path d="M9.537,20 C7.914,20 6.594,18.5880282 6.594,16.8540629 L6.594,16.0770785 C6.594,15.6760865 6.922,15.351093 7.327,15.351093 C7.731,15.351093 8.059,15.6760865 8.059,16.0770785 L8.059,16.8540629 C8.059,17.7880442 8.722,18.548029 9.537,18.548029 L20.058,18.548029 C20.872,18.548029 21.536,17.7880442 21.536,16.8540629 L21.536,13.6031279 C21.536,12.6681466 20.872,11.9071619 20.058,11.9071619 C19.654,11.9071619 19.326,11.5831683 19.326,11.1821764 C19.326,10.7811844 19.654,10.4561909 20.058,10.4561909 C21.68,10.4561909 23,11.8671627 23,13.6031279 L23,16.8540629 C23,18.5880282 21.68,20 20.058,20 L9.537,20 Z M5.057,6.45197096 C4.18,6.45197096 3.465,7.1599568 3.465,8.02893942 L3.465,11.5158697 C3.465,12.3858523 4.18,13.0938381 5.057,13.0938381 L15.351,13.0938381 C16.228,13.0938381 16.942,12.3858523 16.942,11.5158697 L16.942,8.02893942 C16.942,7.1599568 16.228,6.45197096 15.351,6.45197096 L5.057,6.45197096 Z M15.351,14.5448091 L5.057,14.5448091 C3.372,14.5448091 2,13.1858363 2,11.5158697 L2,8.02893942 C2,6.35897282 3.372,5 5.057,5 L15.351,5 C17.036,5 18.407,6.35897282 18.407,8.02893942 L18.407,11.5158697 C18.407,13.1858363 17.036,14.5448091 15.351,14.5448091 Z" id="icon-color" fill="currentColor" fill-rule="nonzero"></path>
    </g>
</svg>
