<?xml version="1.0" encoding="UTF-8"?>
<svg width="24px" height="24px" viewBox="0 0 24 24" version="1.1" xmlns="http://www.w3.org/2000/svg" xmlns:xlink="http://www.w3.org/1999/xlink">
    <!-- Generator: Sketch 55.1 (78136) - https://sketchapp.com -->
    <g id="checkbox" stroke="none" stroke-width="1" fill="none" fill-rule="evenodd">
        <path d="M16.4102,9.6611 L11.6612,15.3631 C11.5022,15.5531 11.2752,15.6511 11.0462,15.6511 C10.8662,15.6511 10.6842,15.5911 10.5342,15.4661 L7.6922,13.0991 C7.3522,12.8151 7.3062,12.3111 7.5892,11.9721 C7.8712,11.6321 8.3762,11.5861 8.7162,11.8691 L10.9442,13.7231 L15.1812,8.6371 C15.4652,8.2961 15.9692,8.2521 16.3082,8.5341 C16.6462,8.8171 16.6932,9.3211 16.4102,9.6611 M16.8002,4.0001 L7.2002,4.0001 C5.4322,4.0001 4.0002,5.4321 4.0002,7.2001 L4.0002,16.8001 C4.0002,18.5671 5.4322,20.0001 7.2002,20.0001 L16.8002,20.0001 C18.5672,20.0001 20.0002,18.5671 20.0002,16.8001 L20.0002,7.2001 C20.0002,5.4321 18.5672,4.0001 16.8002,4.0001" id="icon-color" fill="currentColor" fill-rule="nonzero"></path>
    </g>
</svg>
