<?xml version="1.0" encoding="UTF-8"?>
<svg width="24px" height="24px" viewBox="0 0 24 24" version="1.1" xmlns="http://www.w3.org/2000/svg" xmlns:xlink="http://www.w3.org/1999/xlink">
    <!-- Generator: Sketch 55.1 (78136) - https://sketchapp.com -->
    <g id="close" stroke="none" stroke-width="1" fill="none" fill-rule="evenodd">
        <path d="M13.0996,12 L18.7726,6.328 C19.0766,6.024 19.0766,5.532 18.7726,5.228 C18.4686,4.924 17.9766,4.924 17.6716,5.228 L11.9996,10.9 L6.3276,5.228 C6.0236,4.924 5.5316,4.924 5.2276,5.228 C4.9236,5.532 4.9236,6.024 5.2276,6.328 L10.9006,12 L5.2276,17.672 C4.9236,17.977 4.9236,18.469 5.2276,18.772 C5.3796,18.924 5.5786,19 5.7776,19 C5.9766,19 6.1756,18.924 6.3276,18.772 L11.9996,13.1 L17.6716,18.772 C17.8246,18.924 18.0226,19 18.2226,19 C18.4216,19 18.6206,18.924 18.7726,18.772 C19.0766,18.469 19.0766,17.977 18.7726,17.672 L13.0996,12 Z" id="icon-color" fill="currentColor" fill-rule="nonzero"></path>
    </g>
</svg>
