<?xml version="1.0" encoding="UTF-8"?>
<svg width="24px" height="24px" viewBox="0 0 24 24" version="1.1" xmlns="http://www.w3.org/2000/svg" xmlns:xlink="http://www.w3.org/1999/xlink">
    <!-- Generator: Sketch 57.1 (83088) - https://sketch.com -->
    <title>copy</title>
    <desc>Created with Sketch.</desc>
    <g id="copy" stroke="none" stroke-width="1" fill="none" fill-rule="evenodd">
        <path d="M17.2996,16.981 L9.6046,16.981 C8.9676,16.981 8.4486,16.44 8.4486,15.776 L8.4486,5.689 C8.4486,5.024 8.9676,4.484 9.6046,4.484 L14.9776,4.484 L14.9776,6.836 C14.9776,7.534 15.5706,8.101 16.3006,8.101 L18.4876,8.101 L18.4556,15.776 C18.4556,16.44 17.9366,16.981 17.2996,16.981 L17.2996,16.981 Z M14.3606,19.516 L6.6656,19.516 C6.0286,19.516 5.5096,18.976 5.5096,18.311 L5.5096,8.224 C5.5096,7.56 6.0286,7.02 6.6656,7.02 L6.9396,7.02 L6.9396,15.776 C6.9396,17.258 8.1356,18.464 9.6046,18.464 L15.4876,18.464 C15.4106,19.053 14.9456,19.516 14.3606,19.516 L14.3606,19.516 Z M17.6386,6.617 L16.4866,6.617 L16.4866,5.486 L17.6386,6.617 Z M19.4996,6.347 L16.6146,3.517 C16.2956,3.189 15.8506,3 15.3926,3 L9.6046,3 C8.1876,3 7.0356,4.125 6.9546,5.536 L6.6656,5.536 C5.1956,5.536 3.9996,6.741 3.9996,8.224 L3.9996,18.311 C3.9996,19.794 5.1956,21.001 6.6656,21.001 L14.3606,21.001 C15.7786,21.001 16.9296,19.876 17.0106,18.464 L17.2996,18.464 C18.7686,18.464 19.9646,17.258 19.9646,15.779 L19.9996,7.558 C19.9996,7.107 19.8266,6.681 19.4996,6.347 L19.4996,6.347 Z" id="icon-color" fill="currentColor" fill-rule="nonzero"></path>
    </g>
</svg>
