<?xml version="1.0" encoding="UTF-8"?>
<svg width="24px" height="24px" viewBox="0 0 24 24" version="1.1" xmlns="http://www.w3.org/2000/svg" xmlns:xlink="http://www.w3.org/1999/xlink">
    <!-- Generator: Sketch 55.1 (78136) - https://sketchapp.com -->
    <g id="flash-off" stroke="none" stroke-width="1" fill="none" fill-rule="evenodd">
        <path d="M3.9705,11.9998 C3.9705,9.6418 4.9985,7.5248 6.6225,6.0548 L9.1965,9.3638 L8.6575,11.2208 C8.5535,11.5828 8.6225,11.9618 8.8485,12.2618 C9.0745,12.5628 9.4185,12.7348 9.7945,12.7348 L11.3705,12.7348 L10.5955,18.0808 C10.5435,18.4338 10.7545,18.7728 11.0945,18.8848 C11.1695,18.9098 11.2465,18.9208 11.3225,18.9208 C11.5885,18.9208 11.8415,18.7748 11.9715,18.5298 L13.7365,15.2008 L16.4445,18.6828 C15.1695,19.5318 13.6425,20.0298 11.9995,20.0298 C7.5725,20.0298 3.9705,16.4278 3.9705,11.9998 M12.9285,11.8038 C12.8995,11.6978 12.8465,11.6008 12.7765,11.5198 C12.7055,11.4378 12.6165,11.3708 12.5145,11.3258 C12.4395,11.2928 12.3585,11.2728 12.2735,11.2668 C12.2515,11.2648 12.2325,11.2658 12.2065,11.2648 L10.1765,11.2648 L11.5445,6.5488 L13.0355,6.5488 L12.4085,9.1248 C12.3555,9.3438 12.4055,9.5758 12.5445,9.7528 C12.6845,9.9308 12.8975,10.0338 13.1235,10.0338 L14.8095,10.0338 L12.6595,14.0928 L12.9455,12.1178 C12.9495,12.0968 12.9515,12.0748 12.9535,12.0528 C12.9595,11.9668 12.9505,11.8838 12.9285,11.8038 M20.0305,11.9998 C20.0305,14.2568 19.0895,16.2968 17.5855,17.7568 L14.4905,13.7768 L16.3315,10.3008 C16.5285,9.9308 16.5155,9.4948 16.2985,9.1358 C16.0825,8.7778 15.7035,8.5638 15.2845,8.5638 L14.0585,8.5638 L14.5305,6.6208 C14.6445,6.2618 14.5785,5.8668 14.3565,5.5628 C14.1345,5.2598 13.7775,5.0788 13.4015,5.0788 L11.3295,5.0788 C10.8055,5.0788 10.3385,5.4298 10.1925,5.9328 L9.7025,7.6198 L7.7975,5.1708 C9.0215,4.4148 10.4585,3.9708 11.9995,3.9708 C16.4275,3.9708 20.0305,7.5718 20.0305,11.9998 M21.4995,11.9998 C21.4995,6.7618 17.2385,2.4998 11.9995,2.4998 C9.8645,2.4998 7.8975,3.2168 6.3095,4.4108 C6.3015,4.4168 6.2925,4.4168 6.2845,4.4228 C6.2785,4.4278 6.2765,4.4358 6.2695,4.4398 C3.9845,6.1768 2.4995,8.9148 2.4995,11.9998 C2.4995,17.2378 6.7615,21.4998 11.9995,21.4998 C14.2325,21.4998 16.2835,20.7218 17.9065,19.4278 C17.9165,19.4198 17.9295,19.4178 17.9405,19.4088 C17.9475,19.4038 17.9495,19.3958 17.9565,19.3898 C20.1155,17.6458 21.4995,14.9828 21.4995,11.9998" id="icon-color" fill="currentColor" fill-rule="nonzero"></path>
    </g>
</svg>
