<?xml version="1.0" encoding="UTF-8"?>
<svg width="24px" height="24px" viewBox="0 0 24 24" version="1.1" xmlns="http://www.w3.org/2000/svg" xmlns:xlink="http://www.w3.org/1999/xlink">
    <!-- Generator: Sketch 55.1 (78136) - https://sketchapp.com -->
    <g id="Udlansk-betaling" stroke="none" stroke-width="1" fill="none" fill-rule="evenodd">
        <path d="M4.614,14.0642 C5.428,15.7702 6.981,17.0632 8.867,17.5432 C8.36,16.6972 7.963,15.7502 7.698,14.7362 C6.539,14.5882 5.501,14.3602 4.614,14.0642 Z M9.269,5.0682 C7.371,5.4262 5.766,6.5992 4.842,8.2032 C5.605,8.4772 6.561,8.6892 7.626,8.8302 C7.949,7.4312 8.507,6.1442 9.269,5.0682 Z M16.205,8.3362 C15.371,6.8022 13.964,5.6822 12.301,5.2092 C13.01,6.2492 13.541,7.4822 13.851,8.8282 C14.723,8.7102 15.523,8.5462 16.205,8.3362 Z M9.12,8.9762 C9.643,9.0092 10.178,9.0302 10.727,9.0302 C11.276,9.0302 11.815,9.0112 12.34,8.9782 C12.016,7.6752 11.469,6.5042 10.734,5.5762 C9.99,6.5132 9.44,7.6812 9.12,8.9762 Z M7.415,13.2272 C7.346,12.6962 7.3,12.1572 7.3,11.6092 C7.3,11.1532 7.331,10.7032 7.38,10.2582 C6.198,10.0972 5.128,9.8552 4.263,9.5412 C4.09,10.1162 3.994,10.7232 3.994,11.3532 C3.994,11.6692 4.025,11.9792 4.071,12.2842 C4.89,12.6972 6.065,13.0202 7.415,13.2272 Z M10.974,17.9372 C11.133,18.0702 11.239,18.2602 11.239,18.4802 C11.239,18.8002 11.022,19.0642 10.725,19.1602 C10.716,19.1632 10.706,19.1632 10.697,19.1662 C10.631,19.1842 10.565,19.2062 10.492,19.2062 C10.485,19.2062 10.478,19.2052 10.471,19.2052 C10.469,19.2052 10.467,19.2062 10.465,19.2062 C10.462,19.2062 10.459,19.2042 10.456,19.2042 C6.066,19.1852 2.5,15.6712 2.5,11.3532 C2.5,7.0322 6.07,3.5162 10.464,3.5012 L10.468,3.5012 C10.476,3.5012 10.484,3.5002 10.492,3.5002 C10.61,3.5002 10.724,3.5202 10.841,3.5252 C10.976,3.5012 11.113,3.5062 11.242,3.5542 C14.153,3.8232 16.702,5.6132 17.857,8.2992 C17.97,8.5622 17.906,8.8492 17.725,9.0512 C17.657,9.2492 17.512,9.4202 17.297,9.5022 C15.656,10.1252 13.262,10.4812 10.727,10.4812 C10.093,10.4812 9.47,10.4562 8.864,10.4122 C8.822,10.8062 8.794,11.2042 8.794,11.6092 C8.794,14.0712 9.589,16.3692 10.974,17.9372 Z M13.1663,15.2087 C13.4583,15.4917 13.4583,15.9507 13.1663,16.2347 C13.0203,16.3767 12.8293,16.4467 12.6383,16.4467 C12.4473,16.4467 12.2563,16.3767 12.1103,16.2347 L9.9633,14.1487 C9.6723,13.8657 9.6723,13.4057 9.9633,13.1227 L12.0763,11.0717 C12.3683,10.7887 12.8403,10.7887 13.1323,11.0717 C13.4243,11.3547 13.4243,11.8137 13.1323,12.0977 L12.2773,12.9277 L17.3323,12.9277 C17.7453,12.9277 18.0793,13.2527 18.0793,13.6527 C18.0793,14.0537 17.7453,14.3787 17.3323,14.3787 L12.3123,14.3787 L13.1663,15.2087 Z M21.2815,17.2097 C21.5725,17.4927 21.5725,17.9517 21.2815,18.2357 L19.1695,20.2877 C19.0225,20.4297 18.8325,20.4997 18.6405,20.4997 C18.4495,20.4997 18.2585,20.4297 18.1125,20.2877 C17.8205,20.0037 17.8205,19.5447 18.1125,19.2617 L18.9665,18.4327 L13.9125,18.4327 C13.5005,18.4327 13.1655,18.1067 13.1655,17.7067 C13.1655,17.3067 13.5005,16.9807 13.9125,16.9807 L18.9335,16.9807 L18.0785,16.1507 C17.7865,15.8667 17.7865,15.4077 18.0785,15.1247 C18.3705,14.8417 18.8435,14.8417 19.1355,15.1247 L21.2815,17.2097 Z" id="icon-color" fill="currentColor" fill-rule="nonzero"></path>
    </g>
</svg>
