<?xml version="1.0" encoding="UTF-8"?>
<svg width="24px" height="24px" viewBox="0 0 24 24" version="1.1" xmlns="http://www.w3.org/2000/svg" xmlns:xlink="http://www.w3.org/1999/xlink">
    <!-- Generator: Sketch 55.1 (78136) - https://sketchapp.com -->
    <g id="help" stroke="none" stroke-width="1" fill="none" fill-rule="evenodd">
        <path d="M12.1653,5.0002 C15.3613,5.0002 16.5003,6.9502 16.5003,8.7742 C16.5003,10.5022 15.4033,11.3572 14.4363,12.1112 C13.4663,12.8692 12.6263,13.5222 12.6493,15.0652 C12.6553,15.4732 12.3303,15.8092 11.9213,15.8142 L11.9113,15.8142 C11.5083,15.8142 11.1783,15.4902 11.1723,15.0862 C11.1393,12.8112 12.4643,11.7772 13.5283,10.9472 C14.4833,10.2032 15.0223,9.7352 15.0223,8.7742 C15.0223,7.7262 14.5263,6.4772 12.1653,6.4772 C9.6443,6.4772 8.9773,8.1482 8.9773,9.0322 C8.9773,9.4392 8.6463,9.7702 8.2383,9.7702 C7.8313,9.7702 7.5003,9.4392 7.5003,9.0322 C7.5003,7.4112 8.7423,5.0002 12.1653,5.0002 Z M12.0002,17.2277 C12.4892,17.2277 12.8862,17.6237 12.8862,18.1137 C12.8862,18.6037 12.4892,18.9997 12.0002,18.9997 C11.5102,18.9997 11.1132,18.6037 11.1132,18.1137 C11.1132,17.6237 11.5102,17.2277 12.0002,17.2277 Z" id="icon-color" fill="currentColor" fill-rule="nonzero"></path>
    </g>
</svg>
