<?xml version="1.0" encoding="UTF-8"?>
<svg width="24px" height="24px" viewBox="0 0 24 24" version="1.1" xmlns="http://www.w3.org/2000/svg" xmlns:xlink="http://www.w3.org/1999/xlink">
    <!-- Generator: Sketch 55.1 (78136) - https://sketchapp.com -->
    <g id="inbox-outline" stroke="none" stroke-width="1" fill="none" fill-rule="evenodd">
        <path d="M19.541,15.373 C19.541,16.573 18.558,17.55 17.352,17.55 L6.648,17.55 C5.441,17.55 4.459,16.573 4.459,15.373 L4.459,8.626 C4.459,8.231 4.574,7.864 4.761,7.544 L11.032,12.815 C11.347,13.08 11.739,13.213 12.131,13.213 C12.535,13.213 12.937,13.073 13.256,12.794 L19.246,7.557 C19.428,7.874 19.541,8.236 19.541,8.626 L19.541,15.373 Z M17.352,6.451 C17.627,6.451 17.889,6.507 18.132,6.6 L12.291,11.705 C12.201,11.786 12.066,11.786 11.975,11.707 L5.89,6.593 C6.127,6.505 6.381,6.451 6.648,6.451 L17.352,6.451 Z M17.352,5 L6.648,5 C4.637,5 3,6.627 3,8.626 L3,15.373 C3,17.373 4.637,19 6.648,19 L17.352,19 C19.363,19 21,17.373 21,15.373 L21,8.626 C21,6.627 19.363,5 17.352,5 L17.352,5 Z" id="icon-color" fill="currentColor" fill-rule="nonzero"></path>
    </g>
</svg>
