<?xml version="1.0" encoding="UTF-8"?>
<svg width="24px" height="24px" viewBox="0 0 24 24" version="1.1" xmlns="http://www.w3.org/2000/svg" xmlns:xlink="http://www.w3.org/1999/xlink">
    <!-- Generator: Sketch 55.1 (78136) - https://sketchapp.com -->
    <g id="inbox" stroke="none" stroke-width="1" fill="none" fill-rule="evenodd">
        <path d="M13.2289,12.5039 L20.4889,6.3249 C20.8119,6.8039 20.9999,7.3799 20.9999,7.9999 L20.9999,15.9999 C20.9999,17.6569 19.6569,18.9999 17.9999,18.9999 L5.9999,18.9999 C4.3429,18.9999 2.9999,17.6569 2.9999,15.9999 L2.9999,7.9999 C2.9999,7.4439 3.1619,6.9309 3.4249,6.4839 L10.6169,12.5139 C10.9819,12.8189 11.4489,12.9729 11.9169,12.9729 C12.3889,12.9729 12.8619,12.8159 13.2289,12.5039 Z M11.5804,11.3633 L4.4924,5.4203 C4.9364,5.1603 5.4474,5.0003 5.9994,5.0003 L17.9994,5.0003 C18.4854,5.0003 18.9364,5.1263 19.3424,5.3303 L12.2564,11.3613 C12.0764,11.5143 11.7604,11.5143 11.5804,11.3633 Z" id="icon-color" fill="currentColor" fill-rule="nonzero"></path>
    </g>
</svg>
