<?xml version="1.0" encoding="UTF-8"?>
<svg width="24px" height="24px" viewBox="0 0 24 24" version="1.1" xmlns="http://www.w3.org/2000/svg" xmlns:xlink="http://www.w3.org/1999/xlink">
    <!-- Generator: Sketch 55.1 (78136) - https://sketchapp.com -->
    <g id="log-out" stroke="none" stroke-width="1" fill="none" fill-rule="evenodd">
        <path d="M14.7197,7.05515726 C17.3197,8.11092458 18.9997,10.548114 18.9997,13.2644362 C18.9997,16.9786104 15.8607,19.9997 11.9997,19.9997 C8.1397,19.9997 4.9997,16.9786104 4.9997,13.2644362 C4.9997,10.63831 6.6027,8.23435061 9.0817,7.13870719 C9.4457,6.97825335 9.8757,7.13016232 10.0437,7.47480578 C10.2117,7.82134811 10.0537,8.23150232 9.6917,8.39195616 C7.7207,9.26258442 6.4487,11.1747385 6.4487,13.2644362 C6.4487,16.2171668 8.9387,18.6192273 11.9997,18.6192273 C15.0617,18.6192273 17.5517,16.2171668 17.5517,13.2644362 C17.5517,11.1025818 16.2177,9.16384359 14.1517,8.32549599 C13.7837,8.17643532 13.6127,7.77007883 13.7687,7.41973878 C13.9267,7.06749987 14.3547,6.90609659 14.7197,7.05515726 Z M12,13.6406 C11.6,13.6406 11.276,13.3156 11.276,12.9136 L11.276,4.7266 C11.276,4.3256 11.6,3.9996 12,3.9996 C12.4,3.9996 12.724,4.3256 12.724,4.7266 L12.724,12.9136 C12.724,13.3156 12.4,13.6406 12,13.6406 Z" id="icon-color" fill="currentColor" fill-rule="nonzero"></path>
    </g>
</svg>
