<?xml version="1.0" encoding="UTF-8"?>
<svg width="24px" height="24px" viewBox="0 0 24 24" version="1.1" xmlns="http://www.w3.org/2000/svg" xmlns:xlink="http://www.w3.org/1999/xlink">
    <!-- Generator: Sketch 55.1 (78136) - https://sketchapp.com -->
    <g id="menu-outline" stroke="none" stroke-width="1" fill="none" fill-rule="evenodd">
        <path d="M19.99,13.9504 L19.99,10.0494 C19.99,7.7874 18.07,5.9474 15.711,5.9474 L8.289,5.9474 C5.93,5.9474 4.011,7.7874 4.011,10.0494 L4.011,13.9504 C4.011,16.2124 5.93,18.0524 8.289,18.0524 L15.711,18.0524 C18.07,18.0524 19.99,16.2124 19.99,13.9504 Z M15.711,4.5004 C18.903,4.5004 21.5,6.9894 21.5,10.0494 L21.5,13.9504 C21.5,17.0114 18.903,19.5004 15.711,19.5004 L8.289,19.5004 C5.097,19.5004 2.5,17.0114 2.5,13.9504 L2.5,10.0494 C2.5,6.9894 5.097,4.5004 8.289,4.5004 L15.711,4.5004 Z M17.3601,8.7019 C17.7771,8.7019 18.1161,9.0259 18.1161,9.4259 C18.1161,9.8259 17.7771,10.1499 17.3601,10.1499 L7.1611,10.1499 C6.7441,10.1499 6.4051,9.8259 6.4051,9.4259 C6.4051,9.0259 6.7441,8.7019 7.1611,8.7019 L17.3601,8.7019 Z M17.3601,11.2766 C17.7771,11.2766 18.1161,11.6006 18.1161,12.0006 C18.1161,12.3996 17.7771,12.7236 17.3601,12.7236 L9.3721,12.7236 C8.9551,12.7236 8.6171,12.3996 8.6171,12.0006 C8.6171,11.6006 8.9551,11.2766 9.3721,11.2766 L17.3601,11.2766 Z M17.3601,13.8518 C17.7771,13.8518 18.1161,14.1758 18.1161,14.5758 C18.1161,14.9748 17.7771,15.2988 17.3601,15.2988 L8.1931,15.2988 C7.7771,15.2988 7.4381,14.9748 7.4381,14.5758 C7.4381,14.1758 7.7771,13.8518 8.1931,13.8518 L17.3601,13.8518 Z" id="icon-color" fill="currentColor" fill-rule="nonzero" transform="translate(12.000000, 12.000400) rotate(-180.000000) translate(-12.000000, -12.000400) "></path>
    </g>
</svg>
