<?xml version="1.0" encoding="UTF-8"?>
<svg width="24px" height="24px" viewBox="0 0 24 24" version="1.1" xmlns="http://www.w3.org/2000/svg" xmlns:xlink="http://www.w3.org/1999/xlink">
    <!-- Generator: Sketch 55.1 (78136) - https://sketchapp.com -->
    <g id="menu" stroke="none" stroke-width="1" fill="none" fill-rule="evenodd">
        <path d="M17.5164,10.09 L7.0194,10.09 C6.6054,10.09 6.2694,9.754 6.2694,9.34 C6.2694,8.926 6.6054,8.59 7.0194,8.59 L17.5164,8.59 C17.9304,8.59 18.2664,8.926 18.2664,9.34 C18.2664,9.754 17.9304,10.09 17.5164,10.09 M17.5164,12.75 L9.2954,12.75 C8.8814,12.75 8.5454,12.414 8.5454,12 C8.5454,11.586 8.8814,11.25 9.2954,11.25 L17.5164,11.25 C17.9304,11.25 18.2664,11.586 18.2664,12 C18.2664,12.414 17.9304,12.75 17.5164,12.75 M17.5164,15.41 L8.0824,15.41 C7.6684,15.41 7.3324,15.074 7.3324,14.66 C7.3324,14.246 7.6684,13.91 8.0824,13.91 L17.5164,13.91 C17.9304,13.91 18.2664,14.246 18.2664,14.66 C18.2664,15.074 17.9304,15.41 17.5164,15.41 M15.9994,4.5 L7.9994,4.5 C5.2384,4.5 2.9994,6.738 2.9994,9.5 L2.9994,14.5 C2.9994,17.261 5.2384,19.5 7.9994,19.5 L15.9994,19.5 C18.7614,19.5 20.9994,17.261 20.9994,14.5 L20.9994,9.5 C20.9994,6.738 18.7614,4.5 15.9994,4.5" id="icon-color" fill="currentColor" fill-rule="nonzero" transform="translate(11.999400, 12.000000) rotate(-180.000000) translate(-11.999400, -12.000000) "></path>
    </g>
</svg>
