<?xml version="1.0" encoding="UTF-8"?>
<svg width="24px" height="24px" viewBox="0 0 24 24" version="1.1" xmlns="http://www.w3.org/2000/svg" xmlns:xlink="http://www.w3.org/1999/xlink">
    <!-- Generator: Sketch 55.1 (78136) - https://sketchapp.com -->
    <g id="QR" stroke="none" stroke-width="1" fill="none" fill-rule="evenodd">
        <path d="M5.0884,5.3811 L5.0884,8.6061 C5.0884,8.7411 5.1994,8.8521 5.3364,8.8521 L8.3314,8.8521 C8.4674,8.8521 8.5794,8.7411 8.5794,8.6061 L8.5794,5.3811 C8.5794,5.2451 8.4674,5.1341 8.3314,5.1341 L5.3364,5.1341 C5.1994,5.1341 5.0884,5.2451 5.0884,5.3811 Z M5.3364,10.3341 C4.3804,10.3341 3.6024,9.5581 3.6024,8.6061 L3.6024,5.3811 C3.6024,4.4281 4.3804,3.6531 5.3364,3.6531 L8.3314,3.6531 C9.2874,3.6531 10.0654,4.4281 10.0654,5.3811 L10.0654,8.6061 C10.0654,9.5581 9.2874,10.3341 8.3314,10.3341 L5.3364,10.3341 Z M19.0146,8.2805 L19.0146,5.2285 C19.0146,5.0925 18.9036,4.9815 18.7666,4.9815 L15.7706,4.9815 C15.6346,4.9815 15.5236,5.0925 15.5236,5.2285 L15.5236,8.2805 C15.5236,8.4165 15.6346,8.5275 15.7706,8.5275 L18.7666,8.5275 C18.9036,8.5275 19.0146,8.4165 19.0146,8.2805 Z M18.7666,3.4995 C19.7226,3.4995 20.4996,4.2755 20.4996,5.2285 L20.4996,8.2805 C20.4996,9.2335 19.7226,10.0085 18.7666,10.0085 L15.7706,10.0085 C14.8156,10.0085 14.0366,9.2335 14.0366,8.2805 L14.0366,5.2285 C14.0366,4.2755 14.8156,3.4995 15.7706,3.4995 L18.7666,3.4995 Z M4.7979,11.2742 L5.6039,11.2742 C6.0139,11.2742 6.3469,11.6062 6.3469,12.0152 C6.3469,12.4232 6.0139,12.7552 5.6039,12.7552 L4.7979,12.7552 C4.3879,12.7552 4.0549,12.4232 4.0549,12.0152 C4.0549,11.6062 4.3879,11.2742 4.7979,11.2742 Z M9.6484,11.3357 C10.0584,11.3357 10.3914,11.6677 10.3914,12.0767 C10.3914,12.4847 10.0584,12.8167 9.6484,12.8167 L7.9174,12.8167 C7.5074,12.8167 7.1744,12.4847 7.1744,12.0767 C7.1744,11.6677 7.5074,11.3357 7.9174,11.3357 L9.6484,11.3357 Z M12.0205,10.6052 C11.6105,10.6052 11.2775,10.2732 11.2775,9.8642 L11.2775,9.0612 C11.2775,8.6512 11.6105,8.3202 12.0205,8.3202 C12.4305,8.3202 12.7635,8.6512 12.7635,9.0612 L12.7635,9.8642 C12.7635,10.2732 12.4305,10.6052 12.0205,10.6052 Z M12.082,7.4949 C11.672,7.4949 11.339,7.1629 11.339,6.7539 L11.339,5.0289 C11.339,4.6199 11.672,4.2879 12.082,4.2879 C12.492,4.2879 12.825,4.6199 12.825,5.0289 L12.825,6.7539 C12.825,7.1629 12.492,7.4949 12.082,7.4949 Z M12.8252,17.2908 C12.8252,17.6988 12.4922,18.0308 12.0822,18.0308 C11.6722,18.0308 11.3392,17.6988 11.3392,17.2908 L11.3392,17.0728 C11.3392,16.6648 11.6722,16.3328 12.0822,16.3328 C12.4922,16.3328 12.8252,16.6648 12.8252,17.0728 L12.8252,17.2908 Z M15.1738,19.0183 C15.5838,19.0183 15.9168,19.3503 15.9168,19.7593 C15.9168,20.1683 15.5838,20.4993 15.1738,20.4993 L12.7348,20.4993 C12.3248,20.4993 11.9918,20.1683 11.9918,19.7593 C11.9918,19.3503 12.3248,19.0183 12.7348,19.0183 L15.1738,19.0183 Z M18.873,13.8191 C19.283,13.8191 19.616,14.1501 19.616,14.5591 C19.616,14.9681 19.283,15.2991 18.873,15.2991 L17.886,15.2991 C17.476,15.2991 17.143,14.9681 17.143,14.5591 C17.143,14.1501 17.476,13.8191 17.886,13.8191 L18.873,13.8191 Z M12.0195,15.5457 C11.6095,15.5457 11.2765,15.2147 11.2765,14.8057 L11.2765,14.2887 C11.2765,13.8807 11.6095,13.5487 12.0195,13.5487 C12.4295,13.5487 12.7625,13.8807 12.7625,14.2887 L12.7625,14.8057 C12.7625,15.2147 12.4295,15.5457 12.0195,15.5457 Z M12.1616,12.0149 C12.1616,11.6059 12.4946,11.2739 12.9046,11.2739 L13.1886,11.2739 C13.5986,11.2739 13.9316,11.6059 13.9316,12.0149 C13.9316,12.4239 13.5986,12.7549 13.1886,12.7549 L12.9046,12.7549 C12.4946,12.7549 12.1616,12.4239 12.1616,12.0149 Z M17.4111,6.0139 C17.8211,6.0139 18.1541,6.3459 18.1541,6.7539 C18.1541,7.1629 17.8211,7.4949 17.4111,7.4949 L17.1271,7.4949 C16.7171,7.4949 16.3841,7.1629 16.3841,6.7539 C16.3841,6.3459 16.7171,6.0139 17.1271,6.0139 L17.4111,6.0139 Z M20.1924,12.0149 C20.1924,12.4239 19.8594,12.7549 19.4494,12.7549 L15.5374,12.7549 C15.1274,12.7549 14.7954,12.4239 14.7954,12.0149 C14.7954,11.6059 15.1274,11.2739 15.5374,11.2739 L19.4494,11.2739 C19.8594,11.2739 20.1924,11.6059 20.1924,12.0149 Z M18.3311,17.073 C18.3311,17.482 17.9981,17.814 17.5881,17.814 L16.5251,17.814 C16.1151,17.814 15.7821,17.482 15.7821,17.073 C15.7821,16.665 16.1151,16.333 16.5251,16.333 L17.5881,16.333 C17.9981,16.333 18.3311,16.665 18.3311,17.073 Z M6.6914,7.7341 C6.2814,7.7341 5.9484,7.4021 5.9484,6.9931 C5.9484,6.5851 6.2814,6.2531 6.6914,6.2531 L6.9764,6.2531 C7.3864,6.2531 7.7194,6.5851 7.7194,6.9931 C7.7194,7.4021 7.3864,7.7341 6.9764,7.7341 L6.6914,7.7341 Z M6.9062,16.4187 C7.3162,16.4187 7.6492,16.7507 7.6492,17.1587 C7.6492,17.5677 7.3162,17.8997 6.9062,17.8997 L6.6212,17.8997 C6.2112,17.8997 5.8792,17.5677 5.8792,17.1587 C5.8792,16.7507 6.2112,16.4187 6.6212,16.4187 L6.9062,16.4187 Z M19.7568,16.3328 C20.1668,16.3328 20.4998,16.6648 20.4998,17.0728 L20.4998,19.7598 C20.4998,20.1688 20.1668,20.4998 19.7568,20.4998 L17.8858,20.4998 C17.4758,20.4998 17.1428,20.1688 17.1428,19.7598 C17.1428,19.3508 17.4758,19.0188 17.8858,19.0188 L19.0148,19.0188 L19.0148,17.0728 C19.0148,16.6648 19.3468,16.3328 19.7568,16.3328 Z M14.7803,16.6667 C14.3703,16.6667 14.0373,16.3347 14.0373,15.9257 L14.0373,14.5597 C14.0373,14.1497 14.3703,13.8187 14.7803,13.8187 L15.5373,13.8187 C15.9473,13.8187 16.2803,14.1497 16.2803,14.5597 C16.2803,14.9687 15.9473,15.2997 15.5373,15.2997 L15.5233,15.2997 L15.5233,15.9257 C15.5233,16.3347 15.1903,16.6667 14.7803,16.6667 Z M8.543,18.7722 L8.543,15.5462 C8.543,15.4112 8.432,15.2992 8.295,15.2992 L5.233,15.2992 C5.097,15.2992 4.986,15.4112 4.986,15.5462 L4.986,18.7722 C4.986,18.9082 5.097,19.0182 5.233,19.0182 L8.295,19.0182 C8.432,19.0182 8.543,18.9082 8.543,18.7722 Z M8.295,13.8192 C9.251,13.8192 10.029,14.5942 10.029,15.5462 L10.029,18.7722 C10.029,19.7242 9.251,20.5002 8.295,20.5002 L5.233,20.5002 C4.278,20.5002 3.5,19.7242 3.5,18.7722 L3.5,15.5462 C3.5,14.5942 4.278,13.8192 5.233,13.8192 L8.295,13.8192 Z" id="icon-color" fill="currentColor" fill-rule="nonzero"></path>
    </g>
</svg>
