<?xml version="1.0" encoding="UTF-8"?>
<svg width="24px" height="24px" viewBox="0 0 24 24" version="1.1" xmlns="http://www.w3.org/2000/svg" xmlns:xlink="http://www.w3.org/1999/xlink">
    <!-- Generator: Sketch 55.1 (78136) - https://sketchapp.com -->
    <g id="icon/trash" stroke="none" stroke-width="1" fill="none" fill-rule="evenodd">
        <path d="M10.3867,8.1179 C10.7907,8.1179 11.1187,8.4399 11.1187,8.8379 L11.1187,17.2269 C11.1187,17.6249 10.7907,17.9469 10.3867,17.9469 C9.9827,17.9469 9.6547,17.6249 9.6547,17.2269 L9.6547,8.8379 C9.6547,8.4399 9.9827,8.1179 10.3867,8.1179 Z M13.6123,8.1179 C14.0163,8.1179 14.3443,8.4399 14.3443,8.8379 L14.3443,17.2269 C14.3443,17.6249 14.0163,17.9469 13.6123,17.9469 C13.2093,17.9469 12.8813,17.6249 12.8813,17.2269 L12.8813,8.8379 C12.8813,8.4399 13.2093,8.1179 13.6123,8.1179 Z M16.3594,18.1912 L17.3924,6.7072 L6.6084,6.7072 L7.6374,18.1282 C7.6404,18.9462 8.2704,19.5612 9.0434,19.5612 L14.9564,19.5612 C15.7304,19.5612 16.3594,18.9462 16.3594,18.1912 Z M10.3114,4.7992 L10.3114,5.2682 L13.6884,5.2682 L13.6884,4.7992 C13.6884,4.6942 13.4134,4.4392 12.9014,4.4392 L11.0984,4.4392 C10.5874,4.4392 10.3114,4.6942 10.3114,4.7992 Z M19.5004,5.9872 C19.5004,6.3512 19.2204,6.6402 18.8634,6.6882 L17.8204,18.2542 C17.8234,19.7402 16.5384,21.0002 14.9564,21.0002 L9.0434,21.0002 C7.4634,21.0002 6.1764,19.7402 6.1764,18.1912 L5.1364,6.6882 C4.7794,6.6402 4.5004,6.3512 4.5004,5.9872 C4.5004,5.5902 4.8274,5.2682 5.2324,5.2682 L8.8474,5.2682 L8.8474,4.7992 C8.8474,3.7902 9.8364,3.0002 11.0984,3.0002 L12.9014,3.0002 C14.1634,3.0002 15.1534,3.7902 15.1534,4.7992 L15.1534,5.2682 L18.7674,5.2682 C19.1724,5.2682 19.5004,5.5902 19.5004,5.9872 Z" id="icon-color" fill="currentColor" fill-rule="nonzero"></path>
    </g>
</svg>
