<?xml version="1.0" encoding="UTF-8"?>
<svg width="24px" height="24px" viewBox="0 0 24 24" version="1.1" xmlns="http://www.w3.org/2000/svg" xmlns:xlink="http://www.w3.org/1999/xlink">
    <!-- Generator: Sketch 55.1 (78136) - https://sketchapp.com -->
    <g id="afmeld" stroke="none" stroke-width="1" fill="none" fill-rule="evenodd">
        <path d="M15.7344,8.2646 C16.0264,8.5566 16.0264,9.0286 15.7344,9.3196 L13.0544,11.9996 L15.7344,14.6796 C16.0264,14.9716 16.0264,15.4436 15.7344,15.7346 C15.5884,15.8796 15.3984,15.9526 15.2074,15.9526 C15.0154,15.9526 14.8254,15.8796 14.6794,15.7346 L12.0004,13.0546 L9.3204,15.7346 C9.1744,15.8796 8.9834,15.9526 8.7934,15.9526 C8.6024,15.9526 8.4114,15.8796 8.2654,15.7346 C7.9744,15.4436 7.9744,14.9716 8.2654,14.6796 L10.9454,11.9996 L8.2654,9.3196 C7.9744,9.0286 7.9744,8.5566 8.2654,8.2646 C8.5564,7.9736 9.0284,7.9736 9.3204,8.2646 L12.0004,10.9446 L14.6794,8.2646 C14.9704,7.9736 15.4434,7.9736 15.7344,8.2646 Z M12,19.5078 C16.14,19.5078 19.508,16.1398 19.508,11.9998 C19.508,7.8598 16.14,4.4918 12,4.4918 C7.86,4.4918 4.492,7.8598 4.492,11.9998 C4.492,16.1398 7.86,19.5078 12,19.5078 Z M12,2.9998 C16.962,2.9998 21,7.0368 21,11.9998 C21,16.9618 16.962,20.9998 12,20.9998 C7.037,20.9998 3,16.9618 3,11.9998 C3,7.0368 7.037,2.9998 12,2.9998 Z" id="icon-color" fill="currentColor" fill-rule="nonzero"></path>
    </g>
</svg>
