<?xml version="1.0" encoding="UTF-8"?>
<svg width="24px" height="24px" viewBox="0 0 24 24" version="1.1" xmlns="http://www.w3.org/2000/svg" xmlns:xlink="http://www.w3.org/1999/xlink">
    <!-- Generator: Sketch 55.1 (78136) - https://sketchapp.com -->
    <g id="write-message" stroke="none" stroke-width="1" fill="none" fill-rule="evenodd">
        <path d="M18.2078,11.4467 C18.6218,11.4467 18.9568,11.7737 18.9568,12.1757 L18.9568,15.3527 C18.9568,17.3637 17.2758,19.0007 15.2118,19.0007 L6.7458,19.0007 C4.6798,19.0007 2.9998,17.3637 2.9998,15.3527 L2.9998,10.4207 C2.9998,8.4097 4.6798,6.7737 6.7458,6.7737 L13.3908,6.7737 C13.8048,6.7737 14.1398,7.0997 14.1398,7.5027 C14.1398,7.9057 13.8048,8.2327 13.3908,8.2327 L6.7458,8.2327 C6.4338,8.2327 6.1358,8.2957 5.8658,8.4077 L11.0978,12.5507 C11.1658,12.6067 11.2508,12.6067 11.3198,12.5507 L14.9198,9.7017 C15.2388,9.4517 15.6978,9.5057 15.9478,9.8197 C16.1998,10.1347 16.1468,10.5937 15.8308,10.8437 L12.2308,13.6927 C11.9308,13.9317 11.5698,14.0507 11.2088,14.0507 C10.8478,14.0507 10.4868,13.9317 10.1858,13.6927 L4.7688,9.4017 C4.6018,9.7077 4.4988,10.0507 4.4988,10.4207 L4.4988,15.3527 C4.4988,16.5587 5.5058,17.5417 6.7458,17.5417 L15.2118,17.5417 C16.4498,17.5417 17.4588,16.5587 17.4588,15.3527 L17.4588,12.1757 C17.4588,11.7737 17.7948,11.4467 18.2078,11.4467 Z M20.2791,7.0473 C20.6771,7.0473 21.0001,7.3503 21.0001,7.7223 C21.0001,8.0953 20.6771,8.3983 20.2791,8.3983 L18.8131,8.3983 L18.8131,9.7703 C18.8131,10.1423 18.4911,10.4443 18.0921,10.4443 C17.6951,10.4443 17.3721,10.1423 17.3721,9.7703 L17.3721,8.3983 L15.9081,8.3983 C15.5091,8.3983 15.1871,8.0953 15.1871,7.7223 C15.1871,7.3503 15.5091,7.0473 15.9081,7.0473 L17.3721,7.0473 L17.3721,5.6753 C17.3721,5.3023 17.6951,5.0003 18.0921,5.0003 C18.4911,5.0003 18.8131,5.3023 18.8131,5.6753 L18.8131,7.0473 L20.2791,7.0473 Z" id="icon-color" fill="currentColor" fill-rule="nonzero"></path>
    </g>
</svg>
