<?xml version="1.0" encoding="UTF-8"?><svg id="Lag_1" xmlns="http://www.w3.org/2000/svg" viewBox="0 0 240 150"><defs><style>.cls-1{fill:#00e89a;}.cls-2{fill:#8e8e8e;}.cls-3{fill:#d1d1d1;}</style></defs><rect class="cls-1" x="79.88" y="93.51" width="80.25" height="21.5" rx="10" ry="10"/><g><circle class="cls-3" cx="119.91" cy="58.99" r="24"/><path class="cls-2" d="M118.47,62.12c0-.91,.11-1.63,.34-2.18,.23-.54,.67-1.13,1.34-1.78,.67-.65,1.09-1.11,1.27-1.38,.27-.42,.41-.87,.41-1.35,0-.64-.16-1.13-.48-1.47-.32-.34-.78-.51-1.4-.51s-1.06,.17-1.42,.5c-.36,.33-.54,.78-.54,1.34h-2.49c.01-1.21,.43-2.17,1.24-2.87,.81-.7,1.88-1.06,3.21-1.06s2.45,.35,3.21,1.05c.77,.7,1.15,1.67,1.15,2.92,0,1.12-.52,2.21-1.56,3.29l-1.26,1.24c-.45,.51-.68,1.26-.7,2.25h-2.33Zm-.17,3.18c0-.4,.13-.73,.38-.98,.25-.25,.59-.37,1.03-.37s.78,.13,1.04,.38c.25,.26,.38,.58,.38,.97s-.12,.69-.37,.94-.59,.38-1.05,.38-.8-.13-1.04-.38-.36-.57-.36-.94Z"/></g></svg>