<svg xmlns="http://www.w3.org/2000/svg" width="24" height="24" viewBox="0 0 24 24">
<path id="agreement" fill="currentColor" d="M20.4517,10.215 L19.9447,10.732 C19.8687,10.81 19.7427,10.81 19.6647,10.732 L16.3557,7.351 L15.9087,6.884 C15.8747,6.84 15.8587,6.793 15.8587,6.76 C15.8587,6.722 15.8687,6.667 15.9147,6.62 L16.4217,6.103 C16.4977,6.023 16.6247,6.025 16.7007,6.103 L20.4507,9.934 C20.4987,9.982 20.5087,10.037 20.5087,10.075 C20.5087,10.112 20.4987,10.168 20.4517,10.215 M17.2597,13.481 C16.7317,13.994 12.5657,18.258 12.3897,18.44 C12.3237,18.503 12.1187,18.493 11.9547,18.324 C11.8617,18.23 11.8057,18.109 11.8057,18 C11.8057,17.964 11.8127,17.915 11.8547,17.872 L13.5077,16.107 L13.5217,16.093 C13.5217,16.092 13.5217,16.091 13.5227,16.091 L13.5307,16.081 C13.5607,16.05 13.5737,16.011 13.5977,15.977 C13.6287,15.929 13.6667,15.884 13.6867,15.831 C13.7037,15.786 13.7047,15.738 13.7127,15.692 C13.7227,15.643 13.7377,15.595 13.7377,15.545 C13.7367,15.495 13.7197,15.448 13.7097,15.4 C13.6997,15.353 13.6987,15.304 13.6807,15.259 C13.6627,15.217 13.6297,15.183 13.6047,15.144 C13.5767,15.1 13.5567,15.052 13.5197,15.014 C13.5167,15.011 13.5147,15.011 13.5127,15.009 L13.5097,15.003 C13.4757,14.971 13.4337,14.955 13.3957,14.931 C13.3527,14.902 13.3127,14.864 13.2647,14.845 C13.2177,14.825 13.1667,14.824 13.1167,14.816 C13.0717,14.808 13.0287,14.792 12.9837,14.792 C12.9377,14.793 12.8937,14.81 12.8487,14.819 C12.8007,14.829 12.7507,14.831 12.7037,14.852 C12.6647,14.868 12.6337,14.901 12.5977,14.924 C12.5527,14.954 12.5037,14.975 12.4647,15.016 L9.4407,18.123 C9.3757,18.189 9.1737,18.18 9.0067,18.008 C8.9137,17.913 8.8587,17.792 8.8587,17.684 C8.8587,17.649 8.8647,17.599 8.8927,17.569 L9.5537,16.9 C9.5747,16.88 9.5977,16.866 9.6177,16.846 L11.8107,14.606 L11.9847,14.428 C12.0577,14.354 12.1127,14.267 12.1497,14.175 C12.1617,14.144 12.1597,14.111 12.1687,14.078 C12.1847,14.015 12.2047,13.952 12.2047,13.888 C12.2047,13.841 12.1877,13.797 12.1797,13.75 C12.1697,13.7 12.1697,13.65 12.1507,13.602 C12.1227,13.53 12.0747,13.468 12.0247,13.406 C12.0107,13.388 12.0047,13.366 11.9887,13.35 C11.9887,13.349 11.9887,13.349 11.9877,13.349 C11.9877,13.349 11.9877,13.348 11.9867,13.348 C11.9357,13.295 11.8737,13.264 11.8137,13.23 C11.7887,13.216 11.7677,13.192 11.7417,13.181 C11.6917,13.16 11.6387,13.158 11.5877,13.15 C11.5447,13.142 11.5037,13.124 11.4607,13.124 C11.4167,13.124 11.3747,13.142 11.3307,13.15 C11.2797,13.158 11.2277,13.159 11.1797,13.18 C11.1537,13.191 11.1327,13.214 11.1077,13.228 C11.0467,13.262 10.9847,13.293 10.9327,13.345 L8.5397,15.777 C8.4597,15.825 8.2797,15.805 8.1297,15.652 C8.0427,15.564 7.9887,15.453 7.9817,15.351 C7.9787,15.315 7.98078755,15.249 8.0257,15.202 C8.0267,15.201 10.4087,12.691 12.3117,10.75 C12.6007,10.9 12.9247,11.052 13.3077,11.052 C13.8067,11.052 14.2867,10.804 14.6227,10.373 C14.9827,9.91 15.1287,9.319 15.0107,8.791 C14.9767,8.641 14.9107,8.504 14.8297,8.373 C14.9107,8.313 14.9917,8.254 15.0727,8.197 L15.3237,8.454 L18.2207,11.48 C18.0727,12.061 17.7537,13.001 17.2597,13.481 M5.9817,10.687 L8.5867,8.026 C8.9627,8.199 9.6427,8.451 10.4317,8.451 C10.7847,8.451 11.1267,8.387 11.4267,8.33 C11.6597,8.287 12.0497,8.212 12.1497,8.259 L12.3567,8.372 C12.6247,8.517 13.4397,8.958 13.5557,9.132 C13.5677,9.185 13.5397,9.315 13.4567,9.422 C13.4067,9.485 13.3487,9.527 13.3077,9.527 C13.2417,9.524 13.0407,9.419 12.9067,9.349 C12.3937,9.081 11.6167,8.674 10.4817,8.995 C10.0847,9.107 9.8507,9.527 9.9597,9.933 C10.0327,10.203 10.2437,10.388 10.4907,10.456 C9.4577,11.519 8.4017,12.621 7.7167,13.339 C7.1287,12.784 6.1577,11.68 5.9817,10.687 M4.0547,10.213 L3.5497,9.697 C3.5017,9.649 3.4917,9.594 3.4917,9.556 C3.4917,9.518 3.5017,9.463 3.5497,9.415 L7.2997,5.585 C7.3767,5.506 7.5017,5.506 7.5787,5.585 L8.0847,6.101 C8.1317,6.149 8.1417,6.204 8.1417,6.242 C8.1417,6.279 8.1317,6.335 8.0847,6.383 L4.3347,10.213 C4.2587,10.291 4.1317,10.292 4.0547,10.213 M21.5057,8.854 L17.7547,5.023 C17.0967,4.351 16.0247,4.352 15.3677,5.023 L14.8607,5.539 C14.5427,5.865 14.3667,6.299 14.3667,6.76 C14.3667,6.787 14.3727,6.812 14.3747,6.838 C14.1567,6.987 13.8907,7.176 13.6527,7.361 C13.4637,7.248 13.2637,7.136 13.0547,7.023 L12.8637,6.919 C12.3127,6.611 11.6987,6.727 11.1567,6.829 C10.8947,6.879 10.6487,6.925 10.4317,6.925 C10.1027,6.925 9.7937,6.851 9.5457,6.768 C9.5987,6.6 9.6337,6.424 9.6337,6.242 C9.6337,5.78 9.4577,5.346 9.1387,5.021 L8.6327,4.505 C7.9757,3.832 6.9037,3.832 6.2457,4.505 L2.4957,8.335 C2.1757,8.661 1.9997,9.094 1.9997,9.556 C1.9997,10.018 2.1757,10.451 2.4947,10.777 L3.0007,11.294 C3.3297,11.629 3.7627,11.797 4.1947,11.797 C4.3757,11.797 4.5557,11.76 4.7297,11.701 C5.2107,12.944 6.2027,13.99 6.7167,14.47 C6.5507,14.764 6.4677,15.109 6.4937,15.465 C6.5287,15.934 6.7347,16.384 7.0757,16.733 C7.2007,16.86 7.3397,16.959 7.4847,17.046 C7.4077,17.245 7.3667,17.461 7.3667,17.685 C7.3667,18.196 7.5797,18.708 7.9517,19.088 C8.3387,19.484 8.8397,19.684 9.3257,19.684 C9.7587,19.684 10.1797,19.526 10.4967,19.201 L10.6337,19.062 C10.7107,19.184 10.7987,19.3 10.9007,19.404 C11.2877,19.799 11.7887,20 12.2747,20 C12.7077,20 13.1287,19.841 13.4437,19.518 C13.4877,19.474 17.7737,15.087 18.2877,14.586 C18.9437,13.949 19.3307,12.998 19.5457,12.29 C19.6327,12.304 19.7187,12.316 19.8057,12.316 C20.2377,12.316 20.6707,12.149 20.9987,11.812 L21.5057,11.296 C21.8237,10.97 21.9997,10.536 21.9997,10.075 C21.9997,9.613 21.8237,9.179 21.5057,8.854"/></svg>