<svg xmlns="http://www.w3.org/2000/svg" width="24" height="24" viewBox="0 0 24 24"><path fill="currentColor" d="M12.0006,3.5007 C12.0406,3.5007 12.0756,3.5167 12.1136,3.5227 C12.1656,3.5317 12.2196,3.5347 12.2696,3.5547 C12.3156,3.5727 12.3536,3.6037 12.3956,3.6307 C12.4336,3.6557 12.4746,3.6757 12.5076,3.7087 C12.5486,3.7467 12.5756,3.7947 12.6056,3.8417 C12.6266,3.8737 12.6556,3.8967 12.6716,3.9317 L14.6646,8.2547 L19.4996,8.2547 C20.1146,8.2547 20.6866,8.5337 21.0676,9.0207 C21.4496,9.5067 21.5876,10.1327 21.4456,10.7357 L19.5216,18.9477 C19.3096,19.8617 18.5086,20.5007 17.5776,20.5007 L6.4226,20.5007 C5.4916,20.5007 4.6916,19.8617 4.4776,18.9477 L2.5546,10.7357 C2.4136,10.1327 2.5506,9.5067 2.9326,9.0207 C3.3136,8.5337 3.8856,8.2547 4.4996,8.2547 L9.9286,8.2547 L8.2256,4.5617 C8.2236,4.5567 8.2246,4.5527 8.2226,4.5477 C8.2036,4.5047 8.2006,4.4567 8.1896,4.4097 C8.1786,4.3587 8.1606,4.3097 8.1596,4.2587 C8.1596,4.2537 8.1566,4.2507 8.1566,4.2467 C8.1566,4.2097 8.1726,4.1787 8.1776,4.1447 C8.1856,4.0857 8.1896,4.0287 8.2116,3.9737 C8.2286,3.9297 8.2576,3.8947 8.2826,3.8557 C8.3086,3.8137 8.3296,3.7697 8.3636,3.7337 C8.4016,3.6937 8.4486,3.6667 8.4946,3.6367 C8.5256,3.6157 8.5496,3.5857 8.5846,3.5697 C8.5886,3.5677 8.5936,3.5677 8.5976,3.5657 C8.6426,3.5457 8.6926,3.5427 8.7416,3.5317 C8.7896,3.5217 8.8356,3.5027 8.8836,3.5027 C8.8886,3.5027 8.8926,3.5007 8.8966,3.5007 L12.0006,3.5007 Z M19.4996,9.7477 L4.4996,9.7477 C4.2806,9.7477 4.1506,9.8727 4.0926,9.9467 C4.0346,10.0217 3.9436,10.1787 3.9946,10.3937 L5.9166,18.6037 C5.9726,18.8407 6.1806,19.0067 6.4226,19.0067 L17.5776,19.0067 C17.8186,19.0067 18.0266,18.8417 18.0826,18.6047 L20.0066,10.3937 C20.0566,10.1787 19.9666,10.0217 19.9086,9.9467 C19.8496,9.8727 19.7186,9.7477 19.4996,9.7477 Z M9.027,12.8538 C9.435,12.8538 9.766,13.1878 9.766,13.5998 L9.766,16.8008 C9.766,17.2128 9.435,17.5468 9.027,17.5468 C8.618,17.5468 8.287,17.2128 8.287,16.8008 L8.287,13.5998 C8.287,13.1878 8.618,12.8538 9.027,12.8538 Z M12.0919,12.8538 C12.5009,12.8538 12.8319,13.1878 12.8319,13.5998 L12.8319,16.8008 C12.8319,17.2128 12.5009,17.5468 12.0919,17.5468 C11.6839,17.5468 11.3519,17.2128 11.3519,16.8008 L11.3519,13.5998 C11.3519,13.1878 11.6839,12.8538 12.0919,12.8538 Z M15.0992,12.8538 C15.5072,12.8538 15.8382,13.1878 15.8382,13.5998 L15.8382,16.8008 C15.8382,17.2128 15.5072,17.5468 15.0992,17.5468 C14.6912,17.5468 14.3592,17.2128 14.3592,16.8008 L14.3592,13.5998 C14.3592,13.1878 14.6912,12.8538 15.0992,12.8538 Z M12.0919,10.6172 C12.4699,10.6172 12.7769,10.9272 12.7769,11.3092 C12.7769,11.6902 12.4699,12.0002 12.0919,12.0002 C11.7139,12.0002 11.4069,11.6902 11.4069,11.3092 C11.4069,10.9272 11.7139,10.6172 12.0919,10.6172 Z M11.5286,4.9927 L10.0566,4.9927 L11.5616,8.2547 L13.0326,8.2547 L11.5286,4.9927 Z"/></svg>