<svg xmlns="http://www.w3.org/2000/svg" width="24" height="24" viewBox="0 0 24 24">
    <path id="feedback" fill="currentColor" d="M19.4913,11.3014 C19.2903,13.0194 18.6613,17.1514 18.6633,17.1514 C18.4093,18.3074 17.7243,18.7804 16.3023,18.7804 L11.0193,18.7804 C8.9023,18.7804 8.4563,18.3534 8.4563,18.2704 L8.4563,11.0854 C9.4313,10.7594 11.2933,9.9514 11.7323,8.4244 C11.9883,7.5374 12.0183,5.9334 12.0123,5.0324 C12.6043,4.9454 13.0373,4.9964 13.2763,5.1864 C13.5753,5.4204 13.7193,5.9924 13.7163,6.9344 C13.7093,9.0304 13.7163,9.4584 13.7163,9.4584 C13.7223,9.8654 14.0553,10.1924 14.4643,10.1924 L14.4693,10.1924 C14.4693,10.1924 17.6523,10.1684 18.1893,10.1794 C18.7263,10.1894 19.1453,10.3224 19.3403,10.5444 C19.3913,10.6044 19.5523,10.7874 19.4913,11.3014 L19.4913,11.3014 Z M6.9613,18.9964 L4.4953,18.9624 L4.5403,10.7724 L6.9613,10.7724 L6.9613,18.2704 L6.9613,18.9964 Z M20.4663,9.5624 C19.8523,8.8614 18.9043,8.6994 18.2173,8.6864 C17.8403,8.6824 16.1923,8.6894 15.2083,8.6944 C15.2083,8.3154 15.2083,7.7554 15.2113,6.9394 C15.2143,5.9474 15.1023,4.7194 14.2003,4.0114 C13.4913,3.4564 12.4693,3.3544 11.0743,3.6984 C10.7323,3.7834 10.4963,4.0944 10.5073,4.4474 C10.5293,5.1564 10.5343,7.1804 10.2953,8.0114 C10.0933,8.7154 9.0683,9.2534 8.2773,9.5574 C8.1403,9.3914 7.9413,9.2794 7.7083,9.2794 L4.5403,9.2794 C3.6913,9.2794 3.0003,9.9694 3.0003,10.8174 L3.0003,18.9624 C3.0003,19.8094 3.6913,20.5004 4.5403,20.5004 L7.7083,20.5004 C8.0553,20.5004 8.3343,20.2594 8.4193,19.9394 C9.0713,20.1584 9.9303,20.2734 11.0193,20.2734 L16.3023,20.2734 C18.4293,20.2734 19.7153,19.3314 20.1323,17.4244 C20.1583,17.2534 20.7723,13.2204 20.9763,11.4754 C21.0913,10.5074 20.7623,9.9004 20.4663,9.5624 L20.4663,9.5624 Z"/>
</svg>