<svg xmlns="http://www.w3.org/2000/svg" width="24" height="24" viewBox="0 0 24 24"><path fill="currentColor" d="M19.044,12.3972 C17.656,13.7752 15.417,12.6082 14.624,12.1202 C14.58,11.6262 14.412,11.1712 14.142,10.7912 C14.534,9.9912 15.785,7.8652 17.831,8.1882 C18.468,8.2892 19.068,8.9652 19.359,9.9092 C19.667,10.9052 19.54,11.9052 19.044,12.3972 M16.701,18.8482 C15.878,19.4602 14.912,19.6492 14.303,19.3192 C12.473,18.3292 13.038,15.4692 13.215,14.7442 C13.557,14.5652 13.853,14.3142 14.087,14.0072 C14.754,14.0882 17.445,14.5552 17.814,16.8182 C17.919,17.4712 17.482,18.2682 16.701,18.8482 M10.121,19.3172 C9.514,19.6532 8.547,19.4772 7.717,18.8752 C6.929,18.3042 6.484,17.5132 6.583,16.8572 C6.888,14.8262 9.104,14.2142 10.025,14.0452 C10.329,14.4302 10.731,14.7232 11.195,14.8882 C11.41,15.7942 11.838,18.3612 10.121,19.3172 M4.641,9.9572 C4.932,9.0132 5.532,8.3372 6.169,8.2362 C8.242,7.9032 9.502,10.1032 9.875,10.8732 C9.639,11.2342 9.498,11.6622 9.457,12.1182 C8.756,12.5662 6.406,13.8852 4.957,12.4452 C4.46,11.9522 4.333,10.9522 4.641,9.9572 M9.939,5.5252 C10.217,4.9272 11.02,4.5322 11.983,4.5172 C12.984,4.4842 13.896,4.9142 14.21,5.5452 C15.081,7.2832 13.411,9.1212 12.71,9.7852 C12.495,9.7262 12.273,9.6852 12.041,9.6852 C11.754,9.6852 11.483,9.7442 11.226,9.8322 C10.55,9.1542 9.076,7.3822 9.939,5.5252 M13.173,12.3652 C13.173,13.0062 12.665,13.5272 12.041,13.5272 C11.416,13.5272 10.908,13.0062 10.908,12.3652 C10.908,11.7242 11.416,11.2022 12.041,11.2022 C12.665,11.2022 13.173,11.7242 13.173,12.3652 M20.767,9.4512 C20.299,7.9382 19.262,6.8802 18.057,6.6892 C17.248,6.5602 16.54,6.6762 15.92,6.9242 C15.976,6.2642 15.881,5.5652 15.523,4.8512 C14.947,3.7022 13.579,2.9822 11.961,3.0002 C10.418,3.0242 9.132,3.7412 8.607,4.8712 C8.258,5.6232 8.161,6.3462 8.209,7.0222 C7.559,6.7382 6.808,6.6002 5.944,6.7372 C4.739,6.9282 3.701,7.9862 3.234,9.4982 C2.753,11.0532 3.027,12.6392 3.931,13.5372 C4.571,14.1722 5.289,14.4722 6.009,14.5732 C5.581,15.1112 5.251,15.7792 5.124,16.6262 C4.937,17.8642 5.605,19.2002 6.867,20.1152 C7.67,20.6962 8.572,21.0002 9.404,21.0002 C9.917,21.0002 10.403,20.8852 10.824,20.6502 C11.45,20.3022 11.891,19.8402 12.204,19.3242 C12.524,19.8482 12.974,20.3152 13.614,20.6622 C14.027,20.8852 14.5,20.9942 14.996,20.9942 C15.841,20.9942 16.756,20.6802 17.566,20.0772 C18.817,19.1482 19.469,17.8032 19.269,16.5682 C19.126,15.6892 18.768,15.0032 18.307,14.4602 C18.919,14.3192 19.523,14.0302 20.068,13.4882 C20.973,12.5912 21.247,11.0062 20.767,9.4512"/></svg>