<svg xmlns="http://www.w3.org/2000/svg" width="24" height="24" viewBox="0 0 24 24">
<g stroke="none" stroke-width="1" fill="none" fill-rule="evenodd">
<path d="M11.2393322,1.43168471 C11.7229485,1.29337355 12.2356027,1.29303118 12.7194033,1.43069628 L12.7194033,1.43069628 L19.4979642,3.35953053 C20.2388921,3.57036102 20.75,4.24719328 20.75,5.01753332 L20.75,5.01753332 L20.75,11.8538223 C20.75,14.9675543 19.2264068,17.8842502 16.6707351,19.6629771 L16.6707351,19.6629771 L13.5410902,21.8411847 C12.6148221,22.4858599 11.3851542,22.48583 10.4589175,21.8411097 L10.4589175,21.8411097 L7.32888475,19.662406 C4.77343398,17.8836481 3.25,14.967084 3.25,11.8535157 L3.25,11.8535157 L3.25,5.01651263 C3.25,4.24702619 3.7599967,3.57072668 4.49982174,3.35914147 L4.49982174,3.35914147 Z M12.3088759,2.87342536 C12.0940886,2.81230783 11.8664917,2.81245982 11.6517863,2.87386419 L11.6517863,2.87386419 L4.91227581,4.80132094 C4.81621755,4.82879299 4.75,4.91660315 4.75,5.01651263 L4.75,5.01651263 L4.75,11.8535157 C4.75,14.4762107 6.03325517,16.9329604 8.18582328,18.431286 L8.18582328,18.431286 L11.315856,20.6099898 C11.7270663,20.8962185 12.2729874,20.8962318 12.6842116,20.6100231 L12.6842116,20.6100231 L15.8138565,18.4318155 C17.9666107,16.9335159 19.25,14.4766552 19.25,11.8538223 L19.25,11.8538223 L19.25,5.01753332 C19.25,4.91751301 19.1836382,4.82963368 19.0874367,4.80225962 L19.0874367,4.80225962 Z M12,5.76513672 C13.3807119,5.76513672 14.5,6.88442484 14.5,8.26513672 C14.5,8.82791944 14.314041,9.34726911 14.0002169,9.76509165 C15.2781013,10.4471384 16.1662939,11.7641172 16.2443984,13.2950257 L16.25,13.5151367 L16.25,14.5151367 C16.25,14.8948325 15.9678461,15.2086277 15.6017706,15.2582901 L15.5,15.2651367 L8.5,15.2651367 C8.12030423,15.2651367 7.80650904,14.9829828 7.75684662,14.6169073 L7.75,14.5151367 L7.75,13.5151367 C7.75,11.8909835 8.6610471,10.4796168 9.99997951,9.76419831 C9.68595904,9.34726911 9.5,8.82791944 9.5,8.26513672 C9.5,6.88442484 10.6192881,5.76513672 12,5.76513672 Z M12,10.7651367 C10.5374682,10.7651367 9.34159572,11.9068413 9.25501879,13.3476144 L9.25,13.5151367 L9.25,13.765 L14.75,13.765 L14.75,13.5151367 C14.75,12.1111062 13.697805,10.9528289 12.3389256,10.7858154 L12.1675223,10.7701555 L12,10.7651367 Z M12,7.26513672 C11.4477153,7.26513672 11,7.71285197 11,8.26513672 C11,8.81742147 11.4477153,9.26513672 12,9.26513672 C12.5522847,9.26513672 13,8.81742147 13,8.26513672 C13,7.71285197 12.5522847,7.26513672 12,7.26513672 Z" id="health" fill="currentColor" fill-rule="nonzero"></path>
</g>
</svg>