<svg width="24" height="24" viewBox="0 0 24 24" fill="none" xmlns="http://www.w3.org/2000/svg">
<path d="M6.33674 19.2767C6.16305 19.4547 5.93904 19.5577 5.72193 19.5577C5.61831 19.5577 5.47028 19.5327 5.35482 19.4137C5.11008 19.1627 5.17225 18.6567 5.48903 18.3317L13.7835 9.79873C14.0154 9.56073 14.0381 9.20973 13.8763 8.93773C13.2476 7.66273 13.4203 6.19573 14.3174 5.27473C14.8167 4.76173 15.4789 4.47973 16.1865 4.44973L15.2273 5.40673C14.8108 5.81873 14.6391 6.40673 14.7674 6.98373L15.0062 8.04773C15.1454 8.66673 15.6092 9.14973 16.2181 9.30673L17.2582 9.57373C17.3944 9.60873 17.5316 9.62573 17.6677 9.62573C18.0763 9.62573 18.475 9.47273 18.7858 9.18673L19.7885 8.26173C19.7431 8.96373 19.4638 9.61873 18.9664 10.1307C18.095 11.0277 16.6987 11.2127 15.4917 10.5947C15.4681 10.5827 15.4434 10.5827 15.4177 10.5737C15.4138 10.5717 15.4098 10.5717 15.4059 10.5707C15.319 10.5387 15.2312 10.5217 15.1424 10.5247C15.1414 10.5247 15.1404 10.5247 15.1394 10.5247C15.0486 10.5267 14.9628 10.5447 14.8799 10.5787C14.8671 10.5847 14.8552 10.5937 14.8414 10.6007C14.7743 10.6337 14.7111 10.6727 14.6569 10.7277C14.649 10.7347 14.6391 10.7357 14.6322 10.7437L11.0795 14.3977L11.0558 14.4227L6.33674 19.2767ZM18.0082 19.0997C17.8513 19.2607 17.6668 19.3427 17.4615 19.3427C17.1684 19.3427 16.8388 19.1717 16.5289 18.8517L12.5934 14.9177L13.8674 13.6087L17.8316 17.5747C18.3585 18.1167 18.4227 18.6727 18.0082 19.0997ZM6.74233 8.19973L5.04396 7.61373L4.09955 5.67673L4.66797 5.08973L6.5272 6.06173L7.00089 7.68673C7.03444 7.80273 7.0976 7.90973 7.18444 7.99573L10.3897 11.1877L10.1578 11.4257L7.01174 8.36573C6.93477 8.29073 6.84299 8.23473 6.74233 8.19973ZM16.9641 12.4007C18.1039 12.4007 19.2013 11.9657 20.0105 11.1317C21.174 9.93573 21.547 8.22873 21.0082 6.56873C21.0062 6.56373 21.0033 6.56073 21.0013 6.55673C20.9875 6.51373 20.9569 6.47673 20.9332 6.43573C20.9086 6.39273 20.8888 6.34573 20.8553 6.30873C20.8533 6.30573 20.8523 6.30173 20.8493 6.29873C20.8266 6.27473 20.7961 6.26373 20.7724 6.24373C20.726 6.20673 20.6826 6.16773 20.6293 6.14173C20.5878 6.12173 20.5434 6.11573 20.499 6.10473C20.4536 6.09273 20.4112 6.07573 20.3638 6.07273C20.3046 6.06873 20.2483 6.08173 20.1901 6.09173C20.1585 6.09773 20.127 6.09273 20.0934 6.10273C20.0905 6.10473 20.0875 6.10773 20.0835 6.10973C20.0381 6.12473 19.9987 6.15473 19.9562 6.17973C19.9148 6.20473 19.8694 6.22273 19.8339 6.25473C19.8309 6.25673 19.826 6.25773 19.823 6.26073L17.797 8.12973C17.7477 8.17673 17.6845 8.19273 17.6214 8.17773L16.5812 7.91073C16.5052 7.89073 16.4431 7.82173 16.4253 7.73473L16.1855 6.67073C16.1658 6.58073 16.1904 6.48873 16.2536 6.42573L18.1996 4.48573C18.2016 4.48373 18.2026 4.48073 18.2056 4.47773C18.2352 4.44773 18.2529 4.40573 18.2776 4.37073C18.3062 4.32573 18.3418 4.28573 18.3615 4.23673C18.3625 4.23473 18.3645 4.23273 18.3645 4.22973C18.3763 4.19873 18.3733 4.16773 18.3802 4.13573C18.3941 4.07773 18.4098 4.02073 18.4079 3.96173C18.4069 3.91373 18.3921 3.86973 18.3812 3.82273C18.3714 3.77873 18.3674 3.73473 18.3506 3.69273C18.323 3.63273 18.2816 3.58073 18.2401 3.52873C18.2233 3.50873 18.2164 3.48473 18.1987 3.46673C18.1967 3.46473 18.1947 3.46473 18.1927 3.46373C18.1464 3.41873 18.0871 3.38773 18.0289 3.35573C18.0013 3.34073 17.9796 3.31873 17.952 3.30773C17.948 3.30573 17.945 3.30273 17.9411 3.30073C16.2585 2.67173 14.4654 3.04473 13.2733 4.27273C12.0526 5.52773 11.7328 7.43273 12.396 9.15073L11.4121 10.1627L8.34399 7.10873L7.83675 5.36573C7.78148 5.17773 7.6522 5.01973 7.47753 4.92873L4.85942 3.56073C4.57225 3.41073 4.22192 3.46773 3.9979 3.69873L2.70217 5.04073C2.49197 5.25773 2.44065 5.58273 2.57289 5.85473L3.86863 8.51073C3.95251 8.68273 4.10152 8.81473 4.2831 8.87773L6.11173 9.50873L9.16208 12.4767L4.44495 17.3307C3.58047 18.2177 3.52027 19.6027 4.30975 20.4167C4.67587 20.7927 5.17817 21.0007 5.72193 21.0007C6.33081 21.0007 6.93477 20.7367 7.38082 20.2767L11.5848 15.9537L15.4917 19.8607C16.2338 20.6247 16.972 20.7857 17.4615 20.7857C18.0595 20.7857 18.623 20.5427 19.0523 20.1017C19.8615 19.2687 20.122 17.8537 18.8687 16.5657L14.874 12.5697L15.3319 12.0987C15.8677 12.3007 16.4204 12.4007 16.9641 12.4007Z" fill="currentColor"/>
</svg>
