<svg width="24" height="24" viewBox="0 0 24 24" fill="none" xmlns="http://www.w3.org/2000/svg">
<path id="fees" fill="currentColor" d="M14.2432 3.99933C17.9692 3.99933 21.0002 7.06233 21.0002 10.8263C21.0002 14.3743 18.3052 17.2973 14.8742 17.6203C13.5862 19.1313 11.7332 19.9993 9.7562 19.9993C6.0312 19.9993 3.0002 16.9373 3.0002 13.1733C3.0002 9.69533 5.5762 6.77933 8.9922 6.39033C9.0332 6.38533 9.0702 6.39733 9.1102 6.40033C10.3502 4.93433 12.1892 3.99933 14.2432 3.99933ZM8.1552 7.88633C5.8922 8.58133 4.2842 10.7013 4.2842 13.1733C4.2842 16.2223 6.7392 18.7013 9.7562 18.7013C10.9832 18.7013 12.1532 18.2903 13.1022 17.5473C9.9202 16.9973 7.4872 14.1963 7.4872 10.8263C7.4872 9.77233 7.7322 8.77833 8.1552 7.88633ZM14.2432 5.29733C11.2262 5.29733 8.7722 7.77833 8.7722 10.8263C8.7722 13.8743 11.2262 16.3533 14.2432 16.3533C17.2612 16.3533 19.7152 13.8743 19.7152 10.8263C19.7152 7.77833 17.2612 5.29733 14.2432 5.29733ZM16.2949 11.1897C17.2279 11.1897 17.9849 11.9567 17.9849 12.8977C17.9849 13.8407 17.2279 14.6067 16.2949 14.6067C15.3619 14.6067 14.6039 13.8407 14.6039 12.8977C14.6039 11.9567 15.3619 11.1897 16.2949 11.1897ZM16.3309 7.66723C16.6199 7.37523 17.0889 7.37523 17.3789 7.66723C17.6679 7.95923 17.6679 8.43323 17.3789 8.72623L12.1649 13.9942C12.0209 14.1392 11.8309 14.2122 11.6409 14.2122C11.4509 14.2122 11.2619 14.1392 11.1169 13.9942C10.8279 13.7012 10.8279 13.2272 11.1169 12.9342L16.3309 7.66723ZM16.2949 12.5877C16.1249 12.5877 15.9869 12.7277 15.9869 12.8977C15.9869 13.0687 16.1249 13.2087 16.2949 13.2087C16.4639 13.2087 16.6019 13.0687 16.6019 12.8977C16.6019 12.7277 16.4639 12.5877 16.2949 12.5877ZM12.1924 7.04513C13.1244 7.04513 13.8824 7.81213 13.8824 8.75413C13.8824 9.69513 13.1244 10.4621 12.1924 10.4621C11.2604 10.4621 10.5014 9.69513 10.5014 8.75413C10.5014 7.81213 11.2604 7.04513 12.1924 7.04513ZM12.1924 8.44313C12.0234 8.44313 11.8854 8.58313 11.8854 8.75413C11.8854 8.92413 12.0234 9.06413 12.1924 9.06413C12.3614 9.06413 12.4994 8.92413 12.4994 8.75413C12.4994 8.58313 12.3614 8.44313 12.1924 8.44313Z"/>
</svg>
