<?xml version="1.0" encoding="UTF-8"?><svg id="Lag_1" xmlns="http://www.w3.org/2000/svg" viewBox="0 0 240 150"><defs><style>.cls-1{fill:#00e89a;}.cls-2{fill:#d1d1d1;}.cls-3{fill:none;stroke:#d1d1d1;stroke-miterlimit:10;}</style></defs><line id="Line_20" class="cls-3" x1="64.5" y1="74.99" x2="175.5" y2="74.99"/><g><g><path id="Path_25" class="cls-2" d="M90.47,75c0,2.73-2.22,4.95-4.95,4.95s-4.95-2.22-4.95-4.95,2.22-4.95,4.95-4.95h0c2.73,0,4.95,2.22,4.95,4.95"/><path id="Path_25-2" class="cls-2" d="M90.52,75c0,2.76-2.24,5-5,5s-5-2.24-5-5,2.24-5,5-5h0c2.76,0,5,2.24,5,5"/></g><path id="Path_25-3" class="cls-1" d="M89.57,75c0,2.24-1.81,4.05-4.05,4.05s-4.05-1.81-4.05-4.05,1.81-4.05,4.05-4.05h0c2.24,0,4.05,1.81,4.05,4.05"/></g></svg>