<svg xmlns="http://www.w3.org/2000/svg" width="24" height="24" viewBox="0 0 24 24">
<path id="menu-no-decoration" fill="currentColor" d="M4.75,17.5 C4.336,17.5 4,17.164 4,16.75 C4,16.336 4.336,16 4.75,16 L19.25,16 C19.664,16 20,16.336 20,16.75 C20,17.164 19.664,17.5 19.25,17.5 L4.75,17.5 Z M4.75,12.75 C4.336,12.75 4,12.414 4,12 C4,11.586 4.336,11.25 4.75,11.25 L19.25,11.25 C19.664,11.25 20,11.586 20,12 C20,12.414 19.664,12.75 19.25,12.75 L4.75,12.75 Z M4.75,8 C4.336,8 4,7.664 4,7.25 C4,6.836 4.336,6.5 4.75,6.5 L19.25,6.5 C19.664,6.5 20,6.836 20,7.25 C20,7.664 19.664,8 19.25,8 L4.75,8 Z"/></svg>