<svg width="24px" height="24px" viewBox="0 0 24 24" version="1.1" xmlns="http://www.w3.org/2000/svg" xmlns:xlink="http://www.w3.org/1999/xlink">
    <g stroke="none" stroke-width="1" fill="none" fill-rule="evenodd">
        <path d="M12,3 C16.963,3 21,7.038 21,12 C21,16.963 16.963,21 12,21 C7.038,21 3,16.963 3,12 C3,7.038 7.038,3 12,3 Z M12,4.5 C7.864,4.5 4.5,7.864 4.5,12 C4.5,16.136 7.864,19.5 12,19.5 C16.136,19.5 19.5,16.136 19.5,12 C19.5,7.864 16.136,4.5 12,4.5 Z M12,15.6035 C12.414,15.6035 12.75,15.9385 12.75,16.3535 C12.75,16.7675 12.414,17.1035 12,17.1035 C11.586,17.1035 11.25,16.7675 11.25,16.3535 C11.25,15.9385 11.586,15.6035 12,15.6035 Z M12.1123,6.9399 C14.3083,6.9399 15.3083,8.3989 15.3083,9.7549 C15.3083,10.9699 14.5003,11.6169 13.8503,12.1369 C13.1223,12.7209 12.6763,13.1249 12.6893,14.0299 C12.6953,14.4439 12.3643,14.7849 11.9503,14.7909 L11.9393,14.7909 C11.5303,14.7909 11.1953,14.4619 11.1893,14.0519 C11.1653,12.3659 12.1753,11.5569 12.9133,10.9659 C13.5023,10.4949 13.8083,10.2279 13.8083,9.7549 C13.8083,9.6199 13.7603,8.4399 12.1123,8.4399 C10.5933,8.4399 10.1923,9.4149 10.1923,9.9299 C10.1923,10.3439 9.8563,10.6799 9.4423,10.6799 C9.0283,10.6799 8.6923,10.3439 8.6923,9.9299 C8.6923,8.7739 9.6203,6.9399 12.1123,6.9399 Z" id="help-decoration" fill="currentColor" fill-rule="nonzero"></path>
    </g>
</svg>