<?xml version="1.0" encoding="iso-8859-1"?>
<!-- Generator: Adobe Illustrator 16.0.0, SVG Export Plug-In . SVG Version: 6.00 Build 0)  -->
<!DOCTYPE svg PUBLIC "-//W3C//DTD SVG 1.1//EN" "http://www.w3.org/Graphics/SVG/1.1/DTD/svg11.dtd">
<svg version="1.1" id="Capa_1" xmlns="http://www.w3.org/2000/svg" xmlns:xlink="http://www.w3.org/1999/xlink" x="0px" y="0px"
	 width="478.125px" height="478.125px" viewBox="0 0 478.125 478.125" style="enable-background:new 0 0 478.125 478.125;"
	 xml:space="preserve">
<g>
	<path d="M239.062,0C107.1,0,0,107.1,0,239.062c0,131.963,107.1,239.062,239.062,239.062c131.963,0,239.062-107.1,239.062-239.062
		C478.125,107.1,371.025,0,239.062,0z M248.625,87.975l66.938-55.462c38.25,15.3,72.675,40.162,97.537,72.675l-28.688,74.587
		l-72.675,30.6l-63.112-49.725V87.975z M162.562,32.513L229.5,87.975v72.675l-63.112,51.638l-72.675-30.6l-28.688-76.5
		C89.888,72.675,122.4,47.812,162.562,32.513z M59.288,365.287c-22.95-32.512-38.25-72.675-40.163-116.662L91.8,200.812
		l66.938,28.688l24.863,82.237l-47.812,49.726L59.288,365.287z M302.175,449.438C283.05,455.175,262.013,459,239.062,459
		s-42.075-3.825-63.112-9.562l-21.038-80.325l43.987-43.987h78.413l45.9,45.9L302.175,449.438z M338.513,361.463l-45.9-47.812
		l24.862-84.15l66.938-28.688L459,248.625c-1.912,43.987-17.213,84.15-40.162,116.662L338.513,361.463z"/>
</g>
<g>
</g>
<g>
</g>
<g>
</g>
<g>
</g>
<g>
</g>
<g>
</g>
<g>
</g>
<g>
</g>
<g>
</g>
<g>
</g>
<g>
</g>
<g>
</g>
<g>
</g>
<g>
</g>
<g>
</g>
</svg>
