<?xml version="1.0" standalone="no"?> 
<!DOCTYPE svg PUBLIC "-//W3C//DTD SVG 1.1//EN" "http://www.w3.org/Graphics/SVG/1.1/DTD/svg11.dtd" >
<svg xmlns="http://www.w3.org/2000/svg">
<defs>
  <font id="kirby" horiz-adv-x="24">
    <font-face font-family="kirby"
      units-per-em="24" ascent="24"
      descent="0" />
    <missing-glyph horiz-adv-x="0" />
    <glyph glyph-name="Formue"
      unicode="&#xF101;"
      horiz-adv-x="24" d=" M17.1298 4.5407C19.0658 5.3467 19.5198 6.9507 18.5208 9.4427C17.4878 12.0157 15.4628 15.2377 12.8378 16.6707L10.9998 16.6707C8.4368 15.2657 5.7358 11.2787 5.1708 8.8217C4.6068 6.3727 5.1508 4.9797 6.9328 4.3057C10.0428 3.1237 13.9488 3.2167 17.1298 4.5407zM10.3988 20.3187C10.0248 20.4737 9.8758 20.5217 9.7788 20.4927C9.7938 20.1007 10.4128 19.0577 11.1578 18.1547L12.6648 18.1547C13.3778 19.0787 13.9358 20.1267 13.9088 20.5117C13.7648 20.4897 13.5018 20.3937 13.3168 20.3257C12.9088 20.1777 12.4018 19.9917 11.8508 19.9757C11.2608 19.9577 10.7868 20.1587 10.3988 20.3187zM19.8728 10.0037C21.6448 5.5867 19.2618 3.8247 17.6838 3.1667C15.8198 2.3907 13.7278 1.9997 11.6588 1.9997C9.8368 1.9997 8.0338 2.3027 6.4218 2.9127C3.9128 3.8647 3.0128 5.9667 3.7488 9.1607C4.3648 11.8377 6.9478 15.7667 9.7108 17.6077C9.0608 18.4557 8.2138 19.7667 8.3328 20.7367C8.3818 21.1367 8.5848 21.4777 8.9038 21.6957C9.6718 22.2227 10.4098 21.9167 10.9498 21.6937C11.2498 21.5687 11.5328 21.4547 11.8088 21.4587C12.1268 21.4687 12.4808 21.5977 12.8218 21.7227C13.4758 21.9607 14.3708 22.2887 15.0228 21.5157C15.8898 20.4867 14.9218 18.7437 14.1018 17.6117C16.7808 15.8707 18.8188 12.6297 19.8728 10.0037zM10.4725 9.3581L12.0685 6.9681C12.2955 6.6291 12.2085 6.1691 11.8745 5.9381C11.7485 5.8511 11.6065 5.8091 11.4645 5.8091C11.2305 5.8091 11.0015 5.9231 10.8605 6.1351L9.4195 8.2921L9.2615 8.1301L9.2615 6.5511C9.2615 6.1421 8.9345 5.8091 8.5315 5.8091C8.1275 5.8091 7.8005 6.1421 7.8005 6.5511L7.8005 8.4401L7.8005 11.3751C7.8005 11.7841 8.1275 12.1171006 8.5315 12.1171006C8.9345 12.1171006 9.2615 11.7841 9.2615 11.3751L9.2615 10.2281L10.9115 11.9001C11.1975 12.1901 11.6605 12.1891 11.9445 11.8991C12.2295 11.6081 12.2285 11.1381 11.9435 10.8481L10.4725 9.3581zM14.1093 10.6325L14.1093 9.7055L14.7383 9.7055C14.9903 9.7055 15.1943 9.9125 15.1943 10.1695C15.1943 10.4245 14.9903 10.6325 14.7383 10.6325L14.1093 10.6325zM15.9623 8.6825L16.9633 6.9225C17.1643 6.5685 17.0453 6.1135 16.6953 5.9085C16.5803 5.8415 16.4553 5.8095 16.3313 5.8095C16.0783 5.8095 15.8333 5.9425 15.6973 6.1805L14.5373 8.2215L14.1093 8.2215L14.1093 6.5515C14.1093 6.1425 13.7823 5.8095 13.3793 5.8095C12.9753 5.8095 12.6483 6.1425 12.6483 6.5515L12.6483 8.9635L12.6483 11.3745C12.6483 11.7845 12.9753 12.1165 13.3793 12.1165L14.7383 12.1165C15.7963 12.1165 16.6553 11.2425 16.6553 10.1695C16.6553 9.5705 16.3813 9.0395 15.9623 8.6825z" />
    <glyph glyph-name="QR"
      unicode="&#xF102;"
      horiz-adv-x="24" d=" M5.0884 18.6189L5.0884 15.3939C5.0884 15.2589 5.1994 15.1479 5.3364 15.1479L8.3314 15.1479C8.4674 15.1479 8.5794 15.2589 8.5794 15.3939L8.5794 18.6189C8.5794 18.7549 8.4674 18.8659 8.3314 18.8659L5.3364 18.8659C5.1994 18.8659 5.0884 18.7549 5.0884 18.6189zM5.3364 13.6659C4.3804 13.6659 3.6024 14.4419 3.6024 15.3939L3.6024 18.6189C3.6024 19.5719 4.3804 20.3469 5.3364 20.3469L8.3314 20.3469C9.2874 20.3469 10.0654 19.5719 10.0654 18.6189L10.0654 15.3939C10.0654 14.4419 9.2874 13.6659 8.3314 13.6659L5.3364 13.6659zM19.0146 15.7195L19.0146 18.7715C19.0146 18.9075 18.9036 19.0185 18.7666 19.0185L15.7706 19.0185C15.6346 19.0185 15.5236 18.9075 15.5236 18.7715L15.5236 15.7195C15.5236 15.5835 15.6346 15.4725 15.7706 15.4725L18.7666 15.4725C18.9036 15.4725 19.0146 15.5835 19.0146 15.7195zM18.7666 20.5005C19.7226 20.5005 20.4996 19.7245 20.4996 18.7715L20.4996 15.7195C20.4996 14.7665 19.7226 13.9915 18.7666 13.9915L15.7706 13.9915C14.8156 13.9915 14.0366 14.7665 14.0366 15.7195L14.0366 18.7715C14.0366 19.7245 14.8156 20.5005 15.7706 20.5005L18.7666 20.5005zM4.7979 12.7258L5.6039 12.7258C6.0139 12.7258 6.3469 12.3938 6.3469 11.9848C6.3469 11.5768 6.0139 11.2448 5.6039 11.2448L4.7979 11.2448C4.3879 11.2448 4.0549 11.5768 4.0549 11.9848C4.0549 12.3938 4.3879 12.7258 4.7979 12.7258zM9.6484 12.6643C10.0584 12.6643 10.3914 12.3323 10.3914 11.9233C10.3914 11.5153 10.0584 11.1833 9.6484 11.1833L7.9174 11.1833C7.5074 11.1833 7.1744 11.5153 7.1744 11.9233C7.1744 12.3323 7.5074 12.6643 7.9174 12.6643L9.6484 12.6643zM12.0205 13.3948C11.6105 13.3948 11.2775 13.7268 11.2775 14.1358L11.2775 14.9388C11.2775 15.3488 11.6105 15.6798 12.0205 15.6798C12.4305 15.6798 12.7635 15.3488 12.7635 14.9388L12.7635 14.1358C12.7635 13.7268 12.4305 13.3948 12.0205 13.3948zM12.082 16.5051C11.672 16.5051 11.339 16.8371 11.339 17.2461L11.339 18.9711C11.339 19.3801 11.672 19.7121 12.082 19.7121C12.492 19.7121 12.825 19.3801 12.825 18.9711L12.825 17.2461C12.825 16.8371 12.492 16.5051 12.082 16.5051zM12.8252 6.7092C12.8252 6.3012 12.4922 5.9692 12.0822 5.9692C11.6722 5.9692 11.3392 6.3012 11.3392 6.7092L11.3392 6.9272C11.3392 7.3352 11.6722 7.6672 12.0822 7.6672C12.4922 7.6672 12.8252 7.3352 12.8252 6.9272L12.8252 6.7092zM15.1738 4.9817C15.5838 4.9817 15.9168 4.6497 15.9168 4.2407C15.9168 3.8317 15.5838 3.5007 15.1738 3.5007L12.7348 3.5007C12.3248 3.5007 11.9918 3.8317 11.9918 4.2407C11.9918 4.6497 12.3248 4.9817 12.7348 4.9817L15.1738 4.9817zM18.873 10.1809C19.283 10.1809 19.616 9.8499 19.616 9.4409C19.616 9.0319 19.283 8.7009 18.873 8.7009L17.886 8.7009C17.476 8.7009 17.143 9.0319 17.143 9.4409C17.143 9.8499 17.476 10.1809 17.886 10.1809L18.873 10.1809zM12.0195 8.4543C11.6095 8.4543 11.2765 8.7853 11.2765 9.1943L11.2765 9.7113C11.2765 10.1193 11.6095 10.4513 12.0195 10.4513C12.4295 10.4513 12.7625 10.1193 12.7625 9.7113L12.7625 9.1943C12.7625 8.7853 12.4295 8.4543 12.0195 8.4543zM12.1616 11.9851C12.1616 12.3941 12.4946 12.7261 12.9046 12.7261L13.1886 12.7261C13.5986 12.7261 13.9316 12.3941 13.9316 11.9851C13.9316 11.5761 13.5986 11.2451 13.1886 11.2451L12.9046 11.2451C12.4946 11.2451 12.1616 11.5761 12.1616 11.9851zM17.4111 17.9861C17.8211 17.9861 18.1541 17.6541 18.1541 17.2461C18.1541 16.8371 17.8211 16.5051 17.4111 16.5051L17.1271 16.5051C16.7171 16.5051 16.3841 16.8371 16.3841 17.2461C16.3841 17.6541 16.7171 17.9861 17.1271 17.9861L17.4111 17.9861zM20.1924 11.9851C20.1924 11.5761 19.8594 11.2451 19.4494 11.2451L15.5374 11.2451C15.1274 11.2451 14.7954 11.5761 14.7954 11.9851C14.7954 12.3941 15.1274 12.7261 15.5374 12.7261L19.4494 12.7261C19.8594 12.7261 20.1924 12.3941 20.1924 11.9851zM18.3311 6.927C18.3311 6.518 17.9981 6.186 17.5881 6.186L16.5251 6.186C16.1151 6.186 15.7821 6.518 15.7821 6.927C15.7821 7.335 16.1151 7.667 16.5251 7.667L17.5881 7.667C17.9981 7.667 18.3311 7.335 18.3311 6.927zM6.6914 16.2659C6.2814 16.2659 5.9484 16.5979 5.9484 17.0069C5.9484 17.4149 6.2814 17.7469 6.6914 17.7469L6.9764 17.7469C7.3864 17.7469 7.7194 17.4149 7.7194 17.0069C7.7194 16.5979 7.3864 16.2659 6.9764 16.2659L6.6914 16.2659zM6.9062 7.5813C7.3162 7.5813 7.6492 7.2493 7.6492 6.8413C7.6492 6.4323 7.3162 6.1003 6.9062 6.1003L6.6212 6.1003C6.2112 6.1003 5.8792 6.4323 5.8792 6.8413C5.8792 7.2493 6.2112 7.5813 6.6212 7.5813L6.9062 7.5813zM19.7568 7.6672C20.1668 7.6672 20.4998 7.3352 20.4998 6.9272L20.4998 4.2402C20.4998 3.8312 20.1668 3.5002 19.7568 3.5002L17.8858 3.5002C17.4758 3.5002 17.1428 3.8312 17.1428 4.2402C17.1428 4.6492 17.4758 4.9812 17.8858 4.9812L19.0148 4.9812L19.0148 6.9272C19.0148 7.3352 19.3468 7.6672 19.7568 7.6672zM14.7803 7.3333C14.3703 7.3333 14.0373 7.6653 14.0373 8.0743L14.0373 9.4403C14.0373 9.8503 14.3703 10.1813 14.7803 10.1813L15.5373 10.1813C15.9473 10.1813 16.2803 9.8503 16.2803 9.4403C16.2803 9.0313 15.9473 8.7003 15.5373 8.7003L15.5233 8.7003L15.5233 8.0743C15.5233 7.6653 15.1903 7.3333 14.7803 7.3333zM8.543 5.2278L8.543 8.4538C8.543 8.5888 8.432 8.7008 8.295 8.7008L5.233 8.7008C5.097 8.7008 4.986 8.5888 4.986 8.4538L4.986 5.2278C4.986 5.0918 5.097 4.9818 5.233 4.9818L8.295 4.9818C8.432 4.9818 8.543 5.0918 8.543 5.2278zM8.295 10.1808C9.251 10.1808 10.029 9.4058 10.029 8.4538L10.029 5.2278C10.029 4.2758 9.251 3.4998 8.295 3.4998L5.233 3.4998C4.278 3.4998 3.5 4.2758 3.5 5.2278L3.5 8.4538C3.5 9.4058 4.278 10.1808 5.233 10.1808L8.295 10.1808z" />
    <glyph glyph-name="Udlansk betaling"
      unicode="&#xF103;"
      horiz-adv-x="24" d=" M4.614 9.9358C5.428 8.2298 6.981 6.9368 8.867 6.4568C8.36 7.3028 7.963 8.2498 7.698 9.2638C6.539 9.4118 5.501 9.6398 4.614 9.9358zM9.269 18.9318C7.371 18.5738 5.766 17.4008 4.842 15.7968C5.605 15.5228 6.561 15.3108 7.626 15.1698C7.949 16.5688 8.507 17.8558 9.269 18.9318zM16.205 15.6638C15.371 17.1978 13.964 18.3178 12.301 18.7908C13.01 17.7508 13.541 16.5178 13.851 15.1718C14.723 15.2898 15.523 15.4538 16.205 15.6638zM9.12 15.0238C9.643 14.9908 10.178 14.9698 10.727 14.9698C11.276 14.9698 11.815 14.9888 12.34 15.0218C12.016 16.3248 11.469 17.4958 10.734 18.4238C9.99 17.4868 9.44 16.3188 9.12 15.0238zM7.415 10.7728C7.346 11.3038 7.3 11.8428 7.3 12.3908C7.3 12.8468 7.331 13.2968 7.38 13.7418C6.198 13.9028 5.128 14.1448 4.263 14.4588C4.09 13.8838 3.994 13.2768 3.994 12.6468C3.994 12.3308 4.025 12.0208 4.071 11.7158C4.89 11.3028 6.065 10.9798 7.415 10.7728zM10.974 6.0628C11.133 5.9298 11.239 5.7398 11.239 5.5198C11.239 5.1998 11.022 4.9358 10.725 4.8398C10.716 4.8368 10.706 4.8368 10.697 4.8338C10.631 4.8158 10.565 4.7938 10.492 4.7938C10.485 4.7938 10.478 4.7948 10.471 4.7948C10.469 4.7948 10.467 4.7938 10.465 4.7938C10.462 4.7938 10.459 4.7958 10.456 4.7958C6.066 4.8148 2.5 8.3288 2.5 12.6468C2.5 16.9678 6.07 20.4838 10.464 20.4988L10.468 20.4988C10.476 20.4988 10.484 20.4998 10.492 20.4998C10.61 20.4998 10.724 20.4798 10.841 20.4748C10.976 20.4988 11.113 20.4938 11.242 20.4458C14.153 20.1768 16.702 18.3868 17.857 15.7008C17.97 15.4378 17.906 15.1508 17.725 14.9488C17.657 14.7508 17.512 14.5798 17.297 14.4978C15.656 13.8748 13.262 13.5188 10.727 13.5188C10.093 13.5188 9.47 13.5438 8.864 13.5878C8.822 13.1938 8.794 12.7958 8.794 12.3908C8.794 9.9288 9.589 7.6308 10.974 6.0628zM13.1663 8.7913C13.4583 8.5083 13.4583 8.0493 13.1663 7.7653C13.0203 7.6233 12.8293 7.5533 12.6383 7.5533C12.4473 7.5533 12.2563 7.6233 12.1103 7.7653L9.9633 9.8513C9.6723 10.1343 9.6723 10.5943 9.9633 10.8773L12.0763 12.9283C12.3683 13.2113 12.8403 13.2113 13.1323 12.9283C13.4243 12.6453 13.4243 12.1863 13.1323 11.9023L12.2773 11.0723L17.3323 11.0723C17.7453 11.0723 18.0793 10.7473 18.0793 10.3473C18.0793 9.9463 17.7453 9.6213 17.3323 9.6213L12.3123 9.6213L13.1663 8.7913zM21.2815 6.7903C21.5725 6.5073 21.5725 6.0483 21.2815 5.7643L19.1695 3.7123C19.0225 3.5703 18.8325 3.5003 18.6405 3.5003C18.4495 3.5003 18.2585 3.5703 18.1125 3.7123C17.8205 3.9963 17.8205 4.4553 18.1125 4.7383L18.9665 5.5673L13.9125 5.5673C13.5005 5.5673 13.1655 5.8933 13.1655 6.2933C13.1655 6.6933 13.5005 7.0193 13.9125 7.0193L18.9335 7.0193L18.0785 7.8493C17.7865 8.1333 17.7865 8.5923 18.0785 8.8753C18.3705 9.1583 18.8435 9.1583 19.1355 8.8753L21.2815 6.7903z" />
    <glyph glyph-name="accounts-outline"
      unicode="&#xF104;"
      horiz-adv-x="24" d=" M9.537 4C7.914 4 6.594 5.4119718 6.594 7.1459371L6.594 7.9229215C6.594 8.3239135 6.922 8.648907 7.327 8.648907C7.731 8.648907 8.059 8.3239135 8.059 7.9229215L8.059 7.1459371C8.059 6.2119558 8.722 5.451971 9.537 5.451971L20.058 5.451971C20.872 5.451971 21.536 6.2119558 21.536 7.1459371L21.536 10.3968721C21.536 11.3318534 20.872 12.0928381 20.058 12.0928381C19.654 12.0928381 19.326 12.4168317 19.326 12.8178236C19.326 13.2188156 19.654 13.5438091 20.058 13.5438091C21.68 13.5438091 23 12.1328373 23 10.3968721L23 7.1459371C23 5.4119718 21.68 4 20.058 4L9.537 4zM5.057 17.54802904C4.18 17.54802904 3.465 16.8400432 3.465 15.97106058L3.465 12.4841303C3.465 11.6141477 4.18 10.9061619 5.057 10.9061619L15.351 10.9061619C16.228 10.9061619 16.942 11.6141477 16.942 12.4841303L16.942 15.97106058C16.942 16.8400432 16.228 17.54802904 15.351 17.54802904L5.057 17.54802904zM15.351 9.4551909L5.057 9.4551909C3.372 9.4551909 2 10.8141637 2 12.4841303L2 15.97106058C2 17.64102718 3.372 19 5.057 19L15.351 19C17.036 19 18.407 17.64102718 18.407 15.97106058L18.407 12.4841303C18.407 10.8141637 17.036 9.4551909 15.351 9.4551909z" />
    <glyph glyph-name="accounts"
      unicode="&#xF105;"
      horiz-adv-x="24" d=" M19.8893 13.7057L20.0403 13.7057C21.5923827 13.7057 22.852721 12.4581731 22.875 10.9123546L22.875 6.7920457C22.852721 5.2462446 21.5923827 3.9997 20.0403 3.9997L9.1503 3.9997C7.5853 3.9997 6.3163 5.2687 6.3163 6.8337L6.3163 8.0637L15.6373 8.0637C17.9853 8.0637 19.8893 9.9677 19.8893 12.3157L19.8893 13.7057zM18.5589 12.129C18.5589 10.563 17.2899 9.294 15.7249 9.294L4.8349 9.294C3.2689 9.294 1.9999 10.563 1.9999 12.129L1.9999 16.165C1.9999 17.731 3.2689 19 4.8349 19L15.7249 19C17.2899 19 18.5589 17.731 18.5589 16.165L18.5589 12.129z" />
    <glyph glyph-name="add"
      unicode="&#xF106;"
      horiz-adv-x="24" d=" M11.274 11.2744L5.2254 11.2744C4.8254 11.2744 4.5004 11.5994 4.5004 12.0004C4.5004 12.4004 4.8254 12.7254 5.2254 12.7254L11.274 12.7254L11.274 18.774C11.274 19.175 11.599 19.5 12 19.5C12.401 19.5 12.726 19.175 12.726 18.774L12.726 12.7254L18.7744 12.7254C19.1744 12.7254 19.5004 12.4004 19.5004 12.0004C19.5004 11.5994 19.1744 11.2744 18.7744 11.2744L12.726 11.2744L12.726 5.226C12.726 4.825 12.401 4.5 12 4.5C11.599 4.5 11.274 4.825 11.274 5.226L11.274 11.2744z" />
    <glyph glyph-name="afmeld"
      unicode="&#xF107;"
      horiz-adv-x="24" d=" M15.7344 15.7354C16.0264 15.4434 16.0264 14.9714 15.7344 14.6804L13.0544 12.0004L15.7344 9.3204C16.0264 9.0284 16.0264 8.5564 15.7344 8.2654C15.5884 8.1204 15.3984 8.0474 15.2074 8.0474C15.0154 8.0474 14.8254 8.1204 14.6794 8.2654L12.0004 10.9454L9.3204 8.2654C9.1744 8.1204 8.9834 8.0474 8.7934 8.0474C8.6024 8.0474 8.4114 8.1204 8.2654 8.2654C7.9744 8.5564 7.9744 9.0284 8.2654 9.3204L10.9454 12.0004L8.2654 14.6804C7.9744 14.9714 7.9744 15.4434 8.2654 15.7354C8.5564 16.0264 9.0284 16.0264 9.3204 15.7354L12.0004 13.0554L14.6794 15.7354C14.9704 16.0264 15.4434 16.0264 15.7344 15.7354zM12 4.4922C16.14 4.4922 19.508 7.8602 19.508 12.0002C19.508 16.1402 16.14 19.5082 12 19.5082C7.86 19.5082 4.492 16.1402 4.492 12.0002C4.492 7.8602 7.86 4.4922 12 4.4922zM12 21.0002C16.962 21.0002 21 16.9632 21 12.0002C21 7.0382 16.962 3.0002 12 3.0002C7.037 3.0002 3 7.0382 3 12.0002C3 16.9632 7.037 21.0002 12 21.0002z" />
    <glyph glyph-name="arrow-back"
      unicode="&#xF108;"
      horiz-adv-x="24" d=" M15.1896 5.0002C14.9736 5.0002 14.7596 5.0782 14.6006 5.2322L8.2116 11.5052C7.9296 11.7822 7.9296 12.2092 8.2116 12.4862L14.6116 18.7672C14.9126 19.0612 15.4186 19.0792 15.7436 18.8082C16.0666 18.5372 16.0876 18.0792 15.7886 17.7852L9.8886 11.9962L15.7786 6.2152C16.0776 5.9212 16.0566 5.4632 15.7326 5.1912C15.5786 5.0622 15.3836 5.0002 15.1896 5.0002" />
    <glyph glyph-name="arrow-down"
      unicode="&#xF109;"
      horiz-adv-x="24" d=" M3.5309181657322 74.19750384211C3.6277020668161 74.0044005627723 3.6538580809069 73.7781355347037 3.5874262996769 73.5669867283073L0.8421275713214 65.0444762327052C0.7208472552524 64.668252781902 0.339110679895 64.4769253478149 -0.0348831556708 64.6049160152824L-8.517747360874 67.5121442928179C-8.9154525384275 67.6495036454197 -9.1582697281336 68.0938006321112 -9.0616205575399 68.5057774977524C-8.9640752397138 68.9159663700664 -8.5640343137235 69.1399580161892 -8.1672252834023 69.0043866569146L-0.3482442447551 66.3237044920439L2.1807968595574 74.1796584333738C2.3096578674333 74.5786970789324 2.7285178853011 74.7651408651839 3.1168608294263 74.5973619697645C3.3011897359147 74.5174879800506 3.4439918842031 74.3709391948486 3.5309181657322 74.19750384211" />
    <glyph glyph-name="arrow-more"
      unicode="&#xF10A;"
      horiz-adv-x="24" d=" M-53.1074292652454 32.7692933559416C-52.9781618903289 32.9423423252601 -52.7876015299633 33.0671091039206 -52.5690688730801 33.1023295223674L-43.7198770079111 34.4667536988709C-43.3291919883385 34.5269053030188 -42.9870998128802 34.2713628535311 -42.9339462722562 33.8796643711251L-41.7320509851477 24.9933597907224C-41.6766485910284 24.5762655870635 -41.9650486385285 24.1601100721391 -42.3766605252561 24.0619181442403C-42.7870754918457 23.965328521613 -43.166571060462 24.2225990278911 -43.2231703747195 24.6380909262785L-44.3301285995758 32.8293768348378L-52.4865217935039 31.570285469589C-52.9010002290579 31.5066880918076 -53.2553604747738 31.7976070087865 -53.2793729293187 32.219961601548C-53.2905587686934 32.4205404563595 -53.2235305186426 32.6138697446092 -53.1074292652454 32.7692933559416" />
    <glyph glyph-name="arrow-up"
      unicode="&#xF10B;"
      horiz-adv-x="24" d=" M9.3074725407791 0.6976272890103C9.0948460394425 0.7356532134481 8.8979198858319 0.8501088381422 8.7685142314379 1.0296949640286L3.5836341513731 8.3294804958718C3.3548031684672 8.6517992531019 3.4299747876104 9.0721303460219 3.7563352248613 9.2951591894423L11.1621243201431 14.3513681702722C11.510180795546 14.5877866338703 12.0114468896026 14.5164262600672 12.2836625720644 14.1924438188427C12.553909490625 13.8688134695111 12.4939524681045 13.4142695712455 12.1478647566029 13.1774990157544L5.3208812423011 8.5175829814001L10.1011693346641 1.7899602965572C10.3437420296407 1.4479142650764 10.2424409651936 1.0007642965626 9.8756167157485 0.7900512926472C9.7013119682563 0.6901770967722 9.4984426392018 0.6634743753949 9.3074725407791 0.6976272890103" />
    <glyph glyph-name="attach"
      unicode="&#xF10C;"
      horiz-adv-x="24" d=" M9.18 4.0004C8.247 4.0004 7.325 4.2724 6.56 4.7874C4.459 6.2014 3.86 9.1454 5.253 11.2154L9.317 17.2554C9.555 17.6094 10.034 17.7034 10.388 17.4654C10.742 17.2274 10.836 16.7474 10.598 16.3944L6.534 10.3534C5.609 8.9774 6.015 7.0154 7.422 6.0674C8.087 5.6214 8.935 5.4484 9.746 5.5944C10.574 5.7424 11.277 6.1924 11.726 6.8604L17.619 15.6204C17.901 16.0404 18.011 16.5334 17.929 17.0094C17.848 17.4784 17.587 17.8814 17.193 18.1464C16.347 18.7154 15.151 18.4944 14.59 17.6584L9.37 9.8994C9.205 9.6544 9.262 9.3254 9.497 9.1664C9.732 9.0074 10.062 9.0774 10.227 9.3234L13.888 14.7654C14.126 15.1184 14.604 15.2124 14.96 14.9754C15.314 14.7374 15.407 14.2574 15.17 13.9034L11.508 8.4614C10.868 7.5094 9.58 7.2524 8.635 7.8854C7.694 8.5204 7.449 9.8104 8.089 10.7624L13.308 18.5194C14.336 20.0504 16.509 20.4654 18.055 19.4274C18.802 18.9244 19.297 18.1594 19.45 17.2734C19.601 16.4024 19.405 15.5094 18.899 14.7584L13.007 5.9984C12.323 4.9804 11.261 4.2974 10.019 4.0744C9.741 4.0234 9.46 4.0004 9.18 4.0004" />
    <glyph glyph-name="calendar"
      unicode="&#xF10D;"
      horiz-adv-x="24" d=" M17.2803 5.4414L6.7193 5.4414C5.4883 5.4414 4.4883 6.4114 4.4883 7.6024L4.4883 13.6854L19.5123 13.6854L19.5123 7.6024C19.5123 6.4114 18.5103 5.4414 17.2803 5.4414M6.7193 17.5654L7.4373 17.5654L7.4373 17.2924C7.4373 16.8944 7.7703 16.5714 8.1813 16.5714C8.5923 16.5714 8.9253 16.8944 8.9253 17.2924L8.9253 17.5654L15.0673 17.5654L15.0673 17.2924C15.0673 16.8944 15.4003 16.5714 15.8113 16.5714C16.2213 16.5714 16.5553 16.8944 16.5553 17.2924L16.5553 17.5654L17.2803 17.5654C18.5103 17.5654 19.5123 16.5954 19.5123 15.4034L19.5123 15.1264L4.4883 15.1264L4.4883 15.4034C4.4883 16.5954 5.4883 17.5654 6.7193 17.5654M17.2803 19.0064L16.5553 19.0064L16.5553 19.2794C16.5553 19.6774 16.2213 20.0004 15.8113 20.0004C15.4003 20.0004 15.0673 19.6774 15.0673 19.2794L15.0673 19.0064L8.9253 19.0064L8.9253 19.2794C8.9253 19.6774 8.5923 20.0004 8.1813 20.0004C7.7703 20.0004 7.4373 19.6774 7.4373 19.2794L7.4373 19.0064L6.7193 19.0064C4.6683 19.0064 3.0003 17.3904 3.0003 15.4034L3.0003 7.6024C3.0003 5.6164 4.6683 4.0004 6.7193 4.0004L17.2803 4.0004C19.3313 4.0004 21.0003 5.6164 21.0003 7.6024L21.0003 15.4034C21.0003 17.3904 19.3313 19.0064 17.2803 19.0064" />
    <glyph glyph-name="checkbox-outline"
      unicode="&#xF10E;"
      horiz-adv-x="24" d=" M14.8916 15.0571C15.1496 15.3671 15.6086 15.4071 15.9166 15.1501C16.2246 14.8931 16.2666 14.4351 16.0096 14.1261L11.6916 8.9421C11.5476 8.7691 11.3406 8.6811 11.1326 8.6811C10.9686 8.6811 10.8036 8.7361 10.6676 8.8491L8.0836 11.0011C7.7746 11.2591 7.7336 11.7171 7.9906 12.0251C8.2466 12.3351 8.7056 12.3761 9.0146 12.1191L11.0396 10.4321L14.8916 15.0571zM18.5459 7.6367L18.5459 16.3637C18.5459 17.5667 17.5669 18.5457 16.3629 18.5457L7.6359 18.5457C6.4329 18.5457 5.4549 17.5667 5.4549 16.3637L5.4549 7.6367C5.4549 6.4337 6.4329 5.4547 7.6359 5.4547L16.3629 5.4547C17.5669 5.4547 18.5459 6.4337 18.5459 7.6367zM16.3629 19.9997C18.3679 19.9997 19.9999 18.3687 19.9999 16.3637L19.9999 7.6367C19.9999 5.6317 18.3679 3.9997 16.3629 3.9997L7.6359 3.9997C5.6309 3.9997 3.9999 5.6317 3.9999 7.6367L3.9999 16.3637C3.9999 18.3687 5.6309 19.9997 7.6359 19.9997L16.3629 19.9997z" />
    <glyph glyph-name="checkbox"
      unicode="&#xF10F;"
      horiz-adv-x="24" d=" M16.4102 14.3389L11.6612 8.6369C11.5022 8.4469 11.2752 8.3489 11.0462 8.3489C10.8662 8.3489 10.6842 8.4089 10.5342 8.5339L7.6922 10.9009C7.3522 11.1849 7.3062 11.6889 7.5892 12.0279C7.8712 12.3679 8.3762 12.4139 8.7162 12.1309L10.9442 10.2769L15.1812 15.3629C15.4652 15.7039 15.9692 15.7479 16.3082 15.4659C16.6462 15.1829 16.6932 14.6789 16.4102 14.3389M16.8002 19.9999L7.2002 19.9999C5.4322 19.9999 4.0002 18.5679 4.0002 16.7999L4.0002 7.1999C4.0002 5.4329 5.4322 3.9999 7.2002 3.9999L16.8002 3.9999C18.5672 3.9999 20.0002 5.4329 20.0002 7.1999L20.0002 16.7999C20.0002 18.5679 18.5672 19.9999 16.8002 19.9999" />
    <glyph glyph-name="close"
      unicode="&#xF110;"
      horiz-adv-x="24" d=" M13.0996 12L18.7726 17.672C19.0766 17.976 19.0766 18.468 18.7726 18.772C18.4686 19.076 17.9766 19.076 17.6716 18.772L11.9996 13.1L6.3276 18.772C6.0236 19.076 5.5316 19.076 5.2276 18.772C4.9236 18.468 4.9236 17.976 5.2276 17.672L10.9006 12L5.2276 6.328C4.9236 6.023 4.9236 5.531 5.2276 5.228C5.3796 5.076 5.5786 5 5.7776 5C5.9766 5 6.1756 5.076 6.3276 5.228L11.9996 10.9L17.6716 5.228C17.8246 5.076 18.0226 5 18.2226 5C18.4216 5 18.6206 5.076 18.7726 5.228C19.0766 5.531 19.0766 6.023 18.7726 6.328L13.0996 12z" />
    <glyph glyph-name="cog"
      unicode="&#xF111;"
      horiz-adv-x="24" d=" M11.9999 10.1514C13.0249 10.1514 13.8589 10.9794 13.8589 12.0004C13.8589 13.0194 13.0249 13.8484 11.9999 13.8484C10.9749 13.8484 10.1419 13.0194 10.1419 12.0004C10.1419 10.9794 10.9749 10.1514 11.9999 10.1514zM11.9999 15.3444C13.8549 15.3444 15.3639 13.8434 15.3639 12.0004C15.3639 10.1554 13.8549 8.6554 11.9999 8.6554C10.1459 8.6554 8.6369 10.1554 8.6369 12.0004C8.6369 13.8434 10.1459 15.3444 11.9999 15.3444zM18.9335 9.2988C18.9955 9.4058 19.0105 9.5288 18.9785 9.6478C18.9465 9.7648 18.8715 9.8608 18.7665 9.9188L17.9685 10.3668C17.6975 10.5208 17.5485 10.8238 17.5955 11.1298C17.6415 11.4398 17.6835 11.7148 17.6835 11.9818C17.6835 12.2748 17.6525 12.5798 17.5815 12.9738C17.5265 13.2828 17.6715 13.5948 17.9455 13.7528L18.7065 14.1918C18.8165 14.2528 18.8615 14.3508 18.8795 14.4208C18.9125 14.5418 18.8935 14.6718 18.8265 14.7878L17.7155 16.6958C17.6515 16.8078 17.5505 16.8888 17.4335 16.9218C17.3725 16.9408 17.2535 16.9588 17.1365 16.8918L16.2755 16.3958C16.0095 16.2438 15.6825 16.2668 15.4395 16.4488C14.9965 16.7878 14.5295 17.0528 14.0495 17.2378C13.7605 17.3498 13.5695 17.6268 13.5695 17.9358L13.5695 18.5458C13.5695 18.7988 13.3625 19.0038 13.1085 19.0038L10.8925 19.0038C10.6375 19.0038 10.4315 18.7988 10.4315 18.5458L10.4315 17.9358C10.4315 17.6268 10.2405 17.3498 9.9515 17.2378C9.4735 17.0538 9.0075 16.7898 8.5655 16.4528C8.3255 16.2718 7.9995 16.2498 7.7375 16.3958L6.8065 16.9188C6.6755 16.9928 6.5465 16.9738 6.4845 16.9538C6.3665 16.9198 6.2665 16.8408 6.2045 16.7318L5.1135 14.8128C5.0515 14.7028 5.0345 14.5778 5.0655 14.4598C5.0825 14.3968 5.1305 14.2778 5.2615 14.2038L6.0485 13.7608C6.3275 13.6048 6.4755 13.2898 6.4185 12.9788C6.3485 12.5898 6.3165 12.2738 6.3165 11.9818C6.3165 11.7258 6.3565 11.4608 6.3985 11.1818C6.4455 10.8778 6.3045 10.5408 6.0375 10.3868L5.2205 9.9168C5.1205 9.8598 5.0495 9.7658 5.0195 9.6528C4.9895 9.5328 5.0065 9.4088 5.0705 9.3018L6.1795 7.3948C6.3065 7.1738 6.5795 7.0938 6.7915 7.2168L7.5915 7.6778C7.7095 7.7448 7.8385 7.7778 7.9685 7.7778C8.1375 7.7778 8.3055 7.7218 8.4435 7.6108C8.9215 7.2248 9.4285 6.9268 9.9515 6.7258C10.2415 6.6128 10.4315 6.3368 10.4315 6.0278L10.4315 5.4388C10.4315 5.1948 10.6375 4.9958 10.8925 4.9958L13.1085 4.9958C13.3625 4.9958 13.5695 5.1948 13.5695 5.4388L13.5695 6.0278C13.5695 6.3368 13.7595 6.6128 14.0495 6.7258C14.5685 6.9258 15.0725 7.2208 15.5455 7.6018C15.7875 7.7948 16.1215 7.8218 16.3905 7.6708L17.2225 7.2018C17.4385 7.0798 17.7175 7.1598 17.8445 7.3798L18.9335 9.2988zM20.4295 10.0438C20.5675 9.5408 20.5015 9.0158 20.2435 8.5628L19.1545 6.6438C18.6205 5.7068 17.4195 5.3718 16.4815 5.9008L16.0785 6.1268C15.7535 5.9008 15.4175 5.7028 15.0745 5.5388L15.0745 5.4388C15.0745 4.3698 14.1925 3.4998 13.1085 3.4998L10.8925 3.4998C9.8085 3.4998 8.9265 4.3698 8.9265 5.4388L8.9265 5.5378C8.5795 5.7038 8.2415 5.9038 7.9135 6.1338L7.5455 5.9218C6.6175 5.3878 5.4195 5.7128 4.8765 6.6448L3.7675 8.5518C3.5055 9.0018 3.4325 9.5258 3.5635 10.0268C3.6945 10.5308 4.0155 10.9528 4.4675 11.2128L4.8455 11.4298C4.8255 11.6108 4.8115 11.7908 4.8115 11.9818C4.8115 12.2138 4.8265 12.4528 4.8575 12.7118L4.5205 12.9018C4.0685 13.1548 3.7455 13.5738 3.6115 14.0778C3.4785 14.5758 3.5465 15.0988 3.8035 15.5498L4.8955 17.4678C5.1515 17.9188 5.5665 18.2468 6.0635 18.3908C6.5695 18.5358 7.0945 18.4758 7.5465 18.2218L8.0605 17.9328C8.3425 18.1188 8.6315 18.2838 8.9265 18.4248L8.9265 18.5458C8.9265 19.6228 9.8085 20.4998 10.8925 20.4998L13.1085 20.4998C14.1925 20.4998 15.0745 19.6228 15.0745 18.5458L15.0745 18.4248C15.3705 18.2838 15.6595 18.1188 15.9415 17.9318L16.3825 18.1868C16.8295 18.4438 17.3545 18.5038 17.8575 18.3588C18.3465 18.2158 18.7585 17.8908 19.0185 17.4448L20.1285 15.5368C20.3975 15.0758 20.4695 14.5428 20.3325 14.0348C20.2035 13.5488 19.8935 13.1438 19.4605 12.8958L19.1425 12.7118C19.1735 12.4518 19.1885 12.2138 19.1885 11.9818C19.1885 11.7858 19.1745 11.5998 19.1545 11.4198L19.5065 11.2228L19.5065 11.2218C19.9625 10.9658 20.2895 10.5468 20.4295 10.0438z" />
    <glyph glyph-name="edit"
      unicode="&#xF112;"
      horiz-adv-x="24" d=" M18.0169 15.8646L17.8939 15.7416L15.7199 17.9196L15.8419 18.0436C16.1329 18.3336 16.5189 18.4946 16.9299 18.4946C17.3409 18.4946 17.7269 18.3336 18.0169 18.0436C18.3069 17.7516 18.4679 17.3646 18.4679 16.9536C18.4679 16.5426 18.3069 16.1566 18.0169 15.8646L18.0169 15.8646zM9.4709 7.3016L7.2959 9.4806L14.6359 16.8346L16.8109 14.6566L9.4709 7.3016zM6.4689 8.1386L8.1309 6.4726L5.6749 5.6776L6.4689 8.1386zM19.0999 19.1286C17.9409 20.2906 15.9179 20.2906 14.7589 19.1286L5.6709 10.0236C5.4729 9.8236 5.3229 9.5786 5.2359 9.3086L4.0669 5.6846C3.9129 5.2216 4.0309 4.7196 4.3749 4.3756C4.6209 4.1306 4.9449 4.0006 5.2749 4.0006C5.4089 4.0006 5.5439 4.0206 5.6749 4.0646L9.2999 5.2386C9.5669 5.3246 9.8129 5.4756 10.0139 5.6766L19.0999 14.7796C19.6799 15.3606 19.9999 16.1326 19.9999 16.9536C19.9999 17.7756 19.6799 18.5476 19.0999 19.1286L19.0999 19.1286z" />
    <glyph glyph-name="filter"
      unicode="&#xF113;"
      horiz-adv-x="24" d=" M7.9227 18.5456L10.8747 12.9876C11.1537 12.4606 11.3017 11.8666 11.3017 11.2686L11.3017 6.2126L12.6987 7.3056L12.6987 11.2686C12.6987 11.8676 12.8467 12.4626 13.1267 12.9886L16.0777 18.5456L7.9227 18.5456zM10.5817 3.9996C10.4737 3.9996 10.3657 4.0246 10.2647 4.0746C10.0187 4.1966 9.8617 4.4496 9.8617 4.7276L9.8617 11.2686C9.8617 11.6276 9.7727 11.9836 9.6047 12.3006L6.0847 18.9286C5.9657 19.1546 5.9727 19.4266 6.1027 19.6466C6.2317 19.8656 6.4667 19.9996 6.7197 19.9996L17.2797 19.9996C17.5337 19.9996 17.7677 19.8656 17.8977 19.6466C18.0277 19.4266 18.0337 19.1546 17.9147 18.9286L14.3957 12.3006C14.2277 11.9846 14.1387 11.6276 14.1387 11.2686L14.1387 6.9496C14.1387 6.7256 14.0357 6.5126 13.8597 6.3746L11.0227 4.1526C10.8947 4.0526 10.7387 3.9996 10.5817 3.9996L10.5817 3.9996z" />
    <glyph glyph-name="flash-off"
      unicode="&#xF114;"
      horiz-adv-x="24" d=" M3.9705 12.0002C3.9705 14.3582 4.9985 16.4752 6.6225 17.9452L9.1965 14.6362L8.6575 12.7792C8.5535 12.4172 8.6225 12.0382 8.8485 11.7382C9.0745 11.4372 9.4185 11.2652 9.7945 11.2652L11.3705 11.2652L10.5955 5.9192C10.5435 5.5662 10.7545 5.2272 11.0945 5.1152C11.1695 5.0902 11.2465 5.0792 11.3225 5.0792C11.5885 5.0792 11.8415 5.2252 11.9715 5.4702L13.7365 8.7992L16.4445 5.3172C15.1695 4.4682 13.6425 3.9702 11.9995 3.9702C7.5725 3.9702 3.9705 7.5722 3.9705 12.0002M12.9285 12.1962C12.8995 12.3022 12.8465 12.3992 12.7765 12.4802C12.7055 12.5622 12.6165 12.6292 12.5145 12.6742C12.4395 12.7072 12.3585 12.7272 12.2735 12.7332C12.2515 12.7352 12.2325 12.7342 12.2065 12.7352L10.1765 12.7352L11.5445 17.4512L13.0355 17.4512L12.4085 14.8752C12.3555 14.6562 12.4055 14.4242 12.5445 14.2472C12.6845 14.0692 12.8975 13.9662 13.1235 13.9662L14.8095 13.9662L12.6595 9.9072L12.9455 11.8822C12.9495 11.9032 12.9515 11.9252 12.9535 11.9472C12.9595 12.0332 12.9505 12.1162 12.9285 12.1962M20.0305 12.0002C20.0305 9.7432 19.0895 7.7032 17.5855 6.2432L14.4905 10.2232L16.3315 13.6992C16.5285 14.0692 16.5155 14.5052 16.2985 14.8642C16.0825 15.2222 15.7035 15.4362 15.2845 15.4362L14.0585 15.4362L14.5305 17.3792C14.6445 17.7382 14.5785 18.1332 14.3565 18.4372C14.1345 18.7402 13.7775 18.9212 13.4015 18.9212L11.3295 18.9212C10.8055 18.9212 10.3385 18.5702 10.1925 18.0672L9.7025 16.3802L7.7975 18.8292C9.0215 19.5852 10.4585 20.0292 11.9995 20.0292C16.4275 20.0292 20.0305 16.4282 20.0305 12.0002M21.4995 12.0002C21.4995 17.2382 17.2385 21.5002 11.9995 21.5002C9.8645 21.5002 7.8975 20.7832 6.3095 19.5892C6.3015 19.5832 6.2925 19.5832 6.2845 19.5772C6.2785 19.5722 6.2765 19.5642 6.2695 19.5602C3.9845 17.8232 2.4995 15.0852 2.4995 12.0002C2.4995 6.7622 6.7615 2.5002 11.9995 2.5002C14.2325 2.5002 16.2835 3.2782 17.9065 4.5722C17.9165 4.5802 17.9295 4.5822 17.9405 4.5912C17.9475 4.5962 17.9495 4.6042 17.9565 4.6102C20.1155 6.3542 21.4995 9.0172 21.4995 12.0002" />
    <glyph glyph-name="flash"
      unicode="&#xF115;"
      horiz-adv-x="24" d=" M11.5487 6.937L12.2617 11.879C12.2657 11.901 12.2677 11.923 12.2697 11.945C12.2757 12.033 12.2667 12.119 12.2447 12.199C12.2157 12.309 12.1607 12.409 12.0887 12.492C12.0167 12.576 11.9267 12.644 11.8227 12.689C11.7477 12.722 11.6647 12.743 11.5787 12.749C11.5567 12.751 11.5357 12.751 11.5107 12.751L8.0227 12.751L10.1987 20.497L13.1777 20.497L12.1407 16.215C12.0867 15.991 12.1377 15.755 12.2787 15.573C12.4217 15.392 12.6377 15.286 12.8667 15.286L15.9487 15.286L11.5487 6.937zM17.2957 16.1C17.0377 16.532 16.5837 16.79 16.0827 16.79L13.8197 16.79L14.6307 20.148C14.7677 20.579 14.6897 21.053 14.4237 21.417C14.1577 21.782 13.7317 22 13.2807 22L10.1987 22C9.5727 22 9.0137 21.578 8.8397 20.974L6.5567 13.067C6.4317 12.633 6.5147 12.177 6.7847 11.816C7.0547 11.456 7.4667 11.249 7.9167 11.249L10.6597 11.249L9.4487 2.859C9.3967 2.499 9.6107 2.151 9.9567 2.038C10.0337 2.012 10.1117 2 10.1887 2C10.4597 2 10.7167 2.149 10.8497 2.399L17.3337 14.701C17.5687 15.146 17.5547 15.668 17.2957 16.1L17.2957 16.1z" />
    <glyph glyph-name="help"
      unicode="&#xF116;"
      horiz-adv-x="24" d=" M12.1653 18.9998C15.3613 18.9998 16.5003 17.0498 16.5003 15.2258C16.5003 13.4978 15.4033 12.6428 14.4363 11.8888C13.4663 11.1308 12.6263 10.4778 12.6493 8.9348C12.6553 8.5268 12.3303 8.1908 11.9213 8.1858L11.9113 8.1858C11.5083 8.1858 11.1783 8.5098 11.1723 8.9138C11.1393 11.1888 12.4643 12.2228 13.5283 13.0528C14.4833 13.7968 15.0223 14.2648 15.0223 15.2258C15.0223 16.2738 14.5263 17.5228 12.1653 17.5228C9.6443 17.5228 8.9773 15.8518 8.9773 14.9678C8.9773 14.5608 8.6463 14.2298 8.2383 14.2298C7.8313 14.2298 7.5003 14.5608 7.5003 14.9678C7.5003 16.5888 8.7423 18.9998 12.1653 18.9998zM12.0002 6.7723C12.4892 6.7723 12.8862 6.3763 12.8862 5.8863C12.8862 5.3963 12.4892 5.0003 12.0002 5.0003C11.5102 5.0003 11.1132 5.3963 11.1132 5.8863C11.1132 6.3763 11.5102 6.7723 12.0002 6.7723z" />
    <glyph glyph-name="inbox-outline"
      unicode="&#xF117;"
      horiz-adv-x="24" d=" M19.541 8.627C19.541 7.427 18.558 6.45 17.352 6.45L6.648 6.45C5.441 6.45 4.459 7.427 4.459 8.627L4.459 15.374C4.459 15.769 4.574 16.136 4.761 16.456L11.032 11.185C11.347 10.92 11.739 10.787 12.131 10.787C12.535 10.787 12.937 10.927 13.256 11.206L19.246 16.443C19.428 16.126 19.541 15.764 19.541 15.374L19.541 8.627zM17.352 17.549C17.627 17.549 17.889 17.493 18.132 17.4L12.291 12.295C12.201 12.214 12.066 12.214 11.975 12.293L5.89 17.407C6.127 17.495 6.381 17.549 6.648 17.549L17.352 17.549zM17.352 19L6.648 19C4.637 19 3 17.373 3 15.374L3 8.627C3 6.627 4.637 5 6.648 5L17.352 5C19.363 5 21 6.627 21 8.627L21 15.374C21 17.373 19.363 19 17.352 19L17.352 19z" />
    <glyph glyph-name="inbox"
      unicode="&#xF118;"
      horiz-adv-x="24" d=" M13.2289 11.4961L20.4889 17.6751C20.8119 17.1961 20.9999 16.6201 20.9999 16.0001L20.9999 8.0001C20.9999 6.3431 19.6569 5.0001 17.9999 5.0001L5.9999 5.0001C4.3429 5.0001 2.9999 6.3431 2.9999 8.0001L2.9999 16.0001C2.9999 16.5561 3.1619 17.0691 3.4249 17.5161L10.6169 11.4861C10.9819 11.1811 11.4489 11.0271 11.9169 11.0271C12.3889 11.0271 12.8619 11.1841 13.2289 11.4961zM11.5804 12.6367L4.4924 18.5797C4.9364 18.8397 5.4474 18.9997 5.9994 18.9997L17.9994 18.9997C18.4854 18.9997 18.9364 18.8737 19.3424 18.6697L12.2564 12.6387C12.0764 12.4857 11.7604 12.4857 11.5804 12.6367z" />
    <glyph glyph-name="link"
      unicode="&#xF119;"
      horiz-adv-x="24" d=" M19.7469 20.5005C20.1629 20.5005 20.4999 20.1595 20.4999 19.7405L20.4999 16.2235C20.4999 15.8045 20.1629 15.4645 19.7469 15.4645C19.3309 15.4645 18.9929 15.8045 18.9929 16.2235L18.9929 17.9385L13.3049 12.2055C13.1579 12.0575 12.9649 11.9825 12.7719 11.9825C12.5789 11.9825 12.3869 12.0575 12.2389 12.2055C11.9449 12.5025 11.9449 12.9825 12.2389 13.2785L17.8979 18.9815L16.1999 18.9815C15.7839 18.9815 15.4469 19.3215 15.4469 19.7405C15.4469 20.1595 15.7839 20.5005 16.1999 20.5005L19.7469 20.5005zM18.3046 14.0883C18.7206 14.0883 19.0586 13.7483 19.0586 13.3293L19.0586 7.1923C19.0586 5.1563 17.2806 3.5003 15.0936 3.5003L7.4646 3.5003C5.2796 3.5003 3.4996 5.1563 3.4996 7.1923L3.4996 15.4853C3.4996 17.5233 5.2796 19.1793 7.4646 19.1793L13.3426 19.1793C13.7586 19.1793 14.0966 18.8393 14.0966 18.4203C14.0966 18.0013 13.7586 17.6613 13.3426 17.6613L7.4646 17.6613C6.1096 17.6613 5.0066 16.6863 5.0066 15.4853L5.0066 7.1923C5.0066 5.9933 6.1096 5.0183 7.4646 5.0183L15.0936 5.0183C16.4496 5.0183 17.5516 5.9933 17.5516 7.1923L17.5516 13.3293C17.5516 13.7483 17.8896 14.0883 18.3046 14.0883z" />
    <glyph glyph-name="log-out"
      unicode="&#xF11A;"
      horiz-adv-x="24" d=" M14.7197 16.94484274C17.3197 15.88907542 18.9997 13.451886 18.9997 10.7355638C18.9997 7.0213896 15.8607 4.0003 11.9997 4.0003C8.1397 4.0003 4.9997 7.0213896 4.9997 10.7355638C4.9997 13.36169 6.6027 15.76564939 9.0817 16.86129281C9.4457 17.02174665 9.8757 16.86983768 10.0437 16.52519422C10.2117 16.17865189 10.0537 15.76849768 9.6917 15.60804384C7.7207 14.73741558 6.4487 12.8252615 6.4487 10.7355638C6.4487 7.7828332 8.9387 5.3807727 11.9997 5.3807727C15.0617 5.3807727 17.5517 7.7828332 17.5517 10.7355638C17.5517 12.8974182 16.2177 14.83615641 14.1517 15.67450401C13.7837 15.82356468 13.6127 16.22992117 13.7687 16.58026122C13.9267 16.93250013 14.3547 17.09390341 14.7197 16.94484274zM12 10.3594C11.6 10.3594 11.276 10.6844 11.276 11.0864L11.276 19.2734C11.276 19.6744 11.6 20.0004 12 20.0004C12.4 20.0004 12.724 19.6744 12.724 19.2734L12.724 11.0864C12.724 10.6844 12.4 10.3594 12 10.3594z" />
    <glyph glyph-name="menu-outline"
      unicode="&#xF11B;"
      horiz-adv-x="24" d=" M-51.9352894285624 25.9020447429814L-48.8099929965647 23.5674520135867C-46.9977857345348 22.2137353373779 -44.3746215521934 22.6507818709203 -42.9628542492859 24.5407009386165L-38.5210836167385 30.4868558010329C-37.109316313831 32.376774868729 -37.4349922910593 35.0153533037687 -39.2471995530892 36.3690699799776L-42.3724959850869 38.7036627093723C-44.1847032471168 40.0573793855812 -46.8072689693891 39.6211340046744 -48.2190362722965 37.7312149369783L-52.660806904844 31.7850600745618C-54.0725742077514 29.8951410068657 -53.7474966905923 27.2557614191903 -51.9352894285624 25.9020447429814zM-41.8035863853791 23.6747292186897C-43.7138709258118 21.1174500054273 -47.2621406354965 20.5264237223116 -49.7136677008421 22.3577115336286L-52.8389641328397 24.6923042630233C-55.291292350821 26.5241905344095 -55.7311604618192 30.0943510412952 -53.8208759213865 32.6516302545576L-49.3791052888391 38.5977851169741C-47.4688207484064 41.1550643302365 -43.9205510387217 41.7460906133522 -41.4682228207404 39.9142043419661L-38.3429263887428 37.5796116125714C-35.8913993233972 35.7483238012544 -35.451531212399 32.1781632943686 -37.3618157528317 29.6208840811062L-41.8035863853791 23.6747292186897zM-46.1565496842981 24.8679783872477C-46.4061075330952 24.5338977381467 -46.8685589504836 24.4562080570076 -47.1890200047771 24.6955920846308C-47.5094810590707 24.9349761122539 -47.5661765496378 25.4004679181424 -47.3166187008407 25.7345485672434L-41.2129244565196 33.9055042990928C-40.9633666077225 34.2395849481938 -40.5009151903341 34.3172746293328 -40.1804541360406 34.0778906017097C-39.859993081747 33.8385065740865 -39.8032975911799 33.373014768198 -40.052855439977 33.038934119097L-46.1565496842981 24.8679783872477zM-48.219277375522 26.4088335270509C-48.4688352243191 26.0747528779499 -48.9312866417075 25.9970631968109 -49.251747696001 26.236447224434C-49.5714075976588 26.4752327919881 -49.628103088226 26.9407245978766 -49.3785452394288 27.2748052469777L-44.5980462077947 33.6744125012195C-44.3484883589975 34.0084931503205 -43.8866354016782 34.0853816788238 -43.5669755000204 33.8465961112697C-43.2465144457269 33.6072120836466 -43.1892204950907 33.1425214303938 -43.4387783438878 32.8084407812928L-48.219277375522 26.4088335270509zM-50.2824056430638 27.9499878968887C-50.5319634918609 27.6159072477877 -50.9944149092492 27.5382175666487 -51.3148759635428 27.7776015942718C-51.6345358652006 28.0163871618259 -51.6912313557677 28.4818789677144 -51.4416735069706 28.8159596168155L-45.9555900539172 36.1601258285875C-45.7066306651891 36.4934053250527 -45.2441792478008 36.5710950061918 -44.924519346143 36.3323094386377C-44.6040582918494 36.0929254110145 -44.5473628012823 35.627433605126 -44.7963221900104 35.2941541086608L-50.2824056430638 27.9499878968887z" />
    <glyph glyph-name="menu"
      unicode="&#xF11C;"
      horiz-adv-x="24" d=" M-47.3608894296582 25.5733219596955L-41.0788540847579 33.9830211769935C-40.8310916161679 34.3146983681873 -40.3608217473579 34.3828030705904 -40.0291445561641 34.1350406020005C-39.6974673649703 33.8872781334105 -39.6293626625672 33.4170082646005 -39.8771251311572 33.0853310734067L-46.1591604760575 24.6756318561087C-46.4069229446475 24.3439546649149 -46.8771928134575 24.2758499625118 -47.2088700046513 24.5236124311017C-47.5405471958451 24.7713748996917 -47.6086518982482 25.2416447685017 -47.3608894296582 25.5733219596955M-49.4919554407102 27.1652257433894L-44.5720152129856 33.7515015617572C-44.3242527443956 34.083178752951 -43.8539828755856 34.1512834553541 -43.5223056843918 33.9035209867642C-43.190628493198 33.6557585181742 -43.1225237907949 33.1854886493642 -43.3702862593848 32.8538114581704L-48.2902264871095 26.2675356398026C-48.5379889556994 25.9358584486088 -49.0082588245094 25.8677537462057 -49.3399360157032 26.1155162147956C-49.6716132068971 26.3632786833856 -49.7397179093002 26.8335485521956 -49.4919554407102 27.1652257433894M-51.6230214517622 28.7571295270833L-45.9771491602704 36.3152034925963C-45.7293866916804 36.6468806837901 -45.2591168228704 36.7149853861932 -44.9274396316766 36.4672229176032C-44.5957624404828 36.2194604490133 -44.5276577380797 35.7491905802033 -44.7754202066696 35.4175133890095L-50.4212924981615 27.8594394234965C-50.6690549667514 27.5277622323027 -51.1393248355614 27.4596575298996 -51.4710020267552 27.7074199984895C-51.802679217949 27.9551824670795 -51.8707839203522 28.4254523358895 -51.6230214517622 28.7571295270833M-41.9745822711454 23.4432787220703L-37.1869017186825 29.8524998079409C-35.5345534680137 32.064482235202 -35.9875809721655 35.1976166211616 -38.2003645520624 36.8505633318994L-42.2061277307315 39.8428636771887C-44.4181101579926 41.4952119278574 -47.5518430040212 41.0413832710699 -49.2041912546899 38.8294008438088L-53.9918718071528 32.4201797579382C-55.6448185178906 30.2073961780413 -55.1903914010341 27.0744644846485 -52.978408973773 25.4221162339797L-48.9726457951038 22.4298158886904C-46.759862215207 20.7768691779526 -43.6275289818832 21.2304951421735 -41.9745822711454 23.4432787220703" />
    <glyph glyph-name="more"
      unicode="&#xF11D;"
      horiz-adv-x="24" d=" M13.5002 11.9998C13.5002 11.1718 12.8282 10.4998 12.0002 10.4998C11.1712 10.4998 10.5002 11.1718 10.5002 11.9998C10.5002 12.8288 11.1712 13.4998 12.0002 13.4998C12.8282 13.4998 13.5002 12.8288 13.5002 11.9998zM19.5002 11.9998C19.5002 11.1718 18.8282 10.4998 18.0002 10.4998C17.1712 10.4998 16.5002 11.1718 16.5002 11.9998C16.5002 12.8288 17.1712 13.4998 18.0002 13.4998C18.8282 13.4998 19.5002 12.8288 19.5002 11.9998zM7.5002 11.9998C7.5002 11.1718 6.8282 10.4998 6.0002 10.4998C5.1712 10.4998 4.5002 11.1718 4.5002 11.9998C4.5002 12.8288 5.1712 13.4998 6.0002 13.4998C6.8282 13.4998 7.5002 12.8288 7.5002 11.9998z" />
    <glyph glyph-name="move"
      unicode="&#xF11E;"
      horiz-adv-x="24" d=" M13.7383 10.5831C13.9313 10.5831 14.1183 10.5111 14.2593 10.3811C14.4053 10.2451 14.4883 10.0571 14.4883 9.8591L14.4883 7.4701L19.1843 12.0001L14.4883 16.5301L14.4883 14.2981C14.4883 13.9291 14.1983 13.6181 13.8173 13.5791C13.4743 13.5441 6.1653 12.7301 4.7393 7.4951C6.4613 8.7291 9.5603 10.4301 13.7093 10.5821C13.7193 10.5831 13.7293 10.5831 13.7383 10.5831M3.7503 5.0000232C3.6563 5.0000232 3.5613 5.0171 3.4713 5.0521C3.1843 5.1631 2.9973 5.4331 3.00026443 5.7311C3.0723 12.6461 10.6583 14.5091 12.9883 14.9181L12.9883 18.2761C12.9883 18.5681 13.1713 18.8331 13.4513 18.9441C13.7303 19.0581 14.0533 18.9941 14.2683 18.7881L20.7753 12.5121C20.9163 12.3761 20.9953 12.1921 20.9953 12.000102C20.9953 11.8081 20.9163 11.6241 20.7753 11.4881L14.2683 5.2121C14.0533 5.0051 13.7303 4.9431 13.4513 5.0551C13.1713 5.1671 12.9883 5.4311 12.9883 5.7241L12.9883 9.0871C7.6223 8.5981 4.3323 5.2651 4.2983 5.2291C4.1533 5.0801 3.9533 5.0000232 3.7503 5.0000232" />
    <glyph glyph-name="pension"
      unicode="&#xF11F;"
      horiz-adv-x="24" d=" M13.3464 4.6467C13.3464 4.4867 13.2114 4.3567 13.0474 4.3567L10.9514 4.3567C10.7864 4.3567 10.6524 4.4867 10.6524 4.6467L10.6524 6.3817L13.3464 6.3817L13.3464 4.6467zM6.8994 14.7237C6.8994 17.1607 8.1074 18.8027 10.1854 19.3907C9.4834 17.7807 9.2554 15.3037 9.2554 13.5757C9.2554 11.2867 9.5974 9.1977 10.1644 7.8487C10.0964 7.9257 10.0344 7.9977 9.9614 8.0807C8.7424 9.4527 6.8994 11.5267 6.8994 14.7237L6.8994 14.7237zM11.7524 7.7387C11.7384 7.7727 11.7344 7.8097 11.7134 7.8417C11.0714 8.8617 10.6554 11.1107 10.6554 13.5757C10.6554 17.5067 11.6214 19.4977 11.9744 19.6417C11.9774 19.6417 11.9814 19.6427 11.9844 19.6427C12.3764 19.5007 13.3434 17.5097 13.3434 13.5757C13.3434 10.7257 12.8014 8.6257 12.2634 7.8087C12.2484 7.7867 12.2464 7.7607 12.2354 7.7387L11.7524 7.7387zM17.1004 14.7237C17.1004 11.5277 15.2584 9.4537 14.0384 8.0817C13.9644 7.9977 13.9014 7.9237 13.8314 7.8447C14.4014 9.1927 14.7434 11.2757 14.7434 13.5757C14.7434 15.3037 14.5164 17.7807 13.8144 19.3907C15.8934 18.8027 17.1004 17.1607 17.1004 14.7237L17.1004 14.7237zM18.4994 14.7237C18.4994 18.5367 15.9484 21.0007 11.9994 21.0007C8.0514 21.0007 5.4994 18.5367 5.4994 14.7237C5.4994 11.0227 7.6294 8.6267 8.9014 7.1957C9.0274 7.0527 9.1424 6.9217 9.2524 6.7947L9.2524 4.6467C9.2524 3.7387 10.0144 3.0007 10.9514 3.0007L13.0474 3.0007C13.9844 3.0007 14.7464 3.7387 14.7464 4.6467L14.7464 6.7937C14.8574 6.9207 14.9724 7.0527 15.1004 7.1967C16.3714 8.6277 18.4994 11.0237 18.4994 14.7237L18.4994 14.7237z" />
    <glyph glyph-name="person-outline"
      unicode="&#xF120;"
      horiz-adv-x="24" d=" M18.438 4.4282L5.563 4.4282C5.225 4.4282 4.949 4.6992 4.949 5.0332C4.949 8.8662 8.112 11.9852 12.001 11.9852C15.888 11.9852 19.051 8.8662 19.051 5.0332C19.051 4.6992 18.776 4.4282 18.438 4.4282M11.96 19.5722C13.682 19.5722 15.083 18.1902 15.083 16.4922C15.083 14.7952 13.682 13.4142 11.96 13.4142C10.238 13.4142 8.837 14.7952 8.837 16.4922C8.837 18.1902 10.238 19.5722 11.96 19.5722M14.756 12.9532C15.829 13.7792 16.532 15.0502 16.532 16.4922C16.532 18.9782 14.481 21.0002 11.96 21.0002C9.439 21.0002 7.388 18.9782 7.388 16.4922C7.388 15.0392 8.102 13.7572 9.189 12.9322C5.882 11.7842 3.5 8.6822 3.5 5.0332C3.5 3.9122 4.426 2.9992 5.563 2.9992L18.438 2.9992C19.576 2.9992 20.501 3.9122 20.501 5.0332C20.501 8.7022 18.092 11.8212 14.756 12.9532" />
    <glyph glyph-name="person"
      unicode="&#xF121;"
      horiz-adv-x="24" d=" M14.9066 12.612C18.1676 11.402 20.5006 8.227 20.5006 4.489C20.5006 3.667 19.8446 3 19.0376 3L4.9626 3C4.1546 3 3.4996 3.667 3.4996 4.489C3.4996 8.227 5.8326 11.402 9.0936 12.612C9.8816 11.934 10.8866 11.51 11.9996 11.51C13.1126 11.51 14.1186 11.934 14.9066 12.612zM16.1195 16.8058C16.1195 14.4898 14.2755 12.6118 11.9995 12.6118C9.7245 12.6118 7.8805 14.4898 7.8805 16.8058C7.8805 19.1218 9.7245 20.9998 11.9995 20.9998C14.2755 20.9998 16.1195 19.1218 16.1195 16.8058z" />
    <glyph glyph-name="search"
      unicode="&#xF122;"
      horiz-adv-x="24" d=" M10.5989 8.3861C7.8339 8.3861 5.5839 10.6361 5.5839 13.4011C5.5839 16.1661 7.8339 18.4161 10.5989 18.4161C13.3639 18.4161 15.6139 16.1661 15.6139 13.4011C15.6139 10.6361 13.3639 8.3861 10.5989 8.3861M19.7679 5.1351L15.6919 9.2111C16.6329 10.3511 17.1969 11.8111 17.1969 13.4011C17.1969 17.0401 14.2369 20.0001 10.5989 20.0001C6.9599 20.0001 3.9999 17.0401 3.9999 13.4011C3.9999 9.7631 6.9599 6.8021 10.5989 6.8021C12.0779 6.8021 13.4399 7.2971 14.5419 8.1221L18.6479 4.0151C18.8029 3.8611 19.0049 3.7831 19.2079 3.7831C19.4109 3.7831 19.6129 3.8611 19.7679 4.0151C20.0769 4.3241 20.0769 4.8251 19.7679 5.1351" />
    <glyph glyph-name="share"
      unicode="&#xF123;"
      horiz-adv-x="24" d=" M9.0957 16.6997C8.9007 16.6997 8.7047 16.7697 8.5547 16.9097C8.2487 17.1937 8.2437 17.6587 8.5427 17.9487L11.4687 20.7877C11.7597 21.0707 12.2837 21.0707 12.5747 20.7877L15.4547 17.9937C15.7537 17.7037 15.7477 17.2387 15.4427 16.9547C15.1387 16.6717 14.6497 16.6737 14.3477 16.9657L12.7697 18.4967L12.7697 8.9857C12.7697 8.5807 12.4227 8.2517 11.9957 8.2517C11.5677 8.2517 11.2207 8.5807 11.2207 8.9857L11.2207 18.4457L9.6497 16.9207C9.4977 16.7737 9.2967 16.6997 9.0957 16.6997zM16.2314 15.1685C18.3094 15.1685 20.0004 13.7425 20.0004 11.9885L20.0004 6.1815C20.0004 4.4275 18.3094 2.9995 16.2314 2.9995L7.7684 2.9995C5.6904 2.9995 4.0004 4.4275 4.0004 6.1815L4.0004 11.9885C4.0004 13.7425 5.6904 15.1685 7.7684 15.1685L9.0054 15.1685C9.4334 15.1685 9.7804 14.8385 9.7804 14.4335C9.7804 14.0275 9.4334 13.6985 9.0054 13.6985L7.7684 13.6985C6.5444 13.6985 5.5484 12.9315 5.5484 11.9885L5.5484 6.1815C5.5484 5.2375 6.5444 4.4705 7.7684 4.4705L16.2314 4.4705C17.4564 4.4705 18.4514 5.2375 18.4514 6.1815L18.4514 11.9885C18.4514 12.9315 17.4564 13.6985 16.2314 13.6985L14.9944 13.6985C14.5664 13.6985 14.2194 14.0275 14.2194 14.4335C14.2194 14.8385 14.5664 15.1685 14.9944 15.1685L16.2314 15.1685z" />
    <glyph glyph-name="sort"
      unicode="&#xF124;"
      horiz-adv-x="24" d=" M1.5396352942815 11.836120572946L3.2763650168411 9.3515725515187C3.5125751760027 9.0137119875151 3.4294814892683 8.5490837068165 3.0908125892605 8.3140339755521C2.9215661622298 8.1970013008952 2.7205218096201 8.1577818123244 2.5315204750987 8.1915826340468C2.3435035225279 8.2252074098228 2.1675295880453 8.3318524958921 2.0493364854913 8.5002905869186L-0.7431519522312 12.4942751043131C-0.9793621113927 12.8321356683167 -0.8964444706048 13.2957795670646 -0.557775570597 13.5308292983291L3.3820854445067 16.2649341210574C3.720930390461 16.5009682342725 4.1875274350608 16.4175224556452 4.4235615482759 16.0786775096909C4.6607560893881 15.7406408997408 4.5776624026537 15.2760126190422 4.2380091206952 15.0411389337242L1.7479787931853 13.313516588395L9.8425515732364 11.8658907705622C10.2500857007982 11.7930077487231 10.5210543081388 11.405248785144 10.4485233781926 10.9996834214834C10.3759924482465 10.5941180578228 9.9876011946097 10.3252942603301 9.5800670670478 10.3981772821691L1.5396352942815 11.836120572946zM15.543288903151 3.8055116730682C15.7794990623126 3.4676511090646 15.6962293296317 3.0020384464154 15.3575604296239 2.7669887151509L11.4188598424173 0.0336922284268C11.2484529874896 -0.0841487822343 11.0477607267728 -0.1213995069038 10.8587593922514 -0.0875986851814C10.6697580577299 -0.0537978634589 10.4944164133051 0.0507024127626 10.3763993566975 0.2201248857398C10.1403652434824 0.5589698316941 10.2232828842703 1.022613730442 10.5619517842782 1.2576634617065L13.0509977298374 2.9854618529822L4.957409331737 4.4329116248685C4.5508595861258 4.5056186007611 4.2789065968346 4.8935536102867 4.3514375267808 5.2991189739472C4.4237924107804 5.7036999556572 4.8133440923143 5.9733320891541 5.2198938379256 5.9006251132615L13.2603256106919 4.4626818224847L11.5226115061816 6.9474058898584C11.2864013470201 7.285266453862 11.369318987808 7.7489103526099 11.7081639337623 7.9849444658251C12.0468328337701 8.2199941970895 12.5134298783699 8.1365484184622 12.7506244194821 7.798511808512L15.543288903151 3.8055116730682z" />
    <glyph glyph-name="swap"
      unicode="&#xF125;"
      horiz-adv-x="24" d=" M5.5823 14.5974L7.7293 12.4574C8.0213 12.1664 8.0213 11.6944 7.7293 11.4034C7.5833 11.2584 7.3923 11.1844 7.2003 11.1844C7.0093 11.1844 6.8173 11.2584 6.6713 11.4034L3.2193 14.8434C2.9273 15.1344 2.9273 15.6054 3.2193 15.8964L6.6163 19.2814C6.9083 19.5734 7.3823 19.5734 7.6743 19.2814C7.9673 18.9904 7.9673 18.5184 7.6743 18.2274L5.5273 16.0884L13.7503 16.0884C14.1643 16.0884 14.4993 15.7544 14.4993 15.3424C14.4993 14.9304 14.1643 14.5974 13.7503 14.5974L5.5823 14.5974zM20.781 9.1575C21.073 8.8665 21.073 8.3935 20.781 8.1025L17.385 4.7185C17.238 4.5725 17.047 4.5005 16.855 4.5005C16.663 4.5005 16.472 4.5725 16.326 4.7185C16.034 5.0105 16.034 5.4815 16.326 5.7725L18.472 7.9115L10.25 7.9115C9.837 7.9115 9.501 8.2455 9.501 8.6575C9.501 9.0685 9.837 9.4025 10.25 9.4025L18.418 9.4025L16.27 11.5425C15.978 11.8335 15.978 12.3045 16.27 12.5965C16.562 12.8875 17.036 12.8875 17.329 12.5965L20.781 9.1575z" />
    <glyph glyph-name="trash"
      unicode="&#xF126;"
      horiz-adv-x="24" d=" M10.3867 15.8821C10.7907 15.8821 11.1187 15.5601 11.1187 15.1621L11.1187 6.7731C11.1187 6.3751 10.7907 6.0531 10.3867 6.0531C9.9827 6.0531 9.6547 6.3751 9.6547 6.7731L9.6547 15.1621C9.6547 15.5601 9.9827 15.8821 10.3867 15.8821zM13.6123 15.8821C14.0163 15.8821 14.3443 15.5601 14.3443 15.1621L14.3443 6.7731C14.3443 6.3751 14.0163 6.0531 13.6123 6.0531C13.2093 6.0531 12.8813 6.3751 12.8813 6.7731L12.8813 15.1621C12.8813 15.5601 13.2093 15.8821 13.6123 15.8821zM16.3594 5.8088L17.3924 17.2928L6.6084 17.2928L7.6374 5.8718C7.6404 5.0538 8.2704 4.4388 9.0434 4.4388L14.9564 4.4388C15.7304 4.4388 16.3594 5.0538 16.3594 5.8088zM10.3114 19.2008L10.3114 18.7318L13.6884 18.7318L13.6884 19.2008C13.6884 19.3058 13.4134 19.5608 12.9014 19.5608L11.0984 19.5608C10.5874 19.5608 10.3114 19.3058 10.3114 19.2008zM19.5004 18.0128C19.5004 17.6488 19.2204 17.3598 18.8634 17.3118L17.8204 5.7458C17.8234 4.2598 16.5384 2.9998 14.9564 2.9998L9.0434 2.9998C7.4634 2.9998 6.1764 4.2598 6.1764 5.8088L5.1364 17.3118C4.7794 17.3598 4.5004 17.6488 4.5004 18.0128C4.5004 18.4098 4.8274 18.7318 5.2324 18.7318L8.8474 18.7318L8.8474 19.2008C8.8474 20.2098 9.8364 20.9998 11.0984 20.9998L12.9014 20.9998C14.1634 20.9998 15.1534 20.2098 15.1534 19.2008L15.1534 18.7318L18.7674 18.7318C19.1724 18.7318 19.5004 18.4098 19.5004 18.0128z" />
    <glyph glyph-name="ur"
      unicode="&#xF127;"
      horiz-adv-x="24" d=" M19.263 10L11.738 10C11.331 10 11 10.323 11 10.723L11 20.276C11 20.676 11.331 21 11.738 21C12.145 21 12.475 20.676 12.475 20.276L12.475 11.446L19.263 11.446C19.67 11.446 20 11.122 20 10.723C20 10.323 19.67 10 19.263 10" />
    <glyph glyph-name="verifiy"
      unicode="&#xF128;"
      horiz-adv-x="24" d=" M10.3761 4.4999C10.2321 4.4999 10.0871 4.5409 9.9591 4.6249L3.8261 8.7029C3.4861 8.9289 3.3981 9.3809 3.6281 9.7139C3.8581 10.0459 4.3201 10.1309 4.6591 9.9069L10.1791 6.2379L19.1431 19.1809C19.3721 19.5129 19.8341 19.5999 20.1741 19.3749C20.5141 19.1489 20.6031 18.6959 20.3721 18.3639L10.9911 4.8189C10.8471 4.6119 10.6141 4.4999 10.3761 4.4999" />
    <glyph glyph-name="warring"
      unicode="&#xF129;"
      horiz-adv-x="24" d=" M12.258 21.5C12.667 21.5 13 21.168 13 20.759L13 8.104C13 7.695 12.667 7.363 12.258 7.363C11.848 7.363 11.516 7.695 11.516 8.104L11.516 20.759C11.516 21.168 11.848 21.5 12.258 21.5zM12.241 3.9819C12.651 3.9819 12.991 3.6499 12.991 3.2409C12.991 2.8319 12.667 2.5009 12.258 2.5009L12.241 2.5009C11.832 2.5009 11.5 2.8319 11.5 3.2409C11.5 3.6499 11.832 3.9819 12.241 3.9819z" />
    <glyph glyph-name="write-message"
      unicode="&#xF12A;"
      horiz-adv-x="24" d=" M18.2078 12.5533C18.6218 12.5533 18.9568 12.2263 18.9568 11.8243L18.9568 8.6473C18.9568 6.6363 17.2758 4.9993 15.2118 4.9993L6.7458 4.9993C4.6798 4.9993 2.9998 6.6363 2.9998 8.6473L2.9998 13.5793C2.9998 15.5903 4.6798 17.2263 6.7458 17.2263L13.3908 17.2263C13.8048 17.2263 14.1398 16.9003 14.1398 16.4973C14.1398 16.0943 13.8048 15.7673 13.3908 15.7673L6.7458 15.7673C6.4338 15.7673 6.1358 15.7043 5.8658 15.5923L11.0978 11.4493C11.1658 11.3933 11.2508 11.3933 11.3198 11.4493L14.9198 14.2983C15.2388 14.5483 15.6978 14.4943 15.9478 14.1803C16.1998 13.8653 16.1468 13.4063 15.8308 13.1563L12.2308 10.3073C11.9308 10.0683 11.5698 9.9493 11.2088 9.9493C10.8478 9.9493 10.4868 10.0683 10.1858 10.3073L4.7688 14.5983C4.6018 14.2923 4.4988 13.9493 4.4988 13.5793L4.4988 8.6473C4.4988 7.4413 5.5058 6.4583 6.7458 6.4583L15.2118 6.4583C16.4498 6.4583 17.4588 7.4413 17.4588 8.6473L17.4588 11.8243C17.4588 12.2263 17.7948 12.5533 18.2078 12.5533zM20.2791 16.9527C20.6771 16.9527 21.0001 16.6497 21.0001 16.2777C21.0001 15.9047 20.6771 15.6017 20.2791 15.6017L18.8131 15.6017L18.8131 14.2297C18.8131 13.8577 18.4911 13.5557 18.0921 13.5557C17.6951 13.5557 17.3721 13.8577 17.3721 14.2297L17.3721 15.6017L15.9081 15.6017C15.5091 15.6017 15.1871 15.9047 15.1871 16.2777C15.1871 16.6497 15.5091 16.9527 15.9081 16.9527L17.3721 16.9527L17.3721 18.3247C17.3721 18.6977 17.6951 18.9997 18.0921 18.9997C18.4911 18.9997 18.8131 18.6977 18.8131 18.3247L18.8131 16.9527L20.2791 16.9527z" />
  </font>
</defs>
</svg>
