<?xml version="1.0" encoding="iso-8859-1"?>
<!-- Generator: Adobe Illustrator 19.0.0, SVG Export Plug-In . SVG Version: 6.00 Build 0)  -->
<svg version="1.1" id="Capa_1" xmlns="http://www.w3.org/2000/svg" xmlns:xlink="http://www.w3.org/1999/xlink" x="0px" y="0px"
	 viewBox="0 0 59 59" style="enable-background:new 0 0 59 59;" xml:space="preserve">
<path d="M30.5,3.025V1c0-0.553-0.448-1-1-1s-1,0.447-1,1v2.025C15.363,3.552,4.69,14.388,4.502,27.64
	c-0.003,0.268,0.136,0.614,0.324,0.805c0.437,0.441,1.234,0.421,1.647-0.043C7.855,26.853,9.64,26,11.5,26
	c1.962,0,3.82,0.937,5.23,2.639C16.92,28.867,17.202,29,17.5,29s0.58-0.133,0.77-0.361C19.68,26.937,21.538,26,23.5,26
	c1.86,0,3.62,0.85,5,2.386V54c0,1.654-1.346,3-3,3s-3-1.346-3-3c0-0.553-0.448-1-1-1s-1,0.447-1,1c0,2.757,2.243,5,5,5s5-2.243,5-5
	V28.386C31.88,26.85,33.64,26,35.5,26c1.962,0,3.82,0.937,5.23,2.639C40.92,28.867,41.202,29,41.5,29s0.58-0.133,0.77-0.361
	C43.68,26.937,45.538,26,47.5,26c1.86,0,3.645,0.853,5.025,2.4c0.416,0.467,1.213,0.486,1.648,0.044
	c0.188-0.19,0.328-0.538,0.324-0.807C54.31,14.388,43.637,3.552,30.5,3.025z"/>
<g>
</g>
<g>
</g>
<g>
</g>
<g>
</g>
<g>
</g>
<g>
</g>
<g>
</g>
<g>
</g>
<g>
</g>
<g>
</g>
<g>
</g>
<g>
</g>
<g>
</g>
<g>
</g>
<g>
</g>
</svg>
