<svg xmlns="http://www.w3.org/2000/svg" width="24" height="24" viewBox="0 0 24 24">
    <path id="overview-outline" fill="currentColor" d="M4.1357,5.7683 C3.6507,5.7683 3.2567,6.1663 3.2567,6.6563 L3.2567,17.3433 C3.2567,17.8333 3.6507,18.2313 4.1357,18.2313 L10.0557,18.2313 C10.5407,18.2313 10.9347,17.8333 10.9347,17.3433 L10.9347,6.6563 C10.9347,6.1663 10.5407,5.7683 10.0557,5.7683 L4.1357,5.7683 Z M10.0557,19.4993 L4.1357,19.4993 C2.9577,19.4993 1.9997,18.5333 1.9997,17.3433 L1.9997,6.6563 C1.9997,5.4673 2.9577,4.4993 4.1357,4.4993 L10.0557,4.4993 C11.2337,4.4993 12.1917,5.4673 12.1917,6.6563 L12.1917,17.3433 C12.1917,18.5333 11.2337,19.4993 10.0557,19.4993 L10.0557,19.4993 Z M15.4048,5.769 C14.9198,5.769 14.5248,6.167 14.5248,6.657 L14.5248,8.313 C14.5248,8.803 14.9198,9.202 15.4048,9.202 L19.8638,9.202 C20.3488,9.202 20.7438,8.803 20.7438,8.313 L20.7438,6.657 C20.7438,6.167 20.3488,5.769 19.8638,5.769 L15.4048,5.769 Z M19.8638,10.47 L15.4048,10.47 C14.2268,10.47 13.2688,9.503 13.2688,8.313 L13.2688,6.657 C13.2688,5.468 14.2268,4.5 15.4048,4.5 L19.8638,4.5 C21.0418,4.5 22.0008,5.468 22.0008,6.657 L22.0008,8.313 C22.0008,9.503 21.0418,10.47 19.8638,10.47 L19.8638,10.47 Z M15.4048,12.768 C14.9198,12.768 14.5248,13.166 14.5248,13.657 L14.5248,15.313 C14.5248,15.802 14.9198,16.201 15.4048,16.201 L17.0458,16.201 C17.5308,16.201 17.9258,15.802 17.9258,15.313 L17.9258,13.657 C17.9258,13.166 17.5308,12.768 17.0458,12.768 L15.4048,12.768 Z M17.0458,17.469 L15.4048,17.469 C14.2268,17.469 13.2688,16.502 13.2688,15.313 L13.2688,13.657 C13.2688,12.467 14.2268,11.5 15.4048,11.5 L17.0458,11.5 C18.2238,11.5 19.1818,12.467 19.1818,13.657 L19.1818,15.313 C19.1818,16.502 18.2238,17.469 17.0458,17.469 L17.0458,17.469 Z"/>
</svg>