<?xml version="1.0" encoding="UTF-8"?>
<svg id="Layer_1" xmlns="http://www.w3.org/2000/svg" version="1.1" viewBox="0 0 96 96">
  <!-- Generator: Adobe Illustrator 29.6.1, SVG Export Plug-In . SVG Version: 2.1.1 Build 9)  -->
  <defs>
    <style>
      .st0, .st1 {
        fill: #1c1c1c;
      }

      .st2 {
        fill: #00e89a;
        fill-rule: evenodd;
      }

      .st1 {
        opacity: .06;
      }
    </style>
  </defs>
  <g>
    <path class="st0" d="M57.71,73.44l.02.05-.03-.07s0,.01,0,.02Z"/>
    <path class="st0" d="M40.59,78.68l.03.02-.08-.07s.03.03.05.05Z"/>
    <path class="st0" d="M56.87,69.47h0s.03.06.03.06c0-.02-.02-.04-.03-.06Z"/>
  </g>
  <path class="st2" d="M34.47,38.62c-.55,0-1-.45-1-1v-1.54s-3.19,0-3.19,0c-4.01,0-7.26,3.25-7.26,7.26v1.46h43v-1.46c0-4.01-3.25-7.26-7.26-7.26h-2.59s0,1.57,0,1.57c0,.55-.45,1-1,1s-1-.45-1-1v-1.58h-18.7v1.54c0,.55-.45,1-1,1Z"/>
  <path class="st2" d="M23.02,44.8h43v-1.46c0-4.01-3.25-7.26-7.26-7.26h-2.59s0,1.57,0,1.57c0,.55-.45,1-1,1s-1-.45-1-1v-1.58h-18.7v1.54c0,.55-.45,1-1,1s-1-.45-1-1v-1.54s-3.19,0-3.19,0c-4.01,0-7.26,3.25-7.26,7.26v1.46Z"/>
  <path class="st1" d="M86.97,1.3h-16.9c-1.66,0-3,1.34-3,3v34.98c.6,1.23.95,2.6.95,4.06v14.69c4.62.23,8.25,2.08,8.38,4.35,0,.04,0,.08,0,.13v4.45s10.57,0,10.57,0c1.66,0,3-1.34,3-3V4.3c0-1.66-1.34-3-3-3Z"/>
  <path class="st1" d="M25.9,31.84h-14.18c-.78,2.05-1.22,4.22-1.28,6.41-.02.55-.48.99-1.03.97-.55-.02-.99-.48-.97-1.03.06-2.16.45-4.31,1.15-6.35h-.59c-1.66,0-3,1.34-3,3v29.12c0,1.66,1.34,3,3,3h12.53c-.33-.95-.51-1.96-.51-3.02v-20.6c0-4.62,3.39-8.44,7.81-9.13-.29-1.35-1.49-2.37-2.93-2.37Z"/>
  <path class="st1" d="M54.17,34.08v-2.43c0-.55.45-1,1-1s1,.45,1,1v2.43s2.59,0,2.59,0c.23,0,.45.02.67.03v-14.55c0-1.66-1.34-3-3-3h-16.9c-1.66,0-3,1.34-3,3v14.51h17.63Z"/>
  <path class="st0" d="M76.4,62.37c-.13-2.27-3.75-4.11-8.38-4.35v-14.69c0-5.11-4.14-9.26-9.26-9.26h-2.59s0-2.44,0-2.44c0-.55-.45-1-1-1s-1,.45-1,1v2.43h-18.7v-2.47c0-.55-.45-1-1-1s-1,.45-1,1v2.47s-3.19,0-3.19,0c-5.11,0-9.26,4.15-9.26,9.26v20.6c0,5.11,4.14,9.26,9.26,9.26h7.43c.03.06.06.11.1.16l2.55,5.02s0,.02.01.03c0,.02.02.03.03.04.01.02.02.04.04.06,0,.01.02.03.03.04.01.02.03.03.04.05.03.04.07.07.11.11,1.89,1.52,5.25,1.56,10.39-1.18,2.26-1.21,4.08-2.76,5.11-4.33h1.54s0,.08.01.12c0,.01,0,.02,0,.03.01.05.03.1.05.15,1.19,2.81,4.4,4.15,9.43,4.15,5.01,0,8.14-1.33,9.16-4.15.02-.05.03-.1.04-.15.02-.08.03-.16.03-.24v-4.28l.02-6.32s0-.09,0-.13ZM23.02,43.34c0-4.01,3.25-7.26,7.26-7.26h3.19s0,1.54,0,1.54c0,.55.45,1,1,1s1-.45,1-1v-1.54s18.7,0,18.7,0v1.58c0,.55.45,1,1,1s1-.45,1-1v-1.58s2.59,0,2.59,0c4.01,0,7.26,3.25,7.26,7.26v1.46H23.02v-1.46ZM39.53,72.32l-.12-.23c-.05-.22.04-.53.21-.89,0,0,0,0,0,0,.06-.13.14-.27.23-.41.03-.05.06-.11.1-.16.09-.13.18-.27.29-.41.06-.08.14-.17.21-.25.11-.13.21-.25.33-.39.2-.21.41-.43.65-.65.09-.08.19-.16.28-.25.19-.16.38-.33.59-.49.11-.09.22-.17.34-.26.22-.17.46-.33.7-.49.11-.07.22-.15.34-.22.36-.23.74-.46,1.15-.67,3.64-1.94,7.08-2.12,7.67-1.32v.02s.07.11.07.11c.3.95-1.78,3.68-5.39,5.6-3.58,1.9-6.97,2.12-7.64,1.37ZM53.53,73.19h0c-.21.21-.43.43-.68.64-.03.03-.07.06-.1.08-.22.19-.44.37-.69.56-.12.09-.24.17-.37.26-.18.13-.36.26-.56.39-.34.22-.7.43-1.08.64-2.58,1.38-4.63,1.97-6.19,1.95-.86-.01-1.45-.19-1.84-.45l-1.31-2.59c.24.02.49.02.74.01.09,0,.18-.01.27-.02.17,0,.34-.02.52-.04.11-.01.23-.03.35-.04.16-.02.32-.04.49-.07.13-.02.26-.05.39-.08.16-.03.32-.07.48-.11.14-.03.28-.07.42-.11.16-.04.31-.09.47-.14.15-.05.3-.09.45-.14.16-.05.31-.11.47-.17.15-.06.31-.11.46-.17.16-.07.33-.14.49-.21.15-.06.3-.12.45-.19.32-.15.64-.3.95-.47.88-.47,1.68-.98,2.41-1.53.71-.53,1.33-1.08,1.88-1.64.04-.04.07-.08.11-.12.21-.22.41-.45.59-.67.05-.06.1-.13.15-.19.2-.26.39-.53.55-.79l1.25,2.48c.03.13.03.28.01.44-.08.68-.62,1.56-1.51,2.48ZM57.66,62.35v.15s0,8.69,0,8.69h-.66c.11-.55.1-1.09-.06-1.59,0,0,0,0,0-.01-.01-.04-.03-.09-.05-.13l-2.48-4.94c-.03-.06-.06-.13-.09-.19-1.17-2.19-5.83-2-10.41.44-3.4,1.81-5.8,4.34-6.33,6.42h-7.27c-4.01,0-7.26-3.25-7.26-7.26v-17.14h43v11.23c-4.6.24-8.21,2.07-8.36,4.32ZM67.16,75.64c-.51,0-.99-.02-1.44-.04-.22-.01-.42-.04-.63-.06-.22-.02-.44-.04-.64-.06-.27-.04-.52-.09-.77-.14-.12-.02-.24-.04-.35-.07-.28-.06-.54-.14-.79-.22-.06-.02-.13-.04-.19-.06-.27-.09-.52-.2-.75-.32-.03-.01-.06-.02-.08-.04-.24-.12-.47-.26-.67-.41,0,0-.02-.01-.03-.02-.21-.15-.4-.32-.56-.5,0,0,0,0,0,0-.17-.18-.31-.37-.43-.57h0c-.05-.08-.11-.16-.16-.25v-2.11c.93.61,2.09,1.05,3.47,1.33h0c.59.12,1.23.21,1.9.27.05,0,.1,0,.15.01.29.02.58.05.89.06.37.02.74.02,1.13.02,3.18,0,5.6-.52,7.2-1.61v2.08c-.72,1.75-3.07,2.7-7.23,2.7ZM74.39,67.88h0c-.73,1.67-3.08,2.59-7.2,2.59-.37,0-.73-.01-1.07-.03-1.28-.06-2.39-.22-3.32-.47,0,0,0,0,0,0-.36-.1-.7-.21-1.01-.34,0,0,0,0-.01,0-.29-.12-.56-.26-.81-.4-.02-.01-.05-.03-.07-.04-.22-.14-.42-.28-.6-.44-.03-.03-.07-.05-.1-.08-.2-.18-.38-.38-.53-.59v-2.78c.2.12.41.23.62.34.08.04.17.08.26.12.14.06.27.12.42.18.12.05.24.1.37.14.11.04.22.08.34.12.16.05.31.1.48.15.05.02.11.03.17.05.93.26,1.97.45,3.07.54.54.05,1.09.08,1.66.08.16,0,.31,0,.47-.01,1.05-.02,2.05-.13,2.98-.31.01,0,.02,0,.03,0,.29-.06.58-.12.86-.19.04,0,.08-.02.11-.03.25-.06.49-.13.73-.21.07-.02.14-.05.22-.08.2-.07.39-.13.57-.2.12-.05.23-.1.35-.15.13-.06.26-.11.38-.17.23-.12.46-.24.66-.36v2.6ZM74.36,62.68s-.02.04-.03.07c-.02.04-.04.08-.07.12-.02.03-.04.06-.07.08-.03.04-.06.07-.1.11-.03.03-.07.06-.1.1-.04.03-.08.07-.12.1-.04.03-.09.07-.14.1-.04.03-.09.06-.13.09-.06.04-.12.08-.18.11-.05.03-.09.05-.14.08-.07.04-.15.08-.23.12-.05.02-.09.05-.14.07-.09.04-.18.08-.28.13-.04.02-.09.04-.13.05-.11.04-.22.09-.34.13-.03.01-.07.02-.11.04-.13.05-.27.09-.41.14-.02,0-.04.01-.05.02-1.02.31-2.25.55-3.64.62,0,0,0,0,0,0-.3.02-.61.03-.93.03-.37,0-.73-.02-1.09-.04h0c-1.81-.11-3.37-.5-4.48-.97-.02,0-.03-.01-.05-.02-.11-.05-.22-.1-.32-.15-.03-.02-.06-.03-.1-.05-.09-.04-.17-.09-.25-.13-.04-.02-.08-.04-.12-.07-.07-.04-.13-.08-.19-.12-.04-.03-.08-.06-.12-.08-.05-.04-.1-.07-.15-.11-.04-.03-.08-.07-.11-.1-.04-.03-.07-.07-.1-.1-.04-.04-.06-.07-.09-.11-.02-.03-.05-.06-.07-.08-.03-.04-.05-.08-.07-.12-.01-.02-.03-.04-.03-.07-.02-.06-.03-.12-.03-.18s.01-.12.04-.18c0-.02.02-.04.03-.07.02-.04.04-.08.07-.12.02-.03.04-.06.07-.08.03-.04.06-.07.09-.11.03-.03.07-.06.1-.1.04-.03.07-.07.11-.1.04-.04.09-.07.15-.11.04-.03.08-.06.13-.09.06-.04.13-.08.19-.12.04-.02.08-.05.12-.07.08-.04.16-.09.25-.13.04-.02.08-.04.11-.06.1-.05.2-.09.31-.14.03-.01.06-.02.09-.04.12-.05.25-.1.38-.15,0,0,.02,0,.02,0,1.31-.48,3.09-.83,5.11-.83.34,0,.67.01.99.03,0,0,0,0,0,0,1.6.09,3.01.4,4.1.79.02,0,.03.01.05.02.13.05.25.1.37.14.03.01.07.03.1.04.1.04.2.09.3.14.04.02.08.04.12.06.08.04.16.08.24.13.04.02.09.05.13.07.07.04.13.08.19.12.04.03.09.06.13.09.05.04.1.07.14.11.04.03.08.07.12.1.04.03.07.07.1.1.04.04.06.07.09.11.02.03.05.06.07.09.03.04.05.08.07.12.01.02.03.05.03.07.02.06.04.12.04.18s-.01.12-.04.18Z"/>
  <path id="Arrows" class="st0" d="M27.31,11.13l5.95,3.58c.47.28.63.9.34,1.37l-3.58,5.95c-.28.47-.9.63-1.37.34-.47-.28-.63-.9-.34-1.37l2.39-3.97-.21.03c-.73.12-1.45.27-2.18.45-.9.23-1.78.51-2.64.85-.87.33-1.71.72-2.53,1.15-.49.26-1.09.07-1.35-.42-.26-.49-.07-1.09.42-1.35.88-.47,1.8-.88,2.74-1.25.94-.36,1.89-.67,2.86-.92.74-.19,1.48-.35,2.22-.47l-3.76-2.26c-.44-.26-.6-.81-.4-1.27l.05-.1c.28-.47.9-.63,1.37-.34ZM17.28,21.15c.41-.37,1.05-.33,1.41.08.37.41.33,1.05-.08,1.41-.69.61-1.34,1.27-1.94,1.96-.36.42-.99.46-1.41.1-.42-.36-.46-.99-.1-1.41.66-.76,1.37-1.48,2.12-2.14ZM11.13,28.36c.27-.48.88-.66,1.36-.39.48.27.66.88.39,1.36-1.51,2.72-2.35,5.8-2.43,8.91-.02.55-.48.99-1.03.97s-.99-.48-.97-1.03c.09-3.43,1.02-6.83,2.68-9.83ZM85.69,69.97c.54.11.9.63.79,1.17-1.19,6.08-3.21,9.66-7.29,13.35-3.29,2.98-8.09,5.3-12.54,6.16l3.53,2.12c.44.26.6.81.4,1.27l-.05.1c-.28.47-.9.63-1.37.34l-5.95-3.58c-.47-.28-.63-.9-.34-1.37l3.58-5.95c.28-.47.9-.63,1.37-.34.47.28.63.9.34,1.37l-2.52,4.19c4.26-.68,9.04-2.91,12.22-5.79,3.76-3.4,5.56-6.6,6.67-12.25.11-.54.63-.9,1.17-.79Z"/>
  <path class="st0" d="M57.71,73.44l.02.05-.03-.07s0,.01,0,.02Z"/>
  <path class="st0" d="M40.59,78.68l.03.02-.08-.07s.03.03.05.05Z"/>
  <path class="st0" d="M56.87,69.47h0s.03.06.03.06c0-.02-.02-.04-.03-.06Z"/>
</svg>