<svg width="24px" height="24px" viewBox="0 0 24 24" version="1.1" xmlns="http://www.w3.org/2000/svg" xmlns:xlink="http://www.w3.org/1999/xlink" class="s-ion-icon">
    <g id="investment" stroke="none" stroke-width="1" fill="none" fill-rule="evenodd">
        <path d="M21.974,7.1878 C21.887,6.6588 21.594,6.1948 21.149,5.8808 C20.703,5.5668 20.15,5.4408 19.617,5.5258 C19.074,5.6108 18.599,5.8968 18.276,6.3308 C17.746,7.0448 17.779,7.9838 18.278,8.6658 L16.113,11.4778 C15.276,11.1928 14.315,11.4528 13.772,12.1868 C13.762,12.2018 13.755,12.2188 13.744,12.2338 L10.752,11.1408 C10.682,10.6108 10.402,10.1078 9.924,9.7708 C9.003,9.1228 7.715,9.3248 7.052,10.2198 C6.596,10.8348 6.559,11.6148 6.872,12.2558 L4.787,14.6268 C4.021,14.3438 3.123,14.5208 2.538,15.1438 C2.168,15.5398 1.977,16.0518 2.002,16.5878 C2.027,17.1228 2.265,17.6158 2.67,17.9758 C3.052,18.3158 3.54,18.5008 4.054,18.5008 C4.086,18.5008 4.119,18.5008 4.15,18.4988 C4.699,18.4738 5.206,18.2428 5.575,17.8468 C5.946,17.4528 6.136,16.9398 6.111,16.4048 C6.098,16.1138 6.017,15.8378 5.885,15.5868 L7.952,13.2348 C8.2,13.3328 8.455,13.3978 8.715,13.3978 C9.353,13.3978 9.982,13.1108 10.385,12.5698 C10.39,12.5618 10.393,12.5528 10.399,12.5458 L13.406,13.6448 C13.483,14.1648 13.764,14.6538 14.233,14.9848 C14.597,15.2418 15.019,15.3648 15.436,15.3648 C16.074,15.3648 16.704,15.0768 17.105,14.5358 C17.587,13.8858 17.604,13.0508 17.231,12.3918 C17.248,12.3748 17.27,12.3678 17.285,12.3488 L19.52,9.4448 C19.659,9.4738 19.799,9.5078 19.94,9.5078 C20.578,9.5078 21.208,9.2208 21.609,8.6798 C21.932,8.2458 22.061,7.7158 21.974,7.1878 L15.436,13.2348" id="icon-color" fill="currentColor" fill-rule="nonzero"></path>
    </g>
</svg>