<svg xmlns="http://www.w3.org/2000/svg" width="24" height="24" viewBox="0 0 24 24" class="s-ion-icon">
<g stroke="none" stroke-width="1" fill="none" fill-rule="evenodd">
<path d="M13.5002,12.0002 C13.5002,12.8282 12.8282,13.5002 12.0002,13.5002 C11.1712,13.5002 10.5002,12.8282 10.5002,12.0002 C10.5002,11.1712 11.1712,10.5002 12.0002,10.5002 C12.8282,10.5002 13.5002,11.1712 13.5002,12.0002 M20.5002,12.0002 C20.5002,12.8282 19.8282,13.5002 19.0002,13.5002 C18.1712,13.5002 17.5002,12.8282 17.5002,12.0002 C17.5002,11.1712 18.1712,10.5002 19.0002,10.5002 C19.8282,10.5002 20.5002,11.1712 20.5002,12.0002 M6.5002,12.0002 C6.5002,12.8282 5.8282,13.5002 5.0002,13.5002 C4.1712,13.5002 3.5002,12.8282 3.5002,12.0002 C3.5002,11.1712 4.1712,10.5002 5.0002,10.5002 C5.8282,10.5002 6.5002,11.1712 6.5002,12.0002" id="icon-color" fill="currentColor" fill-rule="nonzero"></path>
</g>
</svg>