<svg xmlns="http://www.w3.org/2000/svg" width="24" height="24" viewBox="0 0 24 24">
 <path id="history" fill="currentColor" d="M16.5,3 C18.1568542,3 19.5,4.34314575 19.5,6 L19.5019784,11.9391289 C19.6461161,12.0499669 19.7861433,12.1685028 19.9214906,12.2947162 C22.124007,14.3485961 22.352073,17.7269281 20.5226339,20.0513434 L21.0247823,19.9171022 C21.3915403,19.8188297 21.7676699,20.0101532 21.9103875,20.3509015 L21.943341,20.4474322 C22.0505473,20.8475318 21.8131105,21.2587845 21.4130109,21.3659909 L19.2051006,21.9575987 C18.805001,22.064805 18.3937483,21.8273682 18.286542,21.4272686 L17.6819935,19.171063 C17.5747871,18.7709634 17.812224,18.3597107 18.2123236,18.2525044 C18.6124232,18.145298 19.0236759,18.3827349 19.1308822,18.7828344 L19.2509781,19.2357113 C20.7012993,17.5094809 20.5597584,14.9409018 18.898493,13.3917468 C17.4120821,12.0056461 15.160988,11.872397 13.5294634,13.04063 L13.3980084,13.1472712 C13.2221692,13.296208 12.948237,13.5409286 12.8917468,13.601507 C11.2909533,15.3181478 11.3848661,18.0074597 13.101507,19.6082532 C13.5990015,20.0721744 14.1873253,20.4028427 14.8257802,20.5856784 C15.1858023,20.6887788 15.5582957,20.7437476 15.9330793,20.7495127 C16.3472439,20.7558837 16.6778259,21.0967951 16.6714549,21.5109597 C16.6650839,21.9251243 16.3241725,22.2557063 15.9100079,22.2495995 C15.4036031,22.2415454 14.9000065,22.1672297 14.4128214,22.0277134 C13.6914667,21.8211375 13.0168799,21.4749889 12.4231046,21.0023529 L7.5,21 C5.84314575,21 4.5,19.6568542 4.5,18 L4.5,6 C4.5,4.34314575 5.84314575,3 7.5,3 L16.5,3 Z M16.5,4.5 L7.5,4.5 C6.67157288,4.5 6,5.17157288 6,6 L6,18 C6,18.8284271 6.67157288,19.5 7.5,19.5 L11.0941471,19.5019788 C9.77803527,17.353871 9.99286557,14.5107577 11.7947162,12.5785094 C11.9369709,12.42596 12.4735626,11.9518106 12.6561919,11.8210411 C14.238228,10.6882438 16.2484607,10.4589658 18.0009165,11.1086157 L18,6 C18,5.17157288 17.3284271,4.5 16.5,4.5 Z M16,14.05 C16.4142136,14.05 16.75,14.3857864 16.75,14.8 L16.75,16.096 L18.0002441,16.0963867 C18.3799399,16.0963867 18.6937351,16.3785406 18.7433975,16.7446162 L18.7502441,16.8463867 C18.7502441,17.2606003 18.4144577,17.5963867 18.0002441,17.5963867 L16,17.5963867 C15.5857864,17.5963867 15.25,17.2606003 15.25,16.8463867 L15.25,14.8 C15.25,14.3857864 15.5857864,14.05 16,14.05 Z M9,11.75 C9.41421356,11.75 9.75,12.0857864 9.75,12.5 C9.75,12.9142136 9.41421356,13.25 9,13.25 L8,13.25 C7.58578644,13.25 7.25,12.9142136 7.25,12.5 C7.25,12.0857864 7.58578644,11.75 8,11.75 L9,11.75 Z M12.5,8.75 C12.9142136,8.75 13.25,9.08578644 13.25,9.5 C13.25,9.91421356 12.9142136,10.25 12.5,10.25 L8,10.25 C7.58578644,10.25 7.25,9.91421356 7.25,9.5 C7.25,9.08578644 7.58578644,8.75 8,8.75 L12.5,8.75 Z M16,5.75 C16.4142136,5.75 16.75,6.08578644 16.75,6.5 C16.75,6.91421356 16.4142136,7.25 16,7.25 L8,7.25 C7.58578644,7.25 7.25,6.91421356 7.25,6.5 C7.25,6.08578644 7.58578644,5.75 8,5.75 L16,5.75 Z"/></svg>