<svg width="24px" height="24px" viewBox="0 0 24 24" version="1.1" xmlns="http://www.w3.org/2000/svg" xmlns:xlink="http://www.w3.org/1999/xlink" class="s-ion-icon">
    <g id="home" stroke="none" stroke-width="1" fill="none" fill-rule="evenodd">
        <path d="M14.6919,18.9763 L18.4899,18.9763 L18.4899,9.9693 C18.4899,9.8543 18.4369,9.7453 18.3459,9.6773 L12.2139,5.0973 C12.0869,5.0013 11.9139,5.0023 11.7859,5.0973 L11.7859,5.0973 L5.6549,9.6773 C5.5639,9.7453 5.5089,9.8553 5.5089,9.9693 L5.5089,18.9763 L9.4519,18.9763 L9.4519,14.4543 C9.4519,14.0343 9.7899,13.6923 10.2069,13.6923 L13.9379,13.6923 C14.3549,13.6923 14.6919,14.0343 14.6919,14.4543 L14.6919,18.9763 Z M18.6889,20.5003 L14.4949,20.5003 C13.7719,20.5003 13.1839,19.9063 13.1839,19.1753 L13.1839,15.2153 L10.9619,15.2153 L10.9619,19.1753 C10.9619,19.9063 10.3729,20.5003 9.6499,20.5003 L5.3119,20.5003 C4.5889,20.5003 3.9999,19.9063 3.9999,19.1753 L3.9999,9.9693 C3.9999,9.3733 4.2839,8.8063 4.7579,8.4533 L10.8879,3.8733 C11.5529,3.3763 12.4479,3.3753 13.1119,3.8733 L19.2429,8.4533 C19.7169,8.8063 19.9999,9.3733 19.9999,9.9693 L19.9999,19.1753 C19.9999,19.9063 19.4109,20.5003 18.6889,20.5003 L18.6889,20.5003 Z" id="icon-color" fill="currentColor" fill-rule="nonzero"></path>
    </g>
</svg>