<svg xmlns="http://www.w3.org/2000/svg" width="24" height="24" viewBox="0 0 24 24">
<path id="navigation" fill="currentColor" d="M18.25,16.75 L5.75,16.75 C5.336,16.75 5,16.414 5,16 C5,15.586 5.336,15.25 5.75,15.25 L18.25,15.25 C18.664,15.25 19,15.586 19,16 C19,16.414 18.664,16.75 18.25,16.75 M5.75,12.75 C5.336,12.75 5,12.414 5,12 C5,11.586 5.336,11.25 5.75,11.25 L12.3260498,11.25 C12.7400498,11.25 13.0760498,11.586 13.0760498,12 C13.0760498,12.414 12.7400498,12.75 12.3260498,12.75 L5.75,12.75 Z M18.25,8.75 L5.75,8.75 C5.336,8.75 5,8.414 5,8 C5,7.586 5.336,7.25 5.75,7.25 L18.25,7.25 C18.664,7.25 19,7.586 19,8 C19,8.414 18.664,8.75 18.25,8.75"/></svg>