<svg xmlns="http://www.w3.org/2000/svg" width="24" height="24" viewBox="0 0 24 24">
    <path fill="currentColor" id="business" d="M16.7852,18.9966 L7.1542,18.9966 C6.3782,18.9966 5.7472,18.2166 5.7472,17.2566 L5.7472,14.7356 C5.9462,14.7726 6.1502,14.7956 6.3612,14.7956 L9.7092,14.7956 C9.9552,15.4746 10.6092,15.9636 11.3822,15.9636 L12.5572,15.9636 C13.3312,15.9636 13.9842,15.4746 14.2302,14.7956 L17.6392,14.7956 C17.8282,14.7956 18.0132,14.7776 18.1912,14.7476 L18.1912,17.2566 C18.1912,18.2166 17.5612,18.9966 16.7852,18.9966 L16.7852,18.9966 Z M12.8122,13.8776 L12.8122,14.2106 C12.8122,14.3486 12.6982,14.4606 12.5572,14.4606 L11.3822,14.4606 C11.2422,14.4606 11.1272,14.3486 11.1272,14.2106 L11.1272,13.8776 C11.1272,13.7396 11.2422,13.6266 11.3822,13.6266 L12.5572,13.6266 C12.6982,13.6266 12.8122,13.7396 12.8122,13.8776 L12.8122,13.8776 Z M5.0272,8.1476 C5.0272,7.6546 5.6382,7.2376 6.3612,7.2376 L17.6392,7.2376 C18.3622,7.2376 18.9732,7.6546 18.9732,8.1476 L18.9732,12.3826 C18.9732,12.8756 18.3622,13.2926 17.6392,13.2926 L14.2302,13.2926 C13.9842,12.6136 13.3312,12.1236 12.5572,12.1236 L11.3822,12.1236 C10.6092,12.1236 9.9552,12.6136 9.7092,13.2926 L6.3612,13.2926 C5.6382,13.2926 5.0272,12.8756 5.0272,12.3826 L5.0272,8.1476 Z M10.0042,5.3056 C10.0042,5.1386 10.1332,5.0026 10.2902,5.0026 L13.7112,5.0026 C13.8672,5.0026 13.9952,5.1386 13.9952,5.3056 L13.9952,5.7346 L10.0042,5.7346 L10.0042,5.3056 Z M20.5002,8.1476 C20.5002,6.8176 19.2162,5.7346 17.6392,5.7346 L15.5222,5.7346 L15.5222,5.3056 C15.5222,4.3096 14.7102,3.4996 13.7112,3.4996 L10.2902,3.4996 C9.2902,3.4996 8.4772,4.3096 8.4772,5.3056 L8.4772,5.7346 L6.3612,5.7346 C4.7832,5.7346 3.5002,6.8176 3.5002,8.1476 L3.5002,12.3826 C3.5002,12.9916 3.7772,13.5416 4.2202,13.9666 L4.2202,17.2566 C4.2202,19.0456 5.5362,20.4996 7.1542,20.4996 L16.7852,20.4996 C18.4032,20.4996 19.7202,19.0456 19.7202,17.2566 L19.7202,14.0276 C20.2002,13.5966 20.5002,13.0196 20.5002,12.3826 L20.5002,8.1476 Z"/>
</svg>