<?xml version="1.0" encoding="UTF-8"?>
<svg width="24px" height="24px" viewBox="0 0 24 24" version="1.1" xmlns="http://www.w3.org/2000/svg" xmlns:xlink="http://www.w3.org/1999/xlink">
    <!-- Generator: Sketch 55.1 (78136) - https://sketchapp.com -->
    <g id="cog" stroke="none" stroke-width="1" fill="none" fill-rule="evenodd">
        <path d="M11.9999,13.8486 C13.0249,13.8486 13.8589,13.0206 13.8589,11.9996 C13.8589,10.9806 13.0249,10.1516 11.9999,10.1516 C10.9749,10.1516 10.1419,10.9806 10.1419,11.9996 C10.1419,13.0206 10.9749,13.8486 11.9999,13.8486 Z M11.9999,8.6556 C13.8549,8.6556 15.3639,10.1566 15.3639,11.9996 C15.3639,13.8446 13.8549,15.3446 11.9999,15.3446 C10.1459,15.3446 8.6369,13.8446 8.6369,11.9996 C8.6369,10.1566 10.1459,8.6556 11.9999,8.6556 Z M18.9335,14.7012 C18.9955,14.5942 19.0105,14.4712 18.9785,14.3522 C18.9465,14.2352 18.8715,14.1392 18.7665,14.0812 L17.9685,13.6332 C17.6975,13.4792 17.5485,13.1762 17.5955,12.8702 C17.6415,12.5602 17.6835,12.2852 17.6835,12.0182 C17.6835,11.7252 17.6525,11.4202 17.5815,11.0262 C17.5265,10.7172 17.6715,10.4052 17.9455,10.2472 L18.7065,9.8082 C18.8165,9.7472 18.8615,9.6492 18.8795,9.5792 C18.9125,9.4582 18.8935,9.3282 18.8265,9.2122 L17.7155,7.3042 C17.6515,7.1922 17.5505,7.1112 17.4335,7.0782 C17.3725,7.0592 17.2535,7.0412 17.1365,7.1082 L16.2755,7.6042 C16.0095,7.7562 15.6825,7.7332 15.4395,7.5512 C14.9965,7.2122 14.5295,6.9472 14.0495,6.7622 C13.7605,6.6502 13.5695,6.3732 13.5695,6.0642 L13.5695,5.4542 C13.5695,5.2012 13.3625,4.9962 13.1085,4.9962 L10.8925,4.9962 C10.6375,4.9962 10.4315,5.2012 10.4315,5.4542 L10.4315,6.0642 C10.4315,6.3732 10.2405,6.6502 9.9515,6.7622 C9.4735,6.9462 9.0075,7.2102 8.5655,7.5472 C8.3255,7.7282 7.9995,7.7502 7.7375,7.6042 L6.8065,7.0812 C6.6755,7.0072 6.5465,7.0262 6.4845,7.0462 C6.3665,7.0802 6.2665,7.1592 6.2045,7.2682 L5.1135,9.1872 C5.0515,9.2972 5.0345,9.4222 5.0655,9.5402 C5.0825,9.6032 5.1305,9.7222 5.2615,9.7962 L6.0485,10.2392 C6.3275,10.3952 6.4755,10.7102 6.4185,11.0212 C6.3485,11.4102 6.3165,11.7262 6.3165,12.0182 C6.3165,12.2742 6.3565,12.5392 6.3985,12.8182 C6.4455,13.1222 6.3045,13.4592 6.0375,13.6132 L5.2205,14.0832 C5.1205,14.1402 5.0495,14.2342 5.0195,14.3472 C4.9895,14.4672 5.0065,14.5912 5.0705,14.6982 L6.1795,16.6052 C6.3065,16.8262 6.5795,16.9062 6.7915,16.7832 L7.5915,16.3222 C7.7095,16.2552 7.8385,16.2222 7.9685,16.2222 C8.1375,16.2222 8.3055,16.2782 8.4435,16.3892 C8.9215,16.7752 9.4285,17.0732 9.9515,17.2742 C10.2415,17.3872 10.4315,17.6632 10.4315,17.9722 L10.4315,18.5612 C10.4315,18.8052 10.6375,19.0042 10.8925,19.0042 L13.1085,19.0042 C13.3625,19.0042 13.5695,18.8052 13.5695,18.5612 L13.5695,17.9722 C13.5695,17.6632 13.7595,17.3872 14.0495,17.2742 C14.5685,17.0742 15.0725,16.7792 15.5455,16.3982 C15.7875,16.2052 16.1215,16.1782 16.3905,16.3292 L17.2225,16.7982 C17.4385,16.9202 17.7175,16.8402 17.8445,16.6202 L18.9335,14.7012 Z M20.4295,13.9562 C20.5675,14.4592 20.5015,14.9842 20.2435,15.4372 L19.1545,17.3562 C18.6205,18.2932 17.4195,18.6282 16.4815,18.0992 L16.0785,17.8732 C15.7535,18.0992 15.4175,18.2972 15.0745,18.4612 L15.0745,18.5612 C15.0745,19.6302 14.1925,20.5002 13.1085,20.5002 L10.8925,20.5002 C9.8085,20.5002 8.9265,19.6302 8.9265,18.5612 L8.9265,18.4622 C8.5795,18.2962 8.2415,18.0962 7.9135,17.8662 L7.5455,18.0782 C6.6175,18.6122 5.4195,18.2872 4.8765,17.3552 L3.7675,15.4482 C3.5055,14.9982 3.4325,14.4742 3.5635,13.9732 C3.6945,13.4692 4.0155,13.0472 4.4675,12.7872 L4.8455,12.5702 C4.8255,12.3892 4.8115,12.2092 4.8115,12.0182 C4.8115,11.7862 4.8265,11.5472 4.8575,11.2882 L4.5205,11.0982 C4.0685,10.8452 3.7455,10.4262 3.6115,9.9222 C3.4785,9.4242 3.5465,8.9012 3.8035,8.4502 L4.8955,6.5322 C5.1515,6.0812 5.5665,5.7532 6.0635,5.6092 C6.5695,5.4642 7.0945,5.5242 7.5465,5.7782 L8.0605,6.0672 C8.3425,5.8812 8.6315,5.7162 8.9265,5.5752 L8.9265,5.4542 C8.9265,4.3772 9.8085,3.5002 10.8925,3.5002 L13.1085,3.5002 C14.1925,3.5002 15.0745,4.3772 15.0745,5.4542 L15.0745,5.5752 C15.3705,5.7162 15.6595,5.8812 15.9415,6.0682 L16.3825,5.8132 C16.8295,5.5562 17.3545,5.4962 17.8575,5.6412 C18.3465,5.7842 18.7585,6.1092 19.0185,6.5552 L20.1285,8.4632 C20.3975,8.9242 20.4695,9.4572 20.3325,9.9652 C20.2035,10.4512 19.8935,10.8562 19.4605,11.1042 L19.1425,11.2882 C19.1735,11.5482 19.1885,11.7862 19.1885,12.0182 C19.1885,12.2142 19.1745,12.4002 19.1545,12.5802 L19.5065,12.7772 L19.5065,12.7782 C19.9625,13.0342 20.2895,13.4532 20.4295,13.9562 Z" id="icon-color" fill="currentColor" fill-rule="nonzero"></path>
    </g>
</svg>
