<?xml version="1.0" encoding="UTF-8"?>
<svg width="24px" height="24px" viewBox="0 0 24 24" version="1.1" xmlns="http://www.w3.org/2000/svg" xmlns:xlink="http://www.w3.org/1999/xlink">
    <!-- Generator: Sketch 57.1 (83088) - https://sketch.com -->
    <g id="flag" stroke="none" stroke-width="1" fill="none" fill-rule="evenodd">
        <path d="M16.4897,11.5269 C15.3567,11.7389 13.6827,11.5229 12.0587,11.3109 C10.8637,11.1559 9.7047,11.0059 8.6807,11.0059 C8.2657,11.0059 7.8737,11.0299 7.5107,11.0899 L7.5107,6.2009 C8.4677,5.7849 10.4687,6.0589 12.2537,6.3049 C13.7117,6.5059 15.2107,6.7109 16.4897,6.6329 L16.4897,11.5269 Z M17.7197,5.2149 C17.5447,5.0739 17.3147,5.0179 17.0907,5.0649 C15.9077,5.3069 14.1557,5.0669 12.4637,4.8339 C9.9507,4.4879 7.5787,4.1619 6.2747,5.2179 C6.1007,5.3589 5.9997,5.5689 5.9997,5.7909 L5.9997,5.9319 L5.9997,12.0889 L5.9997,18.7569 C5.9997,19.1679 6.3387,19.4999 6.7557,19.4999 C7.1727,19.4999 7.5107,19.1679 7.5107,18.7569 L7.5107,12.6029 C8.5237,12.3499 10.2167,12.5699 11.8617,12.7839 C13.0547,12.9379 14.2717,13.0959 15.3677,13.0959 C16.1657,13.0959 16.8997,13.0129 17.5127,12.7829 C17.8057,12.6729 18.0007,12.3969 18.0007,12.0889 L18.0007,5.7909 C18.0007,5.5679 17.8977,5.3559 17.7197,5.2149 L17.7197,5.2149 Z" id="icon-color" fill="currentColor" fill-rule="nonzero"></path>
    </g>
</svg>
