<?xml version="1.0" encoding="UTF-8"?>
<svg width="24px" height="24px" viewBox="0 0 24 24" version="1.1" xmlns="http://www.w3.org/2000/svg" xmlns:xlink="http://www.w3.org/1999/xlink">
    <!-- Generator: Sketch 57.1 (83088) - https://sketch.com -->
    <g id="inbox" stroke="none" stroke-width="1" fill="none" fill-rule="evenodd">
        <path d="M3.1638,6.2989 L10.9538,12.3079 C11.2648,12.5449 11.6408,12.6629 12.0168,12.6629 C12.3798,12.6629 12.7428,12.5529 13.0488,12.3289 L13.0488,12.3289 L20.9588,6.5249 C21.2938,7.1099 21.4998,7.7779 21.4998,8.4999 L21.4998,8.4999 L21.4998,15.4999 C21.4998,17.7089 19.7088,19.4999 17.4998,19.4999 L17.4998,19.4999 L6.4998,19.4999 C4.2908,19.4999 2.4998,17.7089 2.4998,15.4999 L2.4998,15.4999 L2.4998,8.4999 C2.4998,7.6859 2.7468,6.9309 3.1638,6.2989 L3.1638,6.2989 Z M17.5001,4.4999 C18.4421,4.4999 19.2961,4.8389 19.9791,5.3839 L19.9791,5.3839 L12.1631,11.1189 C12.0741,11.1839 11.9531,11.1819 11.8671,11.1169 L11.8671,11.1169 L4.2201,5.2199 C4.8671,4.7679 5.6511,4.4999 6.5001,4.4999 L6.5001,4.4999 Z" id="icon-color" fill="currentColor" fill-rule="nonzero"></path>
    </g>
</svg>
