<?xml version="1.0" encoding="UTF-8"?>
<svg width="24px" height="24px" viewBox="0 0 24 24" version="1.1" xmlns="http://www.w3.org/2000/svg" xmlns:xlink="http://www.w3.org/1999/xlink">
    <!-- Generator: Sketch 57.1 (83088) - https://sketch.com -->
    <g id="communication/support" stroke="none" stroke-width="1" fill="none" fill-rule="evenodd">
        <path d="M19.904,12.637 C19.904,13.045 19.5556667,13.373 19.1207778,13.393 L19.1207778,11.234 C19.1207778,11.177 19.1144444,11.121 19.1123333,11.065 C19.5514444,11.082 19.904,11.412 19.904,11.823 L19.904,12.637 Z M4.09494444,12.637 L4.09494444,11.823 C4.09494444,11.412 4.4475,11.082 4.88661111,11.065 C4.88555556,11.121 4.87816667,11.177 4.87816667,11.234 L4.87816667,13.393 C4.44433333,13.373 4.09494444,13.045 4.09494444,12.637 L4.09494444,12.637 Z M19.0796111,9.579 L18.9307778,9.579 C18.2098333,6.387 15.4590556,4 12.1794444,4 L11.8205556,4 C8.53988889,4 5.79016667,6.387 5.06922222,9.579 L4.91933333,9.579 C3.58511111,9.579 2.5,10.585 2.5,11.823 L2.5,12.637 C2.5,13.875 3.58511111,14.882 4.91933333,14.882 L5.67616667,14.882 C6.11633333,14.882 6.47416667,14.55 6.47416667,14.141 L6.47416667,11.234 C6.47416667,8.061 8.87238889,5.48 11.8205556,5.48 L12.1794444,5.48 C15.1276111,5.48 17.5258333,8.061 17.5258333,11.234 L17.5258333,14.141 C17.5258333,16.484 15.3513889,17.346 13.7268889,17.666 C13.4503333,17.376 13.0502778,17.189 12.6006111,17.189 C11.7656667,17.189 11.0858889,17.821 11.0858889,18.595 C11.0858889,19.37 11.7656667,20 12.6006111,20 C13.2318333,20 13.7722778,19.639 14.0002778,19.129 C16.1905556,18.698 18.6732222,17.509 19.0669444,14.882 L19.0796111,14.882 C20.4138333,14.882 21.5,13.875 21.5,12.637 L21.5,11.823 C21.5,10.585 20.4138333,9.579 19.0796111,9.579 L19.0796111,9.579 Z" id="icon-color" fill="currentColor" fill-rule="nonzero"></path>
    </g>
</svg>
