<?xml version="1.0" encoding="UTF-8"?><svg id="Lag_1" xmlns="http://www.w3.org/2000/svg" xmlns:xlink="http://www.w3.org/1999/xlink" viewBox="0 0 240 150"><defs><style>.cls-1,.cls-2,.cls-3{fill:none;}.cls-4{clip-path:url(#clippath);}.cls-5{fill:#00e89a;}.cls-6{fill:#d1d1d1;}.cls-2{stroke:#8e8e8e;stroke-linecap:round;}.cls-2,.cls-3{stroke-miterlimit:10;}.cls-3{stroke:#d1d1d1;stroke-width:.75px;}</style><clipPath id="clippath"><rect class="cls-1" x="62.62" y="22.75" width="114.75" height="104.5"/></clipPath></defs><g id="Group_2"><g class="cls-4"><g id="Group_1"><rect id="Rectangle_1" class="cls-3" x="63" y="23.12" width="114" height="103.75" rx="10" ry="10"/><path id="Path_1" class="cls-6" d="m148,39.34h-56c-1.66,0-3-1.34-3-3s1.34-3,3-3h56c1.66,0,3,1.34,3,3s-1.34,3-3,3"/></g></g></g><path id="Path_10" class="cls-6" d="m86.38,50.9h-7.5c-.83-.15-1.38-.95-1.23-1.77.11-.62.6-1.11,1.23-1.23h7.5c.83.15,1.38.95,1.23,1.77-.11.62-.6,1.11-1.23,1.23"/><line id="Line_1" class="cls-2" x1="161.84" y1="36.32" x2="158.71" y2="33.12"/><line id="Line_2" class="cls-2" x1="161.84" y1="36.36" x2="158.71" y2="39.56"/><line id="Line_3" class="cls-2" x1="80.84" y1="33.12" x2="77.71" y2="36.32"/><line id="Line_4" class="cls-2" x1="80.84" y1="39.56" x2="77.71" y2="36.36"/><path id="Path_11" class="cls-6" d="m104.93,50.9h-7.5c-.83-.15-1.38-.95-1.23-1.77.11-.62.6-1.11,1.23-1.23h7.5c.83.15,1.38.95,1.23,1.77-.11.62-.6,1.11-1.23,1.23"/><path id="Path_12" class="cls-6" d="m123.48,50.9h-7.5c-.83-.15-1.38-.95-1.23-1.77.11-.62.6-1.11,1.23-1.23h7.5c.83.15,1.38.95,1.23,1.77-.11.62-.6,1.11-1.23,1.23"/><path id="Path_13" class="cls-6" d="m142.04,50.9h-7.5c-.83-.15-1.38-.95-1.23-1.77.11-.62.6-1.11,1.23-1.23h7.5c.83.15,1.38.95,1.23,1.77-.11.62-.6,1.11-1.23,1.23"/><path id="Path_14" class="cls-6" d="m160.59,50.9h-7.5c-.83-.15-1.38-.95-1.23-1.77.11-.62.6-1.11,1.23-1.23h7.5c.83.15,1.38.95,1.23,1.77-.11.62-.6,1.11-1.23,1.23"/><circle id="Ellipse_1" class="cls-6" cx="82.62" cy="65.75" r="5"/><circle id="Ellipse_2" class="cls-6" cx="101.62" cy="65.75" r="5"/><circle id="Ellipse_3" class="cls-6" cx="119.62" cy="65.75" r="5"/><circle id="Ellipse_4" class="cls-6" cx="138.62" cy="65.75" r="5"/><circle id="Ellipse_5" class="cls-6" cx="156.62" cy="65.75" r="5"/><circle id="Ellipse_1-2" class="cls-6" cx="82.62" cy="80.75" r="5"/><circle id="Ellipse_2-2" class="cls-6" cx="101.62" cy="80.75" r="5"/><circle id="Ellipse_3-2" class="cls-6" cx="119.62" cy="80.75" r="5"/><circle id="Ellipse_4-2" class="cls-5" cx="138.62" cy="80.75" r="5"/><circle id="Ellipse_5-2" class="cls-6" cx="156.62" cy="80.75" r="5"/><circle id="Ellipse_1-3" class="cls-6" cx="82.62" cy="95.75" r="5"/><circle id="Ellipse_2-3" class="cls-6" cx="101.62" cy="95.75" r="5"/><circle id="Ellipse_3-3" class="cls-6" cx="119.62" cy="95.75" r="5"/><circle id="Ellipse_4-3" class="cls-6" cx="138.62" cy="95.75" r="5"/><circle id="Ellipse_5-3" class="cls-6" cx="156.62" cy="95.75" r="5"/><circle id="Ellipse_1-4" class="cls-6" cx="82.62" cy="110.75" r="5"/><circle id="Ellipse_2-4" class="cls-6" cx="101.62" cy="110.75" r="5"/><circle id="Ellipse_3-4" class="cls-6" cx="119.62" cy="110.75" r="5"/><circle id="Ellipse_4-4" class="cls-6" cx="138.62" cy="110.75" r="5"/><circle id="Ellipse_5-4" class="cls-6" cx="156.62" cy="110.75" r="5"/></svg>