<?xml version="1.0" encoding="UTF-8"?><svg id="Lag_1" xmlns="http://www.w3.org/2000/svg" viewBox="0 0 240 150"><defs><style>.cls-1{fill:#00e89a;}.cls-2{fill:#d1d1d1;}.cls-3{fill:none;stroke:#d1d1d1;stroke-miterlimit:10;}</style></defs><line id="Line_20" class="cls-3" x1="37" y1="74.99" x2="203" y2="74.99"/><g><g><path id="Path_25" class="cls-2" d="m75.84,75c0,4.09-3.31,7.4-7.4,7.4-4.09,0-7.4-3.31-7.4-7.4s3.31-7.4,7.4-7.4h0c4.09,0,7.4,3.31,7.4,7.4"/><path id="Path_25-2" class="cls-2" d="m75.91,75c0,4.13-3.35,7.48-7.48,7.48-4.13,0-7.48-3.35-7.48-7.48s3.35-7.48,7.48-7.48h0c4.13,0,7.48,3.35,7.48,7.48"/></g><path id="Path_25-3" class="cls-1" d="m74.5,75c0,3.35-2.71,6.06-6.06,6.06-3.35,0-6.06-2.71-6.06-6.06s2.71-6.06,6.06-6.06h0c3.35,0,6.06,2.71,6.06,6.06"/></g></svg>