<?xml version="1.0" encoding="UTF-8"?>
<svg width="24px" height="24px" viewBox="0 0 24 24" version="1.1" xmlns="http://www.w3.org/2000/svg" xmlns:xlink="http://www.w3.org/1999/xlink">
    <!-- Generator: Sketch 57.1 (83088) - https://sketch.com -->
    <title>accounts-outline</title>
    <desc>Created with Sketch.</desc>
    <g id="accounts-outline" stroke="none" stroke-width="1" fill="none" fill-rule="evenodd">
        <path d="M16.288,4 C17.58,4 18.631,5.047 18.631,6.335 L18.631,6.335 L18.631,6.852 C19.951,6.939 20.999,7.967 20.999,9.232 L20.999,9.232 L20.999,17.602 C20.999,18.924 19.858,20 18.455,20 L18.455,20 L5.545,20 C4.142,20 3,18.924 3,17.602 L3,17.602 L3,6.104 C3,4.944 3.947,4 5.111,4 L5.111,4 Z M4.482,8.208 L4.482,17.602 C4.482,18.109 4.959,18.521 5.545,18.521 L5.545,18.521 L18.455,18.521 C19.041,18.521 19.517,18.109 19.517,17.602 L19.517,17.602 L19.517,16.127 L17.404,16.127 C15.956,16.127 14.779,14.953 14.779,13.509 L14.779,13.509 L14.779,13.365 C14.779,11.921 15.956,10.748 17.404,10.748 L17.404,10.748 L19.517,10.748 L19.517,9.232 C19.517,8.726 19.041,8.314 18.455,8.314 L18.455,8.314 L5.111,8.314 C4.891,8.314 4.682,8.271 4.482,8.208 L4.482,8.208 Z M19.517,12.226 L17.404,12.226 C16.775,12.226 16.262,12.737 16.262,13.365 L16.262,13.365 L16.262,13.509 C16.262,14.137 16.775,14.648 17.404,14.648 L17.404,14.648 L19.517,14.648 L19.517,12.226 Z M17.5837,12.7631 C17.9567,12.7631 18.2607,13.0651 18.2607,13.4371 C18.2607,13.8091 17.9567,14.1121 17.5837,14.1121 C17.2097,14.1121 16.9067,13.8091 16.9067,13.4371 C16.9067,13.0651 17.2097,12.7631 17.5837,12.7631 Z M16.288,5.478 L5.111,5.478 C4.765,5.478 4.482,5.759 4.482,6.104 L4.482,6.104 L4.482,6.21 C4.482,6.554 4.765,6.836 5.111,6.836 L5.111,6.836 L17.148,6.836 L17.148,6.335 C17.148,5.862 16.762,5.478 16.288,5.478 L16.288,5.478 Z" id="Combined-Shape" fill="currentColor" fill-rule="nonzero"></path>
    </g>
</svg>
