<svg xmlns="http://www.w3.org/2000/svg" width="24" height="24" viewBox="0 0 24 24">
    <path id="calculator" fill="currentColor" d="M16,3 C17.6568542,3 19,4.34314575 19,6 L19,18 C19,19.6568542 17.6568542,21 16,21 L8,21 C6.34314575,21 5,19.6568542 5,18 L5,6 C5,4.34314575 6.34314575,3 8,3 L16,3 Z M16,4.5 L8,4.5 C7.17157288,4.5 6.5,5.17157288 6.5,6 L6.5,18 C6.5,18.8284271 7.17157288,19.5 8,19.5 L16,19.5 C16.8284271,19.5 17.5,18.8284271 17.5,18 L17.5,6 C17.5,5.17157288 16.8284271,4.5 16,4.5 Z M9,16 C9.55228475,16 10,16.4477153 10,17 C10,17.5522847 9.55228475,18 9,18 C8.44771525,18 8,17.5522847 8,17 C8,16.4477153 8.44771525,16 9,16 Z M12,16 C12.5522847,16 13,16.4477153 13,17 C13,17.5522847 12.5522847,18 12,18 C11.4477153,18 11,17.5522847 11,17 C11,16.4477153 11.4477153,16 12,16 Z M15,16 C15.5522847,16 16,16.4477153 16,17 C16,17.5522847 15.5522847,18 15,18 C14.4477153,18 14,17.5522847 14,17 C14,16.4477153 14.4477153,16 15,16 Z M9,13 C9.55228475,13 10,13.4477153 10,14 C10,14.5522847 9.55228475,15 9,15 C8.44771525,15 8,14.5522847 8,14 C8,13.4477153 8.44771525,13 9,13 Z M12,13 C12.5522847,13 13,13.4477153 13,14 C13,14.5522847 12.5522847,15 12,15 C11.4477153,15 11,14.5522847 11,14 C11,13.4477153 11.4477153,13 12,13 Z M15,13 C15.5522847,13 16,13.4477153 16,14 C16,14.5522847 15.5522847,15 15,15 C14.4477153,15 14,14.5522847 14,14 C14,13.4477153 14.4477153,13 15,13 Z M9,10 C9.55228475,10 10,10.4477153 10,11 C10,11.5522847 9.55228475,12 9,12 C8.44771525,12 8,11.5522847 8,11 C8,10.4477153 8.44771525,10 9,10 Z M12,10 C12.5522847,10 13,10.4477153 13,11 C13,11.5522847 12.5522847,12 12,12 C11.4477153,12 11,11.5522847 11,11 C11,10.4477153 11.4477153,10 12,10 Z M15,10 C15.5522847,10 16,10.4477153 16,11 C16,11.5522847 15.5522847,12 15,12 C14.4477153,12 14,11.5522847 14,11 C14,10.4477153 14.4477153,10 15,10 Z M15,6 C15.5522847,6 16,6.44771525 16,7 L16,7.5 C16,8.05228475 15.5522847,8.5 15,8.5 L9,8.5 C8.44771525,8.5 8,8.05228475 8,7.5 L8,7 C8,6.44771525 8.44771525,6 9,6 L15,6 Z"/>
</svg>