<svg xmlns="http://www.w3.org/2000/svg" width="24" height="24" viewBox="0 0 24 24">
    <path fill="currentColor" id="piggybank" d="M15.3794,6.2559 C17.2514,6.1749 18.7864,7.6079 18.8704,9.4539 C18.8894,9.8629 18.8254,10.2599 18.7044,10.6369 C19.6234,11.7559 20.0644,13.1439 19.9924,14.7799 C19.9044,16.8039 18.8804,17.9249 18.1324,18.7429 C17.8184,19.0859 17.4934,19.4409 17.4834,19.6409 C17.4714,19.8859 17.4964,21.2389 17.4964,21.2409 C17.4994,21.4409 17.4234,21.6329 17.2834,21.7769 C17.1424,21.9199 16.9524,21.9999 16.7524,21.9999 L13.6494,21.9999 C13.2384,21.9999 12.9054,21.6659 12.9054,21.2539 L12.9054,20.3919 L12.5854,20.3919 L12.5944,21.2459 C12.5964,21.4449 12.5194,21.6359 12.3794,21.7789 C12.2394,21.9209 12.0494,21.9999 11.8504,21.9999 L8.6674,21.9999 C8.4704,21.9999 8.2804,21.9209 8.1404,21.7799 C8.0004,21.6389 7.9234,21.4489 7.9244,21.2509 L7.9294,19.9779 C7.0904,19.2569 6.1544,18.1729 5.6724,17.1099 L4.7434,17.1099 C4.3334,17.1099 4.0004,16.7759 4.0004,16.3639 L4.0004,13.4819 C4.0004,13.0699 4.3334,12.7349 4.7434,12.7349 L5.7184,12.7349 C6.0184,12.0069 6.5674,11.1499 7.1554,10.5809 L6.3444,8.5839 C6.2534,8.3589 6.2764,8.1049 6.4064,7.8999 C6.5364,7.6959 6.7574,7.5669 6.9984,7.5559 C8.5854,7.4819 9.7204,8.0289 10.2814,8.3799 C10.9044,8.1699 11.7054,8.0669 12.5724,8.0759 C12.7054,7.8159 12.8614,7.5669 13.0624,7.3449 C13.6644,6.6829 14.4874,6.2969 15.3794,6.2559 Z M8.1724,9.1289 L8.7414,10.5289 C8.8774,10.8649 8.7534,11.2519 8.4464,11.4439 C7.8874,11.7949 7.1214,13.0229 6.9784,13.6489 C6.9014,13.9879 6.5994,14.2289 6.2534,14.2289 L5.4884,14.2289 L5.4884,15.6169 L6.1834,15.6169 C6.5114,15.6169 6.8004,15.8329 6.8954,16.1479 C7.1884,17.1209 8.2664,18.3619 9.1314,19.0349 C9.3134,19.1759 9.4204,19.3959 9.4194,19.6279 L9.4154,20.5059 L11.0984,20.5059 L11.0894,19.6529 C11.0874,19.4539 11.1644,19.2619 11.3044,19.1199 C11.4444,18.9779 11.6344,18.8979 11.8334,18.8979 L13.6494,18.8979 C14.0594,18.8979 14.3924,19.2329 14.3924,19.6449 L14.3924,20.5059 L15.9974,20.5059 C15.9934,20.1169 15.9904,19.6969 15.9974,19.5669 C16.0344,18.8299 16.5194,18.2959 17.0354,17.7339 C17.6944,17.0119 18.4404,16.1949 18.5064,14.7129 C18.5524,13.6619 18.3234,12.7579 17.8514,12.0029 C17.2644,12.5759 16.5074,12.9209 15.6824,12.9579 L15.5264,12.9619 C14.6914,12.9619 13.8984,12.6529 13.2784,12.0849 C12.6184,11.4809 12.2334,10.6549 12.1924,9.7599 C12.1894,9.6959 12.2014,9.6339 12.2024,9.5699 C11.4034,9.5999 10.8114,9.7489 10.5094,9.8959 C10.2434,10.0259 9.9234,9.9849 9.6974,9.7879 C9.6704,9.7659 9.1284,9.3189 8.1724,9.1289 Z M15.5324,7.7459 C15.5044,7.7459 15.4764,7.7469 15.4474,7.7479 C14.9524,7.7709 14.4964,7.9849 14.1614,8.3519 C13.8274,8.7189 13.6564,9.1949 13.6794,9.6919 C13.7014,10.1879 13.9154,10.6469 14.2804,10.9819 C14.6454,11.3159 15.1044,11.4809 15.6154,11.4659 C16.1094,11.4429 16.5664,11.2289 16.9004,10.8619 C17.2344,10.4949 17.4064,10.0189 17.3844,9.5219 C17.3374,8.5259 16.5154,7.7459 15.5324,7.7459 Z M11.5042,1.9997 C12.8452,1.9997 13.9362,3.0947 13.9362,4.4397 C13.9362,5.7857 12.8452,6.8807 11.5042,6.8807 C10.1642,6.8807 9.0732,5.7857 9.0732,4.4397 C9.0732,3.0947 10.1642,1.9997 11.5042,1.9997 Z M11.5042,3.4937 C10.9842,3.4937 10.5612,3.9177 10.5612,4.4397 C10.5612,4.9627 10.9842,5.3867 11.5042,5.3867 C12.0252,5.3867 12.4482,4.9627 12.4482,4.4397 C12.4482,3.9177 12.0252,3.4937 11.5042,3.4937 Z"/>
</svg>