<svg width="24" height="24" viewBox="0 0 24 24" fill="none" xmlns="http://www.w3.org/2000/svg">
<path d="M8.25 1.75C10.3873 1.75 12.1561 3.3277 12.4554 5.38202L15.5968 7.45479C15.9985 7.7199 16.0501 8.28942 15.7025 8.62236L14.772 9.513L16.2049 11.1608C16.3093 11.2809 16.3721 11.4302 16.3859 11.5868L16.387 11.7052L16.34 12.369L17.0089 12.4184C17.1671 12.4299 17.3164 12.4911 17.4364 12.5917L17.5206 12.6744L18.1767 13.4291C18.3084 13.5806 18.3739 13.7787 18.3584 13.9789L18.273 15.069L18.524 15.356L19.6335 15.4373C19.9357 15.4594 20.1909 15.6602 20.2876 15.9399L20.3162 16.0483L20.6428 17.8065C20.7151 18.1958 20.4723 18.5742 20.0883 18.6708L17.8126 19.2431C17.5385 19.312 17.249 19.2211 17.0636 19.0078L11.635 12.761L11.8239 13.3081C11.8627 13.421 11.8737 13.5403 11.8575 13.6564L11.8322 13.7709L11.7888 13.8811L11.496 14.479L12.0983 14.7754C12.2406 14.8453 12.3562 14.958 12.4297 15.0962L12.4768 15.2044L12.8024 16.1499C12.8677 16.3398 12.8542 16.5479 12.7649 16.7278L12.278 17.707L12.403 18.067L13.4009 18.5576C13.6728 18.6913 13.8341 18.9731 13.819 19.2687L13.8049 19.3799L13.4491 21.1324C13.3703 21.5204 13.0034 21.7804 12.6112 21.7261L10.2868 21.4042C10.0069 21.3655 9.7725 21.1726 9.68051 20.9054L6.838 12.65L5.65648 13.0579C5.21851 13.2088 4.75895 12.9309 4.67553 12.4904L4.66355 12.3936L4.43799 8.62278C4.42742 8.44616 4.4794 8.27721 4.5773 8.14074C4.21067 7.51283 4 6.78102 4 6C4 3.65279 5.90279 1.75 8.25 1.75ZM9.592 7.854L7.39125 8.61326C7.66145 8.702 7.95012 8.75 8.25 8.75C8.66421 8.75 9 9.08579 9 9.5C9 9.91421 8.66421 10.25 8.25 10.25C7.42365 10.25 6.65239 10.0142 5.99984 9.60612L6.101 11.318L7.05963 10.9881C7.41867 10.8644 7.8073 11.0291 7.97344 11.3591L8.01305 11.4531L10.948 19.981L12.119 20.143L12.219 19.648L11.4658 19.2776C11.3243 19.2081 11.2093 19.0962 11.1358 18.9591L11.0886 18.8517L10.7579 17.9038C10.6914 17.7132 10.7045 17.5039 10.7943 17.3231L11.282 16.341L11.159 15.984L10.1641 15.4966C9.82399 15.3295 9.66656 14.939 9.78227 14.5889L9.82067 14.4946L10.304 13.502L9.557 11.333L9.47455 11.1073C9.46461 11.0801 9.45633 11.0528 9.44967 11.0253L9.43067 10.9652C9.30705 10.6062 9.47167 10.2176 9.80163 10.0515L9.89563 10.0118L10.844 9.684L9.805 8.163L9.592 7.854ZM12.098 6.943L11.284 7.665L12.6484 9.64422C12.9099 10.0236 12.7684 10.5376 12.3712 10.7384L12.275 10.779L11.943 10.893L11.9623 10.9045C11.978 10.9142 11.9935 10.9245 12.0085 10.9354L12.0528 10.9702L12.1345 11.0509L17.893 17.676L19.039 17.388L18.946 16.891L18.1091 16.8297C17.9519 16.8182 17.8034 16.7576 17.6838 16.658L17.5998 16.5761L16.9381 15.8212C16.805 15.6694 16.7388 15.4703 16.7543 15.2691L16.838 14.176L16.591 13.891L15.4858 13.8116C15.1078 13.7842 14.8156 13.4811 14.7917 13.1131L14.792 13.0113L14.868 11.91L13.1717 9.95789C12.9354 9.68611 12.9286 9.29048 13.1403 9.01229L13.2189 8.92424L13.986 8.188L12.098 6.943ZM8.25 3.25C6.73122 3.25 5.5 4.48122 5.5 6C5.5 6.56167 5.66839 7.08402 5.95743 7.5193L9.64286 6.25039C9.91784 6.1557 10.2182 6.22933 10.4181 6.42983L10.997 5.915L10.995 5.83248C10.9084 4.3917 9.71253 3.25 8.25 3.25Z" fill="currentColor"/>
</svg>
