<svg xmlns="http://www.w3.org/2000/svg" width="24" height="24" viewBox="0 0 24 24">
<path id="calendar-end" fill="currentColor" d="M16.2997,15.0004 L17.6997,15.0004 C18.1415278,15.0004 18.4997,15.3585722 18.4997,15.8004 L18.4997,16.7004 C18.4997,17.1422278 18.1415278,17.5004 17.6997,17.5004 L16.2997,17.5004 C15.8578722,17.5004 15.4997,17.1422278 15.4997,16.7004 L15.4997,15.8004 C15.4997,15.3585722 15.8578722,15.0004 16.2997,15.0004 Z M17.28,18.559 L6.719,18.559 C5.488,18.559 4.488,17.589 4.488,16.398 L4.488,10.315 L19.512,10.315 L19.512,16.398 C19.512,17.589 18.51,18.559 17.28,18.559 M6.719,6.435 L7.437,6.435 L7.437,6.708 C7.437,7.106 7.77,7.429 8.181,7.429 C8.592,7.429 8.925,7.106 8.925,6.708 L8.925,6.435 L15.067,6.435 L15.067,6.708 C15.067,7.106 15.4,7.429 15.811,7.429 C16.221,7.429 16.555,7.106 16.555,6.708 L16.555,6.435 L17.28,6.435 C18.51,6.435 19.512,7.405 19.512,8.597 L19.512,8.874 L4.488,8.874 L4.488,8.597 C4.488,7.405 5.488,6.435 6.719,6.435 M17.28,4.994 L16.555,4.994 L16.555,4.721 C16.555,4.323 16.221,4 15.811,4 C15.4,4 15.067,4.323 15.067,4.721 L15.067,4.994 L8.925,4.994 L8.925,4.721 C8.925,4.323 8.592,4 8.181,4 C7.77,4 7.437,4.323 7.437,4.721 L7.437,4.994 L6.719,4.994 C4.668,4.994 3,6.61 3,8.597 L3,16.398 C3,18.384 4.668,20 6.719,20 L17.28,20 C19.331,20 21,18.384 21,16.398 L21,8.597 C21,6.61 19.331,4.994 17.28,4.994"/></svg>