<svg width="240" height="150" viewBox="0 0 240 150" fill="none" xmlns="http://www.w3.org/2000/svg">
<circle cx="87" cy="44" r="17" fill="#F1F1F1"/>
<rect x="69.5" y="64.5" width="101" height="59" rx="8.5" stroke="#D1D1D1"/>
<path d="M82.0446 45.1023C81.7292 45.1023 81.4586 44.9893 81.2328 44.7635C81.0069 44.5376 80.894 44.267 80.894 43.9517C80.894 43.6364 81.0069 43.3658 81.2328 43.1399C81.4586 42.9141 81.7292 42.8011 82.0446 42.8011C82.3599 42.8011 82.6305 42.9141 82.8564 43.1399C83.0822 43.3658 83.1951 43.6364 83.1951 43.9517C83.1951 44.1605 83.1419 44.3523 83.0353 44.527C82.9331 44.7017 82.7946 44.8423 82.6199 44.9489C82.4494 45.0511 82.2576 45.1023 82.0446 45.1023ZM87.0016 45.1023C86.6863 45.1023 86.4157 44.9893 86.1898 44.7635C85.964 44.5376 85.851 44.267 85.851 43.9517C85.851 43.6364 85.964 43.3658 86.1898 43.1399C86.4157 42.9141 86.6863 42.8011 87.0016 42.8011C87.3169 42.8011 87.5875 42.9141 87.8134 43.1399C88.0392 43.3658 88.1522 43.6364 88.1522 43.9517C88.1522 44.1605 88.0989 44.3523 87.9924 44.527C87.8901 44.7017 87.7516 44.8423 87.5769 44.9489C87.4064 45.0511 87.2147 45.1023 87.0016 45.1023ZM91.9586 45.1023C91.6433 45.1023 91.3727 44.9893 91.1468 44.7635C90.921 44.5376 90.8081 44.267 90.8081 43.9517C90.8081 43.6364 90.921 43.3658 91.1468 43.1399C91.3727 42.9141 91.6433 42.8011 91.9586 42.8011C92.274 42.8011 92.5446 42.9141 92.7704 43.1399C92.9963 43.3658 93.1092 43.6364 93.1092 43.9517C93.1092 44.1605 93.0559 44.3523 92.9494 44.527C92.8471 44.7017 92.7086 44.8423 92.5339 44.9489C92.3635 45.0511 92.1717 45.1023 91.9586 45.1023Z" fill="#1C1C1C"/>
<rect x="81" y="77" width="78" height="4" rx="2" fill="#D1D1D1"/>
<rect x="81" y="92" width="78" height="4" rx="2" fill="#D1D1D1"/>
<rect x="81" y="107" width="78" height="4" rx="2" fill="#D1D1D1"/>
</svg>
