<svg xmlns="http://www.w3.org/2000/svg" width="24" height="24" viewBox="0 0 24 24">
<g stroke="none" stroke-width="1" fill="none" fill-rule="evenodd">
<path d="M16.193,19.529 C15.672,19.529 15.187,19.401 14.75,19.192 L18.808,14.461 C19.221,14.992 19.476,15.643 19.476,16.357 C19.476,18.106 18.004,19.529 16.193,19.529 L16.193,19.529 Z M4.994,17.95 C4.734,17.95 4.523,17.746 4.523,17.495 C4.523,14.088 7.394,11.315 10.924,11.315 C12.071,11.315 13.182,11.617 14.157,12.169 C12.525,12.911 11.385,14.503 11.385,16.357 C11.385,16.92 11.505,17.451 11.694,17.95 L4.994,17.95 Z M10.887,4.47 C12.422,4.47 13.67,5.675 13.67,7.157 C13.67,8.638 12.422,9.844 10.887,9.844 C9.353,9.844 8.104,8.638 8.104,7.157 C8.104,5.675 9.353,4.47 10.887,4.47 L10.887,4.47 Z M13.577,18.255 C13.163,17.724 12.908,17.071 12.908,16.357 C12.908,14.609 14.381,13.187 16.193,13.187 C16.713,13.187 17.198,13.315 17.635,13.524 L13.577,18.255 Z M16.193,11.717 C16.169,11.717 16.145,11.723 16.121,11.723 C15.387,11.108 14.551,10.633 13.655,10.315 C14.588,9.552 15.193,8.427 15.193,7.157 C15.193,4.864 13.261,3 10.887,3 C8.513,3 6.581,4.864 6.581,7.157 C6.581,8.44 7.199,9.574 8.148,10.338 C5.145,11.427 3,14.22 3,17.495 C3,18.557 3.894,19.421 4.994,19.421 L12.608,19.421 C13.49,20.382 14.762,21 16.193,21 C18.843,21 21,18.917 21,16.357 C21,13.798 18.843,11.717 16.193,11.717 L16.193,11.717 Z" id="user-blocked" fill="currentColor" fill-rule="nonzero"></path>
</g>
</svg>