<?xml version="1.0" encoding="UTF-8"?>
<svg width="24px" height="24px" viewBox="0 0 24 24" version="1.1" xmlns="http://www.w3.org/2000/svg" xmlns:xlink="http://www.w3.org/1999/xlink">
    <!-- Generator: Sketch 55.1 (78136) - https://sketchapp.com -->
    <g id="icon/calendar" stroke="none" stroke-width="1" fill="none" fill-rule="evenodd">
        <path d="M17.2803,18.5586 L6.7193,18.5586 C5.4883,18.5586 4.4883,17.5886 4.4883,16.3976 L4.4883,10.3146 L19.5123,10.3146 L19.5123,16.3976 C19.5123,17.5886 18.5103,18.5586 17.2803,18.5586 M6.7193,6.4346 L7.4373,6.4346 L7.4373,6.7076 C7.4373,7.1056 7.7703,7.4286 8.1813,7.4286 C8.5923,7.4286 8.9253,7.1056 8.9253,6.7076 L8.9253,6.4346 L15.0673,6.4346 L15.0673,6.7076 C15.0673,7.1056 15.4003,7.4286 15.8113,7.4286 C16.2213,7.4286 16.5553,7.1056 16.5553,6.7076 L16.5553,6.4346 L17.2803,6.4346 C18.5103,6.4346 19.5123,7.4046 19.5123,8.5966 L19.5123,8.8736 L4.4883,8.8736 L4.4883,8.5966 C4.4883,7.4046 5.4883,6.4346 6.7193,6.4346 M17.2803,4.9936 L16.5553,4.9936 L16.5553,4.7206 C16.5553,4.3226 16.2213,3.9996 15.8113,3.9996 C15.4003,3.9996 15.0673,4.3226 15.0673,4.7206 L15.0673,4.9936 L8.9253,4.9936 L8.9253,4.7206 C8.9253,4.3226 8.5923,3.9996 8.1813,3.9996 C7.7703,3.9996 7.4373,4.3226 7.4373,4.7206 L7.4373,4.9936 L6.7193,4.9936 C4.6683,4.9936 3.0003,6.6096 3.0003,8.5966 L3.0003,16.3976 C3.0003,18.3836 4.6683,19.9996 6.7193,19.9996 L17.2803,19.9996 C19.3313,19.9996 21.0003,18.3836 21.0003,16.3976 L21.0003,8.5966 C21.0003,6.6096 19.3313,4.9936 17.2803,4.9936" id="icon-color" fill="currentColor" fill-rule="nonzero"></path>
    </g>
</svg>
