<?xml version="1.0" encoding="UTF-8"?>
<svg width="24px" height="24px" viewBox="0 0 24 24" version="1.1" xmlns="http://www.w3.org/2000/svg" xmlns:xlink="http://www.w3.org/1999/xlink">
    <!-- Generator: Sketch 55.1 (78136) - https://sketchapp.com -->
    <g id="more" stroke="none" stroke-width="1" fill="none" fill-rule="evenodd">
        <path d="M13.5002,12.0002 C13.5002,12.8282 12.8282,13.5002 12.0002,13.5002 C11.1712,13.5002 10.5002,12.8282 10.5002,12.0002 C10.5002,11.1712 11.1712,10.5002 12.0002,10.5002 C12.8282,10.5002 13.5002,11.1712 13.5002,12.0002 Z M19.5002,12.0002 C19.5002,12.8282 18.8282,13.5002 18.0002,13.5002 C17.1712,13.5002 16.5002,12.8282 16.5002,12.0002 C16.5002,11.1712 17.1712,10.5002 18.0002,10.5002 C18.8282,10.5002 19.5002,11.1712 19.5002,12.0002 Z M7.5002,12.0002 C7.5002,12.8282 6.8282,13.5002 6.0002,13.5002 C5.1712,13.5002 4.5002,12.8282 4.5002,12.0002 C4.5002,11.1712 5.1712,10.5002 6.0002,10.5002 C6.8282,10.5002 7.5002,11.1712 7.5002,12.0002 Z" id="icon-color" fill="currentColor" fill-rule="nonzero"></path>
    </g>
</svg>
