<svg xmlns="http://www.w3.org/2000/svg" width="24" height="24" viewBox="0 0 24 24">
<g stroke="none" stroke-width="1" fill="none" fill-rule="evenodd">
<path d="M10.2569371,4.21492732 L10.420706,4.37036493 L12.0165021,5.96656875 L13.5846643,4.39912763 C15.2443925,2.73939939 17.9353437,2.73939939 19.5950719,4.39912763 C21.2012606,6.00531625 21.2530731,8.57727035 19.7505095,10.2457664 L19.5950719,10.4095353 L18.0265021,11.9765688 L19.6130941,13.5627531 C21.2192827,15.1689417 21.2710953,17.7408958 19.7685317,19.4093919 L19.6130941,19.5731607 C18.0069055,21.1793493 15.4349514,21.2311619 13.7664553,19.7285983 L13.6026865,19.5731607 L12.0115021,17.9815688 L10.420706,19.5731607 C8.76097772,21.232889 6.07002656,21.232889 4.41029832,19.5731607 C2.8041097,17.9669721 2.75229717,15.395018 4.25486071,13.7265219 L4.41029832,13.5627531 L6.00050214,11.9715688 L4.41029832,10.3807726 C2.8041097,8.77458395 2.75229717,6.20262985 4.25486071,4.53413378 L4.41029832,4.37036493 C6.01648694,2.76417631 8.58844104,2.71236378 10.2569371,4.21492732 Z M5.47095849,5.4310251 C4.44176427,6.46021933 4.39888117,8.10222873 5.34230922,9.18249089 L5.47095849,9.3201124 L14.6633466,18.5125006 C15.7372885,19.5864424 17.4784921,19.5864424 18.5524339,18.5125006 C19.5816282,17.4833063 19.6245113,15.8412969 18.6810832,14.7610348 L18.5524339,14.6234133 L9.36004579,5.4310251 C8.28610399,4.3570833 6.5449003,4.3570833 5.47095849,5.4310251 Z M7.06150214,13.0315688 L5.47095849,14.6234133 C4.39701669,15.6973551 4.39701669,17.4385588 5.47095849,18.5125006 C6.50015272,19.5416948 8.14216212,19.5845779 9.22242428,18.6411498 L9.36004579,18.5125006 L10.9505021,16.9215688 L7.06150214,13.0315688 Z M12.5420263,12.8736296 C12.8349195,13.1665229 12.8349195,13.6413966 12.5420263,13.9342898 C12.2491331,14.227183 11.7742594,14.227183 11.4813661,13.9342898 C11.1884729,13.6413966 11.1884729,13.1665229 11.4813661,12.8736296 C11.7742594,12.5807364 12.2491331,12.5807364 12.5420263,12.8736296 Z M13.9562399,11.4594161 C14.2491331,11.7523093 14.2491331,12.227183 13.9562399,12.5200763 C13.6633466,12.8129695 13.1884729,12.8129695 12.8955797,12.5200763 C12.6026865,12.227183 12.6026865,11.7523093 12.8955797,11.4594161 C13.1884729,11.1665229 13.6633466,11.1665229 13.9562399,11.4594161 Z M11.1278127,11.4594161 C11.420706,11.7523093 11.420706,12.227183 11.1278127,12.5200763 C10.8349195,12.8129695 10.3600458,12.8129695 10.0671526,12.5200763 C9.77425935,12.227183 9.77425935,11.7523093 10.0671526,11.4594161 C10.3600458,11.1665229 10.8349195,11.1665229 11.1278127,11.4594161 Z M12.5420263,10.0452025 C12.8349195,10.3380957 12.8349195,10.8129695 12.5420263,11.1058627 C12.2491331,11.3987559 11.7742594,11.3987559 11.4813661,11.1058627 C11.1884729,10.8129695 11.1884729,10.3380957 11.4813661,10.0452025 C11.7742594,9.75230931 12.2491331,9.75230931 12.5420263,10.0452025 Z M14.782946,5.33113852 L14.6453245,5.4597878 L13.0775021,7.02656875 L16.9665021,10.9155688 L18.5344118,9.34887509 C19.6083536,8.27493329 19.6083536,6.5337296 18.5344118,5.4597878 C17.5052175,4.43059357 15.8632081,4.38771048 14.782946,5.33113852 Z" id="bandaid" fill="currentColor" fill-rule="nonzero"></path>
</g>
</svg>