<svg xmlns="http://www.w3.org/2000/svg" width="24" height="24" viewBox="0 0 24 24">
<path id="add-bank" fill="currentColor" d="M18.43,16.4 L18.43,15.29 C18.43,14.88 18.09,14.54 17.68,14.54 C17.27,14.54 16.93,14.88 16.93,15.29 L16.93,16.4 L15.82,16.4 C15.41,16.4 15.07,16.74 15.07,17.15 C15.07,17.56 15.41,17.9 15.82,17.9 L16.93,17.9 L16.93,19.01 C16.93,19.42 17.27,19.76 17.68,19.76 C18.09,19.76 18.43,19.42 18.43,19.01 L18.43,17.9 L19.54,17.9 C19.95,17.9 20.29,17.56 20.29,17.15 C20.29,16.74 19.95,16.4 19.54,16.4 L18.43,16.4 L18.43,16.4 Z M18.43,12.41 L18.43,9.61 L20.09,9.61 C20.42,9.61 20.71,9.39 20.81,9.07 C20.9,8.75 20.78,8.41 20.5,8.23 L11.95,2.62 C11.7,2.46 11.38,2.46 11.13,2.62 L2.58,8.23 C2.3,8.41 2.18,8.75 2.27,9.07 C2.37,9.39 2.66,9.61 2.99,9.61 L4.65,9.61 L4.65,16.18 C4.65,16.18 4.65,16.2 4.65,16.21 L2.95,16.21 C2.56,16.21 2.24,16.55 2.24,16.96 C2.24,17.37 2.56,17.71 2.95,17.71 L12.92,17.71 C12.95,17.96 13,18.21 13.07,18.46 L2.19,18.46 C1.81,18.46 1.5,18.8 1.5,19.21 C1.5,19.62 1.81,19.96 2.19,19.96 L13.78,19.96 C14.67,21.2 16.09,21.96 17.67,21.96 C20.33,21.96 22.49,19.8 22.49,17.14 C22.49,14.75 20.72,12.77 18.43,12.41 Z M16.93,12.41 C15.93,12.56 15.04,13.02 14.34,13.69 L14.34,9.61 L16.93,9.61 L16.93,12.41 Z M10.24,9.61 L12.83,9.61 L12.83,16.18 C12.83,16.18 12.83,16.2 12.83,16.21 L10.22,16.21 C10.22,16.21 10.22,16.19 10.22,16.18 L10.22,9.61 L10.24,9.61 Z M11.54,4.15 L17.58,8.11 L5.5,8.11 L11.54,4.15 Z M6.15,16.18 L6.15,9.61 L8.74,9.61 L8.74,16.18 C8.74,16.18 8.74,16.2 8.74,16.21 L6.13,16.21 C6.13,16.21 6.13,16.19 6.13,16.18 L6.15,16.18 Z M17.67,20.46 C16.3,20.46 15.09,19.63 14.59,18.35 C14.44,17.96 14.36,17.56 14.36,17.14 C14.36,16.72 14.43,16.33 14.57,15.97 C15.01,14.8 16.06,13.99 17.33,13.85 C17.44,13.83 17.56,13.83 17.67,13.83 C19.5,13.83 20.99,15.32 20.99,17.14 C20.99,18.96 19.5,20.46 17.67,20.46 Z"/></svg>