<svg xmlns="http://www.w3.org/2000/svg" width="24" height="24" viewBox="0 0 24 24"><path fill="currentColor" d="M2.7412,7.6396 C3.1502,7.6396 3.4822,7.3056 3.4822,6.8936 L3.4822,4.5836 L7.1882,8.3136 C7.3332,8.4596 7.5222,8.5326 7.7122,8.5326 C7.9022,8.5326 8.0912,8.4596 8.2362,8.3136 C8.5262,8.0226 8.5262,7.5506 8.2362,7.2596 L4.4922,3.4916 L6.7972,3.4916 C7.2052,3.4916 7.5372,3.1576 7.5372,2.7456 C7.5372,2.3336 7.2052,1.9996 6.7972,1.9996 L2.7412,1.9996 C2.3322,1.9996 2.0002,2.3336 2.0002,2.7456 L2.0002,6.8936 C2.0002,7.3056 2.3322,7.6396 2.7412,7.6396 M21.2593,2 L17.1383,2 C16.7293,2 16.3973,2.334 16.3973,2.746 C16.3973,3.158 16.7293,3.492 17.1383,3.492 L19.4333,3.492 L15.7273,7.222 C15.4373,7.514 15.4373,7.986 15.7273,8.277 C15.8713,8.422 16.0603,8.496 16.2503,8.496 C16.4413,8.496 16.6293,8.422 16.7753,8.277 L20.5183,4.509 L20.5183,6.828 C20.5183,7.239 20.8503,7.573 21.2593,7.573 C21.6683,7.573 22.0003,7.239 22.0003,6.828 L22.0003,2.746 C22.0003,2.334 21.6683,2 21.2593,2 M21.2593,16.3613 C20.8503,16.3613 20.5183,16.6953 20.5183,17.1063 L20.5183,19.4173 L16.8113,15.6863 C16.5223,15.3943 16.0533,15.3943 15.7633,15.6863 C15.4743,15.9773 15.4743,16.4493 15.7633,16.7413 L19.5073,20.5083 L17.2023,20.5083 C16.7933,20.5083 16.4613,20.8423 16.4613,21.2543 C16.4613,21.6663 16.7933,22.0003 17.2023,22.0003 L21.2593,22.0003 C21.6683,22.0003 22.0003,21.6663 22.0003,21.2543 L22.0003,17.1063 C22.0003,16.6953 21.6683,16.3613 21.2593,16.3613 M7.2256,15.7227 L3.4816,19.4917 L3.4816,17.1727 C3.4816,16.7607 3.1496,16.4267 2.7416,16.4267 C2.3316,16.4267 1.9996,16.7607 1.9996,17.1727 L1.9996,21.2537 C1.9996,21.6657 2.3316,21.9997 2.7416,21.9997 L6.8626,21.9997 C7.2716,21.9997 7.6026,21.6657 7.6026,21.2537 C7.6026,20.8427 7.2716,20.5087 6.8626,20.5087 L4.5666,20.5087 L8.2736,16.7777 C8.5626,16.4867 8.5626,16.0147 8.2736,15.7227 C7.9836,15.4317 7.5156,15.4317 7.2256,15.7227"/></svg>