<svg xmlns="http://www.w3.org/2000/svg" width="24" height="24" viewBox="0 0 24 24">
<path id="grid" fill="currentColor" d="M9,4 C10.1045695,4 11,4.8954305 11,6 L11,9 C11,10.1045695 10.1045695,11 9,11 L6,11 C4.8954305,11 4,10.1045695 4,9 L4,6 C4,4.8954305 4.8954305,4 6,4 L9,4 Z M9,5.5 L6,5.5 C5.72385763,5.5 5.5,5.72385763 5.5,6 L5.5,9 C5.5,9.27614237 5.72385763,9.5 6,9.5 L9,9.5 C9.27614237,9.5 9.5,9.27614237 9.5,9 L9.5,6 C9.5,5.72385763 9.27614237,5.5 9,5.5 Z M9,13 C10.1045695,13 11,13.8954305 11,15 L11,18 C11,19.1045695 10.1045695,20 9,20 L6,20 C4.8954305,20 4,19.1045695 4,18 L4,15 C4,13.8954305 4.8954305,13 6,13 L9,13 Z M9,14.5 L6,14.5 C5.72385763,14.5 5.5,14.7238576 5.5,15 L5.5,18 C5.5,18.2761424 5.72385763,18.5 6,18.5 L9,18.5 C9.27614237,18.5 9.5,18.2761424 9.5,18 L9.5,15 C9.5,14.7238576 9.27614237,14.5 9,14.5 Z M18,4 C19.1045695,4 20,4.8954305 20,6 L20,9 C20,10.1045695 19.1045695,11 18,11 L15,11 C13.8954305,11 13,10.1045695 13,9 L13,6 C13,4.8954305 13.8954305,4 15,4 L18,4 Z M18,5.5 L15,5.5 C14.7238576,5.5 14.5,5.72385763 14.5,6 L14.5,9 C14.5,9.27614237 14.7238576,9.5 15,9.5 L18,9.5 C18.2761424,9.5 18.5,9.27614237 18.5,9 L18.5,6 C18.5,5.72385763 18.2761424,5.5 18,5.5 Z M18,13 C19.1045695,13 20,13.8954305 20,15 L20,18 C20,19.1045695 19.1045695,20 18,20 L15,20 C13.8954305,20 13,19.1045695 13,18 L13,15 C13,13.8954305 13.8954305,13 15,13 L18,13 Z M18,14.5 L15,14.5 C14.7238576,14.5 14.5,14.7238576 14.5,15 L14.5,18 C14.5,18.2761424 14.7238576,18.5 15,18.5 L18,18.5 C18.2761424,18.5 18.5,18.2761424 18.5,18 L18.5,15 C18.5,14.7238576 18.2761424,14.5 18,14.5 Z"/></svg>