<?xml version="1.0" encoding="UTF-8"?>
<svg width="24px" height="24px" viewBox="0 0 24 24" version="1.1" xmlns="http://www.w3.org/2000/svg" xmlns:xlink="http://www.w3.org/1999/xlink">
    <!-- Generator: Sketch 57.1 (83088) - https://sketch.com -->
    <g id="inbox-outline" stroke="none" stroke-width="1" fill="none" fill-rule="evenodd">
        <path d="M20.005,15.727 C20.005,16.975 18.999,17.991 17.763,17.991 L6.238,17.991 C5.001,17.991 3.995,16.975 3.995,15.727 L3.995,8.274 C3.995,7.825 4.129,7.409 4.353,7.056 L10.956,12.145 C11.266,12.384 11.64,12.503 12.015,12.503 C12.376,12.503 12.738,12.392 13.042,12.168 L19.744,7.236 C19.905,7.548 20.005,7.898 20.005,8.274 L20.005,15.727 Z M17.763,6.01 C18.071,6.01 18.365,6.073 18.633,6.187 L12.162,10.949 C12.073,11.015 11.952,11.014 11.863,10.945 L5.596,6.115 C5.801,6.053 6.013,6.01 6.238,6.01 L17.763,6.01 Z M20.531,5.762 C20.526,5.753 20.525,5.742 20.519,5.733 C20.506,5.716 20.488,5.708 20.475,5.693 C19.793,4.963 18.833,4.5 17.763,4.5 L6.238,4.5 C5.343,4.5 4.532,4.832 3.888,5.363 C3.836,5.392 3.794,5.438 3.748,5.48 C2.988,6.171 2.5,7.162 2.5,8.274 L2.5,15.727 C2.5,17.807 4.177,19.5 6.238,19.5 L17.763,19.5 C19.823,19.5 21.5,17.807 21.5,15.727 L21.5,8.274 C21.5,7.306 21.127,6.431 20.531,5.762 L20.531,5.762 Z" id="icon-color" fill="currentColor" fill-rule="nonzero"></path>
    </g>
</svg>
