<svg xmlns="http://www.w3.org/2000/svg" width="24" height="24" viewBox="0 0 24 24"><path fill="currentColor" d="M18,1.6809581 C18.4142136,1.6809581 18.75,1.92516642 18.75,2.22641265 L18.7499177,4.6809581 L21.6802356,4.6809581 C22.0636787,4.6809581 22.3853709,4.97018387 22.4260111,5.35146727 L22.7457756,8.35146727 C22.793011,8.79462536 22.4456683,9.1809581 22,9.1809581 L21.7499177,9.1809581 L21.75,19 C21.75,19.3796958 21.4678461,19.693491 21.1017706,19.7431534 L21,19.75 L3,19.75 C2.58578644,19.75 2.25,19.4142136 2.25,19 L2.2499177,9.1809581 L2,9.1809581 C1.58861383,9.1809581 1.26100816,8.85177517 1.25019345,8.45257581 L1.25422443,8.35146727 L1.57398886,5.35146727 C1.61462915,4.97018387 1.93632126,4.6809581 2.31976443,4.6809581 L15.2499177,4.6809581 L15.25,2.22641265 C15.25,1.95255244 15.5275095,1.725831 15.8891705,1.68687223 L16,1.6809581 Z M20.2499177,9.1809581 L3.7499177,9.1809581 L3.75,18.2499581 L5.2499177,18.2499581 L5.25,11 C5.25,10.6203042 5.53215388,10.306509 5.89822944,10.2568466 L6,10.25 L10,10.25 C10.4142136,10.25 10.75,10.5857864 10.75,11 L10.7499177,18.2499581 L20.25,18.2499581 L20.2499177,9.1809581 Z M9.25,11.7499581 L6.75,11.7499581 L6.75,18.2499581 L9.25,18.2499581 L9.25,11.7499581 Z M18,10.25 C18.4142136,10.25 18.75,10.5857864 18.75,11 L18.75,16 C18.75,16.4142136 18.4142136,16.75 18,16.75 L13,16.75 C12.5857864,16.75 12.25,16.4142136 12.25,16 L12.25,11 C12.25,10.5857864 12.5857864,10.25 13,10.25 L18,10.25 Z M17.25,11.75 L13.75,11.75 L13.75,15.25 L17.25,15.25 L17.25,11.75 Z M21.005,6.18 L2.994,6.18 L2.834,7.68 L21.165,7.68 L21.005,6.18 Z M17.25,3.18 L16.75,3.18 L16.7499177,4.6809581 L17.2499177,4.6809581 L17.25,3.18 Z"/></svg>