<?xml version="1.0" encoding="UTF-8"?>
<svg width="24px" height="24px" viewBox="0 0 24 24" version="1.1" xmlns="http://www.w3.org/2000/svg" xmlns:xlink="http://www.w3.org/1999/xlink">
    <!-- Generator: Sketch 55.1 (78136) - https://sketchapp.com -->
    <g id="filter" stroke="none" stroke-width="1" fill="none" fill-rule="evenodd">
        <path d="M7.9227,5.4544 L10.8747,11.0124 C11.1537,11.5394 11.3017,12.1334 11.3017,12.7314 L11.3017,17.7874 L12.6987,16.6944 L12.6987,12.7314 C12.6987,12.1324 12.8467,11.5374 13.1267,11.0114 L16.0777,5.4544 L7.9227,5.4544 Z M10.5817,20.0004 C10.4737,20.0004 10.3657,19.9754 10.2647,19.9254 C10.0187,19.8034 9.8617,19.5504 9.8617,19.2724 L9.8617,12.7314 C9.8617,12.3724 9.7727,12.0164 9.6047,11.6994 L6.0847,5.0714 C5.9657,4.8454 5.9727,4.5734 6.1027,4.3534 C6.2317,4.1344 6.4667,4.0004 6.7197,4.0004 L17.2797,4.0004 C17.5337,4.0004 17.7677,4.1344 17.8977,4.3534 C18.0277,4.5734 18.0337,4.8454 17.9147,5.0714 L14.3957,11.6994 C14.2277,12.0154 14.1387,12.3724 14.1387,12.7314 L14.1387,17.0504 C14.1387,17.2744 14.0357,17.4874 13.8597,17.6254 L11.0227,19.8474 C10.8947,19.9474 10.7387,20.0004 10.5817,20.0004 L10.5817,20.0004 Z" id="icon-color" fill="currentColor" fill-rule="nonzero"></path>
    </g>
</svg>
