<svg xmlns="http://www.w3.org/2000/svg" width="24" height="24" viewBox="0 0 24 24">
<path id="company" fill="currentColor" d="M12.14,3.9996 C13.068,3.9996 13.824,4.7896 13.824,5.7596 L13.824,7.6226 C13.855,7.6206 13.886,7.6126 13.918,7.6126 L18.578,7.6126 C19.436,7.6126 20.135,8.3426 20.135,9.2396 L20.135,18.3726 C20.135,18.4066 20.127,18.4386 20.125,18.4716 L20.769,18.4716 C21.173,18.4716 21.5,18.8136 21.5,19.2356 C21.5,19.6576 21.173,19.9996 20.769,19.9996 L3.23,19.9996 C2.827,19.9996 2.5,19.6576 2.5,19.2356 C2.5,18.8136 2.827,18.4716 3.23,18.4716 L3.733,18.4716 C3.723,18.3946 3.711,18.3196 3.711,18.2406 L3.711,5.7596 C3.711,4.7896 4.466,3.9996 5.393,3.9996 L12.14,3.9996 Z M18.578,9.1406 L13.918,9.1406 C13.866,9.1406 13.824,9.1846 13.824,9.2396 L13.824,18.4716 L18.578,18.4716 C18.631,18.4716 18.674,18.4276 18.674,18.3726 L18.674,9.2396 C18.674,9.1846 18.631,9.1406 18.578,9.1406 Z M9.73,16.8086 L7.803,16.8086 L7.803,18.4716 L9.73,18.4716 L9.73,16.8086 Z M12.14,5.5286 L5.393,5.5286 C5.271,5.5286 5.172,5.6326 5.172,5.7596 L5.172,18.2406 C5.172,18.3676 5.271,18.4716 5.393,18.4716 L6.343,18.4716 L6.343,16.0446 C6.343,15.6226 6.67,15.2806 7.073,15.2806 L10.461,15.2806 C10.864,15.2806 11.192,15.6226 11.192,16.0446 L11.192,18.4716 L12.362,18.4716 L12.362,5.7596 C12.362,5.6326 12.263,5.5286 12.14,5.5286 Z M17.1619,14.5112 C17.5659,14.5112 17.8929,14.8532 17.8929,15.2752 C17.8929,15.6972 17.5659,16.0392 17.1619,16.0392 L15.3339,16.0392 C14.9309,16.0392 14.6029,15.6972 14.6029,15.2752 C14.6029,14.8532 14.9309,14.5112 15.3339,14.5112 Z M10.6738,11.2361 C11.0768,11.2361 11.4038,11.5781 11.4038,12.0001 C11.4038,12.4221 11.0768,12.7641 10.6738,12.7641 L7.0408,12.7641 C6.6378,12.7641 6.3108,12.4221 6.3108,12.0001 C6.3108,11.5781 6.6378,11.2361 7.0408,11.2361 Z M17.1619,11.2358 C17.5659,11.2358 17.8929,11.5778 17.8929,11.9998 C17.8929,12.4218 17.5659,12.7638 17.1619,12.7638 L15.3339,12.7638 C14.9309,12.7638 14.6029,12.4218 14.6029,11.9998 C14.6029,11.5778 14.9309,11.2358 15.3339,11.2358 Z M10.746,7.6126 C11.149,7.6126 11.476,7.9546 11.476,8.3766 C11.476,8.7986 11.149,9.1406 10.746,9.1406 L7.114,9.1406 C6.711,9.1406 6.384,8.7986 6.384,8.3766 C6.384,7.9546 6.711,7.6126 7.114,7.6126 L10.746,7.6126 Z"/></svg>