<?xml version="1.0" encoding="UTF-8"?>
<svg width="24px" height="24px" viewBox="0 0 24 24" version="1.1" xmlns="http://www.w3.org/2000/svg" xmlns:xlink="http://www.w3.org/1999/xlink">
    <!-- Generator: Sketch 57.1 (83088) - https://sketch.com -->
    <g id="menu" stroke="none" stroke-width="1" fill="none" fill-rule="evenodd">
        <path d="M16.2025,9.7504 L7.7975,9.7504 C7.3835,9.7504 7.0475,9.4144 7.0475,9.0004 C7.0475,8.5864 7.3835,8.2504 7.7975,8.2504 L16.2025,8.2504 C16.6165,8.2504 16.9525,8.5864 16.9525,9.0004 C16.9525,9.4144 16.6165,9.7504 16.2025,9.7504 M16.2025,12.7504 L7.7975,12.7504 C7.3835,12.7504 7.0475,12.4144 7.0475,12.0004 C7.0475,11.5864 7.3835,11.2504 7.7975,11.2504 L16.2025,11.2504 C16.6165,11.2504 16.9525,11.5864 16.9525,12.0004 C16.9525,12.4144 16.6165,12.7504 16.2025,12.7504 M16.2025,15.7504 L7.7975,15.7504 C7.3835,15.7504 7.0475,15.4144 7.0475,15.0004 C7.0475,14.5864 7.3835,14.2504 7.7975,14.2504 L16.2025,14.2504 C16.6165,14.2504 16.9525,14.5864 16.9525,15.0004 C16.9525,15.4144 16.6165,15.7504 16.2025,15.7504 M11.9995,3.0004 C7.0295,3.0004 2.9995,7.0294 2.9995,12.0004 C2.9995,16.9704 7.0295,21.0004 11.9995,21.0004 C16.9705,21.0004 20.9995,16.9704 20.9995,12.0004 C20.9995,7.0294 16.9705,3.0004 11.9995,3.0004" id="icon-color" fill="currentColor" fill-rule="nonzero"></path>
    </g>
</svg>
