<?xml version="1.0" encoding="UTF-8"?>
<svg width="24px" height="24px" viewBox="0 0 24 24" version="1.1" xmlns="http://www.w3.org/2000/svg" xmlns:xlink="http://www.w3.org/1999/xlink">
    <!-- Generator: Sketch 63.1 (92452) - https://sketch.com -->
    <title>01 Icons/Reorder</title>
    <desc>Created with Sketch.</desc>
    <g id="01-Icons/Reorder" stroke="none" stroke-width="1" fill="none" fill-rule="evenodd">
        <path d="M18.25,13.5 C18.664,13.5 19,13.836 19,14.25 C19,14.664 18.664,15 18.25,15 L5.75,15 C5.336,15 5,14.664 5,14.25 C5,13.836 5.336,13.5 5.75,13.5 L18.25,13.5 Z M18.25,9 C18.664,9 19,9.336 19,9.75 C19,10.164 18.664,10.5 18.25,10.5 L5.75,10.5 C5.336,10.5 5,10.164 5,9.75 C5,9.336 5.336,9 5.75,9 L18.25,9 Z" id="Combined-Shape" fill="currentColor" fill-rule="nonzero"></path>
    </g>
</svg>