<svg width="24" height="24" viewBox="0 0 24 24" fill="none" xmlns="http://www.w3.org/2000/svg">
<path id="sunshine" fill="currentColor" d="M12 16.9824C12.408 16.9824 12.74 17.3184 12.74 17.7314V20.7514C12.74 21.1644 12.408 21.5004 12 21.5004C11.592 21.5004 11.26 21.1644 11.26 20.7514V17.7314C11.26 17.3184 11.592 16.9824 12 16.9824ZM8.339 15.7061C8.628 15.9991 8.628 16.4731 8.339 16.7651L6.23 18.9001C6.085 19.0471 5.896 19.1201 5.707 19.1201C5.517 19.1201 5.328 19.0471 5.184 18.9001C4.895 18.6081 4.895 18.1341 5.184 17.8421L7.293 15.7061C7.582 15.4141 8.05 15.4141 8.339 15.7061ZM16.707 15.6055L18.816 17.7415C19.105 18.0335 19.105 18.5075 18.816 18.7995C18.672 18.9465 18.483 19.0195 18.294 19.0195C18.103 19.0195 17.915 18.9465 17.77 18.7995L15.661 16.6655C15.372 16.3725 15.372 15.8985 15.661 15.6055C15.95 15.3135 16.418 15.3135 16.707 15.6055ZM12 7.54907C14.425 7.54907 16.396 9.54607 16.396 12.0001C16.396 14.4541 14.425 16.4511 12 16.4511C9.576 16.4511 7.604 14.4541 7.604 12.0001C7.604 9.54607 9.576 7.54907 12 7.54907ZM12 9.04707C10.392 9.04707 9.083 10.3711 9.083 12.0001C9.083 13.6281 10.392 14.9531 12 14.9531C13.608 14.9531 14.918 13.6281 14.918 12.0001C14.918 10.3711 13.608 9.04707 12 9.04707ZM6.2224 11.251C6.6314 11.251 6.9624 11.586 6.9624 12C6.9624 12.414 6.6314 12.749 6.2224 12.749H3.2394C2.8314 12.749 2.5004 12.414 2.5004 12C2.5004 11.586 2.8314 11.251 3.2394 11.251H6.2224ZM20.7598 11.251C21.1688 11.251 21.4998 11.586 21.4998 12C21.4998 12.414 21.1688 12.749 20.7598 12.749H17.7778C17.3688 12.749 17.0368 12.414 17.0368 12C17.0368 11.586 17.3688 11.251 17.7778 11.251H20.7598ZM6.3286 5.19957L8.4376 7.33457C8.7266 7.62757 8.7266 8.10157 8.4376 8.39357C8.2926 8.53957 8.1036 8.61357 7.9146 8.61357C7.7256 8.61357 7.5366 8.53957 7.3916 8.39357L5.2826 6.25857C4.9936 5.96557 4.9936 5.49257 5.2826 5.19957C5.5716 4.90657 6.0386 4.90657 6.3286 5.19957ZM18.718 5.19927C19.006 5.49227 19.006 5.96627 18.718 6.25827L16.607 8.39327C16.464 8.54027 16.274 8.61327 16.085 8.61327C15.896 8.61327 15.706 8.54027 15.562 8.39327C15.273 8.10127 15.273 7.62727 15.562 7.33527L17.671 5.19927C17.96 4.90627 18.429 4.90627 18.718 5.19927ZM12 2.49957C12.408 2.49957 12.74 2.83557 12.74 3.24857V6.26857C12.74 6.68257 12.408 7.01757 12 7.01757C11.592 7.01757 11.26 6.68257 11.26 6.26857V3.24857C11.26 2.83557 11.592 2.49957 12 2.49957Z"/>
</svg>
