<?xml version="1.0" encoding="UTF-8"?>
<svg width="24px" height="24px" viewBox="0 0 24 24" version="1.1" xmlns="http://www.w3.org/2000/svg" xmlns:xlink="http://www.w3.org/1999/xlink">
    <!-- Generator: Sketch 57.1 (83088) - https://sketch.com -->
    <title>communication/camera</title>
    <desc>Created with Sketch.</desc>
    <g id="communication/camera" stroke="none" stroke-width="1" fill="none" fill-rule="evenodd">
        <path d="M14.63,4.4997 C16.116,4.4997 17.364,5.5707 17.675,6.9977 L17.675,6.9977 L18.25,6.9977 C20.042,6.9977 21.5,8.4307 21.5,10.1927 L21.5,10.1927 L21.5,16.3047 C21.5,18.0667 20.042,19.4997 18.25,19.4997 L18.25,19.4997 L5.75,19.4997 C3.958,19.4997 2.5,18.0667 2.5,16.3047 L2.5,16.3047 L2.5,10.1927 C2.5,8.4307 3.958,6.9977 5.75,6.9977 L5.75,6.9977 L6.332,6.9977 C6.656,5.5537 7.895,4.4997 9.37,4.4997 L9.37,4.4997 Z M14.63,5.9997 L9.37,5.9997 C8.477,5.9997 7.75,6.7607 7.75,7.6947 C7.75,8.1087 7.414,8.4977 7,8.4977 L7,8.4977 L5.75,8.4977 C4.785,8.4977 4,9.2587 4,10.1927 L4,10.1927 L4,16.3047 C4,17.2397 4.785,17.9997 5.75,17.9997 L5.75,17.9997 L18.25,17.9997 C19.215,17.9997 20,17.2397 20,16.3047 L20,16.3047 L20,10.1927 C20,9.2587 19.215,8.4977 18.25,8.4977 L18.25,8.4977 L17,8.4977 C16.586,8.4977 16.25,8.1617 16.25,7.7477 C16.25,6.7607 15.523,5.9997 14.63,5.9997 L14.63,5.9997 Z M12,9.7568 C13.778,9.7568 15.225,11.1868 15.225,12.9448 C15.225,14.7018 13.778,16.1318 12,16.1318 C10.222,16.1318 8.775,14.7018 8.775,12.9448 C8.775,11.1868 10.222,9.7568 12,9.7568 Z M12,11.2568 C11.049,11.2568 10.275,12.0138 10.275,12.9448 C10.275,13.8748 11.049,14.6318 12,14.6318 C12.951,14.6318 13.725,13.8748 13.725,12.9448 C13.725,12.0138 12.951,11.2568 12,11.2568 Z" id="icon-color" fill="currentColor" fill-rule="nonzero"></path>
    </g>
</svg>
