<?xml version="1.0" encoding="UTF-8"?>
<svg width="24px" height="24px" viewBox="0 0 24 24" version="1.1" xmlns="http://www.w3.org/2000/svg" xmlns:xlink="http://www.w3.org/1999/xlink">
    <!-- Generator: Sketch 55.1 (78136) - https://sketchapp.com -->
    <g id="swap" stroke="none" stroke-width="1" fill="none" fill-rule="evenodd">
        <path d="M5.5823,9.4026 L7.7293,11.5426 C8.0213,11.8336 8.0213,12.3056 7.7293,12.5966 C7.5833,12.7416 7.3923,12.8156 7.2003,12.8156 C7.0093,12.8156 6.8173,12.7416 6.6713,12.5966 L3.2193,9.1566 C2.9273,8.8656 2.9273,8.3946 3.2193,8.1036 L6.6163,4.7186 C6.9083,4.4266 7.3823,4.4266 7.6743,4.7186 C7.9673,5.0096 7.9673,5.4816 7.6743,5.7726 L5.5273,7.9116 L13.7503,7.9116 C14.1643,7.9116 14.4993,8.2456 14.4993,8.6576 C14.4993,9.0696 14.1643,9.4026 13.7503,9.4026 L5.5823,9.4026 Z M20.781,14.8425 C21.073,15.1335 21.073,15.6065 20.781,15.8975 L17.385,19.2815 C17.238,19.4275 17.047,19.4995 16.855,19.4995 C16.663,19.4995 16.472,19.4275 16.326,19.2815 C16.034,18.9895 16.034,18.5185 16.326,18.2275 L18.472,16.0885 L10.25,16.0885 C9.837,16.0885 9.501,15.7545 9.501,15.3425 C9.501,14.9315 9.837,14.5975 10.25,14.5975 L18.418,14.5975 L16.27,12.4575 C15.978,12.1665 15.978,11.6955 16.27,11.4035 C16.562,11.1125 17.036,11.1125 17.329,11.4035 L20.781,14.8425 Z" id="icon-color" fill="currentColor" fill-rule="nonzero"></path>
    </g>
</svg>
