<svg xmlns="http://www.w3.org/2000/svg" width="24" height="24" viewBox="0 0 24 24">
<path id="download" fill="currentColor" d="M19.2485576,11.2337651 C19.627277,11.2337651 19.9402653,11.5153654 19.9898,11.8807228 L19.996629,11.9822937 L20,15.7535462 C20,17.7847469 18.7862916,18.9225903 16.6438138,18.9961896 L16.4188768,19 L7.61434657,19 C5.38831983,19 4.08853871,17.9319212 4.00436,15.9606824 L4,15.7535462 L4,11.9822937 C4,11.5688928 4.33492296,11.2337651 4.74807137,11.2337651 C5.12679074,11.2337651 5.43977901,11.5153654 5.48931373,11.8807228 L5.49614274,11.9822937 L5.49614274,15.7535462 C5.49614274,16.9273155 6.04445329,17.4561952 7.42141628,17.4999659 L7.61434657,17.5029427 L16.4188768,17.5029427 C17.8490058,17.5029427 18.450855,17.0271115 18.5004863,15.9098862 L18.5038573,15.7535462 L18.5004863,11.9822937 C18.5004863,11.5688928 18.8354092,11.2337651 19.2485576,11.2337651 Z M12.000485,5 C12.426387,5 12.7724947,5.32835456 12.7724947,5.73256002 L12.7724947,13.2249012 L14.3464368,11.6969047 C14.6476602,11.4054776 15.1354028,11.4034815 15.438621,11.6859263 C15.7428367,11.9693691 15.7488213,12.4334569 15.4505902,12.722888 L12.5779961,15.5114066 C12.2877444,15.7938514 11.7650919,15.7938514 11.4748402,15.5114066 L8.55636445,12.6779762 C8.25813333,12.3885452 8.26312047,11.9244574 8.56833359,11.6410146 C8.71794786,11.5012892 8.91344385,11.4314265 9.1079424,11.4314265 C9.30842553,11.4314265 9.50890865,11.5052814 9.66051778,11.651993 L11.2274779,13.1740012 L11.2274779,5.73256002 C11.2274779,5.32835456 11.5735856,5 12.000485,5 Z"/></svg>