<svg xmlns="http://www.w3.org/2000/svg" width="24" height="24" viewBox="0 0 24 24">
<g stroke="none" stroke-width="1" fill="none" fill-rule="evenodd">
<path d="M5.57696661,3.2259462 L3.2259462,5.57696661 C3.08127528,5.72163753 3,5.9178534 3,6.12244898 C3,14.3389952 9.66100483,21 17.877551,21 C18.0821466,21 18.2783625,20.9187247 18.4230334,20.7740538 L20.7740538,18.4230334 C21.0753154,18.1217718 21.0753154,17.6333302 20.7740538,17.3320686 L16.8556865,13.4137013 L16.7691646,13.3390083 C16.4671642,13.1149295 16.0385959,13.1398271 15.7647217,13.4137013 L13.9594286,15.2194286 L8.78057143,10.0405714 L10.5862987,8.23527829 C10.8875603,7.9340167 10.8875603,7.44557514 10.5862987,7.14431354 L6.66793135,3.2259462 C6.36666976,2.9246846 5.8782282,2.9246846 5.57696661,3.2259462 Z M6.12274286,4.86274286 L8.94925714,7.68925714 L7.14431354,9.49533395 C6.84305195,9.79659555 6.84305195,10.2850371 7.14431354,10.5862987 L13.4137013,16.8556865 L13.5002231,16.9303794 C13.8022235,17.1544583 14.2307919,17.1295606 14.504666,16.8556865 L16.3097143,15.0497143 L19.1372571,17.8772571 L17.5604571,19.4530286 C10.4474363,19.2862935 4.71370649,13.5525637 4.54594286,6.43851429 L6.12274286,4.86274286 Z" id="contact" fill="currentColor" fill-rule="nonzero"></path>
</g>
</svg>