<?xml version="1.0" encoding="UTF-8"?>
<svg width="24px" height="24px" viewBox="0 0 24 24" version="1.1" xmlns="http://www.w3.org/2000/svg" xmlns:xlink="http://www.w3.org/1999/xlink">
    <!-- Generator: Sketch 55.1 (78136) - https://sketchapp.com -->
    <g id="checkbox-outline" stroke="none" stroke-width="1" fill="none" fill-rule="evenodd">
        <path d="M14.8916,8.9429 C15.1496,8.6329 15.6086,8.5929 15.9166,8.8499 C16.2246,9.1069 16.2666,9.5649 16.0096,9.8739 L11.6916,15.0579 C11.5476,15.2309 11.3406,15.3189 11.1326,15.3189 C10.9686,15.3189 10.8036,15.2639 10.6676,15.1509 L8.0836,12.9989 C7.7746,12.7409 7.7336,12.2829 7.9906,11.9749 C8.2466,11.6649 8.7056,11.6239 9.0146,11.8809 L11.0396,13.5679 L14.8916,8.9429 Z M18.5459,16.3633 L18.5459,7.6363 C18.5459,6.4333 17.5669,5.4543 16.3629,5.4543 L7.6359,5.4543 C6.4329,5.4543 5.4549,6.4333 5.4549,7.6363 L5.4549,16.3633 C5.4549,17.5663 6.4329,18.5453 7.6359,18.5453 L16.3629,18.5453 C17.5669,18.5453 18.5459,17.5663 18.5459,16.3633 Z M16.3629,4.0003 C18.3679,4.0003 19.9999,5.6313 19.9999,7.6363 L19.9999,16.3633 C19.9999,18.3683 18.3679,20.0003 16.3629,20.0003 L7.6359,20.0003 C5.6309,20.0003 3.9999,18.3683 3.9999,16.3633 L3.9999,7.6363 C3.9999,5.6313 5.6309,4.0003 7.6359,4.0003 L16.3629,4.0003 Z" id="icon-color" fill="currentColor" fill-rule="nonzero"></path>
    </g>
</svg>
