<svg width="24" height="24" viewBox="0 0 24 24" fill="none" xmlns="http://www.w3.org/2000/svg">
<path id="crossedeye" fill="currentColor" d="M12.3834 16.3458H12.3594C10.8624 16.3398 9.5764 15.9298 8.4994 15.3578L10.0294 14.2918C10.5604 14.7498 11.2444 15.0368 11.9994 15.0368C13.6734 15.0368 15.0354 13.6748 15.0354 11.9998C15.0354 11.6268 14.9594 11.2728 14.8354 10.9428L17.0324 9.41079C18.1874 10.3508 18.9874 11.4108 19.3584 11.9558C18.6264 13.0748 16.1654 16.3458 12.3834 16.3458ZM10.4694 11.9998C10.4694 11.1568 11.1564 10.4698 11.9994 10.4698C12.2364 10.4698 12.4574 10.5278 12.6564 10.6238L10.4834 12.1378C10.4794 12.0928 10.4694 12.0478 10.4694 11.9998ZM13.5294 11.9998C13.5294 12.8438 12.8424 13.5308 11.9994 13.5308C11.7634 13.5308 11.5424 13.4728 11.3424 13.3758L13.5154 11.8618C13.5204 11.9088 13.5294 11.9528 13.5294 11.9998ZM4.7544 11.9608C5.5684 10.8358 8.2714 7.58579 12.3484 7.58579H12.3554C13.6154 7.58679 14.7354 7.96579 15.6994 8.50379L13.9704 9.70879C13.4394 9.24979 12.7554 8.96279 11.9994 8.96279C10.3254 8.96279 8.9634 10.3248 8.9634 11.9998C8.9634 12.3738 9.0404 12.7278 9.1644 13.0578L7.1324 14.4738C5.9274 13.5438 5.1274 12.5058 4.7544 11.9608ZM20.9004 11.5728C20.8324 11.4538 19.9334 9.92879 18.3204 8.51379L20.6774 6.87179C21.0184 6.63479 21.1034 6.16479 20.8644 5.82279C20.6284 5.48179 20.1594 5.39679 19.8164 5.63579L17.0594 7.55679C15.7804 6.71979 14.2084 6.08079 12.3574 6.07879H12.3474C6.5824 6.07879 3.3434 11.3338 3.2084 11.5578C3.0684 11.7888 3.0634 12.0778 3.1954 12.3138C3.2614 12.4328 4.1414 13.9588 5.8314 15.3798L3.3224 17.1278C2.9814 17.3658 2.8974 17.8358 3.1354 18.1768C3.2814 18.3868 3.5154 18.4998 3.7534 18.4998C3.9024 18.4998 4.0524 18.4558 4.1834 18.3648L7.1214 16.3178C8.5004 17.1798 10.2374 17.8448 12.3534 17.8528H12.3844C17.8274 17.8528 20.7844 12.5338 20.9084 12.3068C21.0324 12.0778 21.0294 11.7998 20.9004 11.5728Z"/>
</svg>
