<svg xmlns="http://www.w3.org/2000/svg" width="24" height="24" viewBox="0 0 24 24">
<path id="bs-logo" fill="currentColor" d="M23.9922274,7 L23.2917051,10.1183479 L12.7961082,10.1183479 C13.2072268,8.65296128 14.6355581,7.18854825 16.2178521,7 L24,7 L23.9922274,7 Z M10.3621405,7 C11.1871891,7.02904487 11.9619641,7.61740627 12.2693935,8.36024093 C12.4974436,8.88824093 12.5743423,9.51781684 12.4587462,10.1183479 L1.79198765,10.1183479 L1.90741838,9.55562385 L2.49300608,7 L10.3621405,7 Z M3.88280529,14.0776988 L0.881110208,14.0776988 L0.987610766,13.5513215 L1.62049529,10.853394 L12.2488872,10.853394 C11.9533647,11.5962286 11.1962846,12.1758279 10.4302744,12.3384143 L10.4302744,12.3557763 C10.97733,12.4688728 11.3795185,13.0434419 11.4653474,13.5513215 C11.486019,13.719587 11.5243857,13.8891506 11.503714,14.0776988 L3.88280529,14.0776988 Z M20.3695547,10.853394 C21.2215592,10.9113215 22.0466078,11.3198967 22.4693025,12.0917763 C22.7945923,12.6749453 22.8921627,13.4075575 22.7651558,14.0776988 L14.8366523,14.0776988 C14.0142497,14.0400541 13.1806017,13.6150904 12.8344749,12.8461315 C12.5477172,12.2715624 12.497609,11.509094 12.6037788,10.853394 L20.3695547,10.853394 Z M22.6072241,14.8059299 C22.1840332,16.2828371 20.8397117,17.8020947 19.1987101,17.9703602 L18.3941678,17.9995673 L11.0257845,17.9995673 L11.0454639,17.9241156 L11.8402492,14.8059299 L22.6072241,14.8059299 Z M11.4387222,14.8059299 C11.2080261,16.1695784 10.0576878,17.6338291 8.60868487,17.9327154 C8.60868487,17.9327154 8.32126566,17.9972956 8.05269903,17.9995673 C7.93114948,18.0005409 0,17.9995673 0,17.9995673 L0.115430729,17.4249982 L0.709783223,14.8059299 L11.4387222,14.8059299 L11.4387222,14.8059299 Z"/></svg>