
<svg xmlns="http://www.w3.org/2000/svg" width="24" height="24" viewBox="0 0 24 24">
    <path fill="currentColor" id="banknotes" d="M15.6142,5.0323 C16.4662,4.8683 17.2952,5.3453 17.5862,6.1733 L19.2682,10.9443 C19.3562,10.9573 19.4512,10.9713 19.5282,10.9833 C20.3822,11.1193 21.0002,11.8533 21.0002,12.7293 L21.0002,18.2233 C21.0002,18.7303 20.7862,19.2113 20.4152,19.5473 C20.0492,19.8773 19.5572,20.0363 19.0732,19.9793 C17.7262,19.8303 15.6292,19.6543 13.3032,19.6543 C11.0632,19.6543 8.7202,19.8653 7.5232,19.9913 C7.4642,19.9963 7.4042,19.9993 7.3452,19.9993 C6.9212,19.9993 6.5072,19.8423 6.1882,19.5523 C5.8182,19.2173 5.6062,18.7373 5.6062,18.2333 L5.6062,17.5223 C5.3002,17.3133 5.0522,17.0203 4.9252,16.6593 L3.1042,11.4933 C2.8122,10.6633 3.1522,9.7603 3.9142,9.3443 C5.0022,8.7503 7.1872,7.6213 9.5982,6.7353 C12.2522,5.7603 14.5062,5.2503 15.6142,5.0323 Z M13.3032,12.0133 C10.8372,12.0133 8.4892,12.3093 7.3092,12.4863 C7.1902,12.5033 7.1042,12.6113 7.1042,12.7423 L7.1042,16.8923 C7.1272,16.9933 7.1342,17.0993 7.1122,17.2073 C7.1112,17.2153 7.1062,17.2213 7.1042,17.2293 L7.1042,18.2333 C7.1042,18.3383 7.1582,18.4033 7.1902,18.4323 C7.2262,18.4643 7.2902,18.4993 7.3672,18.4923 C8.5932,18.3633 10.9942,18.1463 13.3032,18.1463 C15.6972,18.1463 17.8512,18.3283 19.2372,18.4823 C19.3152,18.4903 19.3812,18.4533 19.4162,18.4233 C19.4482,18.3943 19.5022,18.3303 19.5022,18.2233 L19.5022,12.7293 C19.5022,12.5993 19.4142,12.4913 19.2932,12.4723 C18.2222,12.3013 16.0192,12.0133 13.3032,12.0133 Z M13.303,12.7426 C14.596,12.7426 15.648,13.8116 15.648,15.1246 C15.648,16.4386 14.596,17.5086 13.303,17.5086 C12.011,17.5086 10.959,16.4386 10.959,15.1246 C10.959,13.8116 12.011,12.7426 13.303,12.7426 Z M13.303,14.2496 C12.836,14.2496 12.457,14.6426 12.457,15.1246 C12.457,15.6076 12.836,16.0006 13.303,16.0006 C13.77,16.0006 14.15,15.6076 14.15,15.1246 C14.15,14.6426 13.77,14.2496 13.303,14.2496 Z M15.9575102,6.50708704 L15.9002,6.5123 C14.8372,6.7213 12.6692,7.2123 10.1122,8.1513 C7.7912,9.0043 5.6802,10.0953 4.6282,10.6693 C4.5192,10.7293 4.4712,10.8633 4.5162,10.9893 L5.6062,14.0833 L5.6062,12.7423 C5.6062,11.8583 6.2302,11.1233 7.0872,10.9953 C7.5492,10.9263 8.1832,10.8393 8.9312,10.7583 C9.0492,9.9243 9.5922,9.2303 10.3772,8.9423 C10.9372,8.7363 11.5432,8.7643 12.0832,9.0193 C12.6292,9.2783 13.0412,9.7383 13.2442,10.3143 C13.2672,10.3773 13.2772,10.4423 13.2942,10.5063 C14.9682,10.5063 16.4402,10.6113 17.6042,10.7333 L16.1742,6.6763 C16.1322,6.5563 16.0152,6.4863 15.9002,6.5123 Z M11.4452,10.3843 C11.2692,10.3003 11.0722,10.2923 10.8902,10.3583 C10.7532,10.4093 10.6382,10.4973 10.5532,10.6113 C10.9112,10.5853 11.2842,10.5643 11.6632,10.5473 C11.6012,10.4813 11.5292,10.4243 11.4452,10.3843 Z"/>
</svg>