<?xml version="1.0" encoding="UTF-8"?>
<svg width="24px" height="24px" viewBox="0 0 24 24" version="1.1" xmlns="http://www.w3.org/2000/svg" xmlns:xlink="http://www.w3.org/1999/xlink">
    <!-- Generator: Sketch 55.1 (78136) - https://sketchapp.com -->
    <g id="search" stroke="none" stroke-width="1" fill="none" fill-rule="evenodd">
        <path d="M10.5989,15.6139 C7.8339,15.6139 5.5839,13.3639 5.5839,10.5989 C5.5839,7.8339 7.8339,5.5839 10.5989,5.5839 C13.3639,5.5839 15.6139,7.8339 15.6139,10.5989 C15.6139,13.3639 13.3639,15.6139 10.5989,15.6139 M19.7679,18.8649 L15.6919,14.7889 C16.6329,13.6489 17.1969,12.1889 17.1969,10.5989 C17.1969,6.9599 14.2369,3.9999 10.5989,3.9999 C6.9599,3.9999 3.9999,6.9599 3.9999,10.5989 C3.9999,14.2369 6.9599,17.1979 10.5989,17.1979 C12.0779,17.1979 13.4399,16.7029 14.5419,15.8779 L18.6479,19.9849 C18.8029,20.1389 19.0049,20.2169 19.2079,20.2169 C19.4109,20.2169 19.6129,20.1389 19.7679,19.9849 C20.0769,19.6759 20.0769,19.1749 19.7679,18.8649" id="icon-color" fill="currentColor" fill-rule="nonzero"></path>
    </g>
</svg>
