<?xml version="1.0" encoding="UTF-8"?>
<svg width="24px" height="24px" viewBox="0 0 24 24" version="1.1" xmlns="http://www.w3.org/2000/svg" xmlns:xlink="http://www.w3.org/1999/xlink">
    <!-- Generator: Sketch 57.1 (83088) - https://sketch.com -->
    <g id="backspace" stroke="none" stroke-width="1" fill="none" fill-rule="evenodd">
        <path d="M22,3 C23.1,3 24,3.9 24,5 L24,5 L24,19 C24,20.1 23.1,21 22,21 L22,21 L7,21 C6.31,21 5.77,20.64 5.41,20.11 L5.41,20.11 L0,12 L5.41,3.88 C5.77,3.35 6.31,3 7,3 L7,3 Z M17.59,7 L14,10.59 L10.41,7 L9,8.41 L12.59,12 L9,15.59 L10.41,17 L14,13.41 L17.59,17 L19,15.59 L15.41,12 L19,8.41 L17.59,7 Z" id="icon-color" fill="currentColor" fill-rule="nonzero"></path>
    </g>
</svg>
