<svg width="24px" height="24px" viewBox="0 0 24 24" version="1.1" xmlns="http://www.w3.org/2000/svg" xmlns:xlink="http://www.w3.org/1999/xlink">
    <g stroke="none" stroke-width="1" fill="none" fill-rule="evenodd">
        <path d="M12,3 C16.963,3 21,7.038 21,12 C21,16.963 16.963,21 12,21 C7.038,21 3,16.963 3,12 C3,7.038 7.038,3 12,3 Z M12,4.5 C7.864,4.5 4.5,7.864 4.5,12 C4.5,16.136 7.864,19.5 12,19.5 C16.136,19.5 19.5,16.136 19.5,12 C19.5,7.864 16.136,4.5 12,4.5 Z M12,9.5 C12.4142136,9.5 12.75,9.83578644 12.75,10.25 L12.75,16.25 C12.75,16.6642136 12.4142136,17 12,17 C11.5857864,17 11.25,16.6642136 11.25,16.25 L11.25,10.25 C11.25,9.83578644 11.5857864,9.5 12,9.5 Z M12,7 C12.414,7 12.75,7.335 12.75,7.75 C12.75,8.164 12.414,8.5 12,8.5 C11.586,8.5 11.25,8.164 11.25,7.75 C11.25,7.335 11.586,7 12,7 Z" id="information-decoration" fill="currentColor" fill-rule="nonzero"></path>
    </g>
</svg>