<svg xmlns="http://www.w3.org/2000/svg" width="24" height="24" viewBox="0 0 24 24">
<g stroke="none" stroke-width="1" fill="none" fill-rule="evenodd">
<path d="M7.71795951,10.0891288 C7.85527318,10.4799201 7.64978897,10.9080337 7.25899768,11.0453474 C5.17393683,11.7779824 3.75,13.7535906 3.75,16 C3.75,18.8994949 6.10050506,21.25 9,21.25 C11.8994949,21.25 14.25,18.8994949 14.25,16 C14.25,15.5857864 14.5857864,15.25 15,15.25 C15.4142136,15.25 15.75,15.5857864 15.75,16 C15.75,19.7279221 12.7279221,22.75 9,22.75 C5.27207794,22.75 2.25,19.7279221 2.25,16 C2.25,13.1119366 4.08046909,10.5722946 6.76174089,9.63016694 C7.15253218,9.49285327 7.58064584,9.69833748 7.71795951,10.0891288 Z M10,1.25 C11.5187831,1.25 12.75,2.48121694 12.75,4 C12.75,5.21145021 11.9666529,6.23993991 10.8788543,6.60657355 L10.8782051,11.0587965 C10.8782051,11.7060052 11.3700798,12.2383304 12.0003999,12.3023429 L12.1282051,12.3087965 L15.0792343,12.3087965 C16.5186826,12.3087965 17.8244646,13.1318393 18.4498634,14.4151479 L18.5345186,14.6015695 L20.2545636,18.6800313 C20.299275,18.7860481 20.4085512,18.8451324 20.5173574,18.8308327 L20.5911808,18.8091742 L21.5193129,18.3274408 C21.8869188,18.1365514 22.3396687,18.2798085 22.5305581,18.6474144 C22.70554,18.9843865 22.5997461,19.3929032 22.2977485,19.6056827 L22.2105845,19.6586596 L21.2450951,20.159085 L21.1649551,20.1953489 C20.3212853,20.5511571 19.3556899,20.1952091 18.937045,19.3995557 L18.8724499,19.2629221 L17.1524049,15.1844603 C16.8227816,14.4028784 16.0843103,13.877683 15.24776,13.8150867 L15.0792343,13.8087965 L12.1282051,13.8087965 C10.6656733,13.8087965 9.46980085,12.6670919 9.38322392,11.2263188 L9.37820513,11.0587965 L9.37865337,6.67951284 C8.15913864,6.39785762 7.25,5.30509917 7.25,4 C7.25,2.48121694 8.48121694,1.25 10,1.25 Z M9,15 C9.55228475,15 10,15.4477153 10,16 C10,16.5522847 9.55228475,17 9,17 C8.44771525,17 8,16.5522847 8,16 C8,15.4477153 8.44771525,15 9,15 Z M10,2.75 C9.30964406,2.75 8.75,3.30964406 8.75,4 C8.75,4.69035594 9.30964406,5.25 10,5.25 C10.6903559,5.25 11.25,4.69035594 11.25,4 C11.25,3.30964406 10.6903559,2.75 10,2.75 Z" id="incapacity" fill="currentColor" fill-rule="nonzero"></path>
</g>
</svg>