<?xml version="1.0" encoding="UTF-8"?><svg id="Lag_1" xmlns="http://www.w3.org/2000/svg" viewBox="0 0 240 150"><defs><style>.cls-1{fill:#f6f6f6;}.cls-2{fill:#00e89a;}.cls-3{fill:#8e8e8e;}.cls-4{fill:#d1d1d1;}</style></defs><g><g><path id="Path_25" class="cls-3" d="M125,75c0,2.73-2.22,4.95-4.95,4.95s-4.95-2.22-4.95-4.95,2.22-4.95,4.95-4.95h0c2.73,0,4.95,2.22,4.95,4.95"/><path id="Path_25-2" class="cls-3" d="M125.06,75c0,2.76-2.24,5-5,5s-5-2.24-5-5,2.24-5,5-5h0c2.76,0,5,2.24,5,5"/></g><path id="Path_25-3" class="cls-4" d="M124.11,75c0,2.24-1.81,4.05-4.05,4.05s-4.05-1.81-4.05-4.05,1.81-4.05,4.05-4.05h0c2.24,0,4.05,1.81,4.05,4.05"/></g><g><g><path id="Path_25-4" class="cls-4" d="M109.25,75c0,2.73-2.22,4.95-4.95,4.95s-4.95-2.22-4.95-4.95,2.22-4.95,4.95-4.95h0c2.73,0,4.95,2.22,4.95,4.95"/><path id="Path_25-5" class="cls-4" d="M109.3,75c0,2.76-2.24,5-5,5s-5-2.24-5-5,2.24-5,5-5h0c2.76,0,5,2.24,5,5"/></g><path id="Path_25-6" class="cls-2" d="M108.36,75c0,2.24-1.81,4.05-4.05,4.05s-4.05-1.81-4.05-4.05,1.81-4.05,4.05-4.05h0c2.24,0,4.05,1.81,4.05,4.05"/></g><g><path id="Path_25-7" class="cls-4" d="M140.65,75c0,2.73-2.22,4.95-4.95,4.95s-4.95-2.22-4.95-4.95,2.22-4.95,4.95-4.95h0c2.73,0,4.95,2.22,4.95,4.95"/><path id="Path_25-8" class="cls-4" d="M140.7,75c0,2.76-2.24,5-5,5s-5-2.24-5-5,2.24-5,5-5h0c2.76,0,5,2.24,5,5"/></g><path id="Path_25-9" class="cls-1" d="M139.75,75c0,2.24-1.81,4.05-4.05,4.05s-4.05-1.81-4.05-4.05,1.81-4.05,4.05-4.05h0c2.24,0,4.05,1.81,4.05,4.05"/></svg>