<svg width="240" height="150" viewBox="0 0 240 150" fill="none" xmlns="http://www.w3.org/2000/svg">
<g clip-path="url(#clip0_13_256)">
<rect x="37" y="62" width="166" height="126" rx="6" fill="#F5F5F5" stroke="#D1D1D1" stroke-width="4"/>
<rect x="39" y="99" width="162" height="1" fill="#D2D2D2"/>
<circle cx="170" cy="83" r="7" fill="#00E89A"/>
<circle cx="187" cy="83" r="7" fill="white"/>
<path d="M184.247 84.0568C184.072 84.0568 183.921 83.9941 183.796 83.8686C183.671 83.7431 183.608 83.5928 183.608 83.4176C183.608 83.2424 183.671 83.0921 183.796 82.9666C183.921 82.8411 184.072 82.7784 184.247 82.7784C184.422 82.7784 184.573 82.8411 184.698 82.9666C184.823 83.0921 184.886 83.2424 184.886 83.4176C184.886 83.5336 184.857 83.6402 184.797 83.7372C184.741 83.8343 184.664 83.9124 184.567 83.9716C184.472 84.0284 184.365 84.0568 184.247 84.0568ZM187.001 84.0568C186.826 84.0568 186.675 83.9941 186.55 83.8686C186.424 83.7431 186.362 83.5928 186.362 83.4176C186.362 83.2424 186.424 83.0921 186.55 82.9666C186.675 82.8411 186.826 82.7784 187.001 82.7784C187.176 82.7784 187.326 82.8411 187.452 82.9666C187.577 83.0921 187.64 83.2424 187.64 83.4176C187.64 83.5336 187.61 83.6402 187.551 83.7372C187.494 83.8343 187.418 83.9124 187.32 83.9716C187.226 84.0284 187.119 84.0568 187.001 84.0568ZM189.755 84.0568C189.58 84.0568 189.429 83.9941 189.304 83.8686C189.178 83.7431 189.116 83.5928 189.116 83.4176C189.116 83.2424 189.178 83.0921 189.304 82.9666C189.429 82.8411 189.58 82.7784 189.755 82.7784C189.93 82.7784 190.08 82.8411 190.206 82.9666C190.331 83.0921 190.394 83.2424 190.394 83.4176C190.394 83.5336 190.364 83.6402 190.305 83.7372C190.248 83.8343 190.171 83.9124 190.074 83.9716C189.98 84.0284 189.873 84.0568 189.755 84.0568Z" fill="black"/>
<circle cx="54" cy="84" r="7" fill="white"/>
<path d="M51.6464 83.6464C51.4512 83.8417 51.4512 84.1583 51.6464 84.3536L54.8284 87.5355C55.0237 87.7308 55.3403 87.7308 55.5355 87.5355C55.7308 87.3403 55.7308 87.0237 55.5355 86.8284L52.7071 84L55.5355 81.1716C55.7308 80.9763 55.7308 80.6597 55.5355 80.4645C55.3403 80.2692 55.0237 80.2692 54.8284 80.4645L51.6464 83.6464ZM53 83.5H52V84.5H53V83.5Z" fill="black"/>
<rect x="89" y="79" width="61" height="7" rx="2" fill="#D1D1D1"/>
</g>
<defs>
<clipPath id="clip0_13_256">
<rect width="240" height="150" fill="white"/>
</clipPath>
</defs>
</svg>
