<?xml version="1.0" encoding="UTF-8"?>
<svg width="24px" height="24px" viewBox="0 0 24 24" version="1.1" xmlns="http://www.w3.org/2000/svg" xmlns:xlink="http://www.w3.org/1999/xlink">
    <!-- Generator: Sketch 55.1 (78136) - https://sketchapp.com -->
    <g id="link" stroke="none" stroke-width="1" fill="none" fill-rule="evenodd">
        <path d="M19.7469,3.4995 C20.1629,3.4995 20.4999,3.8405 20.4999,4.2595 L20.4999,7.7765 C20.4999,8.1955 20.1629,8.5355 19.7469,8.5355 C19.3309,8.5355 18.9929,8.1955 18.9929,7.7765 L18.9929,6.0615 L13.3049,11.7945 C13.1579,11.9425 12.9649,12.0175 12.7719,12.0175 C12.5789,12.0175 12.3869,11.9425 12.2389,11.7945 C11.9449,11.4975 11.9449,11.0175 12.2389,10.7215 L17.8979,5.0185 L16.1999,5.0185 C15.7839,5.0185 15.4469,4.6785 15.4469,4.2595 C15.4469,3.8405 15.7839,3.4995 16.1999,3.4995 L19.7469,3.4995 Z M18.3046,9.9117 C18.7206,9.9117 19.0586,10.2517 19.0586,10.6707 L19.0586,16.8077 C19.0586,18.8437 17.2806,20.4997 15.0936,20.4997 L7.4646,20.4997 C5.2796,20.4997 3.4996,18.8437 3.4996,16.8077 L3.4996,8.5147 C3.4996,6.4767 5.2796,4.8207 7.4646,4.8207 L13.3426,4.8207 C13.7586,4.8207 14.0966,5.1607 14.0966,5.5797 C14.0966,5.9987 13.7586,6.3387 13.3426,6.3387 L7.4646,6.3387 C6.1096,6.3387 5.0066,7.3137 5.0066,8.5147 L5.0066,16.8077 C5.0066,18.0067 6.1096,18.9817 7.4646,18.9817 L15.0936,18.9817 C16.4496,18.9817 17.5516,18.0067 17.5516,16.8077 L17.5516,10.6707 C17.5516,10.2517 17.8896,9.9117 18.3046,9.9117 Z" id="icon-color" fill="currentColor" fill-rule="nonzero"></path>
    </g>
</svg>
