<svg xmlns="http://www.w3.org/2000/svg" width="24" height="24" viewBox="0 0 24 24">
<g stroke="none" stroke-width="1" fill="none" fill-rule="evenodd">
<path d="M9.7823,3.4842 C9.8793,3.1352 10.2453,2.9302 10.6013,3.0222 L10.6013,3.0222 L16.0763,4.4592 C16.4333,4.5532 16.6443,4.9122 16.5493,5.2612 L16.5493,5.2612 L15.9193,7.5592 L15.9193,7.5592 L15.9093,7.5792 C15.9563,7.6682 15.9883,7.7652 15.9883,7.8722 L15.9883,7.8722 L15.9883,12.1422 C16.2183,12.2712 16.4163,12.4552 16.5703,12.6792 L16.5703,12.6792 L17.1723,11.9592 C17.4553,11.6222 17.8613,11.4222 18.3163,11.3972 C18.8493,11.3652 19.3903,11.5782 19.8103,11.9762 C20.5933,12.7152 20.7283,13.8642 20.1193,14.5902 C19.4723,15.6252 17.7263,18.2502 16.7153,18.6642 C16.1233,18.9062 14.8663,18.9812 13.5433,18.9812 C12.0943,18.9812 10.5763,18.8912 9.7463,18.8342 C9.8683,19.1632 9.7323,19.5322 9.4123,19.6962 L9.4123,19.6962 L7.0413,20.9182 C6.9363,20.9722 6.8213,21.0002 6.7053,21.0002 C6.6263,21.0002 6.5463,20.9872 6.4703,20.9602 C6.2823,20.8972 6.1293,20.7602 6.0483,20.5822 L6.0483,20.5822 L3.5623,15.1272 C3.4083,14.7892 3.5483,14.3902 3.8853,14.2172 L3.8853,14.2172 L6.2563,12.9952 C6.4313,12.9032 6.6383,12.8862 6.8273,12.9522 C7.0153,13.0152 7.1683,13.1532 7.2493,13.3312 L7.2493,13.3312 L7.3673,13.5882 C7.8203,13.0512 8.4043,12.6612 8.9813,12.3922 L8.9813,12.3922 L8.9813,7.8722 C8.9813,7.5102 9.2813,7.2172 9.6503,7.2172 L9.6503,7.2172 L12.0353,7.2172 L9.6243,6.5842 C9.4533,6.5402 9.3073,6.4302 9.2193,6.2792 C9.1303,6.1292 9.1063,5.9502 9.1523,5.7832 L9.1523,5.7832 Z M6.2473,14.5922 L5.1523,15.1562 L7.0503,19.3212 L8.1443,18.7572 L6.2473,14.5922 Z M18.3983,12.8032 C18.3233,12.8072 18.2973,12.8392 18.2863,12.8532 L18.2863,12.8532 L16.7533,14.6872 C16.7263,14.7182 16.6903,14.7352 16.6603,14.7612 C16.3603,15.2962 15.8253,15.6592 15.2103,15.6592 L15.2103,15.6592 L13.0503,15.6592 C12.6523,15.6592 12.3303,15.3432 12.3303,14.9542 C12.3303,14.5642 12.6523,14.2492 13.0503,14.2492 L13.0503,14.2492 L15.2103,14.2492 C15.3153,14.2492 15.4743,14.0672 15.4743,13.7922 C15.4743,13.5172 15.3153,13.3352 15.2103,13.3352 L15.2103,13.3352 L10.6973,13.3352 C10.2133,13.3352 8.4633,13.9102 8.0893,15.1752 L8.0893,15.1752 L9.1183,17.4322 C9.2043,17.4052 9.2963,17.3912 9.3933,17.3962 C11.7303,17.5762 15.3753,17.6842 16.1593,17.3642 C16.5973,17.1572 17.9573,15.3392 18.9513,13.7712 C19.1023,13.5812 19.0733,13.2392 18.8093,12.9892 C18.6573,12.8452 18.5053,12.8072 18.3983,12.8032 Z" id="coinstack" fill="currentColor" fill-rule="nonzero"></path>
</g>
</svg>