<?xml version="1.0" encoding="UTF-8"?>
<svg width="24px" height="24px" viewBox="0 0 24 24" version="1.1" xmlns="http://www.w3.org/2000/svg" xmlns:xlink="http://www.w3.org/1999/xlink">
    <!-- Generator: Sketch 55.1 (78136) - https://sketchapp.com -->
    <g id="share" stroke="none" stroke-width="1" fill="none" fill-rule="evenodd">
        <path d="M9.0957,7.3003 C8.9007,7.3003 8.7047,7.2303 8.5547,7.0903 C8.2487,6.8063 8.2437,6.3413 8.5427,6.0513 L11.4687,3.2123 C11.7597,2.9293 12.2837,2.9293 12.5747,3.2123 L15.4547,6.0063 C15.7537,6.2963 15.7477,6.7613 15.4427,7.0453 C15.1387,7.3283 14.6497,7.3263 14.3477,7.0343 L12.7697,5.5033 L12.7697,15.0143 C12.7697,15.4193 12.4227,15.7483 11.9957,15.7483 C11.5677,15.7483 11.2207,15.4193 11.2207,15.0143 L11.2207,5.5543 L9.6497,7.0793 C9.4977,7.2263 9.2967,7.3003 9.0957,7.3003 Z M16.2314,8.8315 C18.3094,8.8315 20.0004,10.2575 20.0004,12.0115 L20.0004,17.8185 C20.0004,19.5725 18.3094,21.0005 16.2314,21.0005 L7.7684,21.0005 C5.6904,21.0005 4.0004,19.5725 4.0004,17.8185 L4.0004,12.0115 C4.0004,10.2575 5.6904,8.8315 7.7684,8.8315 L9.0054,8.8315 C9.4334,8.8315 9.7804,9.1615 9.7804,9.5665 C9.7804,9.9725 9.4334,10.3015 9.0054,10.3015 L7.7684,10.3015 C6.5444,10.3015 5.5484,11.0685 5.5484,12.0115 L5.5484,17.8185 C5.5484,18.7625 6.5444,19.5295 7.7684,19.5295 L16.2314,19.5295 C17.4564,19.5295 18.4514,18.7625 18.4514,17.8185 L18.4514,12.0115 C18.4514,11.0685 17.4564,10.3015 16.2314,10.3015 L14.9944,10.3015 C14.5664,10.3015 14.2194,9.9725 14.2194,9.5665 C14.2194,9.1615 14.5664,8.8315 14.9944,8.8315 L16.2314,8.8315 Z" id="icon-color" fill="currentColor" fill-rule="nonzero"></path>
    </g>
</svg>
