<svg xmlns="http://www.w3.org/2000/svg" width="24" height="24" viewBox="0 0 24 24"><path fill="currentColor" d="M12.5423511,2.01855439 L15.4608269,4.94188022 C15.759058,5.24049399 15.7540708,5.71930573 15.4488577,6.01174128 C15.2992434,6.15589965 15.1037475,6.22797884 14.9092489,6.22797884 C14.7087658,6.22797884 14.5082827,6.15178084 14.3566735,6.00041455 L12.7897134,4.43011801 L12.7896262,7.65065532 C15.8841726,7.84776016 18.2821283,9.23709495 18.2821283,10.9217 L18.2785446,11.0499377 C18.2909073,11.1039537 18.2974377,11.1601929 18.2974377,11.2179574 L18.2974377,19.1003385 C18.2974377,19.1538763 18.291828,19.2061039 18.2811645,19.2564656 C18.2765289,19.339797 18.2576214,19.4242498 18.2231081,19.506025 C17.5333531,21.1403221 14.9651938,22.1767 12.1641062,22.1767 C8.70526794,22.1767 6.91248826,21.2777016 5.89189641,19.6050415 C5.84507632,19.5283075 5.81367943,19.4464896 5.79683042,19.3632032 C5.76680811,19.2817583 5.75,19.1930113 5.75,19.1003385 L5.75,15.2732784 L5.76725897,11.0995643 C5.76746717,11.049197 5.77263555,11.0000097 5.78229947,10.9524635 L5.78212831,10.9217 C5.78212831,9.24251634 8.1646747,7.85670551 11.2447755,7.6525953 L11.2446966,4.37760317 L9.67075448,5.95407793 C9.36953108,6.25475111 8.88178855,6.25681051 8.57857028,5.96540466 C8.2743546,5.67296911 8.26837,5.19415737 8.56660114,4.89554361 L11.4391952,2.01855439 C11.7294469,1.72714854 12.2520994,1.72714854 12.5423511,2.01855439 Z M16.7980565,17.0346879 C15.6284933,17.7585762 13.9432869,18.1767 12.1641062,18.1767 C9.89115533,18.1767 8.33766978,17.7884795 7.24998829,17.0476062 L7.24998829,18.9447 C8.00054615,20.0712802 9.30981143,20.6767 12.1641062,20.6767 C14.3559893,20.6767 16.3147372,19.9145998 16.7980565,19.0127897 L16.7980565,17.0346879 Z M7.25895835,13.0489381 L7.251,14.9467 C8.00054615,16.0712802 9.30981143,16.6767 12.1641062,16.6767 C14.3559893,16.6767 16.3147372,15.9145998 16.7980369,15.0127897 L16.7971457,13.054007 C15.6507241,13.7653549 13.9414047,14.2167 12.0321283,14.2167 C10.1183209,14.2167 8.40542055,13.7632101 7.25895835,13.0489381 Z M12.7893799,9.15422024 L12.7897134,10.0441982 C12.7897134,10.4612278 12.4436057,10.8 12.0167063,10.8 C11.5908043,10.8 11.2446966,10.4612278 11.2446966,10.0441982 L11.2439431,9.15653176 C8.92033298,9.33372836 7.28212831,10.2625503 7.28212831,10.9217 C7.28212831,11.6531582 9.29946855,12.7167 12.0321283,12.7167 C14.7647881,12.7167 16.7821283,11.6531582 16.7821283,10.9217 C16.7821283,10.2596291 15.129371,9.32549034 12.7893799,9.15422024 Z"/></svg>