<?xml version="1.0" encoding="UTF-8"?>
<svg width="24px" height="24px" viewBox="0 0 24 24" version="1.1" xmlns="http://www.w3.org/2000/svg" xmlns:xlink="http://www.w3.org/1999/xlink">
    <!-- Generator: Sketch 55.1 (78136) - https://sketchapp.com -->
    <g id="edit" stroke="none" stroke-width="1" fill="none" fill-rule="evenodd">
        <path d="M18.0169,8.1354 L17.8939,8.2584 L15.7199,6.0804 L15.8419,5.9564 C16.1329,5.6664 16.5189,5.5054 16.9299,5.5054 C17.3409,5.5054 17.7269,5.6664 18.0169,5.9564 C18.3069,6.2484 18.4679,6.6354 18.4679,7.0464 C18.4679,7.4574 18.3069,7.8434 18.0169,8.1354 L18.0169,8.1354 Z M9.4709,16.6984 L7.2959,14.5194 L14.6359,7.1654 L16.8109,9.3434 L9.4709,16.6984 Z M6.4689,15.8614 L8.1309,17.5274 L5.6749,18.3224 L6.4689,15.8614 Z M19.0999,4.8714 C17.9409,3.7094 15.9179,3.7094 14.7589,4.8714 L5.6709,13.9764 C5.4729,14.1764 5.3229,14.4214 5.2359,14.6914 L4.0669,18.3154 C3.9129,18.7784 4.0309,19.2804 4.3749,19.6244 C4.6209,19.8694 4.9449,19.9994 5.2749,19.9994 C5.4089,19.9994 5.5439,19.9794 5.6749,19.9354 L9.2999,18.7614 C9.5669,18.6754 9.8129,18.5244 10.0139,18.3234 L19.0999,9.2204 C19.6799,8.6394 19.9999,7.8674 19.9999,7.0464 C19.9999,6.2244 19.6799,5.4524 19.0999,4.8714 L19.0999,4.8714 Z" id="icon-color" fill="currentColor" fill-rule="nonzero"></path>
    </g>
</svg>
