<?xml version="1.0" encoding="UTF-8"?>
<svg width="24px" height="24px" viewBox="0 0 24 24" version="1.1" xmlns="http://www.w3.org/2000/svg" xmlns:xlink="http://www.w3.org/1999/xlink">
    <!-- Generator: Sketch 55.1 (78136) - https://sketchapp.com -->
    <g id="flash" stroke="none" stroke-width="1" fill="none" fill-rule="evenodd">
        <path d="M11.5487,17.063 L12.2617,12.121 C12.2657,12.099 12.2677,12.077 12.2697,12.055 C12.2757,11.967 12.2667,11.881 12.2447,11.801 C12.2157,11.691 12.1607,11.591 12.0887,11.508 C12.0167,11.424 11.9267,11.356 11.8227,11.311 C11.7477,11.278 11.6647,11.257 11.5787,11.251 C11.5567,11.249 11.5357,11.249 11.5107,11.249 L8.0227,11.249 L10.1987,3.503 L13.1777,3.503 L12.1407,7.785 C12.0867,8.009 12.1377,8.245 12.2787,8.427 C12.4217,8.608 12.6377,8.714 12.8667,8.714 L15.9487,8.714 L11.5487,17.063 Z M17.2957,7.9 C17.0377,7.468 16.5837,7.21 16.0827,7.21 L13.8197,7.21 L14.6307,3.852 C14.7677,3.421 14.6897,2.947 14.4237,2.583 C14.1577,2.218 13.7317,2 13.2807,2 L10.1987,2 C9.5727,2 9.0137,2.422 8.8397,3.026 L6.5567,10.933 C6.4317,11.367 6.5147,11.823 6.7847,12.184 C7.0547,12.544 7.4667,12.751 7.9167,12.751 L10.6597,12.751 L9.4487,21.141 C9.3967,21.501 9.6107,21.849 9.9567,21.962 C10.0337,21.988 10.1117,22 10.1887,22 C10.4597,22 10.7167,21.851 10.8497,21.601 L17.3337,9.299 C17.5687,8.854 17.5547,8.332 17.2957,7.9 L17.2957,7.9 Z" id="icon-color" fill="currentColor" fill-rule="nonzero"></path>
    </g>
</svg>
