<?xml version="1.0" encoding="UTF-8"?>
<svg width="24px" height="24px" viewBox="0 0 24 24" version="1.1" xmlns="http://www.w3.org/2000/svg" xmlns:xlink="http://www.w3.org/1999/xlink">
    <!-- Generator: Sketch 55.1 (78136) - https://sketchapp.com -->
    <g id="sort" stroke="none" stroke-width="1" fill="none" fill-rule="evenodd">
        <path d="M5.5821,9.4029 L7.7291,11.5429 C8.0211,11.8339 8.0211,12.3059 7.7291,12.5969 C7.5831,12.7419 7.3921,12.8159 7.2001,12.8159 C7.0091,12.8159 6.8171,12.7419 6.6711,12.5969 L3.2191,9.1569 C2.9271,8.8659 2.9271,8.3949 3.2191,8.1039 L6.6161,4.7189 C6.9081,4.4269 7.3821,4.4269 7.6741,4.7189 C7.9671,5.0099 7.9671,5.4819 7.6741,5.7729 L5.5271,7.9119 L13.7501,7.9119 C14.1641,7.9119 14.4991,8.2459 14.4991,8.6579 C14.4991,9.0699 14.1641,9.4029 13.7501,9.4029 L5.5821,9.4029 Z M20.7808,14.8428 C21.0728,15.1338 21.0728,15.6068 20.7808,15.8978 L17.3848,19.2818 C17.2378,19.4278 17.0468,19.4998 16.8548,19.4998 C16.6628,19.4998 16.4718,19.4278 16.3258,19.2818 C16.0338,18.9898 16.0338,18.5188 16.3258,18.2278 L18.4718,16.0888 L10.2498,16.0888 C9.8368,16.0888 9.5008,15.7548 9.5008,15.3428 C9.5008,14.9318 9.8368,14.5978 10.2498,14.5978 L18.4178,14.5978 L16.2698,12.4578 C15.9778,12.1668 15.9778,11.6958 16.2698,11.4038 C16.5618,11.1128 17.0358,11.1128 17.3288,11.4038 L20.7808,14.8428 Z" id="icon-color-copy" fill="currentColor" fill-rule="nonzero" transform="translate(11.999950, 11.999850) rotate(-270.000000) translate(-11.999950, -11.999850) "></path>
    </g>
</svg>
