<svg xmlns="http://www.w3.org/2000/svg" width="24" height="24" viewBox="0 0 24 24"><path fill="currentColor" d="M7.7127,2.8926 C7.3037,2.8926 6.9717,3.2266 6.9717,3.6386 L6.9717,5.9486 L3.2657,2.2186 C3.1207,2.0726 2.9317,1.9996 2.7417,1.9996 C2.5517,1.9996 2.3627,2.0726 2.2177,2.2186 C1.9277,2.5096 1.9277,2.9816 2.2177,3.2726 L5.9617,7.0406 L3.6567,7.0406 C3.2487,7.0406 2.9167,7.3746 2.9167,7.7866 C2.9167,8.1986 3.2487,8.5326 3.6567,8.5326 L7.7127,8.5326 C8.1217,8.5326 8.4537,8.1986 8.4537,7.7866 L8.4537,3.6386 C8.4537,3.2266 8.1217,2.8926 7.7127,2.8926 M16.2508,8.496 L20.3718,8.496 C20.7808,8.496 21.1128,8.162 21.1128,7.75 C21.1128,7.338 20.7808,7.004 20.3718,7.004 L18.0768,7.004 L21.7828,3.274 C22.0728,2.982 22.0728,2.51 21.7828,2.219 C21.6388,2.074 21.4498,2 21.2598,2 C21.0688,2 20.8808,2.074 20.7348,2.219 L16.9918,5.987 L16.9918,3.668 C16.9918,3.257 16.6598,2.923 16.2508,2.923 C15.8418,2.923 15.5098,3.257 15.5098,3.668 L15.5098,7.75 C15.5098,8.162 15.8418,8.496 16.2508,8.496 M16.28755,21.1063 C16.69655,21.1063 17.02855,20.7723 17.02855,20.3613 L17.02855,18.0503 L20.73555,21.7813 C21.02455,22.0733 21.49355,22.0733 21.78355,21.7813 C22.07255,21.4903 22.07255,21.0183 21.78355,20.7263 L18.03955,16.9593 L20.34455,16.9593 C20.75355,16.9593 21.08555,16.6253 21.08555,16.2133 C21.08555,15.8013 20.75355,15.4673 20.34455,15.4673 L16.28755,15.4673 C15.87855,15.4673 15.54655,15.8013 15.54655,16.2133 L15.54655,20.3613 C15.54655,20.7723 15.87855,21.1063 16.28755,21.1063 M3.26435,21.78145 L7.00835,18.01245 L7.00835,20.33145 C7.00835,20.74345 7.34035,21.07745 7.74835,21.07745 C8.15835,21.07745 8.49035,20.74345 8.49035,20.33145 L8.49035,16.25045 C8.49035,15.83845 8.15835,15.50445 7.74835,15.50445 L3.62735,15.50445 C3.21835,15.50445 2.88735,15.83845 2.88735,16.25045 C2.88735,16.66145 3.21835,16.99545 3.62735,16.99545 L5.92335,16.99545 L2.21635,20.72645 C1.92735,21.01745 1.92735,21.48945 2.21635,21.78145 C2.50635,22.07245 2.97435,22.07245 3.26435,21.78145"/></svg>