<svg xmlns="http://www.w3.org/2000/svg" width="24" height="24" viewBox="0 0 24 24"><path fill="currentColor" d="M14 4C15.5187831 4 16.75 5.23121694 16.75 6.75L16.75 12.75C16.75 14.2687831 15.5187831 15.5 14 15.5L5.75 15.5C4.23121694 15.5 3 14.2687831 3 12.75L3 6.75C3 5.23121694 4.23121694 4 5.75 4L14 4ZM14 5.5 5.75 5.5C5.05964406 5.5 4.5 6.05964406 4.5 6.75L4.5 12.75C4.5 13.4403559 5.05964406 14 5.75 14L14 14C14.6903559 14 15.25 13.4403559 15.25 12.75L15.25 6.75C15.25 6.05964406 14.6903559 5.5 14 5.5ZM18.25 8C19.7416194 8 21 9.04865047 21 10.4166667 21 10.8308802 20.6642136 11.1666667 20.25 11.1666667 19.8357864 11.1666667 19.5 10.8308802 19.5 10.4166667 19.5 9.9437337 18.9675196 9.5 18.25 9.5 17.8357864 9.5 17.5 9.16421356 17.5 8.75 17.5 8.33578644 17.8357864 8 18.25 8ZM19.5 12.9166667C19.5 11.9166667 21 11.9166667 21 12.9166667L21 14.5833333C21 15.5416667 19.6223958 15.5815972 19.5075955 14.703125L19.5 14.5833333 19.5 12.9166667ZM20.25 16.3333333C20.6642136 16.3333333 21 16.6691198 21 17.0833333 21 18.4513495 19.7416194 19.5 18.25 19.5 17.8357864 19.5 17.5 19.1642136 17.5 18.75 17.5 18.3357864 17.8357864 18 18.25 18 18.9675196 18 19.5 17.5562663 19.5 17.0833333 19.5 16.6691198 19.8357864 16.3333333 20.25 16.3333333ZM15.5 18C15.9142136 18 16.25 18.3357864 16.25 18.75 16.25 19.1642136 15.9142136 19.5 15.5 19.5L13 19.5C12.5857864 19.5 12.25 19.1642136 12.25 18.75 12.25 18.3357864 12.5857864 18 13 18L15.5 18ZM8.25 16.3333333C8.66421356 16.3333333 9 16.6691198 9 17.0833333 9 17.5562663 9.53248044 18 10.25 18 10.6642136 18 11 18.3357864 11 18.75 11 19.1642136 10.6642136 19.5 10.25 19.5 8.75838057 19.5 7.5 18.4513495 7.5 17.0833333 7.5 16.6691198 7.83578644 16.3333333 8.25 16.3333333Z"/></svg>