<?xml version="1.0" encoding="UTF-8"?>
<svg id="Lag_1" data-name="Lag 1" xmlns="http://www.w3.org/2000/svg" viewBox="0 0 240 150">
  <defs>
    <style>
      .cls-1 {
        fill: none;
      }

      .cls-2 {
        fill: #00e89a;
      }

      .cls-3 {
        fill: #8e8e8e;
      }

      .cls-4 {
        fill: #d1d1d1;
      }
    </style>
  </defs>
  <rect class="cls-1" x="61.93" y="53.5" width="116.14" height="43"/>
  <path id="Path_15" data-name="Path 15" class="cls-4" d="M90.93,75c0,11.87-9.63,21.5-21.5,21.5s-21.5-9.63-21.5-21.5,9.63-21.5,21.5-21.5,21.5,9.63,21.5,21.5"/>
  <path id="Path_20" data-name="Path 20" class="cls-3" d="M141.5,75c0,11.87-9.63,21.5-21.5,21.5s-21.5-9.63-21.5-21.5,9.63-21.5,21.5-21.5,21.5,9.63,21.5,21.5"/>
  <path id="Path_25" data-name="Path 25" class="cls-2" d="M192.07,75c0,11.87-9.63,21.5-21.5,21.5s-21.5-9.63-21.5-21.5,9.63-21.5,21.5-21.5h0c11.87,0,21.5,9.63,21.5,21.5"/>
</svg>