<?xml version="1.0" encoding="UTF-8"?><svg id="Lag_1" xmlns="http://www.w3.org/2000/svg" viewBox="0 0 240 150"><defs><style>.cls-1{fill:#f6f6f6;}.cls-2{fill:#00e89a;}.cls-3{fill:#d1d1d1;}</style></defs><g><rect class="cls-3" x="100.4" y="48" width="39.19" height="22.89" rx="8.8" ry="8.8" transform="translate(240 118.89) rotate(-180)"/><path id="Path_25" class="cls-2" d="m119.35,59.44c0,4.86,3.94,8.8,8.8,8.8s8.8-3.94,8.8-8.8-3.94-8.8-8.8-8.8h0c-4.86,0-8.8,3.94-8.8,8.8"/></g><g><rect class="cls-3" x="100.4" y="79.11" width="39.19" height="22.89" rx="8.8" ry="8.8"/><path id="Path_25-2" class="cls-1" d="m120.65,90.56c0,4.86-3.94,8.8-8.8,8.8-4.86,0-8.8-3.94-8.8-8.8s3.94-8.8,8.8-8.8h0c4.86,0,8.8,3.94,8.8,8.8"/></g></svg>