<svg xmlns="http://www.w3.org/2000/svg" width="24" height="24" viewBox="0 0 24 24">
<path id="participants" fill="currentColor" d="M19.8843,15.6235 L17.5893,15.6235 C17.0623,14.1175 15.8983,12.8955 14.4063,12.2655 C14.6623,12.0075 14.8713,11.7075 15.0253,11.3775 C15.2463,11.3445 15.4673,11.3065 15.6913,11.3065 C18.0733,11.3065 20.0123,13.1865 20.0123,15.4995 C20.0123,15.5675 19.9553,15.6235 19.8843,15.6235 M16.2863,17.5565 L7.9013,17.5565 C7.8303,17.5565 7.7743,17.5015 7.7743,17.4325 C7.7743,15.1205 9.7113,13.2395 12.0933,13.2395 C14.4773,13.2395 16.4143,15.1205 16.4143,17.4325 C16.4143,17.5015 16.3583,17.5565 16.2863,17.5565 M6.5983,15.6235 L4.1153,15.6235 C4.0443,15.6235 3.9883,15.5675 3.9883,15.4995 C3.9883,13.1865 5.9263,11.3065 8.3083,11.3065 C8.5813,11.3065 8.8523,11.3445 9.1193,11.3945 C9.2763,11.7245 9.4853,12.0255 9.7433,12.2835 C8.2713,12.9185 7.1223,14.1305 6.5983,15.6235 M8.3343,6.4435 C9.1173,6.4435 9.7973,6.9525 10.0183,7.6605 C9.3693,8.1775 8.9373,8.9255 8.8503,9.7785 C8.6843,9.8285 8.5133,9.8625 8.3343,9.8625 C7.3633,9.8625 6.5723,9.0965 6.5723,8.1525 C6.5723,7.2105 7.3633,6.4435 8.3343,6.4435 M12.0683,8.3765 C13.0393,8.3765 13.8293,9.1445 13.8293,10.0865 C13.8293,11.0295 13.0393,11.7965 12.0683,11.7965 C11.0963,11.7965 10.3053,11.0295 10.3053,10.0865 C10.3053,9.1445 11.0963,8.3765 12.0683,8.3765 M15.6653,6.4435 C16.6373,6.4435 17.4273,7.2105 17.4273,8.1525 C17.4273,9.0965 16.6373,9.8625 15.6653,9.8625 C15.5363,9.8625 15.4113,9.8485 15.2893,9.8225 C15.2093,8.9025 14.7303,8.0995 14.0103,7.5735 C14.2583,6.9115 14.9143,6.4435 15.6653,6.4435 M18.0043,10.3315 C18.5663,9.7655 18.9153,8.9985 18.9153,8.1525 C18.9153,6.4145 17.4573,4.9995 15.6653,4.9995 C14.3193,4.9995 13.1403,5.8205 12.6563,6.9915 C12.4653,6.9565 12.2693,6.9335 12.0683,6.9335 C11.8213,6.9335 11.5843,6.9655 11.3543,7.0155 C10.8773,5.8315 9.6913,4.9995 8.3343,4.9995 C6.5433,4.9995 5.0853,6.4145 5.0853,8.1525 C5.0853,8.9985 5.4343,9.7655 5.9953,10.3315 C3.9413,11.2015 2.5003,13.1885 2.5003,15.4995 C2.5003,16.3635 3.2253,17.0665 4.1153,17.0665 L6.3053,17.0665 C6.2973,17.1875 6.2863,17.3095 6.2863,17.4325 C6.2863,18.2975 7.0103,18.9995 7.9013,18.9995 L16.2863,18.9995 C17.1783,18.9995 17.9023,18.2975 17.9023,17.4325 C17.9023,17.3095 17.8913,17.1875 17.8833,17.0665 L19.8843,17.0665 C20.7763,17.0665 21.5003,16.3635 21.5003,15.4995 C21.5003,13.1885 20.0593,11.2015 18.0043,10.3315"/></svg>