<?xml version="1.0" encoding="UTF-8"?>
<svg id="Lag_1" data-name="Lag 1" xmlns="http://www.w3.org/2000/svg" xmlns:xlink="http://www.w3.org/1999/xlink" viewBox="0 0 240 150">
  <defs>
    <style>
      .cls-1, .cls-2, .cls-3 {
        fill: none;
      }

      .cls-4 {
        clip-path: url(#clippath);
      }

      .cls-5 {
        fill: #00e89a;
      }

      .cls-6 {
        fill: #ebebeb;
      }

      .cls-7 {
        fill: #d1d1d1;
      }

      .cls-2 {
        stroke: #8e8e8e;
        stroke-linecap: round;
      }

      .cls-2, .cls-3 {
        stroke-miterlimit: 10;
      }

      .cls-8 {
        clip-path: url(#clippath-1);
      }

      .cls-3 {
        stroke: #d1d1d1;
        stroke-width: .75px;
      }
    </style>
    <clipPath id="clippath">
      <rect class="cls-1" x="77.69" y="50.24" width="84.62" height="58.23"/>
    </clipPath>
    <clipPath id="clippath-1">
      <rect class="cls-1" x="78" y="45.53" width="84" height="2.57"/>
    </clipPath>
  </defs>
  <rect class="cls-3" x="63" y="20.75" width="114" height="103.75" rx="10" ry="10"/>
  <rect class="cls-7" x="89" y="29.96" width="62" height="6" rx="3" ry="3"/>
  <g class="cls-4">
    <g>
      <g id="_Grid_Repeat_" data-name="&amp;lt;Grid Repeat&amp;gt;">
        <rect class="cls-6" x="77.69" y="54.24" width="10.51" height="9" rx="3" ry="3"/>
      </g>
      <g id="_Grid_Repeat_-2" data-name="&amp;lt;Grid Repeat&amp;gt;">
        <rect class="cls-6" x="96.2" y="54.24" width="10.51" height="9" rx="3" ry="3"/>
      </g>
      <g id="_Grid_Repeat_-3" data-name="&amp;lt;Grid Repeat&amp;gt;">
        <rect class="cls-6" x="114.71" y="54.24" width="10.51" height="9" rx="3" ry="3"/>
      </g>
      <g id="_Grid_Repeat_-4" data-name="&amp;lt;Grid Repeat&amp;gt;">
        <rect class="cls-6" x="133.23" y="54.24" width="10.51" height="9" rx="3" ry="3"/>
      </g>
      <g id="_Grid_Repeat_-5" data-name="&amp;lt;Grid Repeat&amp;gt;">
        <rect class="cls-6" x="151.74" y="54.24" width="10.51" height="9" rx="3" ry="3"/>
      </g>
      <g id="_Grid_Repeat_-6" data-name="&amp;lt;Grid Repeat&amp;gt;">
        <rect class="cls-6" x="77.69" y="69.24" width="10.51" height="9" rx="3" ry="3"/>
      </g>
      <g id="_Grid_Repeat_-7" data-name="&amp;lt;Grid Repeat&amp;gt;">
        <rect class="cls-6" x="96.2" y="69.24" width="10.51" height="9" rx="3" ry="3"/>
      </g>
      <g id="_Grid_Repeat_-8" data-name="&amp;lt;Grid Repeat&amp;gt;">
        <rect class="cls-6" x="114.71" y="69.24" width="10.51" height="9" rx="3" ry="3"/>
      </g>
      <g id="_Grid_Repeat_-9" data-name="&amp;lt;Grid Repeat&amp;gt;">
        <rect class="cls-6" x="133.23" y="69.24" width="10.51" height="9" rx="3" ry="3"/>
      </g>
      <g id="_Grid_Repeat_-10" data-name="&amp;lt;Grid Repeat&amp;gt;">
        <rect class="cls-6" x="151.74" y="69.24" width="10.51" height="9" rx="3" ry="3"/>
      </g>
      <g id="_Grid_Repeat_-11" data-name="&amp;lt;Grid Repeat&amp;gt;">
        <rect class="cls-6" x="77.69" y="84.24" width="10.51" height="9" rx="3" ry="3"/>
      </g>
      <g id="_Grid_Repeat_-12" data-name="&amp;lt;Grid Repeat&amp;gt;">
        <rect class="cls-6" x="96.2" y="84.24" width="10.51" height="9" rx="3" ry="3"/>
      </g>
      <g id="_Grid_Repeat_-13" data-name="&amp;lt;Grid Repeat&amp;gt;">
        <rect class="cls-6" x="114.71" y="84.24" width="10.51" height="9" rx="3" ry="3"/>
      </g>
      <g id="_Grid_Repeat_-14" data-name="&amp;lt;Grid Repeat&amp;gt;">
        <rect class="cls-6" x="133.23" y="84.24" width="10.51" height="9" rx="3" ry="3"/>
      </g>
      <g id="_Grid_Repeat_-15" data-name="&amp;lt;Grid Repeat&amp;gt;">
        <rect class="cls-6" x="151.74" y="84.24" width="10.51" height="9" rx="3" ry="3"/>
      </g>
      <g id="_Grid_Repeat_-16" data-name="&amp;lt;Grid Repeat&amp;gt;">
        <rect class="cls-6" x="77.69" y="99.24" width="10.51" height="9" rx="3" ry="3"/>
      </g>
      <g id="_Grid_Repeat_-17" data-name="&amp;lt;Grid Repeat&amp;gt;">
        <rect class="cls-6" x="96.2" y="99.24" width="10.51" height="9" rx="3" ry="3"/>
      </g>
      <g id="_Grid_Repeat_-18" data-name="&amp;lt;Grid Repeat&amp;gt;">
        <rect class="cls-6" x="114.71" y="99.24" width="10.51" height="9" rx="3" ry="3"/>
      </g>
      <g id="_Grid_Repeat_-19" data-name="&amp;lt;Grid Repeat&amp;gt;">
        <rect class="cls-6" x="133.23" y="99.24" width="10.51" height="9" rx="3" ry="3"/>
      </g>
      <g id="_Grid_Repeat_-20" data-name="&amp;lt;Grid Repeat&amp;gt;">
        <rect class="cls-6" x="151.74" y="99.24" width="10.51" height="9" rx="3" ry="3"/>
      </g>
    </g>
  </g>
  <g class="cls-8">
    <g>
      <g id="_Gittergentagelse_" data-name="&amp;lt;Gittergentagelse&amp;gt;">
        <rect class="cls-7" x="78" y="45.53" width="10.06" height="2.52" rx="1.26" ry="1.26"/>
      </g>
      <g id="_Gittergentagelse_-2" data-name="&amp;lt;Gittergentagelse&amp;gt;">
        <rect class="cls-7" x="96.45" y="45.53" width="10.06" height="2.52" rx="1.26" ry="1.26"/>
      </g>
      <g id="_Gittergentagelse_-3" data-name="&amp;lt;Gittergentagelse&amp;gt;">
        <rect class="cls-7" x="114.9" y="45.53" width="10.06" height="2.52" rx="1.26" ry="1.26"/>
      </g>
      <g id="_Gittergentagelse_-4" data-name="&amp;lt;Gittergentagelse&amp;gt;">
        <rect class="cls-7" x="133.34" y="45.53" width="10.06" height="2.52" rx="1.26" ry="1.26"/>
      </g>
      <g id="_Gittergentagelse_-5" data-name="&amp;lt;Gittergentagelse&amp;gt;">
        <rect class="cls-7" x="151.79" y="45.53" width="10.06" height="2.52" rx="1.26" ry="1.26"/>
      </g>
    </g>
  </g>
  <rect class="cls-5" x="133.23" y="54.24" width="10.51" height="9" rx="3" ry="3"/>
  <g id="Group_17" data-name="Group 17">
    <line id="Line_17" data-name="Line 17" class="cls-2" x1="161.84" y1="32.94" x2="158.71" y2="29.75"/>
    <line id="Line_18" data-name="Line 18" class="cls-2" x1="161.84" y1="32.99" x2="158.71" y2="36.18"/>
  </g>
  <g id="Group_17-2" data-name="Group 17">
    <line id="Line_17-2" data-name="Line 17" class="cls-2" x1="80.84" y1="29.75" x2="77.71" y2="32.94"/>
    <line id="Line_18-2" data-name="Line 18" class="cls-2" x1="80.84" y1="36.18" x2="77.71" y2="32.99"/>
  </g>
</svg>