<?xml version="1.0" encoding="UTF-8"?>
<svg width="24px" height="24px" viewBox="0 0 24 24" version="1.1" xmlns="http://www.w3.org/2000/svg" xmlns:xlink="http://www.w3.org/1999/xlink">
    <!-- Generator: Sketch 57.1 (83088) - https://sketch.com -->
    <title>menu-outline</title>
    <desc>Created with Sketch.</desc>
    <g id="menu-outline" stroke="none" stroke-width="1" fill="none" fill-rule="evenodd">
        <path d="M12,3 C16.962,3 21,7.038 21,12 C21,16.963 16.962,21 12,21 C7.038,21 3,16.963 3,12 C3,7.038 7.038,3 12,3 Z M12,4.5 C7.864,4.5 4.5,7.864 4.5,12 C4.5,16.136 7.864,19.5 12,19.5 C16.135,19.5 19.5,16.136 19.5,12 C19.5,7.864 16.135,4.5 12,4.5 Z M16.2026,14.25 C16.6166,14.25 16.9526,14.586 16.9526,15 C16.9526,15.3795 16.6702667,15.6934583 16.3043257,15.7431493 L16.2026,15.75 L7.7976,15.75 C7.3836,15.75 7.0476,15.414 7.0476,15 C7.0476,14.6205 7.32993333,14.3065417 7.69587431,14.2568507 L7.7976,14.25 L16.2026,14.25 Z M16.2026,11.25 C16.6166,11.25 16.9526,11.586 16.9526,12 C16.9526,12.3795 16.6702667,12.6934583 16.3043257,12.7431493 L16.2026,12.75 L7.7976,12.75 C7.3836,12.75 7.0476,12.414 7.0476,12 C7.0476,11.6205 7.32993333,11.3065417 7.69587431,11.2568507 L7.7976,11.25 L16.2026,11.25 Z M7.7976,8.25 L16.2026,8.25 C16.6166,8.25 16.9526,8.586 16.9526,9 C16.9526,9.3795 16.6702667,9.69345833 16.3043257,9.74314931 L16.2026,9.75 L7.7976,9.75 C7.3836,9.75 7.0476,9.414 7.0476,9 C7.0476,8.6205 7.32993333,8.30654167 7.69587431,8.25685069 L7.7976,8.25 L16.2026,8.25 Z" id="icon-color" fill="currentColor" fill-rule="nonzero"></path>
    </g>
</svg>
