<?xml version="1.0" encoding="UTF-8"?>
<svg width="24px" height="24px" viewBox="0 0 24 24" version="1.1" xmlns="http://www.w3.org/2000/svg" xmlns:xlink="http://www.w3.org/1999/xlink">
    <!-- Generator: Sketch 57.1 (83088) - https://sketch.com -->
    <title>person</title>
    <desc>Created with Sketch.</desc>
    <g id="person" stroke="none" stroke-width="1" fill="none" fill-rule="evenodd">
        <path d="M14.9066,11.388 C18.1676,12.598 20.5006,15.773 20.5006,19.511 C20.5006,20.333 19.8446,21 19.0376,21 L19.0376,21 L4.9626,21 C4.1546,21 3.4996,20.333 3.4996,19.511 C3.4996,15.773 5.8326,12.598 9.0936,11.388 C9.8816,12.066 10.8866,12.49 11.9996,12.49 C13.1126,12.49 14.1186,12.066 14.9066,11.388 Z M11.9995,3.0002 C14.2755,3.0002 16.1195,4.8782 16.1195,7.1942 C16.1195,9.5102 14.2755,11.3882 11.9995,11.3882 C9.7245,11.3882 7.8805,9.5102 7.8805,7.1942 C7.8805,4.8782 9.7245,3.0002 11.9995,3.0002 Z" id="icon-color" fill="currentColor" fill-rule="nonzero"></path>
    </g>
</svg>
