<?xml version="1.0" encoding="UTF-8"?>
<svg width="24px" height="24px" viewBox="0 0 24 24" version="1.1" xmlns="http://www.w3.org/2000/svg" xmlns:xlink="http://www.w3.org/1999/xlink">
    <g id="payment-cards/payment-card" stroke="none" stroke-width="1" fill="none" fill-rule="evenodd">
        <path d="M5.7305,7.0078 C5.0455,7.0078 4.4895,7.5708 4.4895,8.2638 L4.4895,15.7358 C4.4895,16.4288 5.0455,16.9918 5.7305,16.9918 L18.2695,16.9918 C18.9545,16.9918 19.5105,16.4288 19.5105,15.7358 L19.5105,8.2638 C19.5105,7.5708 18.9545,7.0078 18.2695,7.0078 L5.7305,7.0078 Z M18.2695,18.4998 L5.7305,18.4998 C4.2255,18.4998 3.0005,17.2598 3.0005,15.7358 L3.0005,8.2638 C3.0005,6.7398 4.2255,5.4998 5.7305,5.4998 L18.2695,5.4998 C19.7755,5.4998 21.0005,6.7398 21.0005,8.2638 L21.0005,15.7358 C21.0005,17.2598 19.7755,18.4998 18.2695,18.4998 Z M9.522,9.7241 L6.518,9.7241 C6.107,9.7241 5.773,9.3861 5.773,8.9701 C5.773,8.5541 6.107,8.2161 6.518,8.2161 L9.522,8.2161 C9.933,8.2161 10.267,8.5541 10.267,8.9701 C10.267,9.3861 9.933,9.7241 9.522,9.7241 Z M10.8589,14.8306 C10.8589,15.2456 10.5229,15.5806 10.1089,15.5806 C9.6949,15.5806 9.3589,15.2456 9.3589,14.8306 C9.3589,14.4166 9.6949,14.0806 10.1089,14.0806 C10.5229,14.0806 10.8589,14.4166 10.8589,14.8306 Z M13.2715,14.8306 C13.2715,15.2456 12.9355,15.5806 12.5215,15.5806 C12.1075,15.5806 11.7715,15.2456 11.7715,14.8306 C11.7715,14.4166 12.1075,14.0806 12.5215,14.0806 C12.9355,14.0806 13.2715,14.4166 13.2715,14.8306 Z M15.5937,14.8306 C15.5937,15.2456 15.2577,15.5806 14.8437,15.5806 C14.4287,15.5806 14.0937,15.2456 14.0937,14.8306 C14.0937,14.4166 14.4287,14.0806 14.8437,14.0806 C15.2577,14.0806 15.5937,14.4166 15.5937,14.8306 Z M17.9668,14.8306 C17.9668,15.2456 17.6308,15.5806 17.2168,15.5806 C16.8028,15.5806 16.4668,15.2456 16.4668,14.8306 C16.4668,14.4166 16.8028,14.0806 17.2168,14.0806 C17.6308,14.0806 17.9668,14.4166 17.9668,14.8306 Z" id="icon-color" fill="currentColor" fill-rule="nonzero"></path>
    </g>
</svg>