<svg xmlns="http://www.w3.org/2000/svg" width="24" height="24" viewBox="0 0 24 24">
<path id="chat" fill="currentColor" d="M16.5809,3.4999 C19.0179,3.4999 20.9999,5.4559 20.9999,7.8609 L20.9999,12.1979 C20.9999,14.6019 19.0179,16.5579 16.5809,16.5579 L10.8949,16.5579 L6.9989,20.2929 C6.8579,20.4279 6.6719,20.4999 6.4839,20.4999 C6.3879,20.4999 6.2919,20.4819 6.1999,20.4439 C5.9269,20.3319 5.7469,20.0699 5.7409,19.7759 L5.6679,16.2099 C4.0509,15.5479 2.9999,13.9989 2.9999,12.1979 L2.9999,7.8609 C2.9999,5.4559 4.9819,3.4999 7.4179,3.4999 Z M16.5809,4.9789 L7.4179,4.9789 C5.8009,4.9789 4.4859,6.2719 4.4859,7.8609 L4.4859,12.1979 C4.4859,13.5139 5.3329,14.6259 6.5929,14.9629 C6.9119,15.0489 7.1359,15.3329 7.1429,15.6619 L7.1919,18.0549 L10.0799,15.2869 C10.2189,15.1539 10.4039,15.0799 10.5959,15.0799 L16.5809,15.0799 C18.1989,15.0799 19.5139,13.7869 19.5139,12.1979 L19.5139,7.8609 C19.5139,6.2719 18.1989,4.9789 16.5809,4.9789 Z M15.9885,11.0739 C16.3985,11.0739 16.7305,11.4059 16.7305,11.8139 C16.7305,12.2219 16.3985,12.5529 15.9885,12.5529 L8.0115,12.5529 C7.6015,12.5529 7.2695,12.2219 7.2695,11.8139 C7.2695,11.4059 7.6015,11.0739 8.0115,11.0739 Z M15.9885,7.5919 C16.3985,7.5919 16.7305,7.9229 16.7305,8.3309 C16.7305,8.7389 16.3985,9.0709 15.9885,9.0709 L8.0115,9.0709 C7.6015,9.0709 7.2695,8.7389 7.2695,8.3309 C7.2695,7.9229 7.6015,7.5919 8.0115,7.5919 Z"/></svg>