<?xml version="1.0" encoding="UTF-8"?>
<svg id="Lag_1" data-name="Lag 1" xmlns="http://www.w3.org/2000/svg" xmlns:xlink="http://www.w3.org/1999/xlink" viewBox="0 0 240 150">
  <defs>
    <style>
      .cls-1 {
        fill: none;
      }

      .cls-2 {
        clip-path: url(#clippath);
      }

      .cls-3 {
        fill: #00e89a;
      }

      .cls-4 {
        fill: #fff;
      }

      .cls-5 {
        fill: #8e8e8e;
      }

      .cls-6 {
        fill: #d1d1d1;
      }
    </style>
    <clipPath id="clippath">
      <rect class="cls-1" x="61.93" y="53.5" width="116.14" height="43"/>
    </clipPath>
  </defs>
  <g class="cls-2">
    <g id="Group_3" data-name="Group 3">
      <path id="Path_15" data-name="Path 15" class="cls-6" d="M104.93,75c0,11.87-9.63,21.5-21.5,21.5s-21.5-9.63-21.5-21.5,9.63-21.5,21.5-21.5,21.5,9.63,21.5,21.5"/>
      <path id="Path_16" data-name="Path 16" class="cls-4" d="M83.43,72.74c-4.04,0-7.32-3.28-7.32-7.32s3.28-7.32,7.32-7.32,7.32,3.28,7.32,7.32h0c0,4.04-3.28,7.31-7.32,7.32"/>
      <path id="Path_17" data-name="Path 17" class="cls-6" d="M83.43,58.18c4,0,7.24,3.24,7.24,7.24,0,4-3.24,7.24-7.24,7.24-4,0-7.24-3.24-7.24-7.24h0c0-4,3.24-7.24,7.24-7.24m0-.15c-4.08,0-7.39,3.31-7.39,7.39s3.31,7.39,7.39,7.39,7.39-3.31,7.39-7.39h0c0-4.08-3.31-7.39-7.39-7.39"/>
      <path id="Path_18" data-name="Path 18" class="cls-4" d="M83.28,91.89c-6.73,0-12.18-5.46-12.19-12.19v-1.37c0-1.89,1.54-3.43,3.43-3.43h17.52c1.89,0,3.43,1.54,3.43,3.43v1.37c0,6.73-5.46,12.18-12.19,12.19"/>
      <path id="Path_19" data-name="Path 19" class="cls-6" d="M92.04,74.98c1.85,0,3.35,1.5,3.35,3.35v1.37c0,6.69-5.42,12.11-12.11,12.11s-12.11-5.42-12.11-12.11v-1.37c0-1.85,1.5-3.35,3.35-3.35h17.52Zm0-.15h-17.52c-1.93,0-3.49,1.57-3.5,3.5v1.37c0,6.77,5.49,12.26,12.26,12.26s12.26-5.49,12.26-12.26v-1.36c0-1.93-1.57-3.49-3.5-3.5"/>
      <path id="Path_20" data-name="Path 20" class="cls-5" d="M141.44,75c0,11.87-9.63,21.5-21.5,21.5s-21.5-9.63-21.5-21.5,9.63-21.5,21.5-21.5,21.5,9.63,21.5,21.5"/>
      <path id="Path_21" data-name="Path 21" class="cls-4" d="M119.94,72.75c-4.05,0-7.33-3.28-7.33-7.33,0-4.05,3.28-7.33,7.33-7.33,4.05,0,7.33,3.28,7.33,7.33,0,4.04-3.28,7.32-7.33,7.33"/>
      <path id="Path_22" data-name="Path 22" class="cls-6" d="M119.94,58.16c4.01,0,7.26,3.25,7.26,7.26s-3.25,7.26-7.26,7.26-7.26-3.25-7.26-7.26c0-4.01,3.25-7.26,7.26-7.26m0-.13c-4.08,0-7.39,3.31-7.39,7.39s3.31,7.39,7.39,7.39,7.39-3.31,7.39-7.39h0c0-4.08-3.31-7.39-7.39-7.39"/>
      <path id="Path_23" data-name="Path 23" class="cls-4" d="M119.79,91.9c-6.74,0-12.19-5.46-12.2-12.2v-1.37c0-1.9,1.54-3.44,3.44-3.44h17.52c1.9,0,3.44,1.54,3.44,3.44v1.37c0,6.74-5.46,12.19-12.2,12.2"/>
      <path id="Path_24" data-name="Path 24" class="cls-6" d="M128.55,74.96c1.86,0,3.37,1.51,3.38,3.38v1.37c0,6.7-5.43,12.14-12.14,12.14-6.7,0-12.14-5.43-12.14-12.14h0v-1.37c0-1.86,1.51-3.37,3.38-3.38h17.52Zm0-.13h-17.52c-1.93,0-3.49,1.57-3.5,3.5v1.37c0,6.77,5.49,12.26,12.26,12.26s12.26-5.49,12.26-12.26v-1.36c0-1.93-1.57-3.49-3.5-3.5"/>
      <path id="Path_25" data-name="Path 25" class="cls-3" d="M178.07,75c0,11.87-9.63,21.5-21.5,21.5s-21.5-9.63-21.5-21.5,9.63-21.5,21.5-21.5h0c11.87,0,21.5,9.63,21.5,21.5"/>
      <path id="Path_26" data-name="Path 26" class="cls-4" d="M156.57,72.74c-4.04,0-7.32-3.28-7.32-7.32,0-4.04,3.28-7.32,7.32-7.32s7.32,3.28,7.32,7.32h0c0,4.04-3.28,7.31-7.32,7.32"/>
      <path id="Path_27" data-name="Path 27" class="cls-6" d="M156.57,58.18c4,0,7.24,3.24,7.24,7.24,0,4-3.24,7.24-7.24,7.24-4,0-7.24-3.24-7.24-7.24h0c0-4,3.24-7.24,7.24-7.24m0-.15c-4.08,0-7.39,3.31-7.39,7.39,0,4.08,3.31,7.39,7.39,7.39,4.08,0,7.39-3.31,7.39-7.39s-3.31-7.39-7.39-7.39h0"/>
      <path id="Path_28" data-name="Path 28" class="cls-4" d="M156.42,91.89c-6.73,0-12.18-5.46-12.19-12.19v-1.37c0-1.89,1.54-3.43,3.43-3.43h17.52c1.89,0,3.43,1.54,3.43,3.43v1.37c0,6.73-5.46,12.18-12.19,12.19"/>
      <path id="Path_29" data-name="Path 29" class="cls-6" d="M165.18,74.98c1.85,0,3.35,1.5,3.35,3.35v1.37c0,6.69-5.42,12.11-12.11,12.11s-12.11-5.42-12.11-12.11v-1.37c0-1.85,1.5-3.35,3.35-3.35h17.52Zm0-.15h-17.52c-1.93,0-3.49,1.57-3.5,3.5v1.37c0,6.77,5.49,12.26,12.26,12.26s12.26-5.49,12.26-12.26v-1.36c0-1.93-1.57-3.49-3.5-3.5"/>
    </g>
  </g>
</svg>