<svg width="24" height="24" viewBox="0 0 24 24" fill="none" xmlns="http://www.w3.org/2000/svg">
<path id="revert" fill="currentColor" d="M9.167 8.617C9.389 8.959 9.283 9.411 8.931 9.627L6.001 11.418C5.877 11.494 5.738 11.53 5.601 11.53C5.351 11.53 5.105 11.409 4.961 11.188L3.116 8.345C2.895 8.002 3.001 7.55 3.354 7.334C3.705 7.119 4.172 7.221 4.394 7.563L5.219 8.836C6.514 5.927 9.455 4 12.761 4C17.304 4 21 7.589 21 12C21 16.411 17.304 20 12.761 20C9.195 20 6.05 17.792 4.935 14.504C4.804 14.121 5.02 13.706 5.415 13.58C5.804 13.452 6.237 13.662 6.367 14.047C7.278 16.732 9.848 18.534 12.761 18.534C16.472 18.534 19.492 15.603 19.492 12C19.492 8.396 16.472 5.465 12.761 5.465C10.109 5.465 7.745 6.981 6.658 9.285L8.127 8.387C8.479 8.171 8.945 8.275 9.167 8.617Z"/>
</svg>
