<svg xmlns="http://www.w3.org/2000/svg" width="24" height="24" viewBox="0 0 24 24">
<path id="budget" fill="currentColor" d="M17,2.25 C18.5187831,2.25 19.75,3.48121694 19.75,5 L19.7516859,13.6164182 C20.6263859,13.8795841 21.1792245,14.2927786 21.2436693,14.8823339 L21.25,15 L21.25,21 C21.25,22.2393112 19.2072446,22.75 16.5,22.75 C14.4239165,22.75 12.7386043,22.4496753 12.0656261,21.7507436 L7,21.75 C5.48121694,21.75 4.25,20.5187831 4.25,19 L4.25,5 C4.25,3.48121694 5.48121694,2.25 7,2.25 L17,2.25 Z M13.2493098,19.3838812 L13.25,20.772 L13.268812,20.7824429 C13.4034521,20.848018 13.6032311,20.916939 13.8534746,20.9794999 C14.5345878,21.1497782 15.4823915,21.25 16.5,21.25 C17.5176085,21.25 18.4654122,21.1497782 19.1465254,20.9794999 C19.4097953,20.9136824 19.6172101,20.8408254 19.7516824,20.7722309 L19.7516859,19.3835818 C18.9141507,19.6355661 17.7815239,19.75 16.5,19.75 C15.2189838,19.75 14.0867469,19.6356567 13.2493098,19.3838812 Z M17,3.75 L7,3.75 C6.30964406,3.75 5.75,4.30964406 5.75,5 L5.75,19 C5.75,19.6903559 6.30964406,20.25 7,20.25 L11.75,20.25 L11.75,15 C11.75,13.7606888 13.7927554,13.25 16.5,13.25 C17.1246283,13.25 17.7138832,13.277186 18.2508363,13.3342346 L18.25,5 C18.25,4.30964406 17.6903559,3.75 17,3.75 Z M13.2493098,16.3838812 L13.25,17.772 L13.268812,17.7824429 C13.4034521,17.848018 13.6032311,17.916939 13.8534746,17.9794999 C14.5345878,18.1497782 15.4823915,18.25 16.5,18.25 C17.5176085,18.25 18.4654122,18.1497782 19.1465254,17.9794999 C19.4097953,17.9136824 19.6172101,17.8408254 19.7516824,17.7722309 L19.7516859,16.3835818 C18.9141507,16.6355661 17.7815239,16.75 16.5,16.75 C15.2189838,16.75 14.0867469,16.6356567 13.2493098,16.3838812 Z M16.5,14.75 C15.4823915,14.75 14.5345878,14.8502218 13.8534746,15.0205001 L13.943,15 L14.0901197,15.0336233 C14.6640785,15.1536638 15.3861349,15.2292968 16.1636526,15.2463295 L16.5,15.25 C17.4045409,15.25 18.2539274,15.1708124 18.9098803,15.0336233 L19.055,15 L18.9098803,14.9663767 C18.3359215,14.8463362 17.6138651,14.7707032 16.8363474,14.7536705 L16.5,14.75 Z M10.6953597,11.75 C11.1095732,11.75 11.4453597,12.0857864 11.4453597,12.5 C11.4453597,12.9142136 11.1095732,13.25 10.6953597,13.25 L8,13.25 C7.58578644,13.25 7.25,12.9142136 7.25,12.5 C7.25,12.0857864 7.58578644,11.75 8,11.75 L10.6953597,11.75 Z M16,8.75 C16.4142136,8.75 16.75,9.08578644 16.75,9.5 C16.75,9.91421356 16.4142136,10.25 16,10.25 L8,10.25 C7.58578644,10.25 7.25,9.91421356 7.25,9.5 C7.25,9.08578644 7.58578644,8.75 8,8.75 L16,8.75 Z M16,5.75 C16.4142136,5.75 16.75,6.08578644 16.75,6.5 C16.75,6.91421356 16.4142136,7.25 16,7.25 L8,7.25 C7.58578644,7.25 7.25,6.91421356 7.25,6.5 C7.25,6.08578644 7.58578644,5.75 8,5.75 L16,5.75 Z"/></svg>