<svg xmlns="http://www.w3.org/2000/svg" width="24" height="24" viewBox="0 0 24 24">
<path id="document" fill="currentColor" d="M14.2476,3 C14.7466,3 15.2316,3.208 15.5806,3.569 L18.9536,6.911 C19.3106,7.28 19.4996,7.752 19.4996,8.254 L19.4586,17.956 C19.4586,19.633 18.1216,21 16.4766,21 L7.4826,21 C5.8376,21 4.4996,19.633 4.4996,17.953 L4.4996,6.047 C4.4996,4.367 5.8376,3 7.4826,3 L14.2476,3 Z M13.8966,4.5 L7.4826,4.5 C6.6646,4.5 5.9996,5.194 5.9996,6.047 L5.9996,17.953 C5.9996,18.806 6.6646,19.5 7.4826,19.5 L16.4766,19.5 C17.2936,19.5 17.9586,18.806 17.9586,17.953 L17.9976,8.769 L15.3086,8.769 C14.5286,8.769 13.8936,8.155 13.8936,7.402 L13.8936,4.512 C13.8936,4.508 13.8956,4.504 13.8966,4.5 Z M15.0078,15.9736 C15.4218,15.9736 15.7578,16.3096 15.7578,16.7236 C15.7578,17.1376 15.4218,17.4736 15.0078,17.4736 L8.9918,17.4736 C8.5778,17.4736 8.2418,17.1376 8.2418,16.7236 C8.2418,16.3096 8.5778,15.9736 8.9918,15.9736 Z M15.0078,12.9814 C15.4218,12.9814 15.7578,13.3174 15.7578,13.7314 C15.7578,14.1454 15.4218,14.4814 15.0078,14.4814 L8.9918,14.4814 C8.5778,14.4814 8.2418,14.1454 8.2418,13.7314 C8.2418,13.3174 8.5778,12.9814 8.9918,12.9814 Z M15.0078,9.9751 C15.4218,9.9751 15.7578,10.3111 15.7578,10.7251 C15.7578,11.1391 15.4218,11.4751 15.0078,11.4751 L8.9918,11.4751 C8.5778,11.4751 8.2418,11.1391 8.2418,10.7251 C8.2418,10.3111 8.5778,9.9751 8.9918,9.9751 L15.0078,9.9751 Z M15.3936,5.496 L15.3936,7.269 L17.1836,7.269 L15.3936,5.496 Z"/></svg>