<svg xmlns="http://www.w3.org/2000/svg" width="24" height="24" viewBox="0 0 24 24">
    <path id="keyboard" fill="currentColor" d="M18.5684,4.4561 C19.1044,4.4561 19.5414,4.8911 19.5414,5.4251 C19.5414,5.9601 19.1044,6.3951 18.5684,6.3951 C18.0334,6.3951 17.5964,5.9601 17.5964,5.4251 C17.5964,4.8911 18.0334,4.4561 18.5684,4.4561 M18.5684,7.8521 C19.9094,7.8521 21.0004,6.7631 21.0004,5.4251 C21.0004,4.0881 19.9094,3.0001 18.5684,3.0001 C17.2284,3.0001 16.1374,4.0881 16.1374,5.4251 C16.1374,6.7631 17.2284,7.8521 18.5684,7.8521 M5.4312,6.395 C4.8952,6.395 4.4592,5.96 4.4592,5.425 C4.4592,4.891 4.8952,4.456 5.4312,4.456 C5.9672,4.456 6.4032,4.891 6.4032,5.425 C6.4032,5.96 5.9672,6.395 5.4312,6.395 M5.4312,3 C4.0912,3 3.0002,4.088 3.0002,5.425 C3.0002,6.763 4.0912,7.852 5.4312,7.852 C6.7722,7.852 7.8622,6.763 7.8622,5.425 C7.8622,4.088 6.7722,3 5.4312,3 M12,6.395 C11.464,6.395 11.028,5.96 11.028,5.425 C11.028,4.891 11.464,4.456 12,4.456 C12.536,4.456 12.972,4.891 12.972,5.425 C12.972,5.96 12.536,6.395 12,6.395 M12,3 C10.66,3 9.569,4.088 9.569,5.425 C9.569,6.763 10.66,7.852 12,7.852 C13.341,7.852 14.432,6.763 14.432,5.425 C14.432,4.088 13.341,3 12,3 M5.4312,12.9697 C4.8952,12.9697 4.4592,12.5347 4.4592,11.9997 C4.4592,11.4657 4.8952,11.0297 5.4312,11.0297 C5.9672,11.0297 6.4032,11.4657 6.4032,11.9997 C6.4032,12.5347 5.9672,12.9697 5.4312,12.9697 M5.4312,9.5737 C4.0912,9.5737 3.0002,10.6617 3.0002,11.9997 C3.0002,13.3367 4.0912,14.4257 5.4312,14.4257 C6.7722,14.4257 7.8622,13.3367 7.8622,11.9997 C7.8622,10.6617 6.7722,9.5737 5.4312,9.5737 M18.5684,12.9697 C18.0334,12.9697 17.5964,12.5347 17.5964,11.9997 C17.5964,11.4657 18.0334,11.0297 18.5684,11.0297 C19.1044,11.0297 19.5414,11.4657 19.5414,11.9997 C19.5414,12.5347 19.1044,12.9697 18.5684,12.9697 M18.5684,9.5737 C17.2284,9.5737 16.1374,10.6617 16.1374,11.9997 C16.1374,13.3367 17.2284,14.4257 18.5684,14.4257 C19.9094,14.4257 21.0004,13.3367 21.0004,11.9997 C21.0004,10.6617 19.9094,9.5737 18.5684,9.5737 M18.5684,19.5439 C18.0334,19.5439 17.5964,19.1079 17.5964,18.5739 C17.5964,18.0389 18.0334,17.6049 18.5684,17.6049 C19.1044,17.6049 19.5414,18.0389 19.5414,18.5739 C19.5414,19.1079 19.1044,19.5439 18.5684,19.5439 M18.5684,16.1479 C17.2284,16.1479 16.1374,17.2359 16.1374,18.5739 C16.1374,19.9119 17.2284,20.9999 18.5684,20.9999 C19.9094,20.9999 21.0004,19.9119 21.0004,18.5739 C21.0004,17.2359 19.9094,16.1479 18.5684,16.1479 M12,12.9697 C11.464,12.9697 11.028,12.5347 11.028,11.9997 C11.028,11.4657 11.464,11.0297 12,11.0297 C12.536,11.0297 12.972,11.4657 12.972,11.9997 C12.972,12.5347 12.536,12.9697 12,12.9697 M12,9.5737 C10.66,9.5737 9.569,10.6617 9.569,11.9997 C9.569,13.3367 10.66,14.4257 12,14.4257 C13.341,14.4257 14.432,13.3367 14.432,11.9997 C14.432,10.6617 13.341,9.5737 12,9.5737 M5.4312,19.5439 C4.8952,19.5439 4.4592,19.1079 4.4592,18.5739 C4.4592,18.0389 4.8952,17.6049 5.4312,17.6049 C5.9672,17.6049 6.4032,18.0389 6.4032,18.5739 C6.4032,19.1079 5.9672,19.5439 5.4312,19.5439 M5.4312,16.1479 C4.0912,16.1479 3.0002,17.2359 3.0002,18.5739 C3.0002,19.9119 4.0912,20.9999 5.4312,20.9999 C6.7722,20.9999 7.8622,19.9119 7.8622,18.5739 C7.8622,17.2359 6.7722,16.1479 5.4312,16.1479 M12,19.5439 C11.464,19.5439 11.028,19.1079 11.028,18.5739 C11.028,18.0389 11.464,17.6049 12,17.6049 C12.536,17.6049 12.972,18.0389 12.972,18.5739 C12.972,19.1079 12.536,19.5439 12,19.5439 M12,16.1479 C10.66,16.1479 9.569,17.2359 9.569,18.5739 C9.569,19.9119 10.66,20.9999 12,20.9999 C13.341,20.9999 14.432,19.9119 14.432,18.5739 C14.432,17.2359 13.341,16.1479 12,16.1479"/>
</svg>