<svg xmlns="http://www.w3.org/2000/svg" width="24" height="24" viewBox="0 0 24 24">
    <path fill="currentColor" fill-rule="nonzero" d="M10.056 4.5c1.178 0 2.136.967 2.136 2.156v10.687c0 1.19-.958 2.156-2.136 2.156h-5.92A2.148 2.148 0 0 1 2 17.343V6.656C2 5.467 2.958 4.5 4.136 4.5h5.92zm0 1.268h-5.92a.884.884 0 0 0-.88.888v10.687c0 .49.395.888.88.888h5.92a.884.884 0 0 0 .879-.888V6.656a.884.884 0 0 0-.88-.888zm6.99 6.205c1.178 0 2.136.967 2.136 2.157v1.656a2.148 2.148 0 0 1-2.136 2.156h-1.641a2.148 2.148 0 0 1-2.136-2.156V14.13c0-1.19.958-2.157 2.136-2.157h1.64zm0 1.268h-1.641a.885.885 0 0 0-.88.889v1.656c0 .489.395.888.88.888h1.64c.486 0 .88-.399.88-.888V14.13a.885.885 0 0 0-.88-.889zm2.818-8.182A2.15 2.15 0 0 1 22 7.216v1.656a2.15 2.15 0 0 1-2.137 2.157h-4.46a2.148 2.148 0 0 1-2.135-2.157V7.216c0-1.189.958-2.157 2.136-2.157h4.459zm0 1.27h-4.46a.885.885 0 0 0-.88.887v1.656c0 .49.396.89.88.89h4.46c.485 0 .88-.4.88-.89V7.216a.885.885 0 0 0-.88-.888z"/>
</svg>
