<?xml version="1.0" encoding="UTF-8"?>
<svg width="24px" height="24px" viewBox="0 0 24 24" version="1.1" xmlns="http://www.w3.org/2000/svg" xmlns:xlink="http://www.w3.org/1999/xlink">
    <!-- Generator: Sketch 55.1 (78136) - https://sketchapp.com -->
    <g id="attach" stroke="none" stroke-width="1" fill="none" fill-rule="evenodd">
        <path d="M9.18,19.9996 C8.247,19.9996 7.325,19.7276 6.56,19.2126 C4.459,17.7986 3.86,14.8546 5.253,12.7846 L9.317,6.7446 C9.555,6.3906 10.034,6.2966 10.388,6.5346 C10.742,6.7726 10.836,7.2526 10.598,7.6056 L6.534,13.6466 C5.609,15.0226 6.015,16.9846 7.422,17.9326 C8.087,18.3786 8.935,18.5516 9.746,18.4056 C10.574,18.2576 11.277,17.8076 11.726,17.1396 L17.619,8.3796 C17.901,7.9596 18.011,7.4666 17.929,6.9906 C17.848,6.5216 17.587,6.1186 17.193,5.8536 C16.347,5.2846 15.151,5.5056 14.59,6.3416 L9.37,14.1006 C9.205,14.3456 9.262,14.6746 9.497,14.8336 C9.732,14.9926 10.062,14.9226 10.227,14.6766 L13.888,9.2346 C14.126,8.8816 14.604,8.7876 14.96,9.0246 C15.314,9.2626 15.407,9.7426 15.17,10.0966 L11.508,15.5386 C10.868,16.4906 9.58,16.7476 8.635,16.1146 C7.694,15.4796 7.449,14.1896 8.089,13.2376 L13.308,5.4806 C14.336,3.9496 16.509,3.5346 18.055,4.5726 C18.802,5.0756 19.297,5.8406 19.45,6.7266 C19.601,7.5976 19.405,8.4906 18.899,9.2416 L13.007,18.0016 C12.323,19.0196 11.261,19.7026 10.019,19.9256 C9.741,19.9766 9.46,19.9996 9.18,19.9996" id="icon-color" fill="currentColor" fill-rule="nonzero"></path>
    </g>
</svg>
