<svg xmlns="http://www.w3.org/2000/svg" width="24" height="24" viewBox="0 0 24 24">
<path id="list" fill="currentColor" d="M8.75,17.5 C8.336,17.5 8,17.164 8,16.75 C8,16.336 8.336,16 8.75,16 L19.25,16 C19.664,16 20,16.336 20,16.75 C20,17.164 19.664,17.5 19.25,17.5 L8.75,17.5 Z M8.75,12.75 C8.336,12.75 8,12.414 8,12 C8,11.586 8.336,11.25 8.75,11.25 L19.25,11.25 C19.664,11.25 20,11.586 20,12 C20,12.414 19.664,12.75 19.25,12.75 L8.75,12.75 Z M8.75,8 C8.336,8 8,7.664 8,7.25 C8,6.836 8.336,6.5 8.75,6.5 L19.25,6.5 C19.664,6.5 20,6.836 20,7.25 C20,7.664 19.664,8 19.25,8 L8.75,8 Z M5,8.25 C5.55228475,8.25 6,7.80228475 6,7.25 C6,6.69771525 5.55228475,6.25 5,6.25 C4.44771525,6.25 4,6.69771525 4,7.25 C4,7.80228475 4.44771525,8.25 5,8.25 Z M5,13 C5.55228475,13 6,12.5522847 6,12 C6,11.4477153 5.55228475,11 5,11 C4.44771525,11 4,11.4477153 4,12 C4,12.5522847 4.44771525,13 5,13 Z M5,17.75 C5.55228475,17.75 6,17.3022847 6,16.75 C6,16.1977153 5.55228475,15.75 5,15.75 C4.44771525,15.75 4,16.1977153 4,16.75 C4,17.3022847 4.44771525,17.75 5,17.75 Z"/></svg>