<svg xmlns="http://www.w3.org/2000/svg" width="24" height="24" viewBox="0 0 24 24">
    <path id="lock" fill="currentColor" d="M12.1123571,3.5 C14.5832857,3.5 16.5945714,5.58344444 16.5945714,8.14383333 L16.5945714,9.71444444 C17.6856429,9.99305556 18.5,11.0073889 18.5,12.2219444 L18.5,17.9103333 C18.5,19.3383333 17.3782857,20.5 15.9984286,20.5 L7.99971429,20.5 C6.62171429,20.5 5.5,19.3383333 5.5,17.9103333 L5.5,12.2219444 C5.5,11.0073889 6.31342857,9.99305556 7.40357143,9.71444444 L7.40357143,8.14383333 C7.40357143,5.58344444 9.41485714,3.5 11.8867143,3.5 Z M15.8927054,11.14 L8.10639067,11.14 C7.49624876,11.14 7,11.6562048 7,12.2894775 L7,17.8414443 C7,18.474717 7.49624876,18.99 8.10639067,18.99 L15.8927054,18.99 C16.5037512,18.99 17,18.474717 17,17.8414443 L17,12.2894775 C17,11.6562048 16.5037512,11.14 15.8927054,11.14 Z M11.9999071,13.1497667 C12.4716214,13.1497667 12.8551214,13.5464333 12.8551214,14.0356556 C12.8551214,14.2491 12.7724786,14.4361 12.6517643,14.5891 L13.1188357,15.9500444 C13.19405,16.1672667 13.16155,16.4071556 13.0334071,16.5941556 C12.9052643,16.7821 12.6981929,16.8935444 12.4771929,16.8935444 L11.5216929,16.8935444 C11.3006929,16.8935444 11.0936214,16.7821 10.9654786,16.5941556 C10.8373357,16.4081 10.8057643,16.1682111 10.8791214,15.9509889 L11.3452643,14.5853222 C11.2254786,14.4332667 11.1446929,14.2472111 11.1446929,14.0356556 C11.1446929,13.5464333 11.5272643,13.1497667 11.9999071,13.1497667 Z M12.1259569,4.91288889 L11.9049526,4.91288889 C10.2205905,4.91288889 8.85,6.36166667 8.85,8.14383333 L8.85,9.63133333 L15.18,9.63133333 L15.18,8.14383333 C15.18,6.36166667 13.810319,4.91288889 12.1259569,4.91288889 Z"/>
</svg>