<svg width="24px" height="24px" viewBox="0 0 24 24" version="1.1" xmlns="http://www.w3.org/2000/svg" xmlns:xlink="http://www.w3.org/1999/xlink">
    <g stroke="none" stroke-width="1" fill="none" fill-rule="evenodd">
        <path d="M18.4847795,7.81720942 L15.9244096,12.0783805 C15.751022,12.3669459 15.4066004,12.5046237 15.0820739,12.4150927 L11.440545,11.41046 L11.3483589,11.3786236 C10.934805,11.2054336 10.7585476,10.698145 10.9971783,10.3011099 L11.6418512,9.23022318 L4.15782377,4.73342932 C3.91557549,4.58789841 3.77569773,4.31855211 3.79598576,4.03668003 L3.96444723,1.69615784 C3.99287287,1.30122574 4.32340659,0.996424866 4.71934393,1.00003168 L6.50752177,1.01632119 L6.61924913,1.02567507 C6.91152282,1.07232096 7.15357027,1.28873408 7.22782238,1.58250124 L7.50025418,2.66057415 L7.82639836,2.85769081 L8.88547255,2.58501878 C9.07994982,2.5350279 9.28635146,2.56510936 9.45847034,2.66852882 L10.3156376,3.1835669 L10.4116789,3.25209731 C10.5315924,3.35279663 10.6177973,3.48925768 10.656579,3.64299974 L10.8212719,4.29374117 L11.4669813,4.1316382 L11.5837695,4.1121487 C11.7403225,4.09860209 11.8983003,4.13452656 12.0347012,4.21648452 L13.9583156,5.373566 L14.6023963,4.30101959 C14.8579983,3.87562633 15.4488612,3.81131689 15.7899938,4.17176163 L18.3866261,6.91539435 C18.6180332,7.15990193 18.6581671,7.52864403 18.4847795,7.81720942 Z M16.9056359,7.53354916 L15.3805289,5.92122852 L14.8580711,6.7879113 L14.7997867,6.87161943 C14.5686748,7.15982939 14.1543798,7.240066 13.828917,7.04450822 L11.5290913,5.66282283 L10.4576587,5.92921101 L10.3574463,5.94716653 C9.99091453,5.98755698 9.64168666,5.752379 9.5489974,5.38493185 L9.27909349,4.31046982 L8.95546794,4.11593319 L7.89344185,4.38878713 C7.69792756,4.43904457 7.49040847,4.40836397 7.3178012,4.30368168 L6.45944779,3.78311036 L6.36422477,3.71463798 C6.24533423,3.61415104 6.15985778,3.4784175 6.12123671,3.32561912 L5.91554708,2.51184493 L5.41057284,2.5067434 L5.32556817,3.68583594 L13.0569167,8.32970347 L13.1406408,8.38799013 C13.4289048,8.61911591 13.509144,9.03348372 13.3135168,9.35896938 L12.7915129,10.2280563 L14.9326218,10.818112 L16.9056359,7.53354916 Z M19.7780005,13.0996942 L19.8627971,13.1790171 C20.54934,13.8655469 20.6682331,14.9362778 20.1490202,15.7566937 L18.1187587,18.9647394 C17.4313392,20.050941 16.2354664,20.7093523 14.9500173,20.7093523 L9.232,20.7087198 L9.25487157,20.7562603 C9.48827719,21.2568003 9.27172202,21.8517808 8.77118205,22.0851864 L6.95856647,22.9304229 C6.4580265,23.1638285 5.86304604,22.9472733 5.62964042,22.4467334 L3.09393085,17.0088867 C2.86052523,16.5083467 3.07708041,15.9133662 3.57762038,15.6799606 L5.39023595,14.8347241 C5.89077592,14.6013185 6.48575638,14.8178736 6.719162,15.3184136 L6.798,15.4877198 L7.09623741,15.1157844 C7.80790535,14.2267981 8.88496886,13.7093523 10.0237261,13.7093523 L14.3311112,13.7093523 C15.034019,13.7093523 15.6522342,14.0719646 16.0088988,14.6203313 L16.0584578,14.7043523 L17.3195998,13.2638373 C17.9531415,12.5396418 19.053805,12.4661524 19.7780005,13.0996942 Z M12.4806872,17.7025057 C12.1146117,17.6528432 11.8324578,17.339048 11.8324578,16.9593523 C11.8324578,16.5451387 12.1682442,16.2093523 12.5824578,16.2093523 L14.3311112,16.2093523 C14.6072535,16.2093523 14.8311112,15.9854946 14.8311112,15.7093523 C14.8311112,15.4332099 14.6072535,15.2093523 14.3311112,15.2093523 L10.0237261,15.2093523 C9.34047174,15.2093523 8.69423364,15.5198198 8.26723288,16.0532116 L7.505,17.0037198 L8.533,19.2087198 L14.9500173,19.2093523 C15.7212867,19.2093523 16.4388104,18.8143055 16.8512621,18.1625846 L18.8815236,14.9545388 C19.007515,14.755458 18.9980198,14.5032287 18.8661278,14.3157349 L18.7903578,14.2286591 C18.6896724,14.1405774 18.5366464,14.1507947 18.4485647,14.25148 L15.9464686,17.1116021 C15.6141622,17.4914584 15.1340391,17.7093523 14.6293428,17.7093523 L12.5824578,17.7093523 Z" id="transfer-ownership" fill="currentColor" fill-rule="nonzero"></path>
    </g>
</svg>