<svg xmlns="http://www.w3.org/2000/svg" width="24" height="24" viewBox="0 0 24 24">
<g stroke="none" stroke-width="1" fill="none" fill-rule="evenodd">
<path d="M13,2.49194336 C15.7614237,2.49194336 18,4.73051961 18,7.49194336 L18,19.7499434 L20,19.75 C20.4142136,19.75 20.75,20.0857864 20.75,20.5 C20.75,20.8796958 20.4678461,21.193491 20.1017706,21.2431534 L20,21.25 L4,21.25 C3.58578644,21.25 3.25,20.9142136 3.25,20.5 C3.25,20.1203042 3.53215388,19.806509 3.89822944,19.7568466 L4,19.75 L6,19.7499434 L6,7.49194336 C6,4.73051961 8.23857625,2.49194336 11,2.49194336 L13,2.49194336 Z M13,3.99194336 L11,3.99194336 C9.1314366,3.99194336 7.60487355,5.45622096 7.50517886,7.29990816 L7.5,7.49194336 L7.5,19.746 L16.5,19.746 L16.5,7.49194336 C16.5,5.62337996 15.0357224,4.09681691 13.1920352,3.99712222 L13,3.99194336 Z M14.5329427,9.50213623 C14.9471563,9.50213623 15.2829427,9.83792267 15.2829427,10.2521362 C15.2829427,10.631832 15.0007888,10.9456272 14.6347133,10.9952896 L14.5329427,11.0021362 L9.53294271,11.0021362 C9.11872915,11.0021362 8.78294271,10.6663498 8.78294271,10.2521362 C8.78294271,9.87244046 9.06509659,9.55864527 9.43117215,9.50898285 L9.53294271,9.50213623 L14.5329427,9.50213623 Z M14.5329427,6.75 C14.9471563,6.75 15.2829427,7.08578644 15.2829427,7.5 C15.2829427,7.87969577 15.0007888,8.19349096 14.6347133,8.24315338 L14.5329427,8.25 L9.53294271,8.25 C9.11872915,8.25 8.78294271,7.91421356 8.78294271,7.5 C8.78294271,7.12030423 9.06509659,6.80650904 9.43117215,6.75684662 L9.53294271,6.75 L14.5329427,6.75 Z" id="life" fill="currentColor" fill-rule="nonzero"></path>
</g>
</svg>