<?xml version="1.0" encoding="UTF-8"?>
<svg width="24px" height="24px" viewBox="0 0 24 24" version="1.1" xmlns="http://www.w3.org/2000/svg" xmlns:xlink="http://www.w3.org/1999/xlink">
    <!-- Generator: Sketch 55.1 (78136) - https://sketchapp.com -->
    <g id="move" stroke="none" stroke-width="1" fill="none" fill-rule="evenodd">
        <path d="M13.7383,13.4169 C13.9313,13.4169 14.1183,13.4889 14.2593,13.6189 C14.4053,13.7549 14.4883,13.9429 14.4883,14.1409 L14.4883,16.5299 L19.1843,11.9999 L14.4883,7.4699 L14.4883,9.7019 C14.4883,10.0709 14.1983,10.3819 13.8173,10.4209 C13.4743,10.4559 6.1653,11.2699 4.7393,16.5049 C6.4613,15.2709 9.5603,13.5699 13.7093,13.4179 C13.7193,13.4169 13.7293,13.4169 13.7383,13.4169 M3.7503,18.9999768 C3.6563,18.9999768 3.5613,18.9829 3.4713,18.9479 C3.1843,18.8369 2.9973,18.5669 3.00026443,18.2689 C3.0723,11.3539 10.6583,9.4909 12.9883,9.0819 L12.9883,5.7239 C12.9883,5.4319 13.1713,5.1669 13.4513,5.0559 C13.7303,4.9419 14.0533,5.0059 14.2683,5.2119 L20.7753,11.4879 C20.9163,11.6239 20.9953,11.8079 20.9953,11.999898 C20.9953,12.1919 20.9163,12.3759 20.7753,12.5119 L14.2683,18.7879 C14.0533,18.9949 13.7303,19.0569 13.4513,18.9449 C13.1713,18.8329 12.9883,18.5689 12.9883,18.2759 L12.9883,14.9129 C7.6223,15.4019 4.3323,18.7349 4.2983,18.7709 C4.1533,18.9199 3.9533,18.9999768 3.7503,18.9999768" id="icon-color" fill="currentColor" fill-rule="nonzero"></path>
    </g>
</svg>
