<svg xmlns="http://www.w3.org/2000/svg" width="24" height="24" viewBox="0 0 24 24">
    <path id="overview" fill="currentColor" d="M10.056,19.4993 L4.136,19.4993 C2.958,19.4993 2,18.5333 2,17.3433 L2,6.6563 C2,5.4673 2.958,4.4993 4.136,4.4993 L10.056,4.4993 C11.234,4.4993 12.192,5.4673 12.192,6.6563 L12.192,17.3433 C12.192,18.5333 11.234,19.4993 10.056,19.4993 L10.056,19.4993 Z M19.8641,10.47 L15.4051,10.47 C14.2271,10.47 13.2691,9.503 13.2691,8.313 L13.2691,6.657 C13.2691,5.468 14.2271,4.5 15.4051,4.5 L19.8641,4.5 C21.0421,4.5 22.0011,5.468 22.0011,6.657 L22.0011,8.313 C22.0011,9.503 21.0421,10.47 19.8641,10.47 L19.8641,10.47 Z M17.0461,17.469 L15.4051,17.469 C14.2271,17.469 13.2691,16.502 13.2691,15.313 L13.2691,13.657 C13.2691,12.467 14.2271,11.5 15.4051,11.5 L17.0461,11.5 C18.2241,11.5 19.1821,12.467 19.1821,13.657 L19.1821,15.313 C19.1821,16.502 18.2241,17.469 17.0461,17.469 L17.0461,17.469 Z"/>
</svg>