<svg xmlns="http://www.w3.org/2000/svg" width="24" height="24" viewBox="0 0 24 24">
<g stroke="none" stroke-width="1" fill="none" fill-rule="evenodd">
<path d="M19.237,11.1809033 C19.662,11.1849033 19.996,11.5139033 20,11.9309033 C20.031,15.3929033 17.849,18.4659033 14.572,19.5789033 C13.739,19.8629033 12.88,19.9979033 12.028,19.9979033 C9.577,19.9979033 7.195,18.8639033 5.662,16.8679033 L5.662,16.8679033 L5.668,18.4059033 C5.669,18.8239033 5.332,19.1639033 4.914,19.1649033 L4.914,19.1649033 C4.495,19.1649033 4.157,18.8279033 4.155,18.4119033 L4.155,18.4119033 L4.14399117,15.0609033 C4.142,14.6429033 4.48,14.3019033 4.898,14.3009033 L4.898,14.3009033 L8.246,14.2889033 C8.665,14.2889033 9.004,14.6259033 9.005,15.0429033 C9.007,15.4609033 8.669,15.8009033 8.251,15.8029033 L8.251,15.8029033 L6.749,15.8079033 C8.403,18.0939033 11.413,19.0569033 14.086,18.1469033 C16.744,17.2429033 18.513,14.7509033 18.488,11.9449033 C18.484,11.5269033 18.819,11.1849033 19.237,11.1809033 Z M9.427,4.42610329 C12.64,3.33210329 16.184,4.39310329 18.278,7.05310329 L18.278,7.05310329 L18.271,5.33210329 C18.269,4.91510329 18.607,4.57410329 19.024,4.57310329 L19.024,4.57310329 C19.443,4.57310329 19.781,4.90910329 19.783,5.32610329 L19.783,5.32610329 L19.7970022,8.67710329 C19.798,9.09510329 19.462,9.43510329 19.044,9.43710329 L19.044,9.43710329 L15.695,9.45010329 C15.276,9.45010329 14.938,9.11410329 14.936,8.69710329 C14.934,8.27910329 15.272,7.93910329 15.689,7.93710329 L15.689,7.93710329 L17.041,7.93210329 C15.336,5.82010329 12.496,4.98110329 9.914,5.85810329 C7.28,6.75310329 5.512,9.22210329 5.512,12.0031033 C5.512,12.4201033 5.174,12.7591055 4.756,12.7591055 C4.339,12.7601033 4,12.4211033 4,12.0031033 C4,8.57410329 6.18,5.52910329 9.427,4.42610329 Z" id="reaccuring" fill="currentColor" fill-rule="nonzero"></path>
</g>
</svg>