<?xml version="1.0" encoding="UTF-8"?><svg id="Lag_1" xmlns="http://www.w3.org/2000/svg" viewBox="0 0 240 150"><defs><style>.cls-1{fill:#8e8e8e;}</style></defs><path class="cls-1" d="M113.76,85.21h-12.84l-2.44,7.32h-7.79l13.23-35.55h6.79l13.31,35.55h-7.79l-2.47-7.32Zm-10.86-5.93h8.89l-4.47-13.31-4.42,13.31Z"/><path class="cls-1" d="M142.18,92.53c-.33-.63-.56-1.42-.71-2.37-1.71,1.9-3.93,2.86-6.67,2.86-2.59,0-4.73-.75-6.43-2.25-1.7-1.5-2.55-3.38-2.55-5.66,0-2.8,1.04-4.95,3.11-6.45,2.08-1.5,5.07-2.25,9-2.27h3.25v-1.51c0-1.22-.31-2.2-.94-2.93-.63-.73-1.62-1.1-2.97-1.1-1.19,0-2.12,.29-2.8,.85-.68,.57-1.01,1.35-1.01,2.34h-7.06c0-1.53,.47-2.95,1.42-4.25,.94-1.3,2.28-2.32,4-3.06,1.73-.74,3.66-1.11,5.81-1.11,3.25,0,5.84,.82,7.75,2.45,1.91,1.64,2.87,3.94,2.87,6.9v11.45c.02,2.51,.37,4.4,1.05,5.69v.42h-7.13Zm-5.83-4.91c1.04,0,2-.23,2.88-.7,.88-.46,1.53-1.09,1.95-1.87v-4.54h-2.64c-3.53,0-5.41,1.22-5.64,3.66l-.02,.42c0,.88,.31,1.6,.93,2.17,.62,.57,1.46,.85,2.54,.85Z"/></svg>