<svg xmlns="http://www.w3.org/2000/svg" width="24" height="24" viewBox="0 0 24 24">
<path id="globe-transfer" fill="currentColor" d="M14.2871,19.1572 C14.8511,18.2072 15.2931,17.1452 15.5961,16.0102 C16.7431,15.8502 17.8061,15.6072 18.7451,15.2952 C17.8501,17.1182 16.2451,18.5302 14.2871,19.1572 M5.1361,15.0482 C6.2191,15.4782 7.5211,15.8052 8.9541,16.0052 C9.2761,17.2152 9.7591,18.3382 10.3771,19.3352 C8.0301,18.8152 6.0941,17.1972 5.1361,15.0482 M10.8391,4.5832 C9.8511,5.9332 9.1381,7.5882 8.7681,9.4032 C7.4201,9.2172 6.2381,8.9252 5.3311,8.5462 C6.4141,6.4652 8.4391,4.9572 10.8391,4.5832 M18.7511,8.7182 C17.9141,9.0132 16.9041,9.2442 15.7821,9.4002 C15.4251,7.6462 14.7481,6.0382 13.8101,4.7142 C15.9861,5.2552 17.7871,6.7432 18.7511,8.7182 M10.2521,9.5602 C10.6171,7.8602 11.3091,6.3252 12.2761,5.1312 C13.2411,6.3242 13.9341,7.8592 14.2991,9.5592 C13.6401,9.6092 12.9581,9.6362 12.2631,9.6362 C11.5761,9.6362 10.9041,9.6092 10.2521,9.5602 M4.5851,13.1762 C4.5251,12.7912 4.4841,12.4012 4.4841,12.0002 C4.4841,11.2792 4.5921,10.5852 4.7821,9.9252 C5.7931,10.3412 7.0871,10.6632 8.5441,10.8662 C8.4981,11.3382 8.4711,11.8152 8.4711,12.2972 C8.4711,13.0312 8.5331,13.7532 8.6381,14.4582 C7.0611,14.1982 5.6871,13.7752 4.7091,13.2172 C4.6701,13.1942 4.6271,13.1902 4.5851,13.1762 M12.2751,14.7502 C11.5571,14.7502 10.8531,14.7162 10.1721,14.6542 C10.0341,13.8922 9.9551,13.1032 9.9551,12.2972 C9.9551,11.8692 9.9781,11.4482 10.0181,11.0312 C10.7461,11.0892 11.4981,11.1202 12.2631,11.1202 C13.0371,11.1202 13.7971,11.0872 14.5331,11.0282 C14.5731,11.4452 14.5961,11.8682 14.5961,12.2972 C14.5961,13.1042 14.5171,13.8932 14.3791,14.6562 C13.6971,14.7172 12.9931,14.7502 12.2751,14.7502 M10.5481,16.1672 C11.1151,16.2072 11.6901,16.2332 12.2751,16.2332 C12.8601,16.2332 13.4351,16.2082 14.0031,16.1692 C13.6081,17.4102 13.0231,18.5282 12.2761,19.4542 C11.5271,18.5272 10.9421,17.4092 10.5481,16.1672 M19.3441,13.4742 C18.4121,13.9102 17.2311,14.2422 15.9131,14.4602 C16.0181,13.7542 16.0801,13.0312 16.0801,12.2972 C16.0801,11.8142 16.0531,11.3372 16.0071,10.8652 C17.2301,10.6932 18.3401,10.4372 19.2661,10.1092 C19.4231,10.7152 19.5161,11.3462 19.5161,12.0002 C19.5161,12.5022 19.4641,12.9922 19.3701,13.4682 C19.3611,13.4712 19.3521,13.4702 19.3441,13.4742 M21.0001,12.0002 C21.0001,7.2842 17.3521,3.4122 12.7331,3.0372 C12.6371,3.0122 12.5411,3.0082 12.4431,3.0222 C12.2951,3.0152 12.1491,3.0002 12.0001,3.0002 C11.9901,3.0002 11.9801,3.0012 11.9711,3.0012 L11.9691,3.0012 C7.0211,3.0182 3.0001,7.0472 3.0001,12.0002 C3.0001,16.9482 7.0161,20.9752 11.9591,20.9982 C11.9621,20.9982 11.9661,21.0002 11.9691,21.0002 C11.9711,21.0002 11.9741,20.9992 11.9761,20.9992 C11.9841,20.9992 11.9921,21.0002 12.0001,21.0002 C12.1531,21.0002 12.3031,20.9842 12.4541,20.9762 C12.4971,20.9842 12.5391,21.0002 12.5821,21.0002 C12.6461,21.0002 12.7071,20.9772 12.7681,20.9612 C17.3721,20.5692 21.0001,16.7032 21.0001,12.0002"/></svg>